%TF.GenerationSoftware,KiCad,Pcbnew,(5.1.6)-1*%
%TF.CreationDate,2022-11-21T20:17:56-08:00*%
%TF.ProjectId,MPXH61115AC6U Adapter Vertical,4d505848-3631-4313-9135-414336552041,rev?*%
%TF.SameCoordinates,Original*%
%TF.FileFunction,Legend,Top*%
%TF.FilePolarity,Positive*%
%FSLAX46Y46*%
G04 Gerber Fmt 4.6, Leading zero omitted, Abs format (unit mm)*
G04 Created by KiCad (PCBNEW (5.1.6)-1) date 2022-11-21 20:17:56*
%MOMM*%
%LPD*%
G01*
G04 APERTURE LIST*
%ADD10C,0.076200*%
%ADD11C,0.150000*%
%ADD12C,0.120000*%
G04 APERTURE END LIST*
D10*
X129948214Y-95317128D02*
X129966357Y-95262700D01*
X129966357Y-95171985D01*
X129948214Y-95135700D01*
X129930071Y-95117557D01*
X129893785Y-95099414D01*
X129857500Y-95099414D01*
X129821214Y-95117557D01*
X129803071Y-95135700D01*
X129784928Y-95171985D01*
X129766785Y-95244557D01*
X129748642Y-95280842D01*
X129730500Y-95298985D01*
X129694214Y-95317128D01*
X129657928Y-95317128D01*
X129621642Y-95298985D01*
X129603500Y-95280842D01*
X129585357Y-95244557D01*
X129585357Y-95153842D01*
X129603500Y-95099414D01*
X129966357Y-94936128D02*
X129712357Y-94936128D01*
X129585357Y-94936128D02*
X129603500Y-94954271D01*
X129621642Y-94936128D01*
X129603500Y-94917985D01*
X129585357Y-94936128D01*
X129621642Y-94936128D01*
X129712357Y-94591414D02*
X130020785Y-94591414D01*
X130057071Y-94609557D01*
X130075214Y-94627700D01*
X130093357Y-94663985D01*
X130093357Y-94718414D01*
X130075214Y-94754700D01*
X129948214Y-94591414D02*
X129966357Y-94627700D01*
X129966357Y-94700271D01*
X129948214Y-94736557D01*
X129930071Y-94754700D01*
X129893785Y-94772842D01*
X129784928Y-94772842D01*
X129748642Y-94754700D01*
X129730500Y-94736557D01*
X129712357Y-94700271D01*
X129712357Y-94627700D01*
X129730500Y-94591414D01*
X129654300Y-92650128D02*
X129636157Y-92686414D01*
X129636157Y-92740842D01*
X129654300Y-92795271D01*
X129690585Y-92831557D01*
X129726871Y-92849700D01*
X129799442Y-92867842D01*
X129853871Y-92867842D01*
X129926442Y-92849700D01*
X129962728Y-92831557D01*
X129999014Y-92795271D01*
X130017157Y-92740842D01*
X130017157Y-92704557D01*
X129999014Y-92650128D01*
X129980871Y-92631985D01*
X129853871Y-92631985D01*
X129853871Y-92704557D01*
X129763157Y-92468700D02*
X130017157Y-92468700D01*
X129799442Y-92468700D02*
X129781300Y-92450557D01*
X129763157Y-92414271D01*
X129763157Y-92359842D01*
X129781300Y-92323557D01*
X129817585Y-92305414D01*
X130017157Y-92305414D01*
X130017157Y-91960700D02*
X129636157Y-91960700D01*
X129999014Y-91960700D02*
X130017157Y-91996985D01*
X130017157Y-92069557D01*
X129999014Y-92105842D01*
X129980871Y-92123985D01*
X129944585Y-92142128D01*
X129835728Y-92142128D01*
X129799442Y-92123985D01*
X129781300Y-92105842D01*
X129763157Y-92069557D01*
X129763157Y-91996985D01*
X129781300Y-91960700D01*
X129636157Y-90688885D02*
X130017157Y-90561885D01*
X129636157Y-90434885D01*
X130017157Y-90307885D02*
X129636157Y-90307885D01*
X129636157Y-90217171D01*
X129654300Y-90162742D01*
X129690585Y-90126457D01*
X129726871Y-90108314D01*
X129799442Y-90090171D01*
X129853871Y-90090171D01*
X129926442Y-90108314D01*
X129962728Y-90126457D01*
X129999014Y-90162742D01*
X130017157Y-90217171D01*
X130017157Y-90307885D01*
X130017157Y-89926885D02*
X129636157Y-89926885D01*
X129636157Y-89836171D01*
X129654300Y-89781742D01*
X129690585Y-89745457D01*
X129726871Y-89727314D01*
X129799442Y-89709171D01*
X129853871Y-89709171D01*
X129926442Y-89727314D01*
X129962728Y-89745457D01*
X129999014Y-89781742D01*
X130017157Y-89836171D01*
X130017157Y-89926885D01*
X129908300Y-89564028D02*
X129908300Y-89382600D01*
X130017157Y-89600314D02*
X129636157Y-89473314D01*
X130017157Y-89346314D01*
X130017157Y-88027328D02*
X129636157Y-88027328D01*
X130017157Y-87809614D01*
X129636157Y-87809614D01*
X129618014Y-87356042D02*
X130107871Y-87682614D01*
X129980871Y-87011328D02*
X129999014Y-87029471D01*
X130017157Y-87083900D01*
X130017157Y-87120185D01*
X129999014Y-87174614D01*
X129962728Y-87210900D01*
X129926442Y-87229042D01*
X129853871Y-87247185D01*
X129799442Y-87247185D01*
X129726871Y-87229042D01*
X129690585Y-87210900D01*
X129654300Y-87174614D01*
X129636157Y-87120185D01*
X129636157Y-87083900D01*
X129654300Y-87029471D01*
X129672442Y-87011328D01*
D11*
X133153114Y-88844380D02*
X132581685Y-88844380D01*
X132867400Y-88844380D02*
X132867400Y-87844380D01*
X132772161Y-87987238D01*
X132676923Y-88082476D01*
X132581685Y-88130095D01*
D12*
%TO.C,J1*%
X129886400Y-96376800D02*
X132546400Y-96376800D01*
X129886400Y-88696800D02*
X129886400Y-96376800D01*
X132546400Y-88696800D02*
X132546400Y-96376800D01*
X129886400Y-88696800D02*
X132546400Y-88696800D01*
X129886400Y-87426800D02*
X129886400Y-86096800D01*
X129886400Y-86096800D02*
X131216400Y-86096800D01*
%TO.C,U1*%
X142347400Y-88821000D02*
X142347400Y-87421000D01*
X142347400Y-87421000D02*
X133547400Y-87421000D01*
X133547400Y-87421000D02*
X133547400Y-89321000D01*
X133547400Y-89321000D02*
X132447400Y-89321000D01*
X132447400Y-89321000D02*
X132447400Y-89321000D01*
X142347400Y-94821000D02*
X142347400Y-96221000D01*
X142347400Y-96221000D02*
X133547400Y-96221000D01*
X133547400Y-96221000D02*
X133547400Y-94821000D01*
D11*
X137185495Y-86447380D02*
X137185495Y-87256904D01*
X137233114Y-87352142D01*
X137280733Y-87399761D01*
X137375971Y-87447380D01*
X137566447Y-87447380D01*
X137661685Y-87399761D01*
X137709304Y-87352142D01*
X137756923Y-87256904D01*
X137756923Y-86447380D01*
X138756923Y-87447380D02*
X138185495Y-87447380D01*
X138471209Y-87447380D02*
X138471209Y-86447380D01*
X138375971Y-86590238D01*
X138280733Y-86685476D01*
X138185495Y-86733095D01*
X132280733Y-96083380D02*
X132280733Y-95083380D01*
X132614066Y-95797666D01*
X132947400Y-95083380D01*
X132947400Y-96083380D01*
X133423590Y-96083380D02*
X133423590Y-95083380D01*
X133804542Y-95083380D01*
X133899780Y-95131000D01*
X133947400Y-95178619D01*
X133995019Y-95273857D01*
X133995019Y-95416714D01*
X133947400Y-95511952D01*
X133899780Y-95559571D01*
X133804542Y-95607190D01*
X133423590Y-95607190D01*
X134328352Y-95083380D02*
X134995019Y-96083380D01*
X134995019Y-95083380D02*
X134328352Y-96083380D01*
X135375971Y-96083380D02*
X135375971Y-95083380D01*
X135375971Y-95559571D02*
X135947400Y-95559571D01*
X135947400Y-96083380D02*
X135947400Y-95083380D01*
X136852161Y-95083380D02*
X136661685Y-95083380D01*
X136566447Y-95131000D01*
X136518828Y-95178619D01*
X136423590Y-95321476D01*
X136375971Y-95511952D01*
X136375971Y-95892904D01*
X136423590Y-95988142D01*
X136471209Y-96035761D01*
X136566447Y-96083380D01*
X136756923Y-96083380D01*
X136852161Y-96035761D01*
X136899780Y-95988142D01*
X136947400Y-95892904D01*
X136947400Y-95654809D01*
X136899780Y-95559571D01*
X136852161Y-95511952D01*
X136756923Y-95464333D01*
X136566447Y-95464333D01*
X136471209Y-95511952D01*
X136423590Y-95559571D01*
X136375971Y-95654809D01*
X137899780Y-96083380D02*
X137328352Y-96083380D01*
X137614066Y-96083380D02*
X137614066Y-95083380D01*
X137518828Y-95226238D01*
X137423590Y-95321476D01*
X137328352Y-95369095D01*
X138852161Y-96083380D02*
X138280733Y-96083380D01*
X138566447Y-96083380D02*
X138566447Y-95083380D01*
X138471209Y-95226238D01*
X138375971Y-95321476D01*
X138280733Y-95369095D01*
X139756923Y-95083380D02*
X139280733Y-95083380D01*
X139233114Y-95559571D01*
X139280733Y-95511952D01*
X139375971Y-95464333D01*
X139614066Y-95464333D01*
X139709304Y-95511952D01*
X139756923Y-95559571D01*
X139804542Y-95654809D01*
X139804542Y-95892904D01*
X139756923Y-95988142D01*
X139709304Y-96035761D01*
X139614066Y-96083380D01*
X139375971Y-96083380D01*
X139280733Y-96035761D01*
X139233114Y-95988142D01*
X140185495Y-95797666D02*
X140661685Y-95797666D01*
X140090257Y-96083380D02*
X140423590Y-95083380D01*
X140756923Y-96083380D01*
X141661685Y-95988142D02*
X141614066Y-96035761D01*
X141471209Y-96083380D01*
X141375971Y-96083380D01*
X141233114Y-96035761D01*
X141137876Y-95940523D01*
X141090257Y-95845285D01*
X141042638Y-95654809D01*
X141042638Y-95511952D01*
X141090257Y-95321476D01*
X141137876Y-95226238D01*
X141233114Y-95131000D01*
X141375971Y-95083380D01*
X141471209Y-95083380D01*
X141614066Y-95131000D01*
X141661685Y-95178619D01*
X142518828Y-95083380D02*
X142328352Y-95083380D01*
X142233114Y-95131000D01*
X142185495Y-95178619D01*
X142090257Y-95321476D01*
X142042638Y-95511952D01*
X142042638Y-95892904D01*
X142090257Y-95988142D01*
X142137876Y-96035761D01*
X142233114Y-96083380D01*
X142423590Y-96083380D01*
X142518828Y-96035761D01*
X142566447Y-95988142D01*
X142614066Y-95892904D01*
X142614066Y-95654809D01*
X142566447Y-95559571D01*
X142518828Y-95511952D01*
X142423590Y-95464333D01*
X142233114Y-95464333D01*
X142137876Y-95511952D01*
X142090257Y-95559571D01*
X142042638Y-95654809D01*
X143042638Y-95083380D02*
X143042638Y-95892904D01*
X143090257Y-95988142D01*
X143137876Y-96035761D01*
X143233114Y-96083380D01*
X143423590Y-96083380D01*
X143518828Y-96035761D01*
X143566447Y-95988142D01*
X143614066Y-95892904D01*
X143614066Y-95083380D01*
%TD*%
M02*
