M48
; DRILL file {KiCad (5.1.6)-1} date 12/03/22 16:30:35
; FORMAT={-:-/ absolute / inch / decimal}
; #@! TF.CreationDate,2022-12-03T16:30:35-08:00
; #@! TF.GenerationSoftware,Kicad,Pcbnew,(5.1.6)-1
; #@! TF.FileFunction,Plated,1,2,PTH
FMAT,2
INCH
T1C0.0157
T2C0.0315
T3C0.0354
T4C0.0394
T5C0.0398
T6C0.0433
T7C0.0500
T8C0.0512
T9C0.0827
T10C0.0906
T11C0.1490
%
G90
G05
T1
X4.2715Y-2.9995
X4.324Y-3.008
X4.386Y-3.008
X4.4415Y-3.011
X4.5605Y-2.5665
X4.624Y-3.154
X4.728Y-3.4945
X4.734Y-4.49
X4.746Y-2.92
X4.748Y-2.6105
X4.8015Y-3.1415
X4.807Y-2.744
X4.807Y-2.936
X4.807Y-3.5535
X4.8125Y-2.3065
X4.8165Y-2.2005
X4.8225Y-2.1065
X4.83Y-4.5915
X4.964Y-3.4215
X4.9775Y-3.593
X5.008Y-3.002
X5.008Y-4.6055
X5.022Y-3.3215
X5.1515Y-4.49
X5.191Y-2.6205
X5.2Y-3.6505
X5.221Y-1.5925
X5.279Y-2.3915
X5.319Y-2.999
X5.375Y-3.052
X5.398Y-4.035
X5.429Y-3.5565
X5.4917Y-3.0637
X5.4965Y-3.841
X5.589Y-2.06
X5.6345Y-4.1815
X5.6345Y-4.5365
X5.781Y-4.274
X5.817Y-4.184
X5.886Y-2.827
X5.8905Y-4.1925
X5.8905Y-4.536
X6.07Y-1.9605
X6.099Y-4.5475
X6.1045Y-2.702
X6.1065Y-4.6935
X6.1735Y-3.6285
X6.2715Y-3.6685
X6.394Y-4.1975
X6.396Y-4.551
X6.4065Y-2.71
X6.5365Y-4.422
X6.545Y-3.9925
X6.6185Y-4.5455
X6.6305Y-4.6835
X6.7325Y-2.6205
X6.912Y-4.199
X6.912Y-4.54
X6.9285Y-2.244
X6.964Y-3.5285
X6.9825Y-2.8025
X6.992Y-3.3445
X7.136Y-4.5475
X7.144Y-4.6915
X7.2075Y-3.5585
X7.3215Y-2.71
X7.3545Y-4.5575
X7.3665Y-4.7155
X7.423Y-3.694
X7.423Y-4.199
X7.425Y-4.535
X7.472Y-3.9585
X7.5235Y-3.543
X7.5515Y-3.6325
X7.625Y-2.714
X7.6485Y-4.5475
X7.6525Y-4.7115
X7.87Y-4.5515
X7.892Y-4.7735
X7.943Y-3.759
X7.943Y-4.197
X7.943Y-4.54
X8.028Y-3.559
X8.031Y-3.76
X8.093Y-3.4785
X8.1345Y-4.3705
X8.1345Y-4.426
X8.2145Y-3.3045
X8.2755Y-3.3725
X8.365Y-2.7925
X8.388Y-4.3685
X8.4Y-4.426
X8.5245Y-2.7805
X8.5345Y-3.366
T2
X8.031Y-4.151
X8.031Y-4.551
X7.009Y-4.157
X7.009Y-4.557
X5.8995Y-3.939
X5.9995Y-3.939
X6.0995Y-3.939
X6.1995Y-3.939
X7.775Y-4.151
X7.775Y-4.551
X7.261Y-4.153
X7.261Y-4.553
X7.517Y-4.152
X7.517Y-4.552
X8.066Y-2.065
X8.066Y-2.165
X5.986Y-4.156
X5.986Y-4.556
X6.754Y-4.153
X6.754Y-4.553
X4.5995Y-1.9285
X4.5995Y-2.0285
X4.5995Y-2.1285
X4.5995Y-2.2285
X5.729Y-4.15
X5.729Y-4.55
X5.473Y-4.154
X5.473Y-4.554
X6.493Y-4.153
X6.493Y-4.553
X8.3Y-4.153
X8.3Y-4.553
X6.244Y-4.151
X6.244Y-4.551
T3
X6.754Y-4.675
X6.754Y-4.775
X7.779Y-4.675
X7.779Y-4.775
X5.987Y-4.674
X5.987Y-4.774
X5.473Y-4.6735
X5.473Y-4.7735
X7.266Y-4.674
X7.266Y-4.774
X8.204Y-2.097
X8.304Y-2.097
X7.011Y-4.675
X7.011Y-4.775
X8.296Y-4.673
X8.296Y-4.773
X6.498Y-4.674
X6.498Y-4.774
X7.522Y-4.674
X7.522Y-4.774
X6.241Y-4.674
X6.241Y-4.774
X5.731Y-4.674
X5.731Y-4.774
X8.037Y-4.674
X8.037Y-4.774
T4
X4.382Y-4.775
X4.482Y-4.775
X4.582Y-4.775
X4.682Y-4.775
X4.782Y-4.775
X4.882Y-4.775
X4.982Y-4.775
X5.082Y-4.775
X5.182Y-4.775
X4.75Y-3.3
X4.75Y-3.4
X4.75Y-1.85
X4.75Y-1.95
X4.75Y-2.05
X4.75Y-2.15
X4.75Y-2.25
X4.75Y-2.35
X5.9Y-3.8
X6.0Y-3.8
X6.1Y-3.8
X6.2Y-3.8
X6.3Y-3.8
X6.4Y-3.8
X6.5Y-3.8
X6.6Y-3.8
X6.7Y-3.8
X6.8Y-3.8
X8.1Y-2.3
X8.2Y-2.3
X8.3Y-2.3
T5
X5.698Y-2.719
X5.7452Y-2.5182
T6
X5.1Y-2.638
X5.1Y-3.038
X7.083Y-3.311
X7.213Y-3.311
X7.343Y-3.311
X5.761Y-1.353
X5.761Y-1.753
X5.226Y-2.704
X5.226Y-2.834
X5.226Y-2.964
X7.523Y-3.433
X7.923Y-3.433
X5.101Y-3.15
X5.101Y-3.55
X5.463Y-3.433
X5.863Y-3.433
X5.099Y-1.617
X5.099Y-2.017
X5.981Y-3.433
X6.381Y-3.433
X6.568Y-3.31
X6.698Y-3.31
X6.828Y-3.31
X6.045Y-3.31
X6.175Y-3.31
X6.305Y-3.31
X6.496Y-3.432
X6.896Y-3.432
X5.757Y-1.874
X5.757Y-2.274
X5.101Y-3.662
X5.101Y-4.062
X5.226Y-3.728
X5.226Y-3.858
X5.226Y-3.988
X7.01Y-3.433
X7.41Y-3.433
X7.597Y-3.307
X7.727Y-3.307
X7.857Y-3.307
X5.528Y-3.307
X5.658Y-3.307
X5.788Y-3.307
X5.225Y-3.211
X5.225Y-3.341
X5.225Y-3.471
X5.225Y-2.193
X5.225Y-2.323
X5.225Y-2.453
X5.1Y-2.127
X5.1Y-2.527
X5.226Y-1.687
X5.226Y-1.817
X5.226Y-1.947
T7
X5.886Y-2.827
X6.022Y-2.527
X6.193Y-2.825
X6.329Y-2.525
X6.5Y-2.827
X6.636Y-2.527
X7.417Y-2.821
X7.553Y-2.521
X7.721Y-2.824
X7.857Y-2.524
X8.019Y-1.784
X8.155Y-1.484
X6.804Y-2.825
X6.94Y-2.525
X7.112Y-2.821
X7.248Y-2.521
T8
X4.16Y-3.4977
X4.16Y-3.6946
X4.16Y-3.8914
X4.16Y-4.0883
X4.16Y-4.2851
X4.16Y-4.482
X4.16Y-4.6789
X8.426Y-1.415
X8.426Y-1.665
X4.159Y-3.1007
X4.159Y-3.2976
X8.581Y-1.8943
X8.581Y-2.0911
X8.581Y-2.288
X8.581Y-2.4849
X8.581Y-2.6817
X8.581Y-2.8786
X8.581Y-3.0754
X8.581Y-3.2723
X4.156Y-1.9177
X4.156Y-2.1146
X4.156Y-2.3114
X4.156Y-2.5083
X4.156Y-2.7051
X4.156Y-2.902
X4.159Y-1.5227
X4.159Y-1.7196
X8.58Y-3.4711
X8.58Y-3.668
X8.58Y-3.8649
X8.58Y-4.0617
X8.58Y-4.2586
X8.58Y-4.4554
X8.58Y-4.6523
T9
X7.107Y-2.0639
X7.6582Y-1.5521
X6.055Y-2.0679
X6.6062Y-1.5561
T10
X7.0283Y-1.808
X7.3432Y-1.808
X7.3629Y-1.4753
X7.3629Y-2.1407
X7.733Y-1.808
X5.9763Y-1.812
X6.2912Y-1.812
X6.3109Y-1.4793
X6.3109Y-2.1447
X6.681Y-1.812
T11
X5.954Y-2.677
X6.261Y-2.675
X6.568Y-2.677
X7.485Y-2.671
X7.789Y-2.674
X8.087Y-1.634
X6.872Y-2.675
X7.18Y-2.671
T0
M30
