M48
; DRILL file {KiCad (5.1.6)-1} date 12/03/22 16:27:16
; FORMAT={-:-/ absolute / inch / decimal}
; #@! TF.CreationDate,2022-12-03T16:27:16-08:00
; #@! TF.GenerationSoftware,Kicad,Pcbnew,(5.1.6)-1
; #@! TF.FileFunction,Plated,1,2,PTH
FMAT,2
INCH
T1C0.0157
T2C0.0315
T3C0.0394
T4C0.0398
T5C0.0400
T6C0.0433
T7C0.1260
%
G90
G05
T1
X3.6235Y-4.474
X3.6535Y-3.608
X3.6575Y-4.1155
X3.71Y-4.7115
X3.718Y-3.541
X3.7245Y-4.575
X3.803Y-3.369
X3.8425Y-4.778
X3.8706Y-4.1904
X3.912Y-3.589
X4.009Y-1.783
X4.1165Y-1.637
X4.201Y-3.769
X4.2735Y-4.6995
X4.3565Y-4.1135
X4.432Y-4.916
X4.532Y-4.703
X4.5695Y-4.53
X4.572Y-2.089
X4.61Y-1.757
X4.696Y-4.759
X4.705Y-4.6055
X4.725Y-4.526
X4.757Y-5.125
X4.824Y-4.991
X4.84Y-4.759
X4.889Y-4.703
X5.006Y-4.6035
X5.091Y-1.881
X5.173Y-1.778
X5.3365Y-4.689
X5.421Y-1.792
X5.428Y-5.04
X5.452Y-4.855
X5.473Y-5.264
X5.498Y-4.319
X5.554Y-5.029
X5.63Y-4.689
X5.641Y-2.584
X5.6785Y-1.881
X5.734Y-2.3025
X5.739Y-2.584
X5.774Y-1.768
X5.813Y-3.99
X5.837Y-2.58
X5.938Y-2.58
X5.939Y-4.488
X5.97Y-1.792
X6.047Y-2.579
X6.047Y-4.488
X6.057Y-4.778
X6.078Y-2.923
X6.092Y-5.061
X6.134Y-5.275
X6.203Y-5.152
X6.2038Y-2.977
X6.2445Y-1.9685
X6.2675Y-4.616
X6.268Y-4.6655
X6.274Y-5.379
X6.291Y-3.4295
X6.3425Y-3.484
X6.389Y-3.2325
X6.41Y-2.151
X6.452Y-4.897
X6.452Y-5.145
X6.53Y-3.553
X6.53Y-3.837
X6.5305Y-3.235
X6.54Y-4.18
X6.5565Y-3.427
X6.5595Y-3.484
X6.571Y-2.156
X6.646Y-3.287
X6.7035Y-3.872
X6.7135Y-3.5765
X6.7715Y-3.572
X6.804Y-4.306
X6.815Y-4.713
X6.861Y-5.342
X6.881Y-3.632
X6.8825Y-3.688
X6.9Y-4.898
X6.9Y-5.143
X7.0035Y-3.582
X7.124Y-2.829
X7.198Y-3.696
X7.374Y-4.834
X7.4295Y-4.391
X7.4585Y-3.6145
X7.58Y-4.7115
X7.599Y-5.342
X7.6544Y-3.5671
X7.686Y-4.695
X7.7345Y-3.511
X7.735Y-2.543
X7.8005Y-3.7855
X7.811Y-4.52
X7.869Y-2.793
X7.869Y-3.634
X7.8915Y-4.7115
X7.893Y-2.461
X7.91Y-4.055
X7.942Y-5.185
X8.0Y-4.244
X8.14Y-4.583
X8.16Y-2.789
X8.172Y-5.374
X8.184Y-3.801
T2
X5.8516Y-1.7626
X6.1516Y-1.7626
X5.8336Y-1.9826
X5.8336Y-2.2826
X5.9336Y-1.9826
X5.9336Y-2.2826
X6.0336Y-1.9826
X6.0336Y-2.2826
X6.1336Y-1.9826
X6.1336Y-2.2826
X7.7248Y-1.7769
X7.7248Y-1.8556
X6.3103Y-4.1246
X6.3103Y-4.223
X6.4342Y-1.7955
X6.4342Y-1.9924
X7.0758Y-5.1468
X7.3758Y-5.1468
X7.2858Y-5.2668
X7.3842Y-5.2668
X5.8516Y-1.8806
X6.1516Y-1.8806
X4.2567Y-4.1064
X4.2567Y-4.2048
X4.7398Y-2.6354
X4.7398Y-2.9354
X4.8398Y-2.6354
X4.8398Y-2.9354
X4.9398Y-2.6354
X4.9398Y-2.9354
X5.0398Y-2.6354
X5.0398Y-2.9354
X5.1398Y-2.6354
X5.1398Y-2.9354
X5.2398Y-2.6354
X5.2398Y-2.9354
X5.3398Y-2.6354
X5.3398Y-2.9354
X5.4398Y-2.6354
X5.4398Y-2.9354
X4.2567Y-4.324
X4.2567Y-4.4224
X5.6612Y-4.7708
X5.7596Y-4.7708
X8.0518Y-2.1856
X8.1305Y-1.8903
X4.8832Y-1.6366
X4.9816Y-1.6366
X7.0724Y-5.2668
X7.1708Y-5.2668
X4.525Y-4.98
X4.525Y-5.28
X5.4572Y-1.6406
X5.5556Y-1.6406
X5.7753Y-3.9213
X5.7753Y-4.2213
X4.2664Y-3.8126
X4.2664Y-3.911
X5.8773Y-3.9393
X5.8773Y-4.0393
X5.8773Y-4.1393
X5.8773Y-4.2393
X6.1773Y-3.9393
X6.1773Y-4.0393
X6.1773Y-4.1393
X6.1773Y-4.2393
X7.7736Y-5.2602
X7.872Y-5.2602
X7.997Y-5.2552
X8.0954Y-5.2552
X5.6553Y-3.9213
X5.6553Y-4.2213
X6.3022Y-5.2626
X6.4006Y-5.2626
X7.782Y-5.1352
X8.082Y-5.1352
X6.0352Y-1.6446
X6.1336Y-1.6446
X4.9868Y-5.0074
X5.2868Y-5.0074
X5.6646Y-5.0108
X5.9646Y-5.0108
X4.6996Y-1.7566
X4.9996Y-1.7566
X4.2664Y-3.595
X4.2664Y-3.6934
X6.5463Y-4.1066
X6.5463Y-4.4066
X4.6996Y-1.8746
X4.9996Y-1.8746
X5.1918Y-4.7674
X5.2902Y-4.7674
X6.3106Y-5.1426
X6.6106Y-5.1426
X4.645Y-4.98
X4.645Y-5.28
X4.1407Y-4.0904
X4.1407Y-4.3904
X5.2736Y-1.8766
X5.5736Y-1.8766
X5.2736Y-1.7586
X5.5736Y-1.7586
X3.8792Y-5.2646
X3.9776Y-5.2646
X5.2556Y-1.9786
X5.2556Y-2.2786
X5.3556Y-1.9786
X5.3556Y-2.2786
X5.4556Y-1.9786
X5.4556Y-2.2786
X5.5556Y-1.9786
X5.5556Y-2.2786
X5.8746Y-4.7708
X5.973Y-4.7708
X3.6692Y-4.8996
X3.9692Y-4.8996
X4.9868Y-4.8874
X5.2868Y-4.8874
X5.6646Y-4.8908
X5.9646Y-4.8908
X5.5373Y-3.9393
X5.5373Y-4.0377
X4.6816Y-1.9786
X4.6816Y-2.2786
X4.7816Y-1.9786
X4.7816Y-2.2786
X4.8816Y-1.9786
X4.8816Y-2.2786
X4.9816Y-1.9786
X4.9816Y-2.2786
X3.6608Y-5.2646
X3.7592Y-5.2646
X7.1858Y-2.667
X7.1858Y-2.7654
X6.6483Y-4.1266
X6.6483Y-4.2266
X6.6483Y-4.3266
X6.6483Y-4.4266
X6.9483Y-4.1266
X6.9483Y-4.2266
X6.9483Y-4.3266
X6.9483Y-4.4266
X3.6692Y-5.0196
X3.9692Y-5.0196
X6.6634Y-2.1952
X6.7618Y-2.1952
X3.6692Y-5.1396
X3.9692Y-5.1396
X4.9784Y-4.7674
X5.0768Y-4.7674
X7.7368Y-2.0174
X7.7368Y-2.1158
X6.4283Y-4.1066
X6.4283Y-4.4066
X6.4866Y-2.6676
X6.4866Y-2.766
X4.1464Y-3.575
X4.1464Y-3.875
X6.5206Y-5.2626
X6.619Y-5.2626
T3
X5.9884Y-2.6544
X6.5985Y-3.629
X6.8585Y-3.2725
X6.8585Y-3.7725
X6.9585Y-3.2725
X6.9585Y-3.7725
X7.0585Y-3.2725
X7.0585Y-3.7725
X7.1585Y-3.2725
X7.1585Y-3.7725
X7.2585Y-3.2725
X7.2585Y-3.7725
X7.3585Y-3.2725
X7.3585Y-3.7725
X7.4585Y-3.2725
X7.4585Y-3.7725
X7.5585Y-3.2725
X7.5585Y-3.7725
X3.913Y-3.0
X4.013Y-3.0
X4.113Y-3.0
X4.213Y-3.0
X4.313Y-3.0
X3.913Y-3.1
X4.013Y-3.1
X4.113Y-3.1
X4.213Y-3.1
X4.313Y-3.1
X4.333Y-2.1
X5.489Y-4.409
X5.589Y-4.409
X5.689Y-4.409
X5.789Y-4.409
X5.889Y-4.409
X5.989Y-4.409
X6.089Y-4.409
X6.189Y-4.409
X6.5989Y-3.9304
X6.5989Y-3.8324
X7.189Y-3.909
X7.189Y-4.009
X7.189Y-4.109
X7.189Y-4.209
X7.289Y-3.909
X7.289Y-4.009
X7.289Y-4.109
X7.289Y-4.209
X3.913Y-2.6
X4.013Y-2.6
X4.113Y-2.6
X4.213Y-2.6
X4.313Y-2.6
X5.289Y-2.509
X5.389Y-2.509
X5.489Y-2.509
X5.589Y-2.509
X5.689Y-2.509
X5.789Y-2.509
X5.889Y-2.509
X5.989Y-2.509
X3.913Y-3.2
X4.013Y-3.2
X4.113Y-3.2
X4.213Y-3.2
X4.313Y-3.2
X4.413Y-3.2
X4.513Y-3.2
X4.613Y-3.2
X4.713Y-3.2
X4.813Y-3.2
X4.913Y-3.2
X5.013Y-3.2
X5.113Y-3.2
X5.213Y-3.2
X5.313Y-3.2
X5.413Y-3.2
X5.513Y-3.2
X5.613Y-3.2
X5.713Y-3.2
X5.813Y-3.2
X5.913Y-3.2
X6.013Y-3.2
X6.113Y-3.2
X4.223Y-2.2
X4.323Y-2.2
X4.789Y-4.409
X4.889Y-4.409
X4.989Y-4.409
X5.089Y-4.409
X5.189Y-4.409
X7.189Y-2.509
X7.289Y-2.509
X5.887Y-2.6556
X6.389Y-2.509
X6.489Y-2.509
X6.589Y-2.509
X6.689Y-2.509
X4.513Y-3.4
X4.613Y-3.4
X4.713Y-3.4
X4.813Y-3.4
X4.913Y-3.4
X5.013Y-3.4
X5.113Y-3.4
X5.213Y-3.4
X5.313Y-3.4
X5.413Y-3.4
X5.513Y-3.4
X5.613Y-3.4
X5.713Y-3.4
X5.813Y-3.4
X5.913Y-3.4
X6.013Y-3.4
X6.113Y-3.4
X3.913Y-3.3
X4.013Y-3.3
X4.113Y-3.3
X4.213Y-3.3
X4.313Y-3.3
X4.413Y-3.3
X4.513Y-3.3
X4.613Y-3.3
X4.713Y-3.3
X4.813Y-3.3
X4.913Y-3.3
X5.013Y-3.3
X5.113Y-3.3
X5.213Y-3.3
X5.313Y-3.3
X5.413Y-3.3
X5.513Y-3.3
X5.613Y-3.3
X5.713Y-3.3
X5.813Y-3.3
X5.913Y-3.3
X6.013Y-3.3
X6.113Y-3.3
X4.113Y-2.3
X4.213Y-2.3
X4.313Y-2.3
X7.9222Y-1.7618
X5.6896Y-2.6556
X4.6111Y-2.8788
X4.529Y-2.509
X4.629Y-2.509
X4.729Y-2.509
X4.829Y-2.509
X4.929Y-2.509
X5.029Y-2.509
X5.129Y-2.509
X3.913Y-2.5
X4.013Y-2.5
X4.113Y-2.5
X4.213Y-2.5
X4.313Y-2.5
X4.513Y-3.5
X4.613Y-3.5
X4.713Y-3.5
X4.813Y-3.5
X4.913Y-3.5
X5.013Y-3.5
X5.113Y-3.5
X5.213Y-3.5
X5.313Y-3.5
X5.413Y-3.5
X5.513Y-3.5
X5.613Y-3.5
X5.713Y-3.5
X5.813Y-3.5
X5.913Y-3.5
X6.013Y-3.5
X6.113Y-3.5
X4.355Y-4.855
X4.355Y-5.0519
X5.5896Y-2.6556
X4.6091Y-2.683
X5.791Y-2.6556
X3.913Y-1.9
X4.013Y-1.9
X4.113Y-1.9
X4.213Y-1.9
X4.313Y-1.9
X3.913Y-2.7
X4.013Y-2.7
X4.113Y-2.7
X4.213Y-2.7
X4.313Y-2.7
X4.535Y-4.87
X4.635Y-4.87
X4.513Y-3.6
X4.613Y-3.6
X4.713Y-3.6
X4.813Y-3.6
X4.913Y-3.6
X5.013Y-3.6
X5.113Y-3.6
X5.213Y-3.6
X5.313Y-3.6
X5.413Y-3.6
X5.513Y-3.6
X5.613Y-3.6
X5.713Y-3.6
X5.813Y-3.6
X5.913Y-3.6
X6.013Y-3.6
X6.113Y-3.6
X4.513Y-3.7
X4.613Y-3.7
X4.713Y-3.7
X4.813Y-3.7
X4.913Y-3.7
X5.013Y-3.7
X5.113Y-3.7
X5.213Y-3.7
X5.313Y-3.7
X5.413Y-3.7
X7.9794Y-2.8037
X7.9794Y-2.9128
X7.9794Y-3.0218
X7.9794Y-3.1309
X7.9794Y-3.24
X7.9794Y-3.349
X7.9794Y-3.4581
X7.9794Y-3.5671
X7.9794Y-3.6762
X7.9794Y-3.7852
X7.9794Y-3.8943
X7.9794Y-4.0033
X7.9794Y-4.1124
X8.0912Y-2.8583
X8.0912Y-2.9673
X8.0912Y-3.0764
X8.0912Y-3.1854
X8.0912Y-3.2945
X8.0912Y-3.4035
X8.0912Y-3.5126
X8.0912Y-3.6217
X8.0912Y-3.7307
X8.0912Y-3.8398
X8.0912Y-3.9488
X8.0912Y-4.0579
X3.913Y-2.8
X4.013Y-2.8
X4.113Y-2.8
X4.213Y-2.8
X4.313Y-2.8
X4.613Y-3.9
X4.713Y-3.9
X4.813Y-3.9
X4.913Y-3.9
X5.013Y-3.9
X5.113Y-3.9
X5.213Y-3.9
X5.313Y-3.9
X5.413Y-3.9
X4.513Y-3.8
X4.613Y-3.8
X4.713Y-3.8
X4.813Y-3.8
X4.913Y-3.8
X5.013Y-3.8
X5.113Y-3.8
X5.213Y-3.8
X5.313Y-3.8
X5.413Y-3.8
X4.6091Y-2.783
X6.5989Y-3.731
X3.913Y-2.9
X4.013Y-2.9
X4.113Y-2.9
X4.213Y-2.9
X4.313Y-2.9
X4.613Y-4.0
X4.713Y-4.0
X4.813Y-4.0
X4.913Y-4.0
X5.013Y-4.0
X5.113Y-4.0
X5.213Y-4.0
X5.313Y-4.0
X5.413Y-4.0
X4.013Y-2.4
X4.113Y-2.4
X4.213Y-2.4
X4.313Y-2.4
T4
X7.0216Y-2.2102
X7.4232Y-2.285
T5
X4.0257Y-4.0904
X4.0257Y-4.1904
X4.0257Y-4.2904
X4.0257Y-4.3904
X4.0314Y-3.577
X4.0314Y-3.677
X4.0314Y-3.777
X4.0314Y-3.877
T6
X3.6222Y-4.777
X4.0222Y-4.777
X7.021Y-5.021
X7.421Y-5.021
X6.6016Y-2.6726
X7.0016Y-2.6726
X7.737Y-5.0102
X8.137Y-5.0102
X6.602Y-2.804
X7.002Y-2.804
X6.262Y-4.889
X6.662Y-4.889
X6.2608Y-5.0196
X6.6608Y-5.0196
X7.296Y-2.8
X7.696Y-2.8
X5.611Y-5.135
X6.011Y-5.135
X4.9492Y-5.134
X5.3492Y-5.134
X5.6136Y-5.2676
X6.0136Y-5.2676
X7.736Y-4.881
X8.136Y-4.881
X7.9168Y-1.891
X7.9168Y-2.291
X7.0208Y-4.8918
X7.4208Y-4.8918
X4.95Y-5.267
X5.35Y-5.267
X6.686Y-1.8116
X6.686Y-1.9116
X6.686Y-2.0116
X7.3008Y-2.672
X7.7008Y-2.672
X3.623Y-4.647
X4.023Y-4.647
T7
X7.9912Y-2.5309
X7.9912Y-4.3852
T0
M30
