%TF.GenerationSoftware,KiCad,Pcbnew,(5.1.6)-1*%
%TF.CreationDate,2022-12-03T16:25:56-08:00*%
%TF.ProjectId,DP1600i,44503136-3030-4692-9e6b-696361645f70,rev?*%
%TF.SameCoordinates,Original*%
%TF.FileFunction,Soldermask,Bot*%
%TF.FilePolarity,Negative*%
%FSLAX46Y46*%
G04 Gerber Fmt 4.6, Leading zero omitted, Abs format (unit mm)*
G04 Created by KiCad (PCBNEW (5.1.6)-1) date 2022-12-03 16:25:56*
%MOMM*%
%LPD*%
G01*
G04 APERTURE LIST*
%ADD10O,2.300000X2.300000*%
%ADD11R,2.300000X2.300000*%
%ADD12O,1.800000X1.800000*%
%ADD13R,1.800000X1.800000*%
%ADD14O,1.700000X1.700000*%
%ADD15C,1.700000*%
%ADD16C,4.100000*%
%ADD17R,1.700000X1.700000*%
%ADD18C,1.900000*%
%ADD19C,1.660000*%
%ADD20C,1.800000*%
%ADD21C,1.878000*%
%ADD22R,1.878000X1.878000*%
%ADD23O,2.100000X2.005000*%
%ADD24R,2.100000X2.005000*%
%ADD25O,3.600000X3.600000*%
%ADD26C,2.100000*%
G04 APERTURE END LIST*
D10*
%TO.C,D18*%
X185318400Y-71120000D03*
D11*
X195478400Y-71120000D03*
%TD*%
D10*
%TO.C,D12*%
X167690800Y-71221600D03*
D11*
X177850800Y-71221600D03*
%TD*%
D10*
%TO.C,D16*%
X178333400Y-127533400D03*
D11*
X188493400Y-127533400D03*
%TD*%
D10*
%TO.C,D10*%
X152679400Y-130429000D03*
D11*
X142519400Y-130429000D03*
%TD*%
D10*
%TO.C,D8*%
X196494400Y-123977400D03*
D11*
X206654400Y-123977400D03*
%TD*%
D10*
%TO.C,D6*%
X92024200Y-118033800D03*
D11*
X102184200Y-118033800D03*
%TD*%
D10*
%TO.C,D4*%
X159054800Y-124180600D03*
D11*
X169214800Y-124180600D03*
%TD*%
D10*
%TO.C,D2*%
X135890000Y-133781800D03*
D11*
X125730000Y-133781800D03*
%TD*%
D12*
%TO.C,J31*%
X109550200Y-60960000D03*
X107010200Y-60960000D03*
X104470200Y-60960000D03*
D13*
X101930200Y-60960000D03*
%TD*%
D12*
%TO.C,J30*%
X109550200Y-58420000D03*
X107010200Y-58420000D03*
D13*
X104470200Y-58420000D03*
%TD*%
D12*
%TO.C,J29*%
X109804200Y-55880000D03*
D13*
X107264200Y-55880000D03*
%TD*%
%TO.C,J28*%
X110058200Y-53340000D03*
%TD*%
D12*
%TO.C,J27*%
X137490200Y-101600000D03*
X134950200Y-101600000D03*
X132410200Y-101600000D03*
X129870200Y-101600000D03*
X127330200Y-101600000D03*
X124790200Y-101600000D03*
X122250200Y-101600000D03*
X119710200Y-101600000D03*
D13*
X117170200Y-101600000D03*
%TD*%
D12*
%TO.C,J26*%
X137490200Y-99060000D03*
X134950200Y-99060000D03*
X132410200Y-99060000D03*
X129870200Y-99060000D03*
X127330200Y-99060000D03*
X124790200Y-99060000D03*
X122250200Y-99060000D03*
X119710200Y-99060000D03*
D13*
X117170200Y-99060000D03*
%TD*%
D12*
%TO.C,J25*%
X137490200Y-96520000D03*
X134950200Y-96520000D03*
X132410200Y-96520000D03*
X129870200Y-96520000D03*
X127330200Y-96520000D03*
X124790200Y-96520000D03*
X122250200Y-96520000D03*
X119710200Y-96520000D03*
X117170200Y-96520000D03*
D13*
X114630200Y-96520000D03*
%TD*%
D12*
%TO.C,J24*%
X137490200Y-93980000D03*
X134950200Y-93980000D03*
X132410200Y-93980000D03*
X129870200Y-93980000D03*
X127330200Y-93980000D03*
X124790200Y-93980000D03*
X122250200Y-93980000D03*
X119710200Y-93980000D03*
X117170200Y-93980000D03*
D13*
X114630200Y-93980000D03*
%TD*%
D12*
%TO.C,J23*%
X155270200Y-91440000D03*
X152730200Y-91440000D03*
X150190200Y-91440000D03*
X147650200Y-91440000D03*
X145110200Y-91440000D03*
X142570200Y-91440000D03*
X140030200Y-91440000D03*
X137490200Y-91440000D03*
X134950200Y-91440000D03*
X132410200Y-91440000D03*
X129870200Y-91440000D03*
X127330200Y-91440000D03*
X124790200Y-91440000D03*
X122250200Y-91440000D03*
X119710200Y-91440000D03*
X117170200Y-91440000D03*
D13*
X114630200Y-91440000D03*
%TD*%
D12*
%TO.C,J22*%
X155270200Y-88900000D03*
X152730200Y-88900000D03*
X150190200Y-88900000D03*
X147650200Y-88900000D03*
X145110200Y-88900000D03*
X142570200Y-88900000D03*
X140030200Y-88900000D03*
X137490200Y-88900000D03*
X134950200Y-88900000D03*
X132410200Y-88900000D03*
X129870200Y-88900000D03*
X127330200Y-88900000D03*
X124790200Y-88900000D03*
X122250200Y-88900000D03*
X119710200Y-88900000D03*
X117170200Y-88900000D03*
D13*
X114630200Y-88900000D03*
%TD*%
D12*
%TO.C,J21*%
X155270200Y-86360000D03*
X152730200Y-86360000D03*
X150190200Y-86360000D03*
X147650200Y-86360000D03*
X145110200Y-86360000D03*
X142570200Y-86360000D03*
X140030200Y-86360000D03*
X137490200Y-86360000D03*
X134950200Y-86360000D03*
X132410200Y-86360000D03*
X129870200Y-86360000D03*
X127330200Y-86360000D03*
X124790200Y-86360000D03*
X122250200Y-86360000D03*
X119710200Y-86360000D03*
X117170200Y-86360000D03*
D13*
X114630200Y-86360000D03*
%TD*%
D12*
%TO.C,J20*%
X155270200Y-83820000D03*
X152730200Y-83820000D03*
X150190200Y-83820000D03*
X147650200Y-83820000D03*
X145110200Y-83820000D03*
X142570200Y-83820000D03*
X140030200Y-83820000D03*
X137490200Y-83820000D03*
X134950200Y-83820000D03*
X132410200Y-83820000D03*
X129870200Y-83820000D03*
X127330200Y-83820000D03*
X124790200Y-83820000D03*
X122250200Y-83820000D03*
X119710200Y-83820000D03*
X117170200Y-83820000D03*
X114630200Y-83820000D03*
X112090200Y-83820000D03*
X109550200Y-83820000D03*
X107010200Y-83820000D03*
X104470200Y-83820000D03*
X101930200Y-83820000D03*
D13*
X99390200Y-83820000D03*
%TD*%
D12*
%TO.C,J19*%
X155270200Y-81280000D03*
X152730200Y-81280000D03*
X150190200Y-81280000D03*
X147650200Y-81280000D03*
X145110200Y-81280000D03*
X142570200Y-81280000D03*
X140030200Y-81280000D03*
X137490200Y-81280000D03*
X134950200Y-81280000D03*
X132410200Y-81280000D03*
X129870200Y-81280000D03*
X127330200Y-81280000D03*
X124790200Y-81280000D03*
X122250200Y-81280000D03*
X119710200Y-81280000D03*
X117170200Y-81280000D03*
X114630200Y-81280000D03*
X112090200Y-81280000D03*
X109550200Y-81280000D03*
X107010200Y-81280000D03*
X104470200Y-81280000D03*
X101930200Y-81280000D03*
D13*
X99390200Y-81280000D03*
%TD*%
D12*
%TO.C,J18*%
X109550200Y-78740000D03*
X107010200Y-78740000D03*
X104470200Y-78740000D03*
X101930200Y-78740000D03*
D13*
X99390200Y-78740000D03*
%TD*%
D12*
%TO.C,J17*%
X109550200Y-76200000D03*
X107010200Y-76200000D03*
X104470200Y-76200000D03*
X101930200Y-76200000D03*
D13*
X99390200Y-76200000D03*
%TD*%
D12*
%TO.C,J16*%
X109550200Y-73660000D03*
X107010200Y-73660000D03*
X104470200Y-73660000D03*
X101930200Y-73660000D03*
D13*
X99390200Y-73660000D03*
%TD*%
D12*
%TO.C,J15*%
X109550200Y-71120000D03*
X107010200Y-71120000D03*
X104470200Y-71120000D03*
X101930200Y-71120000D03*
D13*
X99390200Y-71120000D03*
%TD*%
D12*
%TO.C,J14*%
X109550200Y-68580000D03*
X107010200Y-68580000D03*
X104470200Y-68580000D03*
X101930200Y-68580000D03*
D13*
X99390200Y-68580000D03*
%TD*%
D12*
%TO.C,J13*%
X109550200Y-66040000D03*
X107010200Y-66040000D03*
X104470200Y-66040000D03*
X101930200Y-66040000D03*
D13*
X99390200Y-66040000D03*
%TD*%
D12*
%TO.C,J12*%
X109550200Y-63500000D03*
X107010200Y-63500000D03*
X104470200Y-63500000D03*
X101930200Y-63500000D03*
D13*
X99390200Y-63500000D03*
%TD*%
D12*
%TO.C,J11*%
X109550200Y-48260000D03*
X107010200Y-48260000D03*
X104470200Y-48260000D03*
X101930200Y-48260000D03*
D13*
X99390200Y-48260000D03*
%TD*%
D14*
%TO.C,R5*%
X105318560Y-90805000D03*
D15*
X105318560Y-98425000D03*
%TD*%
D12*
%TO.C,J4*%
X152120600Y-63728600D03*
X149580600Y-63728600D03*
X147040600Y-63728600D03*
X144500600Y-63728600D03*
X141960600Y-63728600D03*
X139420600Y-63728600D03*
X136880600Y-63728600D03*
D13*
X134340600Y-63728600D03*
%TD*%
D16*
%TO.C,J1*%
X202976760Y-64284960D03*
X202976760Y-111384960D03*
D15*
X205516760Y-72599960D03*
X205516760Y-75369960D03*
X205516760Y-78139960D03*
X205516760Y-80909960D03*
X205516760Y-83679960D03*
X205516760Y-86449960D03*
X205516760Y-89219960D03*
X205516760Y-91989960D03*
X205516760Y-94759960D03*
X205516760Y-97529960D03*
X205516760Y-100299960D03*
X205516760Y-103069960D03*
X202676760Y-71214960D03*
X202676760Y-73984960D03*
X202676760Y-76754960D03*
X202676760Y-79524960D03*
X202676760Y-82294960D03*
X202676760Y-85064960D03*
X202676760Y-87834960D03*
X202676760Y-90604960D03*
X202676760Y-93374960D03*
X202676760Y-96144960D03*
X202676760Y-98914960D03*
X202676760Y-101684960D03*
D17*
X202676760Y-104454960D03*
%TD*%
D18*
%TO.C,RV1*%
X206515720Y-48014240D03*
X204515720Y-55514240D03*
%TD*%
D19*
%TO.C,F1*%
X188549280Y-58039000D03*
X178349280Y-56139000D03*
%TD*%
D10*
%TO.C,D13*%
X201086720Y-58191400D03*
D11*
X201086720Y-48031400D03*
%TD*%
D12*
%TO.C,J9*%
X157200600Y-111988600D03*
X154660600Y-111988600D03*
X152120600Y-111988600D03*
X149580600Y-111988600D03*
X147040600Y-111988600D03*
X144500600Y-111988600D03*
X141960600Y-111988600D03*
D13*
X139420600Y-111988600D03*
%TD*%
D12*
%TO.C,J8*%
X131800600Y-111988600D03*
X129260600Y-111988600D03*
X126720600Y-111988600D03*
X124180600Y-111988600D03*
D13*
X121640600Y-111988600D03*
%TD*%
D12*
%TO.C,J7*%
X185140600Y-106908600D03*
X182600600Y-106908600D03*
X185140600Y-104368600D03*
X182600600Y-104368600D03*
X185140600Y-101828600D03*
X182600600Y-101828600D03*
X185140600Y-99288600D03*
D13*
X182600600Y-99288600D03*
%TD*%
D12*
%TO.C,J6*%
X185140600Y-63728600D03*
D13*
X182600600Y-63728600D03*
%TD*%
D12*
%TO.C,J5*%
X169900600Y-63728600D03*
X167360600Y-63728600D03*
X164820600Y-63728600D03*
D13*
X162280600Y-63728600D03*
%TD*%
D12*
%TO.C,J3*%
X130276600Y-63728600D03*
X127736600Y-63728600D03*
X125196600Y-63728600D03*
X122656600Y-63728600D03*
X120116600Y-63728600D03*
X117576600Y-63728600D03*
D13*
X115036600Y-63728600D03*
%TD*%
D12*
%TO.C,U10*%
X189445900Y-95821500D03*
X184365900Y-95821500D03*
D20*
X191985900Y-95821500D03*
D12*
X186905900Y-95821500D03*
X181825900Y-95821500D03*
X174205900Y-95821500D03*
X179285900Y-95821500D03*
X176745900Y-95821500D03*
X174205900Y-83121500D03*
X176745900Y-83121500D03*
X179285900Y-83121500D03*
X181825900Y-83121500D03*
X184365900Y-83121500D03*
X186905900Y-83121500D03*
X189445900Y-83121500D03*
D13*
X191985900Y-83121500D03*
%TD*%
D20*
%TO.C,J98*%
X167612060Y-99832160D03*
%TD*%
%TO.C,J97*%
X167612060Y-97342960D03*
%TD*%
%TO.C,J96*%
X167612060Y-94767400D03*
%TD*%
%TO.C,J95*%
X167601900Y-92176600D03*
%TD*%
%TO.C,J94*%
X117121940Y-73121520D03*
%TD*%
%TO.C,J93*%
X117071140Y-70688200D03*
%TD*%
%TO.C,J92*%
X117071140Y-68148200D03*
%TD*%
%TO.C,J91*%
X152105360Y-67421760D03*
%TD*%
%TO.C,J90*%
X149529800Y-67452240D03*
%TD*%
%TO.C,J89*%
X147091400Y-67452240D03*
%TD*%
%TO.C,J88*%
X144515840Y-67452240D03*
%TD*%
%TO.C,J87*%
X141975840Y-67452240D03*
%TD*%
%TO.C,J2*%
X201223880Y-44749720D03*
%TD*%
D21*
%TO.C,U2*%
X102252780Y-103896160D03*
X102252780Y-106436160D03*
X102252780Y-108976160D03*
D22*
X102252780Y-111516160D03*
%TD*%
D21*
%TO.C,U1*%
X102397560Y-90855800D03*
X102397560Y-93395800D03*
X102397560Y-95935800D03*
D22*
X102397560Y-98475800D03*
%TD*%
D14*
%TO.C,U9*%
X138170920Y-74559160D03*
X120390920Y-66939160D03*
X135630920Y-74559160D03*
X122930920Y-66939160D03*
X133090920Y-74559160D03*
X125470920Y-66939160D03*
X130550920Y-74559160D03*
X128010920Y-66939160D03*
X128010920Y-74559160D03*
X130550920Y-66939160D03*
X125470920Y-74559160D03*
X133090920Y-66939160D03*
X122930920Y-74559160D03*
X135630920Y-66939160D03*
X120390920Y-74559160D03*
D17*
X138170920Y-66939160D03*
%TD*%
D14*
%TO.C,U8*%
X118912640Y-50256440D03*
X126532640Y-57876440D03*
X121452640Y-50256440D03*
X123992640Y-57876440D03*
X123992640Y-50256440D03*
X121452640Y-57876440D03*
X126532640Y-50256440D03*
D17*
X118912640Y-57876440D03*
%TD*%
D14*
%TO.C,U7*%
X149283420Y-107678220D03*
X156903420Y-100058220D03*
X149283420Y-105138220D03*
X156903420Y-102598220D03*
X149283420Y-102598220D03*
X156903420Y-105138220D03*
X149283420Y-100058220D03*
D17*
X156903420Y-107678220D03*
%TD*%
D14*
%TO.C,U6*%
X133492240Y-50256440D03*
X141112240Y-57876440D03*
X136032240Y-50256440D03*
X138572240Y-57876440D03*
X138572240Y-50256440D03*
X136032240Y-57876440D03*
X141112240Y-50256440D03*
D17*
X133492240Y-57876440D03*
%TD*%
D14*
%TO.C,U5*%
X168866820Y-112435640D03*
X176486820Y-104815640D03*
X168866820Y-109895640D03*
X176486820Y-107355640D03*
X168866820Y-107355640D03*
X176486820Y-109895640D03*
X168866820Y-104815640D03*
D17*
X176486820Y-112435640D03*
%TD*%
D14*
%TO.C,U4*%
X148173440Y-50358040D03*
X155793440Y-57978040D03*
X150713440Y-50358040D03*
X153253440Y-57978040D03*
X153253440Y-50358040D03*
X150713440Y-57978040D03*
X155793440Y-50358040D03*
D17*
X148173440Y-57978040D03*
%TD*%
D23*
%TO.C,U3*%
X169824400Y-51094640D03*
X169824400Y-48554640D03*
D24*
X169824400Y-46014640D03*
D25*
X186484400Y-48554640D03*
%TD*%
D14*
%TO.C,R24*%
X126989840Y-47614840D03*
D15*
X119369840Y-47614840D03*
%TD*%
D14*
%TO.C,R23*%
X119369840Y-44617640D03*
D15*
X126989840Y-44617640D03*
%TD*%
D14*
%TO.C,R22*%
X146692620Y-99601020D03*
D15*
X146692620Y-107221020D03*
%TD*%
D14*
%TO.C,R21*%
X141569440Y-47665640D03*
D15*
X133949440Y-47665640D03*
%TD*%
D14*
%TO.C,R20*%
X143644620Y-107221020D03*
D15*
X143644620Y-99601020D03*
%TD*%
D14*
%TO.C,R19*%
X133949440Y-44668440D03*
D15*
X141569440Y-44668440D03*
%TD*%
D14*
%TO.C,R18*%
X166276020Y-104307640D03*
D15*
X166276020Y-111927640D03*
%TD*%
D14*
%TO.C,R17*%
X156250640Y-47767240D03*
D15*
X148630640Y-47767240D03*
%TD*%
D14*
%TO.C,R16*%
X163278820Y-111927640D03*
D15*
X163278820Y-104307640D03*
%TD*%
D14*
%TO.C,R15*%
X148630640Y-44770040D03*
D15*
X156250640Y-44770040D03*
%TD*%
D14*
%TO.C,R14*%
X187345320Y-130728720D03*
D15*
X179725320Y-130728720D03*
%TD*%
D14*
%TO.C,R13*%
X114935000Y-134112000D03*
D15*
X114935000Y-126492000D03*
%TD*%
D14*
%TO.C,R12*%
X117983000Y-134112000D03*
D15*
X117983000Y-126492000D03*
%TD*%
D14*
%TO.C,R11*%
X143880840Y-124226320D03*
D15*
X151500840Y-124226320D03*
%TD*%
D14*
%TO.C,R10*%
X126664720Y-124139960D03*
D15*
X134284720Y-124139960D03*
%TD*%
D14*
%TO.C,R9*%
X167909240Y-130622040D03*
D15*
X160289240Y-130622040D03*
%TD*%
D14*
%TO.C,R8*%
X151500840Y-127274320D03*
D15*
X143880840Y-127274320D03*
%TD*%
D14*
%TO.C,R7*%
X134284720Y-127187960D03*
D15*
X126664720Y-127187960D03*
%TD*%
D14*
%TO.C,R6*%
X105173780Y-103896160D03*
D15*
X105173780Y-111516160D03*
%TD*%
D14*
%TO.C,R4*%
X100817680Y-130545840D03*
D15*
X93197680Y-130545840D03*
%TD*%
D14*
%TO.C,R3*%
X205282800Y-130434080D03*
D15*
X197662800Y-130434080D03*
%TD*%
D14*
%TO.C,R2*%
X93197680Y-127497840D03*
D15*
X100817680Y-127497840D03*
%TD*%
D14*
%TO.C,R1*%
X100817680Y-124449840D03*
D15*
X93197680Y-124449840D03*
%TD*%
D12*
%TO.C,JP1*%
X117729000Y-123698000D03*
D13*
X115189000Y-123698000D03*
%TD*%
D10*
%TO.C,D17*%
X195600320Y-67868800D03*
D11*
X185440320Y-67868800D03*
%TD*%
D10*
%TO.C,D15*%
X188488320Y-124251720D03*
D11*
X178328320Y-124251720D03*
%TD*%
D10*
%TO.C,D11*%
X177840640Y-67884040D03*
D11*
X167680640Y-67884040D03*
%TD*%
D10*
%TO.C,D9*%
X142585440Y-133797040D03*
D11*
X152745440Y-133797040D03*
%TD*%
D10*
%TO.C,D7*%
X206679800Y-127259080D03*
D11*
X196519800Y-127259080D03*
%TD*%
D10*
%TO.C,D5*%
X102163880Y-121335800D03*
D11*
X92003880Y-121335800D03*
%TD*%
D10*
%TO.C,D3*%
X169184320Y-127497840D03*
D11*
X159024320Y-127497840D03*
%TD*%
D10*
%TO.C,D1*%
X125709680Y-130403600D03*
D11*
X135869680Y-130403600D03*
%TD*%
D15*
%TO.C,C30*%
X124032640Y-41569640D03*
X126532640Y-41569640D03*
%TD*%
%TO.C,C29*%
X140647420Y-102558220D03*
X140647420Y-100058220D03*
%TD*%
%TO.C,C28*%
X138612240Y-41671240D03*
X141112240Y-41671240D03*
%TD*%
%TO.C,C27*%
X160281620Y-107264840D03*
X160281620Y-104764840D03*
%TD*%
%TO.C,C26*%
X153293440Y-41772840D03*
X155793440Y-41772840D03*
%TD*%
%TO.C,C25*%
X164759640Y-70257040D03*
X164759640Y-67757040D03*
%TD*%
%TO.C,C24*%
X179638320Y-133776720D03*
X182138320Y-133776720D03*
%TD*%
%TO.C,C23*%
X187559320Y-133776720D03*
X185059320Y-133776720D03*
%TD*%
%TO.C,C22*%
X163428680Y-45606960D03*
D17*
X163428680Y-50606960D03*
%TD*%
D15*
%TO.C,C21*%
X169249720Y-55758080D03*
X171749720Y-55758080D03*
%TD*%
D26*
%TO.C,C20*%
X110617000Y-128317000D03*
X110617000Y-123317000D03*
%TD*%
D15*
%TO.C,C19*%
X196514720Y-53741960D03*
X196514720Y-51241960D03*
%TD*%
%TO.C,C18*%
X196209920Y-45132240D03*
D17*
X196209920Y-47132240D03*
%TD*%
D15*
%TO.C,C17*%
X182519320Y-70241800D03*
X182519320Y-67741800D03*
%TD*%
%TO.C,C16*%
X151714840Y-121178320D03*
X149214840Y-121178320D03*
%TD*%
%TO.C,C15*%
X134371720Y-121091960D03*
X131871720Y-121091960D03*
%TD*%
%TO.C,C14*%
X160075240Y-133670040D03*
X162575240Y-133670040D03*
%TD*%
%TO.C,C13*%
X143793840Y-121178320D03*
X146293840Y-121178320D03*
%TD*%
%TO.C,C12*%
X126450720Y-121091960D03*
X128950720Y-121091960D03*
%TD*%
%TO.C,C11*%
X168123240Y-133670040D03*
X165623240Y-133670040D03*
%TD*%
%TO.C,C10*%
X108120180Y-109828960D03*
X108120180Y-112328960D03*
%TD*%
%TO.C,C9*%
X108366560Y-96839400D03*
X108366560Y-99339400D03*
%TD*%
%TO.C,C8*%
X92983680Y-133720840D03*
X95483680Y-133720840D03*
%TD*%
%TO.C,C7*%
X197448800Y-133609080D03*
X199948800Y-133609080D03*
%TD*%
%TO.C,C6*%
X101031680Y-133720840D03*
X98531680Y-133720840D03*
%TD*%
%TO.C,C5*%
X205623800Y-133482080D03*
X203123800Y-133482080D03*
%TD*%
%TO.C,C2*%
X108120180Y-106802560D03*
X108120180Y-104302560D03*
%TD*%
%TO.C,C1*%
X108366560Y-93813000D03*
X108366560Y-91313000D03*
%TD*%
M02*
