M48
; DRILL file {KiCad (5.1.6)-1} date 09/30/22 16:16:28
; FORMAT={-:-/ absolute / inch / decimal}
; #@! TF.CreationDate,2022-09-30T16:16:28-07:00
; #@! TF.GenerationSoftware,Kicad,Pcbnew,(5.1.6)-1
; #@! TF.FileFunction,Plated,1,2,PTH
FMAT,2
INCH
T1C0.0157
T2C0.0315
T3C0.0394
%
G90
G05
T1
X5.1572Y-3.8516
X5.23Y-3.75
X5.496Y-3.2986
X5.77Y-3.61
X5.93Y-3.51
T2
X5.0268Y-3.344
X5.0268Y-3.744
X5.79Y-3.3387
X5.79Y-3.7387
X5.924Y-3.3386
X5.924Y-3.7386
X5.1587Y-3.3431
X5.1587Y-3.7431
X5.2746Y-3.3824
X5.2746Y-3.4824
X5.2746Y-3.5824
X5.2746Y-3.6824
X5.6746Y-3.3824
X5.6746Y-3.4824
X5.6746Y-3.5824
X5.6746Y-3.6824
X5.2786Y-3.8266
X5.6786Y-3.8266
X5.0688Y-3.8584
X5.0688Y-4.0553
X5.2762Y-3.9582
X5.6762Y-3.9582
X5.886Y-3.8504
X5.886Y-4.0473
X5.0228Y-3.1832
X5.2197Y-3.1832
T3
X5.6247Y-3.1872
X5.92Y-3.1872
T0
M30
