%TF.GenerationSoftware,KiCad,Pcbnew,(5.1.6)-1*%
%TF.CreationDate,2022-09-30T16:18:59-07:00*%
%TF.ProjectId,Single VR Conditioner,53696e67-6c65-4205-9652-20436f6e6469,rev?*%
%TF.SameCoordinates,Original*%
%TF.FileFunction,Legend,Top*%
%TF.FilePolarity,Positive*%
%FSLAX46Y46*%
G04 Gerber Fmt 4.6, Leading zero omitted, Abs format (unit mm)*
G04 Created by KiCad (PCBNEW (5.1.6)-1) date 2022-09-30 16:18:59*
%MOMM*%
%LPD*%
G01*
G04 APERTURE LIST*
%ADD10C,0.127000*%
%ADD11C,0.120000*%
%ADD12C,0.100000*%
%ADD13C,0.150000*%
G04 APERTURE END LIST*
D10*
X132966460Y-103744606D02*
X132670126Y-103321273D01*
X132458460Y-103744606D02*
X132458460Y-102855606D01*
X132797126Y-102855606D01*
X132881793Y-102897940D01*
X132924126Y-102940273D01*
X132966460Y-103024940D01*
X132966460Y-103151940D01*
X132924126Y-103236606D01*
X132881793Y-103278940D01*
X132797126Y-103321273D01*
X132458460Y-103321273D01*
X133347460Y-103659940D02*
X133389793Y-103702273D01*
X133347460Y-103744606D01*
X133305126Y-103702273D01*
X133347460Y-103659940D01*
X133347460Y-103744606D01*
X134448126Y-103744606D02*
X134448126Y-102855606D01*
X134448126Y-103278940D02*
X134956126Y-103278940D01*
X134956126Y-103744606D02*
X134956126Y-102855606D01*
X135379460Y-103744606D02*
X135379460Y-103151940D01*
X135379460Y-102855606D02*
X135337126Y-102897940D01*
X135379460Y-102940273D01*
X135421793Y-102897940D01*
X135379460Y-102855606D01*
X135379460Y-102940273D01*
X136141460Y-103702273D02*
X136056793Y-103744606D01*
X135887460Y-103744606D01*
X135802793Y-103702273D01*
X135760460Y-103617606D01*
X135760460Y-103278940D01*
X135802793Y-103194273D01*
X135887460Y-103151940D01*
X136056793Y-103151940D01*
X136141460Y-103194273D01*
X136183793Y-103278940D01*
X136183793Y-103363606D01*
X135760460Y-103448273D01*
X136564793Y-103744606D02*
X136564793Y-102855606D01*
X136564793Y-103194273D02*
X136649460Y-103151940D01*
X136818793Y-103151940D01*
X136903460Y-103194273D01*
X136945793Y-103236606D01*
X136988126Y-103321273D01*
X136988126Y-103575273D01*
X136945793Y-103659940D01*
X136903460Y-103702273D01*
X136818793Y-103744606D01*
X136649460Y-103744606D01*
X136564793Y-103702273D01*
X137707793Y-103702273D02*
X137623126Y-103744606D01*
X137453793Y-103744606D01*
X137369126Y-103702273D01*
X137326793Y-103617606D01*
X137326793Y-103278940D01*
X137369126Y-103194273D01*
X137453793Y-103151940D01*
X137623126Y-103151940D01*
X137707793Y-103194273D01*
X137750126Y-103278940D01*
X137750126Y-103363606D01*
X137326793Y-103448273D01*
X138131126Y-103744606D02*
X138131126Y-103151940D01*
X138131126Y-103321273D02*
X138173460Y-103236606D01*
X138215793Y-103194273D01*
X138300460Y-103151940D01*
X138385126Y-103151940D01*
X138554460Y-103151940D02*
X138893126Y-103151940D01*
X138681460Y-102855606D02*
X138681460Y-103617606D01*
X138723793Y-103702273D01*
X138808460Y-103744606D01*
X138893126Y-103744606D01*
X139909126Y-103744606D02*
X140078460Y-103744606D01*
X140163126Y-103702273D01*
X140205460Y-103659940D01*
X140290126Y-103532940D01*
X140332460Y-103363606D01*
X140332460Y-103024940D01*
X140290126Y-102940273D01*
X140247793Y-102897940D01*
X140163126Y-102855606D01*
X139993793Y-102855606D01*
X139909126Y-102897940D01*
X139866793Y-102940273D01*
X139824460Y-103024940D01*
X139824460Y-103236606D01*
X139866793Y-103321273D01*
X139909126Y-103363606D01*
X139993793Y-103405940D01*
X140163126Y-103405940D01*
X140247793Y-103363606D01*
X140290126Y-103321273D01*
X140332460Y-103236606D01*
X141348460Y-102813273D02*
X140586460Y-103956273D01*
X141602460Y-102940273D02*
X141644793Y-102897940D01*
X141729460Y-102855606D01*
X141941126Y-102855606D01*
X142025793Y-102897940D01*
X142068126Y-102940273D01*
X142110460Y-103024940D01*
X142110460Y-103109606D01*
X142068126Y-103236606D01*
X141560126Y-103744606D01*
X142110460Y-103744606D01*
X142449126Y-102940273D02*
X142491460Y-102897940D01*
X142576126Y-102855606D01*
X142787793Y-102855606D01*
X142872460Y-102897940D01*
X142914793Y-102940273D01*
X142957126Y-103024940D01*
X142957126Y-103109606D01*
X142914793Y-103236606D01*
X142406793Y-103744606D01*
X142957126Y-103744606D01*
X143973126Y-102813273D02*
X143211126Y-103956273D01*
X144227126Y-102940273D02*
X144269460Y-102897940D01*
X144354126Y-102855606D01*
X144565793Y-102855606D01*
X144650460Y-102897940D01*
X144692793Y-102940273D01*
X144735126Y-103024940D01*
X144735126Y-103109606D01*
X144692793Y-103236606D01*
X144184793Y-103744606D01*
X144735126Y-103744606D01*
X145073793Y-102940273D02*
X145116126Y-102897940D01*
X145200793Y-102855606D01*
X145412460Y-102855606D01*
X145497126Y-102897940D01*
X145539460Y-102940273D01*
X145581793Y-103024940D01*
X145581793Y-103109606D01*
X145539460Y-103236606D01*
X145031460Y-103744606D01*
X145581793Y-103744606D01*
D11*
%TO.C,U2*%
X138054840Y-84582960D02*
X135819840Y-84582960D01*
X135819840Y-84582960D02*
X135819840Y-94862960D01*
X135819840Y-94862960D02*
X142289840Y-94862960D01*
X142289840Y-94862960D02*
X142289840Y-84582960D01*
X142289840Y-84582960D02*
X140054840Y-84582960D01*
X140054840Y-84582960D02*
G75*
G02*
X138054840Y-84582960I-1000000J0D01*
G01*
D12*
%TO.C,U1*%
X136749760Y-85575360D02*
X135849760Y-85575360D01*
X136749760Y-85175360D02*
X136749760Y-85575360D01*
X137349760Y-85175360D02*
X136749760Y-85175360D01*
X141349760Y-85175360D02*
X140949760Y-85175360D01*
X141349760Y-85575360D02*
X141349760Y-85175360D01*
X141449760Y-94575360D02*
X140949760Y-94575360D01*
X141449760Y-94175360D02*
X141449760Y-94575360D01*
X136749760Y-94475360D02*
X137149760Y-94475360D01*
X136749760Y-94175360D02*
X136749760Y-94475360D01*
D11*
%TO.C,C1*%
X126359120Y-78483280D02*
X133799120Y-78483280D01*
X126359120Y-83223280D02*
X133799120Y-83223280D01*
X126359120Y-78483280D02*
X126359120Y-83223280D01*
X133799120Y-78483280D02*
X133799120Y-83223280D01*
%TO.C,C2*%
X131117520Y-104223360D02*
X126377520Y-104223360D01*
X131117520Y-96783360D02*
X126377520Y-96783360D01*
X126377520Y-96783360D02*
X126377520Y-104223360D01*
X131117520Y-96783360D02*
X131117520Y-104223360D01*
%TO.C,C3*%
X151874400Y-104020160D02*
X147134400Y-104020160D01*
X151874400Y-96580160D02*
X147134400Y-96580160D01*
X147134400Y-96580160D02*
X147134400Y-104020160D01*
X151874400Y-96580160D02*
X151874400Y-104020160D01*
%TO.C,C4*%
X141348000Y-83324880D02*
X141348000Y-78584880D01*
X151888000Y-83324880D02*
X151888000Y-78584880D01*
X151888000Y-78584880D02*
X141348000Y-78584880D01*
X151888000Y-83324880D02*
X141348000Y-83324880D01*
%TO.C,R1*%
X135886440Y-95825640D02*
X135886440Y-98565640D01*
X135886440Y-98565640D02*
X142426440Y-98565640D01*
X142426440Y-98565640D02*
X142426440Y-95825640D01*
X142426440Y-95825640D02*
X135886440Y-95825640D01*
X135116440Y-97195640D02*
X135886440Y-97195640D01*
X143196440Y-97195640D02*
X142426440Y-97195640D01*
%TO.C,R2*%
X131030980Y-94034740D02*
X131030980Y-93264740D01*
X131030980Y-85954740D02*
X131030980Y-86724740D01*
X132400980Y-93264740D02*
X132400980Y-86724740D01*
X129660980Y-93264740D02*
X132400980Y-93264740D01*
X129660980Y-86724740D02*
X129660980Y-93264740D01*
X132400980Y-86724740D02*
X129660980Y-86724740D01*
%TO.C,R3*%
X126310720Y-93287600D02*
X129050720Y-93287600D01*
X129050720Y-93287600D02*
X129050720Y-86747600D01*
X129050720Y-86747600D02*
X126310720Y-86747600D01*
X126310720Y-86747600D02*
X126310720Y-93287600D01*
X127680720Y-94057600D02*
X127680720Y-93287600D01*
X127680720Y-85977600D02*
X127680720Y-86747600D01*
%TO.C,R4*%
X147066000Y-85842980D02*
X147066000Y-86612980D01*
X147066000Y-93922980D02*
X147066000Y-93152980D01*
X145696000Y-86612980D02*
X145696000Y-93152980D01*
X148436000Y-86612980D02*
X145696000Y-86612980D01*
X148436000Y-93152980D02*
X148436000Y-86612980D01*
X145696000Y-93152980D02*
X148436000Y-93152980D01*
%TO.C,R5*%
X150469600Y-85840440D02*
X150469600Y-86610440D01*
X150469600Y-93920440D02*
X150469600Y-93150440D01*
X149099600Y-86610440D02*
X149099600Y-93150440D01*
X151839600Y-86610440D02*
X149099600Y-86610440D01*
X151839600Y-93150440D02*
X151839600Y-86610440D01*
X149099600Y-93150440D02*
X151839600Y-93150440D01*
%TO.C,R6*%
X142365480Y-101908280D02*
X142365480Y-99168280D01*
X142365480Y-99168280D02*
X135825480Y-99168280D01*
X135825480Y-99168280D02*
X135825480Y-101908280D01*
X135825480Y-101908280D02*
X142365480Y-101908280D01*
X143135480Y-100538280D02*
X142365480Y-100538280D01*
X135055480Y-100538280D02*
X135825480Y-100538280D01*
%TO.C,U1*%
D13*
X137017855Y-83003140D02*
X137017855Y-83812664D01*
X137065474Y-83907902D01*
X137113093Y-83955521D01*
X137208331Y-84003140D01*
X137398807Y-84003140D01*
X137494045Y-83955521D01*
X137541664Y-83907902D01*
X137589283Y-83812664D01*
X137589283Y-83003140D01*
X138589283Y-84003140D02*
X138017855Y-84003140D01*
X138303569Y-84003140D02*
X138303569Y-83003140D01*
X138208331Y-83145998D01*
X138113093Y-83241236D01*
X138017855Y-83288855D01*
X139502140Y-92042026D02*
X139502140Y-92518217D01*
X138502140Y-92518217D01*
X139502140Y-91708693D02*
X138502140Y-91708693D01*
X139216426Y-91375360D01*
X138502140Y-91042026D01*
X139502140Y-91042026D01*
X139502140Y-90042026D02*
X139502140Y-90613455D01*
X139502140Y-90327740D02*
X138502140Y-90327740D01*
X138644998Y-90422979D01*
X138740236Y-90518217D01*
X138787855Y-90613455D01*
X138930712Y-89470598D02*
X138883093Y-89565836D01*
X138835474Y-89613455D01*
X138740236Y-89661074D01*
X138692617Y-89661074D01*
X138597379Y-89613455D01*
X138549760Y-89565836D01*
X138502140Y-89470598D01*
X138502140Y-89280121D01*
X138549760Y-89184883D01*
X138597379Y-89137264D01*
X138692617Y-89089645D01*
X138740236Y-89089645D01*
X138835474Y-89137264D01*
X138883093Y-89184883D01*
X138930712Y-89280121D01*
X138930712Y-89470598D01*
X138978331Y-89565836D01*
X139025950Y-89613455D01*
X139121188Y-89661074D01*
X139311664Y-89661074D01*
X139406902Y-89613455D01*
X139454521Y-89565836D01*
X139502140Y-89470598D01*
X139502140Y-89280121D01*
X139454521Y-89184883D01*
X139406902Y-89137264D01*
X139311664Y-89089645D01*
X139121188Y-89089645D01*
X139025950Y-89137264D01*
X138978331Y-89184883D01*
X138930712Y-89280121D01*
X139502140Y-88137264D02*
X139502140Y-88708693D01*
X139502140Y-88422979D02*
X138502140Y-88422979D01*
X138644998Y-88518217D01*
X138740236Y-88613455D01*
X138787855Y-88708693D01*
X138502140Y-87232502D02*
X138502140Y-87708693D01*
X138978331Y-87756312D01*
X138930712Y-87708693D01*
X138883093Y-87613455D01*
X138883093Y-87375360D01*
X138930712Y-87280121D01*
X138978331Y-87232502D01*
X139073569Y-87184883D01*
X139311664Y-87184883D01*
X139406902Y-87232502D01*
X139454521Y-87280121D01*
X139502140Y-87375360D01*
X139502140Y-87613455D01*
X139454521Y-87708693D01*
X139406902Y-87756312D01*
%TO.C,C1*%
X129647653Y-79996302D02*
X129600034Y-80043921D01*
X129457177Y-80091540D01*
X129361939Y-80091540D01*
X129219081Y-80043921D01*
X129123843Y-79948683D01*
X129076224Y-79853445D01*
X129028605Y-79662969D01*
X129028605Y-79520112D01*
X129076224Y-79329636D01*
X129123843Y-79234398D01*
X129219081Y-79139160D01*
X129361939Y-79091540D01*
X129457177Y-79091540D01*
X129600034Y-79139160D01*
X129647653Y-79186779D01*
X130600034Y-80091540D02*
X130028605Y-80091540D01*
X130314320Y-80091540D02*
X130314320Y-79091540D01*
X130219081Y-79234398D01*
X130123843Y-79329636D01*
X130028605Y-79377255D01*
X128095310Y-81575660D02*
X128714358Y-81575660D01*
X128381024Y-81956613D01*
X128523881Y-81956613D01*
X128619120Y-82004232D01*
X128666739Y-82051851D01*
X128714358Y-82147089D01*
X128714358Y-82385184D01*
X128666739Y-82480422D01*
X128619120Y-82528041D01*
X128523881Y-82575660D01*
X128238167Y-82575660D01*
X128142929Y-82528041D01*
X128095310Y-82480422D01*
X129047691Y-81575660D02*
X129666739Y-81575660D01*
X129333405Y-81956613D01*
X129476262Y-81956613D01*
X129571500Y-82004232D01*
X129619120Y-82051851D01*
X129666739Y-82147089D01*
X129666739Y-82385184D01*
X129619120Y-82480422D01*
X129571500Y-82528041D01*
X129476262Y-82575660D01*
X129190548Y-82575660D01*
X129095310Y-82528041D01*
X129047691Y-82480422D01*
X130285786Y-81575660D02*
X130381024Y-81575660D01*
X130476262Y-81623280D01*
X130523881Y-81670899D01*
X130571500Y-81766137D01*
X130619120Y-81956613D01*
X130619120Y-82194708D01*
X130571500Y-82385184D01*
X130523881Y-82480422D01*
X130476262Y-82528041D01*
X130381024Y-82575660D01*
X130285786Y-82575660D01*
X130190548Y-82528041D01*
X130142929Y-82480422D01*
X130095310Y-82385184D01*
X130047691Y-82194708D01*
X130047691Y-81956613D01*
X130095310Y-81766137D01*
X130142929Y-81670899D01*
X130190548Y-81623280D01*
X130285786Y-81575660D01*
X131047691Y-81908994D02*
X131047691Y-82908994D01*
X131047691Y-81956613D02*
X131142929Y-81908994D01*
X131333405Y-81908994D01*
X131428643Y-81956613D01*
X131476262Y-82004232D01*
X131523881Y-82099470D01*
X131523881Y-82385184D01*
X131476262Y-82480422D01*
X131428643Y-82528041D01*
X131333405Y-82575660D01*
X131142929Y-82575660D01*
X131047691Y-82528041D01*
X131809596Y-81908994D02*
X132190548Y-81908994D01*
X131952453Y-82575660D02*
X131952453Y-81718518D01*
X132000072Y-81623280D01*
X132095310Y-81575660D01*
X132190548Y-81575660D01*
%TO.C,C2*%
X127682262Y-100400146D02*
X127729881Y-100447765D01*
X127777500Y-100590622D01*
X127777500Y-100685860D01*
X127729881Y-100828718D01*
X127634643Y-100923956D01*
X127539405Y-100971575D01*
X127348929Y-101019194D01*
X127206072Y-101019194D01*
X127015596Y-100971575D01*
X126920358Y-100923956D01*
X126825120Y-100828718D01*
X126777500Y-100685860D01*
X126777500Y-100590622D01*
X126825120Y-100447765D01*
X126872739Y-100400146D01*
X126872739Y-100019194D02*
X126825120Y-99971575D01*
X126777500Y-99876337D01*
X126777500Y-99638241D01*
X126825120Y-99543003D01*
X126872739Y-99495384D01*
X126967977Y-99447765D01*
X127063215Y-99447765D01*
X127206072Y-99495384D01*
X127777500Y-100066813D01*
X127777500Y-99447765D01*
X130577862Y-102177956D02*
X130625481Y-102130337D01*
X130673100Y-102177956D01*
X130625481Y-102225575D01*
X130577862Y-102177956D01*
X130673100Y-102177956D01*
X129673100Y-101797003D02*
X129673100Y-101177956D01*
X130054053Y-101511289D01*
X130054053Y-101368432D01*
X130101672Y-101273194D01*
X130149291Y-101225575D01*
X130244529Y-101177956D01*
X130482624Y-101177956D01*
X130577862Y-101225575D01*
X130625481Y-101273194D01*
X130673100Y-101368432D01*
X130673100Y-101654146D01*
X130625481Y-101749384D01*
X130577862Y-101797003D01*
X129673100Y-100844622D02*
X129673100Y-100225575D01*
X130054053Y-100558908D01*
X130054053Y-100416051D01*
X130101672Y-100320813D01*
X130149291Y-100273194D01*
X130244529Y-100225575D01*
X130482624Y-100225575D01*
X130577862Y-100273194D01*
X130625481Y-100320813D01*
X130673100Y-100416051D01*
X130673100Y-100701765D01*
X130625481Y-100797003D01*
X130577862Y-100844622D01*
X130006434Y-99368432D02*
X130673100Y-99368432D01*
X130006434Y-99797003D02*
X130530243Y-99797003D01*
X130625481Y-99749384D01*
X130673100Y-99654146D01*
X130673100Y-99511289D01*
X130625481Y-99416051D01*
X130577862Y-99368432D01*
X130006434Y-99035099D02*
X130006434Y-98654146D01*
X130673100Y-98892241D02*
X129815958Y-98892241D01*
X129720720Y-98844622D01*
X129673100Y-98749384D01*
X129673100Y-98654146D01*
%TO.C,C3*%
X148388342Y-100374746D02*
X148435961Y-100422365D01*
X148483580Y-100565222D01*
X148483580Y-100660460D01*
X148435961Y-100803318D01*
X148340723Y-100898556D01*
X148245485Y-100946175D01*
X148055009Y-100993794D01*
X147912152Y-100993794D01*
X147721676Y-100946175D01*
X147626438Y-100898556D01*
X147531200Y-100803318D01*
X147483580Y-100660460D01*
X147483580Y-100565222D01*
X147531200Y-100422365D01*
X147578819Y-100374746D01*
X147483580Y-100041413D02*
X147483580Y-99422365D01*
X147864533Y-99755699D01*
X147864533Y-99612841D01*
X147912152Y-99517603D01*
X147959771Y-99469984D01*
X148055009Y-99422365D01*
X148293104Y-99422365D01*
X148388342Y-99469984D01*
X148435961Y-99517603D01*
X148483580Y-99612841D01*
X148483580Y-99898556D01*
X148435961Y-99993794D01*
X148388342Y-100041413D01*
X151131542Y-101514445D02*
X151179161Y-101466826D01*
X151226780Y-101514445D01*
X151179161Y-101562064D01*
X151131542Y-101514445D01*
X151226780Y-101514445D01*
X151226780Y-100514445D02*
X151226780Y-101085874D01*
X151226780Y-100800160D02*
X150226780Y-100800160D01*
X150369638Y-100895398D01*
X150464876Y-100990636D01*
X150512495Y-101085874D01*
X150560114Y-99657302D02*
X151226780Y-99657302D01*
X150560114Y-100085874D02*
X151083923Y-100085874D01*
X151179161Y-100038255D01*
X151226780Y-99943017D01*
X151226780Y-99800160D01*
X151179161Y-99704921D01*
X151131542Y-99657302D01*
X150560114Y-99323969D02*
X150560114Y-98943017D01*
X151226780Y-99181112D02*
X150369638Y-99181112D01*
X150274400Y-99133493D01*
X150226780Y-99038255D01*
X150226780Y-98943017D01*
%TO.C,C4*%
X146442133Y-80148702D02*
X146394514Y-80196321D01*
X146251657Y-80243940D01*
X146156419Y-80243940D01*
X146013561Y-80196321D01*
X145918323Y-80101083D01*
X145870704Y-80005845D01*
X145823085Y-79815369D01*
X145823085Y-79672512D01*
X145870704Y-79482036D01*
X145918323Y-79386798D01*
X146013561Y-79291560D01*
X146156419Y-79243940D01*
X146251657Y-79243940D01*
X146394514Y-79291560D01*
X146442133Y-79339179D01*
X147299276Y-79577274D02*
X147299276Y-80243940D01*
X147061180Y-79196321D02*
X146823085Y-79910607D01*
X147442133Y-79910607D01*
X144816723Y-82495662D02*
X144864342Y-82543281D01*
X144816723Y-82590900D01*
X144769104Y-82543281D01*
X144816723Y-82495662D01*
X144816723Y-82590900D01*
X145483390Y-81590900D02*
X145578628Y-81590900D01*
X145673866Y-81638520D01*
X145721485Y-81686139D01*
X145769104Y-81781377D01*
X145816723Y-81971853D01*
X145816723Y-82209948D01*
X145769104Y-82400424D01*
X145721485Y-82495662D01*
X145673866Y-82543281D01*
X145578628Y-82590900D01*
X145483390Y-82590900D01*
X145388152Y-82543281D01*
X145340533Y-82495662D01*
X145292914Y-82400424D01*
X145245295Y-82209948D01*
X145245295Y-81971853D01*
X145292914Y-81781377D01*
X145340533Y-81686139D01*
X145388152Y-81638520D01*
X145483390Y-81590900D01*
X146769104Y-82590900D02*
X146197676Y-82590900D01*
X146483390Y-82590900D02*
X146483390Y-81590900D01*
X146388152Y-81733758D01*
X146292914Y-81828996D01*
X146197676Y-81876615D01*
X147626247Y-81924234D02*
X147626247Y-82590900D01*
X147197676Y-81924234D02*
X147197676Y-82448043D01*
X147245295Y-82543281D01*
X147340533Y-82590900D01*
X147483390Y-82590900D01*
X147578628Y-82543281D01*
X147626247Y-82495662D01*
X147959580Y-81924234D02*
X148340533Y-81924234D01*
X148102438Y-82590900D02*
X148102438Y-81733758D01*
X148150057Y-81638520D01*
X148245295Y-81590900D01*
X148340533Y-81590900D01*
%TO.C,R1*%
X136952693Y-97693740D02*
X136619360Y-97217550D01*
X136381264Y-97693740D02*
X136381264Y-96693740D01*
X136762217Y-96693740D01*
X136857455Y-96741360D01*
X136905074Y-96788979D01*
X136952693Y-96884217D01*
X136952693Y-97027074D01*
X136905074Y-97122312D01*
X136857455Y-97169931D01*
X136762217Y-97217550D01*
X136381264Y-97217550D01*
X137905074Y-97693740D02*
X137333645Y-97693740D01*
X137619360Y-97693740D02*
X137619360Y-96693740D01*
X137524121Y-96836598D01*
X137428883Y-96931836D01*
X137333645Y-96979455D01*
X138635645Y-96642940D02*
X139254693Y-96642940D01*
X138921360Y-97023893D01*
X139064217Y-97023893D01*
X139159455Y-97071512D01*
X139207074Y-97119131D01*
X139254693Y-97214369D01*
X139254693Y-97452464D01*
X139207074Y-97547702D01*
X139159455Y-97595321D01*
X139064217Y-97642940D01*
X138778502Y-97642940D01*
X138683264Y-97595321D01*
X138635645Y-97547702D01*
X139588026Y-96642940D02*
X140207074Y-96642940D01*
X139873740Y-97023893D01*
X140016598Y-97023893D01*
X140111836Y-97071512D01*
X140159455Y-97119131D01*
X140207074Y-97214369D01*
X140207074Y-97452464D01*
X140159455Y-97547702D01*
X140111836Y-97595321D01*
X140016598Y-97642940D01*
X139730883Y-97642940D01*
X139635645Y-97595321D01*
X139588026Y-97547702D01*
X140826121Y-96642940D02*
X140921360Y-96642940D01*
X141016598Y-96690560D01*
X141064217Y-96738179D01*
X141111836Y-96833417D01*
X141159455Y-97023893D01*
X141159455Y-97261988D01*
X141111836Y-97452464D01*
X141064217Y-97547702D01*
X141016598Y-97595321D01*
X140921360Y-97642940D01*
X140826121Y-97642940D01*
X140730883Y-97595321D01*
X140683264Y-97547702D01*
X140635645Y-97452464D01*
X140588026Y-97261988D01*
X140588026Y-97023893D01*
X140635645Y-96833417D01*
X140683264Y-96738179D01*
X140730883Y-96690560D01*
X140826121Y-96642940D01*
X142159455Y-97642940D02*
X141826121Y-97166750D01*
X141588026Y-97642940D02*
X141588026Y-96642940D01*
X141968979Y-96642940D01*
X142064217Y-96690560D01*
X142111836Y-96738179D01*
X142159455Y-96833417D01*
X142159455Y-96976274D01*
X142111836Y-97071512D01*
X142064217Y-97119131D01*
X141968979Y-97166750D01*
X141588026Y-97166750D01*
%TO.C,R2*%
X131483360Y-92066406D02*
X131007170Y-92399740D01*
X131483360Y-92637835D02*
X130483360Y-92637835D01*
X130483360Y-92256882D01*
X130530980Y-92161644D01*
X130578599Y-92114025D01*
X130673837Y-92066406D01*
X130816694Y-92066406D01*
X130911932Y-92114025D01*
X130959551Y-92161644D01*
X131007170Y-92256882D01*
X131007170Y-92637835D01*
X130578599Y-91685454D02*
X130530980Y-91637835D01*
X130483360Y-91542597D01*
X130483360Y-91304501D01*
X130530980Y-91209263D01*
X130578599Y-91161644D01*
X130673837Y-91114025D01*
X130769075Y-91114025D01*
X130911932Y-91161644D01*
X131483360Y-91733073D01*
X131483360Y-91114025D01*
X131483360Y-89415216D02*
X131483360Y-89986644D01*
X131483360Y-89700930D02*
X130483360Y-89700930D01*
X130626218Y-89796168D01*
X130721456Y-89891406D01*
X130769075Y-89986644D01*
X130911932Y-88843787D02*
X130864313Y-88939025D01*
X130816694Y-88986644D01*
X130721456Y-89034263D01*
X130673837Y-89034263D01*
X130578599Y-88986644D01*
X130530980Y-88939025D01*
X130483360Y-88843787D01*
X130483360Y-88653311D01*
X130530980Y-88558073D01*
X130578599Y-88510454D01*
X130673837Y-88462835D01*
X130721456Y-88462835D01*
X130816694Y-88510454D01*
X130864313Y-88558073D01*
X130911932Y-88653311D01*
X130911932Y-88843787D01*
X130959551Y-88939025D01*
X131007170Y-88986644D01*
X131102408Y-89034263D01*
X131292884Y-89034263D01*
X131388122Y-88986644D01*
X131435741Y-88939025D01*
X131483360Y-88843787D01*
X131483360Y-88653311D01*
X131435741Y-88558073D01*
X131388122Y-88510454D01*
X131292884Y-88462835D01*
X131102408Y-88462835D01*
X131007170Y-88510454D01*
X130959551Y-88558073D01*
X130911932Y-88653311D01*
X131483360Y-88034263D02*
X130483360Y-88034263D01*
X131483360Y-87462835D02*
X130911932Y-87891406D01*
X130483360Y-87462835D02*
X131054789Y-88034263D01*
%TO.C,R3*%
X128082300Y-92256906D02*
X127606110Y-92590240D01*
X128082300Y-92828335D02*
X127082300Y-92828335D01*
X127082300Y-92447382D01*
X127129920Y-92352144D01*
X127177539Y-92304525D01*
X127272777Y-92256906D01*
X127415634Y-92256906D01*
X127510872Y-92304525D01*
X127558491Y-92352144D01*
X127606110Y-92447382D01*
X127606110Y-92828335D01*
X127082300Y-91923573D02*
X127082300Y-91304525D01*
X127463253Y-91637859D01*
X127463253Y-91495001D01*
X127510872Y-91399763D01*
X127558491Y-91352144D01*
X127653729Y-91304525D01*
X127891824Y-91304525D01*
X127987062Y-91352144D01*
X128034681Y-91399763D01*
X128082300Y-91495001D01*
X128082300Y-91780716D01*
X128034681Y-91875954D01*
X127987062Y-91923573D01*
X128183900Y-89717120D02*
X128183900Y-90288548D01*
X128183900Y-90002834D02*
X127183900Y-90002834D01*
X127326758Y-90098072D01*
X127421996Y-90193310D01*
X127469615Y-90288548D01*
X128088662Y-89288548D02*
X128136281Y-89240929D01*
X128183900Y-89288548D01*
X128136281Y-89336167D01*
X128088662Y-89288548D01*
X128183900Y-89288548D01*
X128183900Y-88288548D02*
X128183900Y-88859977D01*
X128183900Y-88574262D02*
X127183900Y-88574262D01*
X127326758Y-88669500D01*
X127421996Y-88764739D01*
X127469615Y-88859977D01*
X128183900Y-87859977D02*
X127183900Y-87859977D01*
X127898186Y-87526643D01*
X127183900Y-87193310D01*
X128183900Y-87193310D01*
%TO.C,R4*%
X147518380Y-92134986D02*
X147042190Y-92468320D01*
X147518380Y-92706415D02*
X146518380Y-92706415D01*
X146518380Y-92325462D01*
X146566000Y-92230224D01*
X146613619Y-92182605D01*
X146708857Y-92134986D01*
X146851714Y-92134986D01*
X146946952Y-92182605D01*
X146994571Y-92230224D01*
X147042190Y-92325462D01*
X147042190Y-92706415D01*
X146851714Y-91277843D02*
X147518380Y-91277843D01*
X146470761Y-91515939D02*
X147185047Y-91754034D01*
X147185047Y-91134986D01*
X146851714Y-89664729D02*
X147518380Y-89664729D01*
X146470761Y-89902824D02*
X147185047Y-90140920D01*
X147185047Y-89521872D01*
X147423142Y-89140920D02*
X147470761Y-89093300D01*
X147518380Y-89140920D01*
X147470761Y-89188539D01*
X147423142Y-89140920D01*
X147518380Y-89140920D01*
X146518380Y-88759967D02*
X146518380Y-88093300D01*
X147518380Y-88521872D01*
X147518380Y-87712348D02*
X146518380Y-87712348D01*
X147518380Y-87140920D02*
X146946952Y-87569491D01*
X146518380Y-87140920D02*
X147089809Y-87712348D01*
%TO.C,R5*%
X150871180Y-92155306D02*
X150394990Y-92488640D01*
X150871180Y-92726735D02*
X149871180Y-92726735D01*
X149871180Y-92345782D01*
X149918800Y-92250544D01*
X149966419Y-92202925D01*
X150061657Y-92155306D01*
X150204514Y-92155306D01*
X150299752Y-92202925D01*
X150347371Y-92250544D01*
X150394990Y-92345782D01*
X150394990Y-92726735D01*
X149871180Y-91250544D02*
X149871180Y-91726735D01*
X150347371Y-91774354D01*
X150299752Y-91726735D01*
X150252133Y-91631497D01*
X150252133Y-91393401D01*
X150299752Y-91298163D01*
X150347371Y-91250544D01*
X150442609Y-91202925D01*
X150680704Y-91202925D01*
X150775942Y-91250544D01*
X150823561Y-91298163D01*
X150871180Y-91393401D01*
X150871180Y-91631497D01*
X150823561Y-91726735D01*
X150775942Y-91774354D01*
X149871180Y-89798043D02*
X149871180Y-89178996D01*
X150252133Y-89512329D01*
X150252133Y-89369472D01*
X150299752Y-89274234D01*
X150347371Y-89226615D01*
X150442609Y-89178996D01*
X150680704Y-89178996D01*
X150775942Y-89226615D01*
X150823561Y-89274234D01*
X150871180Y-89369472D01*
X150871180Y-89655186D01*
X150823561Y-89750424D01*
X150775942Y-89798043D01*
X150871180Y-88702805D02*
X150871180Y-88512329D01*
X150823561Y-88417091D01*
X150775942Y-88369472D01*
X150633085Y-88274234D01*
X150442609Y-88226615D01*
X150061657Y-88226615D01*
X149966419Y-88274234D01*
X149918800Y-88321853D01*
X149871180Y-88417091D01*
X149871180Y-88607567D01*
X149918800Y-88702805D01*
X149966419Y-88750424D01*
X150061657Y-88798043D01*
X150299752Y-88798043D01*
X150394990Y-88750424D01*
X150442609Y-88702805D01*
X150490228Y-88607567D01*
X150490228Y-88417091D01*
X150442609Y-88321853D01*
X150394990Y-88274234D01*
X150299752Y-88226615D01*
X150871180Y-87798043D02*
X149871180Y-87798043D01*
X150871180Y-87226615D02*
X150299752Y-87655186D01*
X149871180Y-87226615D02*
X150442609Y-87798043D01*
%TO.C,R6*%
X137155893Y-101041460D02*
X136822560Y-100565270D01*
X136584464Y-101041460D02*
X136584464Y-100041460D01*
X136965417Y-100041460D01*
X137060655Y-100089080D01*
X137108274Y-100136699D01*
X137155893Y-100231937D01*
X137155893Y-100374794D01*
X137108274Y-100470032D01*
X137060655Y-100517651D01*
X136965417Y-100565270D01*
X136584464Y-100565270D01*
X138013036Y-100041460D02*
X137822560Y-100041460D01*
X137727321Y-100089080D01*
X137679702Y-100136699D01*
X137584464Y-100279556D01*
X137536845Y-100470032D01*
X137536845Y-100850984D01*
X137584464Y-100946222D01*
X137632083Y-100993841D01*
X137727321Y-101041460D01*
X137917798Y-101041460D01*
X138013036Y-100993841D01*
X138060655Y-100946222D01*
X138108274Y-100850984D01*
X138108274Y-100612889D01*
X138060655Y-100517651D01*
X138013036Y-100470032D01*
X137917798Y-100422413D01*
X137727321Y-100422413D01*
X137632083Y-100470032D01*
X137584464Y-100517651D01*
X137536845Y-100612889D01*
X140608394Y-100939860D02*
X140036965Y-100939860D01*
X140322680Y-100939860D02*
X140322680Y-99939860D01*
X140227441Y-100082718D01*
X140132203Y-100177956D01*
X140036965Y-100225575D01*
X141036965Y-100939860D02*
X141036965Y-99939860D01*
X141608394Y-100939860D02*
X141179822Y-100368432D01*
X141608394Y-99939860D02*
X141036965Y-100511289D01*
%TD*%
M02*
