%TF.GenerationSoftware,KiCad,Pcbnew,(5.1.6)-1*%
%TF.CreationDate,2022-12-03T16:28:51-08:00*%
%TF.ProjectId,DP1600iAuxBot,44503136-3030-4694-9175-78426f742e6b,rev?*%
%TF.SameCoordinates,Original*%
%TF.FileFunction,Legend,Top*%
%TF.FilePolarity,Positive*%
%FSLAX46Y46*%
G04 Gerber Fmt 4.6, Leading zero omitted, Abs format (unit mm)*
G04 Created by KiCad (PCBNEW (5.1.6)-1) date 2022-12-03 16:28:51*
%MOMM*%
%LPD*%
G01*
G04 APERTURE LIST*
%ADD10C,0.150000*%
%ADD11C,0.177800*%
%ADD12C,0.152400*%
%ADD13C,0.120000*%
G04 APERTURE END LIST*
D10*
X139777742Y-78656985D02*
X139825361Y-78704604D01*
X139872980Y-78847461D01*
X139872980Y-78942700D01*
X139825361Y-79085557D01*
X139730123Y-79180795D01*
X139634885Y-79228414D01*
X139444409Y-79276033D01*
X139301552Y-79276033D01*
X139111076Y-79228414D01*
X139015838Y-79180795D01*
X138920600Y-79085557D01*
X138872980Y-78942700D01*
X138872980Y-78847461D01*
X138920600Y-78704604D01*
X138968219Y-78656985D01*
X139872980Y-78228414D02*
X138872980Y-78228414D01*
X139587266Y-77895080D01*
X138872980Y-77561747D01*
X139872980Y-77561747D01*
X139872980Y-77085557D02*
X138872980Y-77085557D01*
X138872980Y-76704604D01*
X138920600Y-76609366D01*
X138968219Y-76561747D01*
X139063457Y-76514128D01*
X139206314Y-76514128D01*
X139301552Y-76561747D01*
X139349171Y-76609366D01*
X139396790Y-76704604D01*
X139396790Y-77085557D01*
X139349171Y-75323652D02*
X139349171Y-74990319D01*
X139872980Y-74847461D02*
X139872980Y-75323652D01*
X138872980Y-75323652D01*
X138872980Y-74847461D01*
X139206314Y-74418890D02*
X139872980Y-74418890D01*
X139301552Y-74418890D02*
X139253933Y-74371271D01*
X139206314Y-74276033D01*
X139206314Y-74133176D01*
X139253933Y-74037938D01*
X139349171Y-73990319D01*
X139872980Y-73990319D01*
X138825361Y-72799842D02*
X140111076Y-73656985D01*
X139872980Y-72466509D02*
X138872980Y-72466509D01*
X138872980Y-72228414D01*
X138920600Y-72085557D01*
X139015838Y-71990319D01*
X139111076Y-71942700D01*
X139301552Y-71895080D01*
X139444409Y-71895080D01*
X139634885Y-71942700D01*
X139730123Y-71990319D01*
X139825361Y-72085557D01*
X139872980Y-72228414D01*
X139872980Y-72466509D01*
X139872980Y-71466509D02*
X139206314Y-71466509D01*
X138872980Y-71466509D02*
X138920600Y-71514128D01*
X138968219Y-71466509D01*
X138920600Y-71418890D01*
X138872980Y-71466509D01*
X138968219Y-71466509D01*
X139825361Y-71037938D02*
X139872980Y-70942700D01*
X139872980Y-70752223D01*
X139825361Y-70656985D01*
X139730123Y-70609366D01*
X139682504Y-70609366D01*
X139587266Y-70656985D01*
X139539647Y-70752223D01*
X139539647Y-70895080D01*
X139492028Y-70990319D01*
X139396790Y-71037938D01*
X139349171Y-71037938D01*
X139253933Y-70990319D01*
X139206314Y-70895080D01*
X139206314Y-70752223D01*
X139253933Y-70656985D01*
X128137114Y-87187042D02*
X128089495Y-87234661D01*
X127946638Y-87282280D01*
X127851400Y-87282280D01*
X127708542Y-87234661D01*
X127613304Y-87139423D01*
X127565685Y-87044185D01*
X127518066Y-86853709D01*
X127518066Y-86710852D01*
X127565685Y-86520376D01*
X127613304Y-86425138D01*
X127708542Y-86329900D01*
X127851400Y-86282280D01*
X127946638Y-86282280D01*
X128089495Y-86329900D01*
X128137114Y-86377519D01*
X128565685Y-87282280D02*
X128565685Y-86282280D01*
X128899019Y-86996566D01*
X129232352Y-86282280D01*
X129232352Y-87282280D01*
X129708542Y-87282280D02*
X129708542Y-86282280D01*
X130089495Y-86282280D01*
X130184733Y-86329900D01*
X130232352Y-86377519D01*
X130279971Y-86472757D01*
X130279971Y-86615614D01*
X130232352Y-86710852D01*
X130184733Y-86758471D01*
X130089495Y-86806090D01*
X129708542Y-86806090D01*
X131470447Y-86758471D02*
X131803780Y-86758471D01*
X131946638Y-87282280D02*
X131470447Y-87282280D01*
X131470447Y-86282280D01*
X131946638Y-86282280D01*
X132375209Y-86615614D02*
X132375209Y-87282280D01*
X132375209Y-86710852D02*
X132422828Y-86663233D01*
X132518066Y-86615614D01*
X132660923Y-86615614D01*
X132756161Y-86663233D01*
X132803780Y-86758471D01*
X132803780Y-87282280D01*
X133994257Y-86234661D02*
X133137114Y-87520376D01*
X134327590Y-87282280D02*
X134327590Y-86282280D01*
X134565685Y-86282280D01*
X134708542Y-86329900D01*
X134803780Y-86425138D01*
X134851400Y-86520376D01*
X134899019Y-86710852D01*
X134899019Y-86853709D01*
X134851400Y-87044185D01*
X134803780Y-87139423D01*
X134708542Y-87234661D01*
X134565685Y-87282280D01*
X134327590Y-87282280D01*
X135327590Y-87282280D02*
X135327590Y-86615614D01*
X135327590Y-86282280D02*
X135279971Y-86329900D01*
X135327590Y-86377519D01*
X135375209Y-86329900D01*
X135327590Y-86282280D01*
X135327590Y-86377519D01*
X135756161Y-87234661D02*
X135851400Y-87282280D01*
X136041876Y-87282280D01*
X136137114Y-87234661D01*
X136184733Y-87139423D01*
X136184733Y-87091804D01*
X136137114Y-86996566D01*
X136041876Y-86948947D01*
X135899019Y-86948947D01*
X135803780Y-86901328D01*
X135756161Y-86806090D01*
X135756161Y-86758471D01*
X135803780Y-86663233D01*
X135899019Y-86615614D01*
X136041876Y-86615614D01*
X136137114Y-86663233D01*
D11*
X187208885Y-84995657D02*
X187160504Y-85044038D01*
X187015361Y-85092419D01*
X186918600Y-85092419D01*
X186773457Y-85044038D01*
X186676695Y-84947276D01*
X186628314Y-84850514D01*
X186579933Y-84656990D01*
X186579933Y-84511847D01*
X186628314Y-84318323D01*
X186676695Y-84221561D01*
X186773457Y-84124800D01*
X186918600Y-84076419D01*
X187015361Y-84076419D01*
X187160504Y-84124800D01*
X187208885Y-84173180D01*
X187644314Y-85092419D02*
X187644314Y-84076419D01*
X187982980Y-84802133D01*
X188321647Y-84076419D01*
X188321647Y-85092419D01*
X188805457Y-85092419D02*
X188805457Y-84076419D01*
X189192504Y-84076419D01*
X189289266Y-84124800D01*
X189337647Y-84173180D01*
X189386028Y-84269942D01*
X189386028Y-84415085D01*
X189337647Y-84511847D01*
X189289266Y-84560228D01*
X189192504Y-84608609D01*
X188805457Y-84608609D01*
X190595552Y-84560228D02*
X190934219Y-84560228D01*
X191079361Y-85092419D02*
X190595552Y-85092419D01*
X190595552Y-84076419D01*
X191079361Y-84076419D01*
X191514790Y-84415085D02*
X191514790Y-85092419D01*
X191514790Y-84511847D02*
X191563171Y-84463466D01*
X191659933Y-84415085D01*
X191805076Y-84415085D01*
X191901838Y-84463466D01*
X191950219Y-84560228D01*
X191950219Y-85092419D01*
X193159742Y-84028038D02*
X192288885Y-85334323D01*
X193498409Y-85092419D02*
X193498409Y-84076419D01*
X193740314Y-84076419D01*
X193885457Y-84124800D01*
X193982219Y-84221561D01*
X194030600Y-84318323D01*
X194078980Y-84511847D01*
X194078980Y-84656990D01*
X194030600Y-84850514D01*
X193982219Y-84947276D01*
X193885457Y-85044038D01*
X193740314Y-85092419D01*
X193498409Y-85092419D01*
X194514409Y-85092419D02*
X194514409Y-84415085D01*
X194514409Y-84076419D02*
X194466028Y-84124800D01*
X194514409Y-84173180D01*
X194562790Y-84124800D01*
X194514409Y-84076419D01*
X194514409Y-84173180D01*
X194949838Y-85044038D02*
X195046600Y-85092419D01*
X195240123Y-85092419D01*
X195336885Y-85044038D01*
X195385266Y-84947276D01*
X195385266Y-84898895D01*
X195336885Y-84802133D01*
X195240123Y-84753752D01*
X195094980Y-84753752D01*
X194998219Y-84705371D01*
X194949838Y-84608609D01*
X194949838Y-84560228D01*
X194998219Y-84463466D01*
X195094980Y-84415085D01*
X195240123Y-84415085D01*
X195336885Y-84463466D01*
X102953457Y-31448828D02*
X102953457Y-29924828D01*
X103316314Y-29924828D01*
X103534028Y-29997400D01*
X103679171Y-30142542D01*
X103751742Y-30287685D01*
X103824314Y-30577971D01*
X103824314Y-30795685D01*
X103751742Y-31085971D01*
X103679171Y-31231114D01*
X103534028Y-31376257D01*
X103316314Y-31448828D01*
X102953457Y-31448828D01*
X104477457Y-31448828D02*
X104477457Y-29924828D01*
X105058028Y-29924828D01*
X105203171Y-29997400D01*
X105275742Y-30069971D01*
X105348314Y-30215114D01*
X105348314Y-30432828D01*
X105275742Y-30577971D01*
X105203171Y-30650542D01*
X105058028Y-30723114D01*
X104477457Y-30723114D01*
X106799742Y-31448828D02*
X105928885Y-31448828D01*
X106364314Y-31448828D02*
X106364314Y-29924828D01*
X106219171Y-30142542D01*
X106074028Y-30287685D01*
X105928885Y-30360257D01*
X108106028Y-29924828D02*
X107815742Y-29924828D01*
X107670600Y-29997400D01*
X107598028Y-30069971D01*
X107452885Y-30287685D01*
X107380314Y-30577971D01*
X107380314Y-31158542D01*
X107452885Y-31303685D01*
X107525457Y-31376257D01*
X107670600Y-31448828D01*
X107960885Y-31448828D01*
X108106028Y-31376257D01*
X108178600Y-31303685D01*
X108251171Y-31158542D01*
X108251171Y-30795685D01*
X108178600Y-30650542D01*
X108106028Y-30577971D01*
X107960885Y-30505400D01*
X107670600Y-30505400D01*
X107525457Y-30577971D01*
X107452885Y-30650542D01*
X107380314Y-30795685D01*
X109194600Y-29924828D02*
X109339742Y-29924828D01*
X109484885Y-29997400D01*
X109557457Y-30069971D01*
X109630028Y-30215114D01*
X109702600Y-30505400D01*
X109702600Y-30868257D01*
X109630028Y-31158542D01*
X109557457Y-31303685D01*
X109484885Y-31376257D01*
X109339742Y-31448828D01*
X109194600Y-31448828D01*
X109049457Y-31376257D01*
X108976885Y-31303685D01*
X108904314Y-31158542D01*
X108831742Y-30868257D01*
X108831742Y-30505400D01*
X108904314Y-30215114D01*
X108976885Y-30069971D01*
X109049457Y-29997400D01*
X109194600Y-29924828D01*
X110646028Y-29924828D02*
X110791171Y-29924828D01*
X110936314Y-29997400D01*
X111008885Y-30069971D01*
X111081457Y-30215114D01*
X111154028Y-30505400D01*
X111154028Y-30868257D01*
X111081457Y-31158542D01*
X111008885Y-31303685D01*
X110936314Y-31376257D01*
X110791171Y-31448828D01*
X110646028Y-31448828D01*
X110500885Y-31376257D01*
X110428314Y-31303685D01*
X110355742Y-31158542D01*
X110283171Y-30868257D01*
X110283171Y-30505400D01*
X110355742Y-30215114D01*
X110428314Y-30069971D01*
X110500885Y-29997400D01*
X110646028Y-29924828D01*
X111807171Y-31448828D02*
X111807171Y-30432828D01*
X111807171Y-29924828D02*
X111734600Y-29997400D01*
X111807171Y-30069971D01*
X111879742Y-29997400D01*
X111807171Y-29924828D01*
X111807171Y-30069971D01*
X112460314Y-31013400D02*
X113186028Y-31013400D01*
X112315171Y-31448828D02*
X112823171Y-29924828D01*
X113331171Y-31448828D01*
X114492314Y-30432828D02*
X114492314Y-31448828D01*
X113839171Y-30432828D02*
X113839171Y-31231114D01*
X113911742Y-31376257D01*
X114056885Y-31448828D01*
X114274600Y-31448828D01*
X114419742Y-31376257D01*
X114492314Y-31303685D01*
X115072885Y-31448828D02*
X115871171Y-30432828D01*
X115072885Y-30432828D02*
X115871171Y-31448828D01*
X116959742Y-30650542D02*
X117177457Y-30723114D01*
X117250028Y-30795685D01*
X117322600Y-30940828D01*
X117322600Y-31158542D01*
X117250028Y-31303685D01*
X117177457Y-31376257D01*
X117032314Y-31448828D01*
X116451742Y-31448828D01*
X116451742Y-29924828D01*
X116959742Y-29924828D01*
X117104885Y-29997400D01*
X117177457Y-30069971D01*
X117250028Y-30215114D01*
X117250028Y-30360257D01*
X117177457Y-30505400D01*
X117104885Y-30577971D01*
X116959742Y-30650542D01*
X116451742Y-30650542D01*
X118193457Y-31448828D02*
X118048314Y-31376257D01*
X117975742Y-31303685D01*
X117903171Y-31158542D01*
X117903171Y-30723114D01*
X117975742Y-30577971D01*
X118048314Y-30505400D01*
X118193457Y-30432828D01*
X118411171Y-30432828D01*
X118556314Y-30505400D01*
X118628885Y-30577971D01*
X118701457Y-30723114D01*
X118701457Y-31158542D01*
X118628885Y-31303685D01*
X118556314Y-31376257D01*
X118411171Y-31448828D01*
X118193457Y-31448828D01*
X119136885Y-30432828D02*
X119717457Y-30432828D01*
X119354600Y-29924828D02*
X119354600Y-31231114D01*
X119427171Y-31376257D01*
X119572314Y-31448828D01*
X119717457Y-31448828D01*
D10*
X141831019Y-31287980D02*
X141831019Y-30287980D01*
X142211971Y-30287980D01*
X142307209Y-30335600D01*
X142354828Y-30383219D01*
X142402447Y-30478457D01*
X142402447Y-30621314D01*
X142354828Y-30716552D01*
X142307209Y-30764171D01*
X142211971Y-30811790D01*
X141831019Y-30811790D01*
X143402447Y-31192742D02*
X143354828Y-31240361D01*
X143211971Y-31287980D01*
X143116733Y-31287980D01*
X142973876Y-31240361D01*
X142878638Y-31145123D01*
X142831019Y-31049885D01*
X142783400Y-30859409D01*
X142783400Y-30716552D01*
X142831019Y-30526076D01*
X142878638Y-30430838D01*
X142973876Y-30335600D01*
X143116733Y-30287980D01*
X143211971Y-30287980D01*
X143354828Y-30335600D01*
X143402447Y-30383219D01*
X144164352Y-30764171D02*
X144307209Y-30811790D01*
X144354828Y-30859409D01*
X144402447Y-30954647D01*
X144402447Y-31097504D01*
X144354828Y-31192742D01*
X144307209Y-31240361D01*
X144211971Y-31287980D01*
X143831019Y-31287980D01*
X143831019Y-30287980D01*
X144164352Y-30287980D01*
X144259590Y-30335600D01*
X144307209Y-30383219D01*
X144354828Y-30478457D01*
X144354828Y-30573695D01*
X144307209Y-30668933D01*
X144259590Y-30716552D01*
X144164352Y-30764171D01*
X143831019Y-30764171D01*
X146021495Y-31287980D02*
X146021495Y-30287980D01*
X146021495Y-31240361D02*
X145926257Y-31287980D01*
X145735780Y-31287980D01*
X145640542Y-31240361D01*
X145592923Y-31192742D01*
X145545304Y-31097504D01*
X145545304Y-30811790D01*
X145592923Y-30716552D01*
X145640542Y-30668933D01*
X145735780Y-30621314D01*
X145926257Y-30621314D01*
X146021495Y-30668933D01*
X146878638Y-31240361D02*
X146783400Y-31287980D01*
X146592923Y-31287980D01*
X146497685Y-31240361D01*
X146450066Y-31145123D01*
X146450066Y-30764171D01*
X146497685Y-30668933D01*
X146592923Y-30621314D01*
X146783400Y-30621314D01*
X146878638Y-30668933D01*
X146926257Y-30764171D01*
X146926257Y-30859409D01*
X146450066Y-30954647D01*
X147307209Y-31240361D02*
X147402447Y-31287980D01*
X147592923Y-31287980D01*
X147688161Y-31240361D01*
X147735780Y-31145123D01*
X147735780Y-31097504D01*
X147688161Y-31002266D01*
X147592923Y-30954647D01*
X147450066Y-30954647D01*
X147354828Y-30907028D01*
X147307209Y-30811790D01*
X147307209Y-30764171D01*
X147354828Y-30668933D01*
X147450066Y-30621314D01*
X147592923Y-30621314D01*
X147688161Y-30668933D01*
X148164352Y-31287980D02*
X148164352Y-30621314D01*
X148164352Y-30287980D02*
X148116733Y-30335600D01*
X148164352Y-30383219D01*
X148211971Y-30335600D01*
X148164352Y-30287980D01*
X148164352Y-30383219D01*
X149069114Y-30621314D02*
X149069114Y-31430838D01*
X149021495Y-31526076D01*
X148973876Y-31573695D01*
X148878638Y-31621314D01*
X148735780Y-31621314D01*
X148640542Y-31573695D01*
X149069114Y-31240361D02*
X148973876Y-31287980D01*
X148783400Y-31287980D01*
X148688161Y-31240361D01*
X148640542Y-31192742D01*
X148592923Y-31097504D01*
X148592923Y-30811790D01*
X148640542Y-30716552D01*
X148688161Y-30668933D01*
X148783400Y-30621314D01*
X148973876Y-30621314D01*
X149069114Y-30668933D01*
X149545304Y-30621314D02*
X149545304Y-31287980D01*
X149545304Y-30716552D02*
X149592923Y-30668933D01*
X149688161Y-30621314D01*
X149831019Y-30621314D01*
X149926257Y-30668933D01*
X149973876Y-30764171D01*
X149973876Y-31287980D01*
X151211971Y-31287980D02*
X151211971Y-30287980D01*
X151211971Y-30668933D02*
X151307209Y-30621314D01*
X151497685Y-30621314D01*
X151592923Y-30668933D01*
X151640542Y-30716552D01*
X151688161Y-30811790D01*
X151688161Y-31097504D01*
X151640542Y-31192742D01*
X151592923Y-31240361D01*
X151497685Y-31287980D01*
X151307209Y-31287980D01*
X151211971Y-31240361D01*
X152021495Y-30621314D02*
X152259590Y-31287980D01*
X152497685Y-30621314D02*
X152259590Y-31287980D01*
X152164352Y-31526076D01*
X152116733Y-31573695D01*
X152021495Y-31621314D01*
X154211971Y-31287980D02*
X153878638Y-30811790D01*
X153640542Y-31287980D02*
X153640542Y-30287980D01*
X154021495Y-30287980D01*
X154116733Y-30335600D01*
X154164352Y-30383219D01*
X154211971Y-30478457D01*
X154211971Y-30621314D01*
X154164352Y-30716552D01*
X154116733Y-30764171D01*
X154021495Y-30811790D01*
X153640542Y-30811790D01*
X154783400Y-31287980D02*
X154688161Y-31240361D01*
X154640542Y-31192742D01*
X154592923Y-31097504D01*
X154592923Y-30811790D01*
X154640542Y-30716552D01*
X154688161Y-30668933D01*
X154783400Y-30621314D01*
X154926257Y-30621314D01*
X155021495Y-30668933D01*
X155069114Y-30716552D01*
X155116733Y-30811790D01*
X155116733Y-31097504D01*
X155069114Y-31192742D01*
X155021495Y-31240361D01*
X154926257Y-31287980D01*
X154783400Y-31287980D01*
X155545304Y-31287980D02*
X155545304Y-30287980D01*
X155545304Y-30668933D02*
X155640542Y-30621314D01*
X155831019Y-30621314D01*
X155926257Y-30668933D01*
X155973876Y-30716552D01*
X156021495Y-30811790D01*
X156021495Y-31097504D01*
X155973876Y-31192742D01*
X155926257Y-31240361D01*
X155831019Y-31287980D01*
X155640542Y-31287980D01*
X155545304Y-31240361D01*
X156831019Y-31240361D02*
X156735780Y-31287980D01*
X156545304Y-31287980D01*
X156450066Y-31240361D01*
X156402447Y-31145123D01*
X156402447Y-30764171D01*
X156450066Y-30668933D01*
X156545304Y-30621314D01*
X156735780Y-30621314D01*
X156831019Y-30668933D01*
X156878638Y-30764171D01*
X156878638Y-30859409D01*
X156402447Y-30954647D01*
X157307209Y-31287980D02*
X157307209Y-30621314D01*
X157307209Y-30811790D02*
X157354828Y-30716552D01*
X157402447Y-30668933D01*
X157497685Y-30621314D01*
X157592923Y-30621314D01*
X157783400Y-30621314D02*
X158164352Y-30621314D01*
X157926257Y-30287980D02*
X157926257Y-31145123D01*
X157973876Y-31240361D01*
X158069114Y-31287980D01*
X158164352Y-31287980D01*
X159259590Y-31287980D02*
X159259590Y-30287980D01*
X159259590Y-30764171D02*
X159831019Y-30764171D01*
X159831019Y-31287980D02*
X159831019Y-30287980D01*
X160307209Y-31287980D02*
X160307209Y-30621314D01*
X160307209Y-30287980D02*
X160259590Y-30335600D01*
X160307209Y-30383219D01*
X160354828Y-30335600D01*
X160307209Y-30287980D01*
X160307209Y-30383219D01*
X161164352Y-31240361D02*
X161069114Y-31287980D01*
X160878638Y-31287980D01*
X160783400Y-31240361D01*
X160735780Y-31145123D01*
X160735780Y-30764171D01*
X160783400Y-30668933D01*
X160878638Y-30621314D01*
X161069114Y-30621314D01*
X161164352Y-30668933D01*
X161211971Y-30764171D01*
X161211971Y-30859409D01*
X160735780Y-30954647D01*
X161640542Y-31287980D02*
X161640542Y-30287980D01*
X161640542Y-30668933D02*
X161735780Y-30621314D01*
X161926257Y-30621314D01*
X162021495Y-30668933D01*
X162069114Y-30716552D01*
X162116733Y-30811790D01*
X162116733Y-31097504D01*
X162069114Y-31192742D01*
X162021495Y-31240361D01*
X161926257Y-31287980D01*
X161735780Y-31287980D01*
X161640542Y-31240361D01*
X162926257Y-31240361D02*
X162831019Y-31287980D01*
X162640542Y-31287980D01*
X162545304Y-31240361D01*
X162497685Y-31145123D01*
X162497685Y-30764171D01*
X162545304Y-30668933D01*
X162640542Y-30621314D01*
X162831019Y-30621314D01*
X162926257Y-30668933D01*
X162973876Y-30764171D01*
X162973876Y-30859409D01*
X162497685Y-30954647D01*
X163402447Y-31287980D02*
X163402447Y-30621314D01*
X163402447Y-30811790D02*
X163450066Y-30716552D01*
X163497685Y-30668933D01*
X163592923Y-30621314D01*
X163688161Y-30621314D01*
X163878638Y-30621314D02*
X164259590Y-30621314D01*
X164021495Y-30287980D02*
X164021495Y-31145123D01*
X164069114Y-31240361D01*
X164164352Y-31287980D01*
X164259590Y-31287980D01*
X165354828Y-31287980D02*
X165354828Y-30287980D01*
X165592923Y-30287980D01*
X165735780Y-30335600D01*
X165831019Y-30430838D01*
X165878638Y-30526076D01*
X165926257Y-30716552D01*
X165926257Y-30859409D01*
X165878638Y-31049885D01*
X165831019Y-31145123D01*
X165735780Y-31240361D01*
X165592923Y-31287980D01*
X165354828Y-31287980D01*
X166735780Y-31240361D02*
X166640542Y-31287980D01*
X166450066Y-31287980D01*
X166354828Y-31240361D01*
X166307209Y-31145123D01*
X166307209Y-30764171D01*
X166354828Y-30668933D01*
X166450066Y-30621314D01*
X166640542Y-30621314D01*
X166735780Y-30668933D01*
X166783400Y-30764171D01*
X166783400Y-30859409D01*
X166307209Y-30954647D01*
X167640542Y-31240361D02*
X167545304Y-31287980D01*
X167354828Y-31287980D01*
X167259590Y-31240361D01*
X167211971Y-31192742D01*
X167164352Y-31097504D01*
X167164352Y-30811790D01*
X167211971Y-30716552D01*
X167259590Y-30668933D01*
X167354828Y-30621314D01*
X167545304Y-30621314D01*
X167640542Y-30668933D01*
X168450066Y-31240361D02*
X168354828Y-31287980D01*
X168164352Y-31287980D01*
X168069114Y-31240361D01*
X168021495Y-31145123D01*
X168021495Y-30764171D01*
X168069114Y-30668933D01*
X168164352Y-30621314D01*
X168354828Y-30621314D01*
X168450066Y-30668933D01*
X168497685Y-30764171D01*
X168497685Y-30859409D01*
X168021495Y-30954647D01*
X168926257Y-31287980D02*
X168926257Y-30621314D01*
X168926257Y-30716552D02*
X168973876Y-30668933D01*
X169069114Y-30621314D01*
X169211971Y-30621314D01*
X169307209Y-30668933D01*
X169354828Y-30764171D01*
X169354828Y-31287980D01*
X169354828Y-30764171D02*
X169402447Y-30668933D01*
X169497685Y-30621314D01*
X169640542Y-30621314D01*
X169735780Y-30668933D01*
X169783400Y-30764171D01*
X169783400Y-31287980D01*
X170259590Y-31287980D02*
X170259590Y-30287980D01*
X170259590Y-30668933D02*
X170354828Y-30621314D01*
X170545304Y-30621314D01*
X170640542Y-30668933D01*
X170688161Y-30716552D01*
X170735780Y-30811790D01*
X170735780Y-31097504D01*
X170688161Y-31192742D01*
X170640542Y-31240361D01*
X170545304Y-31287980D01*
X170354828Y-31287980D01*
X170259590Y-31240361D01*
X171545304Y-31240361D02*
X171450066Y-31287980D01*
X171259590Y-31287980D01*
X171164352Y-31240361D01*
X171116733Y-31145123D01*
X171116733Y-30764171D01*
X171164352Y-30668933D01*
X171259590Y-30621314D01*
X171450066Y-30621314D01*
X171545304Y-30668933D01*
X171592923Y-30764171D01*
X171592923Y-30859409D01*
X171116733Y-30954647D01*
X172021495Y-31287980D02*
X172021495Y-30621314D01*
X172021495Y-30811790D02*
X172069114Y-30716552D01*
X172116733Y-30668933D01*
X172211971Y-30621314D01*
X172307209Y-30621314D01*
X173354828Y-30383219D02*
X173402447Y-30335600D01*
X173497685Y-30287980D01*
X173735780Y-30287980D01*
X173831019Y-30335600D01*
X173878638Y-30383219D01*
X173926257Y-30478457D01*
X173926257Y-30573695D01*
X173878638Y-30716552D01*
X173307209Y-31287980D01*
X173926257Y-31287980D01*
X174545304Y-30287980D02*
X174640542Y-30287980D01*
X174735780Y-30335600D01*
X174783400Y-30383219D01*
X174831019Y-30478457D01*
X174878638Y-30668933D01*
X174878638Y-30907028D01*
X174831019Y-31097504D01*
X174783400Y-31192742D01*
X174735780Y-31240361D01*
X174640542Y-31287980D01*
X174545304Y-31287980D01*
X174450066Y-31240361D01*
X174402447Y-31192742D01*
X174354828Y-31097504D01*
X174307209Y-30907028D01*
X174307209Y-30668933D01*
X174354828Y-30478457D01*
X174402447Y-30383219D01*
X174450066Y-30335600D01*
X174545304Y-30287980D01*
X175259590Y-30383219D02*
X175307209Y-30335600D01*
X175402447Y-30287980D01*
X175640542Y-30287980D01*
X175735780Y-30335600D01*
X175783400Y-30383219D01*
X175831019Y-30478457D01*
X175831019Y-30573695D01*
X175783400Y-30716552D01*
X175211971Y-31287980D01*
X175831019Y-31287980D01*
X176211971Y-30383219D02*
X176259590Y-30335600D01*
X176354828Y-30287980D01*
X176592923Y-30287980D01*
X176688161Y-30335600D01*
X176735780Y-30383219D01*
X176783400Y-30478457D01*
X176783400Y-30573695D01*
X176735780Y-30716552D01*
X176164352Y-31287980D01*
X176783400Y-31287980D01*
X122767152Y-31237180D02*
X122767152Y-30237180D01*
X123100485Y-30951466D01*
X123433819Y-30237180D01*
X123433819Y-31237180D01*
X123862390Y-30951466D02*
X124338580Y-30951466D01*
X123767152Y-31237180D02*
X124100485Y-30237180D01*
X124433819Y-31237180D01*
X124767152Y-31237180D02*
X124767152Y-30237180D01*
X125005247Y-30237180D01*
X125148104Y-30284800D01*
X125243342Y-30380038D01*
X125290961Y-30475276D01*
X125338580Y-30665752D01*
X125338580Y-30808609D01*
X125290961Y-30999085D01*
X125243342Y-31094323D01*
X125148104Y-31189561D01*
X125005247Y-31237180D01*
X124767152Y-31237180D01*
X125767152Y-30713371D02*
X126100485Y-30713371D01*
X126243342Y-31237180D02*
X125767152Y-31237180D01*
X125767152Y-30237180D01*
X126243342Y-30237180D01*
X127767152Y-30713371D02*
X127433819Y-30713371D01*
X127433819Y-31237180D02*
X127433819Y-30237180D01*
X127910009Y-30237180D01*
X128481438Y-30237180D02*
X128671914Y-30237180D01*
X128767152Y-30284800D01*
X128862390Y-30380038D01*
X128910009Y-30570514D01*
X128910009Y-30903847D01*
X128862390Y-31094323D01*
X128767152Y-31189561D01*
X128671914Y-31237180D01*
X128481438Y-31237180D01*
X128386199Y-31189561D01*
X128290961Y-31094323D01*
X128243342Y-30903847D01*
X128243342Y-30570514D01*
X128290961Y-30380038D01*
X128386199Y-30284800D01*
X128481438Y-30237180D01*
X129910009Y-31237180D02*
X129576676Y-30760990D01*
X129338580Y-31237180D02*
X129338580Y-30237180D01*
X129719533Y-30237180D01*
X129814771Y-30284800D01*
X129862390Y-30332419D01*
X129910009Y-30427657D01*
X129910009Y-30570514D01*
X129862390Y-30665752D01*
X129814771Y-30713371D01*
X129719533Y-30760990D01*
X129338580Y-30760990D01*
X131052866Y-31189561D02*
X131195723Y-31237180D01*
X131433819Y-31237180D01*
X131529057Y-31189561D01*
X131576676Y-31141942D01*
X131624295Y-31046704D01*
X131624295Y-30951466D01*
X131576676Y-30856228D01*
X131529057Y-30808609D01*
X131433819Y-30760990D01*
X131243342Y-30713371D01*
X131148104Y-30665752D01*
X131100485Y-30618133D01*
X131052866Y-30522895D01*
X131052866Y-30427657D01*
X131100485Y-30332419D01*
X131148104Y-30284800D01*
X131243342Y-30237180D01*
X131481438Y-30237180D01*
X131624295Y-30284800D01*
X132052866Y-31237180D02*
X132052866Y-30237180D01*
X132433819Y-30237180D01*
X132529057Y-30284800D01*
X132576676Y-30332419D01*
X132624295Y-30427657D01*
X132624295Y-30570514D01*
X132576676Y-30665752D01*
X132529057Y-30713371D01*
X132433819Y-30760990D01*
X132052866Y-30760990D01*
X133052866Y-30713371D02*
X133386199Y-30713371D01*
X133529057Y-31237180D02*
X133052866Y-31237180D01*
X133052866Y-30237180D01*
X133529057Y-30237180D01*
X133957628Y-30713371D02*
X134290961Y-30713371D01*
X134433819Y-31237180D02*
X133957628Y-31237180D01*
X133957628Y-30237180D01*
X134433819Y-30237180D01*
X134862390Y-31237180D02*
X134862390Y-30237180D01*
X135100485Y-30237180D01*
X135243342Y-30284800D01*
X135338580Y-30380038D01*
X135386200Y-30475276D01*
X135433819Y-30665752D01*
X135433819Y-30808609D01*
X135386200Y-30999085D01*
X135338580Y-31094323D01*
X135243342Y-31189561D01*
X135100485Y-31237180D01*
X134862390Y-31237180D01*
X135862390Y-30237180D02*
X135862390Y-31046704D01*
X135910009Y-31141942D01*
X135957628Y-31189561D01*
X136052866Y-31237180D01*
X136243342Y-31237180D01*
X136338580Y-31189561D01*
X136386200Y-31141942D01*
X136433819Y-31046704D01*
X136433819Y-30237180D01*
X136910009Y-31237180D02*
X136910009Y-30237180D01*
X137386200Y-31237180D02*
X137386200Y-30237180D01*
X137957628Y-31237180D01*
X137957628Y-30237180D01*
X138624295Y-30237180D02*
X138814771Y-30237180D01*
X138910009Y-30284800D01*
X139005247Y-30380038D01*
X139052866Y-30570514D01*
X139052866Y-30903847D01*
X139005247Y-31094323D01*
X138910009Y-31189561D01*
X138814771Y-31237180D01*
X138624295Y-31237180D01*
X138529057Y-31189561D01*
X138433819Y-31094323D01*
X138386200Y-30903847D01*
X138386200Y-30570514D01*
X138433819Y-30380038D01*
X138529057Y-30284800D01*
X138624295Y-30237180D01*
X111500066Y-47213780D02*
X111500066Y-46213780D01*
X111738161Y-46213780D01*
X111881019Y-46261400D01*
X111976257Y-46356638D01*
X112023876Y-46451876D01*
X112071495Y-46642352D01*
X112071495Y-46785209D01*
X112023876Y-46975685D01*
X111976257Y-47070923D01*
X111881019Y-47166161D01*
X111738161Y-47213780D01*
X111500066Y-47213780D01*
X112928638Y-46547114D02*
X112928638Y-47213780D01*
X112690542Y-46166161D02*
X112452447Y-46880447D01*
X113071495Y-46880447D01*
X113595304Y-46642352D02*
X113500066Y-46594733D01*
X113452447Y-46547114D01*
X113404828Y-46451876D01*
X113404828Y-46404257D01*
X113452447Y-46309019D01*
X113500066Y-46261400D01*
X113595304Y-46213780D01*
X113785780Y-46213780D01*
X113881019Y-46261400D01*
X113928638Y-46309019D01*
X113976257Y-46404257D01*
X113976257Y-46451876D01*
X113928638Y-46547114D01*
X113881019Y-46594733D01*
X113785780Y-46642352D01*
X113595304Y-46642352D01*
X113500066Y-46689971D01*
X113452447Y-46737590D01*
X113404828Y-46832828D01*
X113404828Y-47023304D01*
X113452447Y-47118542D01*
X113500066Y-47166161D01*
X113595304Y-47213780D01*
X113785780Y-47213780D01*
X113881019Y-47166161D01*
X113928638Y-47118542D01*
X113976257Y-47023304D01*
X113976257Y-46832828D01*
X113928638Y-46737590D01*
X113881019Y-46689971D01*
X113785780Y-46642352D01*
X115595304Y-47166161D02*
X115500066Y-47213780D01*
X115309590Y-47213780D01*
X115214352Y-47166161D01*
X115166733Y-47118542D01*
X115119114Y-47023304D01*
X115119114Y-46737590D01*
X115166733Y-46642352D01*
X115214352Y-46594733D01*
X115309590Y-46547114D01*
X115500066Y-46547114D01*
X115595304Y-46594733D01*
X116023876Y-46547114D02*
X116023876Y-47213780D01*
X116023876Y-46642352D02*
X116071495Y-46594733D01*
X116166733Y-46547114D01*
X116309590Y-46547114D01*
X116404828Y-46594733D01*
X116452447Y-46689971D01*
X116452447Y-47213780D01*
X116785780Y-46547114D02*
X117166733Y-46547114D01*
X116928638Y-46213780D02*
X116928638Y-47070923D01*
X116976257Y-47166161D01*
X117071495Y-47213780D01*
X117166733Y-47213780D01*
X117500066Y-47213780D02*
X117500066Y-46547114D01*
X117500066Y-46737590D02*
X117547685Y-46642352D01*
X117595304Y-46594733D01*
X117690542Y-46547114D01*
X117785780Y-46547114D01*
X118261971Y-47213780D02*
X118166733Y-47166161D01*
X118119114Y-47070923D01*
X118119114Y-46213780D01*
X123409247Y-86869542D02*
X123361628Y-86917161D01*
X123218771Y-86964780D01*
X123123533Y-86964780D01*
X122980676Y-86917161D01*
X122885438Y-86821923D01*
X122837819Y-86726685D01*
X122790200Y-86536209D01*
X122790200Y-86393352D01*
X122837819Y-86202876D01*
X122885438Y-86107638D01*
X122980676Y-86012400D01*
X123123533Y-85964780D01*
X123218771Y-85964780D01*
X123361628Y-86012400D01*
X123409247Y-86060019D01*
X123837819Y-86964780D02*
X123837819Y-85964780D01*
X124171152Y-86679066D01*
X124504485Y-85964780D01*
X124504485Y-86964780D01*
X124980676Y-86964780D02*
X124980676Y-85964780D01*
X125361628Y-85964780D01*
X125456866Y-86012400D01*
X125504485Y-86060019D01*
X125552104Y-86155257D01*
X125552104Y-86298114D01*
X125504485Y-86393352D01*
X125456866Y-86440971D01*
X125361628Y-86488590D01*
X124980676Y-86488590D01*
X125980676Y-86583828D02*
X126742580Y-86583828D01*
X123333047Y-84075542D02*
X123285428Y-84123161D01*
X123142571Y-84170780D01*
X123047333Y-84170780D01*
X122904476Y-84123161D01*
X122809238Y-84027923D01*
X122761619Y-83932685D01*
X122714000Y-83742209D01*
X122714000Y-83599352D01*
X122761619Y-83408876D01*
X122809238Y-83313638D01*
X122904476Y-83218400D01*
X123047333Y-83170780D01*
X123142571Y-83170780D01*
X123285428Y-83218400D01*
X123333047Y-83266019D01*
X123761619Y-84170780D02*
X123761619Y-83170780D01*
X124094952Y-83885066D01*
X124428285Y-83170780D01*
X124428285Y-84170780D01*
X124904476Y-84170780D02*
X124904476Y-83170780D01*
X125285428Y-83170780D01*
X125380666Y-83218400D01*
X125428285Y-83266019D01*
X125475904Y-83361257D01*
X125475904Y-83504114D01*
X125428285Y-83599352D01*
X125380666Y-83646971D01*
X125285428Y-83694590D01*
X124904476Y-83694590D01*
X125904476Y-83789828D02*
X126666380Y-83789828D01*
X126285428Y-84170780D02*
X126285428Y-83408876D01*
X111682161Y-119327371D02*
X111729780Y-119184514D01*
X111729780Y-118946419D01*
X111682161Y-118851180D01*
X111634542Y-118803561D01*
X111539304Y-118755942D01*
X111444066Y-118755942D01*
X111348828Y-118803561D01*
X111301209Y-118851180D01*
X111253590Y-118946419D01*
X111205971Y-119136895D01*
X111158352Y-119232133D01*
X111110733Y-119279752D01*
X111015495Y-119327371D01*
X110920257Y-119327371D01*
X110825019Y-119279752D01*
X110777400Y-119232133D01*
X110729780Y-119136895D01*
X110729780Y-118898800D01*
X110777400Y-118755942D01*
X111063114Y-118327371D02*
X112063114Y-118327371D01*
X111110733Y-118327371D02*
X111063114Y-118232133D01*
X111063114Y-118041657D01*
X111110733Y-117946419D01*
X111158352Y-117898800D01*
X111253590Y-117851180D01*
X111539304Y-117851180D01*
X111634542Y-117898800D01*
X111682161Y-117946419D01*
X111729780Y-118041657D01*
X111729780Y-118232133D01*
X111682161Y-118327371D01*
X111729780Y-116994038D02*
X111205971Y-116994038D01*
X111110733Y-117041657D01*
X111063114Y-117136895D01*
X111063114Y-117327371D01*
X111110733Y-117422609D01*
X111682161Y-116994038D02*
X111729780Y-117089276D01*
X111729780Y-117327371D01*
X111682161Y-117422609D01*
X111586923Y-117470228D01*
X111491685Y-117470228D01*
X111396447Y-117422609D01*
X111348828Y-117327371D01*
X111348828Y-117089276D01*
X111301209Y-116994038D01*
X111729780Y-116517847D02*
X111063114Y-116517847D01*
X111253590Y-116517847D02*
X111158352Y-116470228D01*
X111110733Y-116422609D01*
X111063114Y-116327371D01*
X111063114Y-116232133D01*
X111682161Y-115517847D02*
X111729780Y-115613085D01*
X111729780Y-115803561D01*
X111682161Y-115898800D01*
X111586923Y-115946419D01*
X111205971Y-115946419D01*
X111110733Y-115898800D01*
X111063114Y-115803561D01*
X111063114Y-115613085D01*
X111110733Y-115517847D01*
X111205971Y-115470228D01*
X111301209Y-115470228D01*
X111396447Y-115946419D01*
X113193580Y-118986228D02*
X113193580Y-118795752D01*
X113241200Y-118700514D01*
X113336438Y-118605276D01*
X113526914Y-118557657D01*
X113860247Y-118557657D01*
X114050723Y-118605276D01*
X114145961Y-118700514D01*
X114193580Y-118795752D01*
X114193580Y-118986228D01*
X114145961Y-119081466D01*
X114050723Y-119176704D01*
X113860247Y-119224323D01*
X113526914Y-119224323D01*
X113336438Y-119176704D01*
X113241200Y-119081466D01*
X113193580Y-118986228D01*
X113288819Y-118176704D02*
X113241200Y-118129085D01*
X113193580Y-118033847D01*
X113193580Y-117795752D01*
X113241200Y-117700514D01*
X113288819Y-117652895D01*
X113384057Y-117605276D01*
X113479295Y-117605276D01*
X113622152Y-117652895D01*
X114193580Y-118224323D01*
X114193580Y-117605276D01*
X115835180Y-119270304D02*
X115835180Y-118698876D01*
X116835180Y-118984590D02*
X115835180Y-118984590D01*
X116835180Y-118365542D02*
X115835180Y-118365542D01*
X115835180Y-117984590D01*
X115882800Y-117889352D01*
X115930419Y-117841733D01*
X116025657Y-117794114D01*
X116168514Y-117794114D01*
X116263752Y-117841733D01*
X116311371Y-117889352D01*
X116358990Y-117984590D01*
X116358990Y-118365542D01*
X116787561Y-117413161D02*
X116835180Y-117270304D01*
X116835180Y-117032209D01*
X116787561Y-116936971D01*
X116739942Y-116889352D01*
X116644704Y-116841733D01*
X116549466Y-116841733D01*
X116454228Y-116889352D01*
X116406609Y-116936971D01*
X116358990Y-117032209D01*
X116311371Y-117222685D01*
X116263752Y-117317923D01*
X116216133Y-117365542D01*
X116120895Y-117413161D01*
X116025657Y-117413161D01*
X115930419Y-117365542D01*
X115882800Y-117317923D01*
X115835180Y-117222685D01*
X115835180Y-116984590D01*
X115882800Y-116841733D01*
X119203742Y-118738590D02*
X119251361Y-118786209D01*
X119298980Y-118929066D01*
X119298980Y-119024304D01*
X119251361Y-119167161D01*
X119156123Y-119262400D01*
X119060885Y-119310019D01*
X118870409Y-119357638D01*
X118727552Y-119357638D01*
X118537076Y-119310019D01*
X118441838Y-119262400D01*
X118346600Y-119167161D01*
X118298980Y-119024304D01*
X118298980Y-118929066D01*
X118346600Y-118786209D01*
X118394219Y-118738590D01*
X119298980Y-117833828D02*
X119298980Y-118310019D01*
X118298980Y-118310019D01*
X118298980Y-117643352D02*
X118298980Y-117071923D01*
X119298980Y-117357638D02*
X118298980Y-117357638D01*
X121889780Y-119300523D02*
X120889780Y-119300523D01*
X121604066Y-118871952D02*
X121604066Y-118395761D01*
X121889780Y-118967190D02*
X120889780Y-118633857D01*
X121889780Y-118300523D01*
X120889780Y-118110047D02*
X120889780Y-117538619D01*
X121889780Y-117824333D02*
X120889780Y-117824333D01*
X124255161Y-119359085D02*
X124302780Y-119216228D01*
X124302780Y-118978133D01*
X124255161Y-118882895D01*
X124207542Y-118835276D01*
X124112304Y-118787657D01*
X124017066Y-118787657D01*
X123921828Y-118835276D01*
X123874209Y-118882895D01*
X123826590Y-118978133D01*
X123778971Y-119168609D01*
X123731352Y-119263847D01*
X123683733Y-119311466D01*
X123588495Y-119359085D01*
X123493257Y-119359085D01*
X123398019Y-119311466D01*
X123350400Y-119263847D01*
X123302780Y-119168609D01*
X123302780Y-118930514D01*
X123350400Y-118787657D01*
X124302780Y-118359085D02*
X123636114Y-118359085D01*
X123302780Y-118359085D02*
X123350400Y-118406704D01*
X123398019Y-118359085D01*
X123350400Y-118311466D01*
X123302780Y-118359085D01*
X123398019Y-118359085D01*
X123636114Y-117454323D02*
X124445638Y-117454323D01*
X124540876Y-117501942D01*
X124588495Y-117549561D01*
X124636114Y-117644800D01*
X124636114Y-117787657D01*
X124588495Y-117882895D01*
X124255161Y-117454323D02*
X124302780Y-117549561D01*
X124302780Y-117740038D01*
X124255161Y-117835276D01*
X124207542Y-117882895D01*
X124112304Y-117930514D01*
X123826590Y-117930514D01*
X123731352Y-117882895D01*
X123683733Y-117835276D01*
X123636114Y-117740038D01*
X123636114Y-117549561D01*
X123683733Y-117454323D01*
X124302780Y-116406704D02*
X123826590Y-116740038D01*
X124302780Y-116978133D02*
X123302780Y-116978133D01*
X123302780Y-116597180D01*
X123350400Y-116501942D01*
X123398019Y-116454323D01*
X123493257Y-116406704D01*
X123636114Y-116406704D01*
X123731352Y-116454323D01*
X123778971Y-116501942D01*
X123826590Y-116597180D01*
X123826590Y-116978133D01*
X123636114Y-116120990D02*
X123636114Y-115740038D01*
X123302780Y-115978133D02*
X124159923Y-115978133D01*
X124255161Y-115930514D01*
X124302780Y-115835276D01*
X124302780Y-115740038D01*
X123636114Y-115406704D02*
X124302780Y-115406704D01*
X123731352Y-115406704D02*
X123683733Y-115359085D01*
X123636114Y-115263847D01*
X123636114Y-115120990D01*
X123683733Y-115025752D01*
X123778971Y-114978133D01*
X124302780Y-114978133D01*
X125969780Y-119313104D02*
X126969780Y-118979771D01*
X125969780Y-118646438D01*
X126969780Y-118313104D02*
X125969780Y-118313104D01*
X125969780Y-118075009D01*
X126017400Y-117932152D01*
X126112638Y-117836914D01*
X126207876Y-117789295D01*
X126398352Y-117741676D01*
X126541209Y-117741676D01*
X126731685Y-117789295D01*
X126826923Y-117836914D01*
X126922161Y-117932152D01*
X126969780Y-118075009D01*
X126969780Y-118313104D01*
X126969780Y-117313104D02*
X125969780Y-117313104D01*
X125969780Y-117075009D01*
X126017400Y-116932152D01*
X126112638Y-116836914D01*
X126207876Y-116789295D01*
X126398352Y-116741676D01*
X126541209Y-116741676D01*
X126731685Y-116789295D01*
X126826923Y-116836914D01*
X126922161Y-116932152D01*
X126969780Y-117075009D01*
X126969780Y-117313104D01*
X126684066Y-116360723D02*
X126684066Y-115884533D01*
X126969780Y-116455961D02*
X125969780Y-116122628D01*
X126969780Y-115789295D01*
X129484380Y-118919285D02*
X129484380Y-119490714D01*
X129484380Y-119205000D02*
X128484380Y-119205000D01*
X128627238Y-119300238D01*
X128722476Y-119395476D01*
X128770095Y-119490714D01*
X128579619Y-118538333D02*
X128532000Y-118490714D01*
X128484380Y-118395476D01*
X128484380Y-118157380D01*
X128532000Y-118062142D01*
X128579619Y-118014523D01*
X128674857Y-117966904D01*
X128770095Y-117966904D01*
X128912952Y-118014523D01*
X129484380Y-118585952D01*
X129484380Y-117966904D01*
X128484380Y-117681190D02*
X129484380Y-117347857D01*
X128484380Y-117014523D01*
X129103428Y-116681190D02*
X129103428Y-115919285D01*
X129484380Y-114871666D02*
X129008190Y-115205000D01*
X129484380Y-115443095D02*
X128484380Y-115443095D01*
X128484380Y-115062142D01*
X128532000Y-114966904D01*
X128579619Y-114919285D01*
X128674857Y-114871666D01*
X128817714Y-114871666D01*
X128912952Y-114919285D01*
X128960571Y-114966904D01*
X129008190Y-115062142D01*
X129008190Y-115443095D01*
X129484380Y-114014523D02*
X128960571Y-114014523D01*
X128865333Y-114062142D01*
X128817714Y-114157380D01*
X128817714Y-114347857D01*
X128865333Y-114443095D01*
X129436761Y-114014523D02*
X129484380Y-114109761D01*
X129484380Y-114347857D01*
X129436761Y-114443095D01*
X129341523Y-114490714D01*
X129246285Y-114490714D01*
X129151047Y-114443095D01*
X129103428Y-114347857D01*
X129103428Y-114109761D01*
X129055809Y-114014523D01*
X128817714Y-113633571D02*
X129484380Y-113443095D01*
X129008190Y-113252619D01*
X129484380Y-113062142D01*
X128817714Y-112871666D01*
X133756923Y-120661180D02*
X134328352Y-120661180D01*
X134042638Y-121661180D02*
X134042638Y-120661180D01*
X135090257Y-121661180D02*
X135090257Y-121137371D01*
X135042638Y-121042133D01*
X134947400Y-120994514D01*
X134756923Y-120994514D01*
X134661685Y-121042133D01*
X135090257Y-121613561D02*
X134995019Y-121661180D01*
X134756923Y-121661180D01*
X134661685Y-121613561D01*
X134614066Y-121518323D01*
X134614066Y-121423085D01*
X134661685Y-121327847D01*
X134756923Y-121280228D01*
X134995019Y-121280228D01*
X135090257Y-121232609D01*
X135995019Y-121613561D02*
X135899780Y-121661180D01*
X135709304Y-121661180D01*
X135614066Y-121613561D01*
X135566447Y-121565942D01*
X135518828Y-121470704D01*
X135518828Y-121184990D01*
X135566447Y-121089752D01*
X135614066Y-121042133D01*
X135709304Y-120994514D01*
X135899780Y-120994514D01*
X135995019Y-121042133D01*
X136423590Y-121661180D02*
X136423590Y-120661180D01*
X136852161Y-121661180D02*
X136852161Y-121137371D01*
X136804542Y-121042133D01*
X136709304Y-120994514D01*
X136566447Y-120994514D01*
X136471209Y-121042133D01*
X136423590Y-121089752D01*
X137471209Y-121661180D02*
X137375971Y-121613561D01*
X137328352Y-121565942D01*
X137280733Y-121470704D01*
X137280733Y-121184990D01*
X137328352Y-121089752D01*
X137375971Y-121042133D01*
X137471209Y-120994514D01*
X137614066Y-120994514D01*
X137709304Y-121042133D01*
X137756923Y-121089752D01*
X137804542Y-121184990D01*
X137804542Y-121470704D01*
X137756923Y-121565942D01*
X137709304Y-121613561D01*
X137614066Y-121661180D01*
X137471209Y-121661180D01*
X138233114Y-121661180D02*
X138233114Y-120994514D01*
X138233114Y-121089752D02*
X138280733Y-121042133D01*
X138375971Y-120994514D01*
X138518828Y-120994514D01*
X138614066Y-121042133D01*
X138661685Y-121137371D01*
X138661685Y-121661180D01*
X138661685Y-121137371D02*
X138709304Y-121042133D01*
X138804542Y-120994514D01*
X138947400Y-120994514D01*
X139042638Y-121042133D01*
X139090257Y-121137371D01*
X139090257Y-121661180D01*
X139947400Y-121613561D02*
X139852161Y-121661180D01*
X139661685Y-121661180D01*
X139566447Y-121613561D01*
X139518828Y-121518323D01*
X139518828Y-121137371D01*
X139566447Y-121042133D01*
X139661685Y-120994514D01*
X139852161Y-120994514D01*
X139947400Y-121042133D01*
X139995019Y-121137371D01*
X139995019Y-121232609D01*
X139518828Y-121327847D01*
X140280733Y-120994514D02*
X140661685Y-120994514D01*
X140423590Y-120661180D02*
X140423590Y-121518323D01*
X140471209Y-121613561D01*
X140566447Y-121661180D01*
X140661685Y-121661180D01*
X141375971Y-121613561D02*
X141280733Y-121661180D01*
X141090257Y-121661180D01*
X140995019Y-121613561D01*
X140947400Y-121518323D01*
X140947400Y-121137371D01*
X140995019Y-121042133D01*
X141090257Y-120994514D01*
X141280733Y-120994514D01*
X141375971Y-121042133D01*
X141423590Y-121137371D01*
X141423590Y-121232609D01*
X140947400Y-121327847D01*
X141852161Y-121661180D02*
X141852161Y-120994514D01*
X141852161Y-121184990D02*
X141899780Y-121089752D01*
X141947400Y-121042133D01*
X142042638Y-120994514D01*
X142137876Y-120994514D01*
X150261580Y-94493933D02*
X149261580Y-94493933D01*
X149261580Y-94255838D01*
X149309200Y-94112980D01*
X149404438Y-94017742D01*
X149499676Y-93970123D01*
X149690152Y-93922504D01*
X149833009Y-93922504D01*
X150023485Y-93970123D01*
X150118723Y-94017742D01*
X150213961Y-94112980D01*
X150261580Y-94255838D01*
X150261580Y-94493933D01*
X149261580Y-93017742D02*
X149261580Y-93493933D01*
X149737771Y-93541552D01*
X149690152Y-93493933D01*
X149642533Y-93398695D01*
X149642533Y-93160600D01*
X149690152Y-93065361D01*
X149737771Y-93017742D01*
X149833009Y-92970123D01*
X150071104Y-92970123D01*
X150166342Y-93017742D01*
X150213961Y-93065361D01*
X150261580Y-93160600D01*
X150261580Y-93398695D01*
X150213961Y-93493933D01*
X150166342Y-93541552D01*
X149261580Y-92351076D02*
X149261580Y-92255838D01*
X149309200Y-92160600D01*
X149356819Y-92112980D01*
X149452057Y-92065361D01*
X149642533Y-92017742D01*
X149880628Y-92017742D01*
X150071104Y-92065361D01*
X150166342Y-92112980D01*
X150213961Y-92160600D01*
X150261580Y-92255838D01*
X150261580Y-92351076D01*
X150213961Y-92446314D01*
X150166342Y-92493933D01*
X150071104Y-92541552D01*
X149880628Y-92589171D01*
X149642533Y-92589171D01*
X149452057Y-92541552D01*
X149356819Y-92493933D01*
X149309200Y-92446314D01*
X149261580Y-92351076D01*
X150213961Y-90398695D02*
X150261580Y-90493933D01*
X150261580Y-90684409D01*
X150213961Y-90779647D01*
X150166342Y-90827266D01*
X150071104Y-90874885D01*
X149785390Y-90874885D01*
X149690152Y-90827266D01*
X149642533Y-90779647D01*
X149594914Y-90684409D01*
X149594914Y-90493933D01*
X149642533Y-90398695D01*
X149594914Y-89970123D02*
X150261580Y-89970123D01*
X149690152Y-89970123D02*
X149642533Y-89922504D01*
X149594914Y-89827266D01*
X149594914Y-89684409D01*
X149642533Y-89589171D01*
X149737771Y-89541552D01*
X150261580Y-89541552D01*
X149594914Y-89208219D02*
X149594914Y-88827266D01*
X149261580Y-89065361D02*
X150118723Y-89065361D01*
X150213961Y-89017742D01*
X150261580Y-88922504D01*
X150261580Y-88827266D01*
X150261580Y-88493933D02*
X149594914Y-88493933D01*
X149785390Y-88493933D02*
X149690152Y-88446314D01*
X149642533Y-88398695D01*
X149594914Y-88303457D01*
X149594914Y-88208219D01*
X150261580Y-87732028D02*
X150213961Y-87827266D01*
X150118723Y-87874885D01*
X149261580Y-87874885D01*
X153055580Y-94519333D02*
X152055580Y-94519333D01*
X152055580Y-94281238D01*
X152103200Y-94138380D01*
X152198438Y-94043142D01*
X152293676Y-93995523D01*
X152484152Y-93947904D01*
X152627009Y-93947904D01*
X152817485Y-93995523D01*
X152912723Y-94043142D01*
X153007961Y-94138380D01*
X153055580Y-94281238D01*
X153055580Y-94519333D01*
X152055580Y-93043142D02*
X152055580Y-93519333D01*
X152531771Y-93566952D01*
X152484152Y-93519333D01*
X152436533Y-93424095D01*
X152436533Y-93186000D01*
X152484152Y-93090761D01*
X152531771Y-93043142D01*
X152627009Y-92995523D01*
X152865104Y-92995523D01*
X152960342Y-93043142D01*
X153007961Y-93090761D01*
X153055580Y-93186000D01*
X153055580Y-93424095D01*
X153007961Y-93519333D01*
X152960342Y-93566952D01*
X153055580Y-92043142D02*
X153055580Y-92614571D01*
X153055580Y-92328857D02*
X152055580Y-92328857D01*
X152198438Y-92424095D01*
X152293676Y-92519333D01*
X152341295Y-92614571D01*
X153007961Y-90424095D02*
X153055580Y-90519333D01*
X153055580Y-90709809D01*
X153007961Y-90805047D01*
X152960342Y-90852666D01*
X152865104Y-90900285D01*
X152579390Y-90900285D01*
X152484152Y-90852666D01*
X152436533Y-90805047D01*
X152388914Y-90709809D01*
X152388914Y-90519333D01*
X152436533Y-90424095D01*
X152388914Y-89995523D02*
X153055580Y-89995523D01*
X152484152Y-89995523D02*
X152436533Y-89947904D01*
X152388914Y-89852666D01*
X152388914Y-89709809D01*
X152436533Y-89614571D01*
X152531771Y-89566952D01*
X153055580Y-89566952D01*
X152388914Y-89233619D02*
X152388914Y-88852666D01*
X152055580Y-89090761D02*
X152912723Y-89090761D01*
X153007961Y-89043142D01*
X153055580Y-88947904D01*
X153055580Y-88852666D01*
X153055580Y-88519333D02*
X152388914Y-88519333D01*
X152579390Y-88519333D02*
X152484152Y-88471714D01*
X152436533Y-88424095D01*
X152388914Y-88328857D01*
X152388914Y-88233619D01*
X153055580Y-87757428D02*
X153007961Y-87852666D01*
X152912723Y-87900285D01*
X152055580Y-87900285D01*
X155493980Y-94551142D02*
X154493980Y-94551142D01*
X154493980Y-94313047D01*
X154541600Y-94170190D01*
X154636838Y-94074952D01*
X154732076Y-94027333D01*
X154922552Y-93979714D01*
X155065409Y-93979714D01*
X155255885Y-94027333D01*
X155351123Y-94074952D01*
X155446361Y-94170190D01*
X155493980Y-94313047D01*
X155493980Y-94551142D01*
X154922552Y-93408285D02*
X154874933Y-93503523D01*
X154827314Y-93551142D01*
X154732076Y-93598761D01*
X154684457Y-93598761D01*
X154589219Y-93551142D01*
X154541600Y-93503523D01*
X154493980Y-93408285D01*
X154493980Y-93217809D01*
X154541600Y-93122571D01*
X154589219Y-93074952D01*
X154684457Y-93027333D01*
X154732076Y-93027333D01*
X154827314Y-93074952D01*
X154874933Y-93122571D01*
X154922552Y-93217809D01*
X154922552Y-93408285D01*
X154970171Y-93503523D01*
X155017790Y-93551142D01*
X155113028Y-93598761D01*
X155303504Y-93598761D01*
X155398742Y-93551142D01*
X155446361Y-93503523D01*
X155493980Y-93408285D01*
X155493980Y-93217809D01*
X155446361Y-93122571D01*
X155398742Y-93074952D01*
X155303504Y-93027333D01*
X155113028Y-93027333D01*
X155017790Y-93074952D01*
X154970171Y-93122571D01*
X154922552Y-93217809D01*
X155446361Y-91408285D02*
X155493980Y-91503523D01*
X155493980Y-91694000D01*
X155446361Y-91789238D01*
X155398742Y-91836857D01*
X155303504Y-91884476D01*
X155017790Y-91884476D01*
X154922552Y-91836857D01*
X154874933Y-91789238D01*
X154827314Y-91694000D01*
X154827314Y-91503523D01*
X154874933Y-91408285D01*
X154827314Y-90979714D02*
X155493980Y-90979714D01*
X154922552Y-90979714D02*
X154874933Y-90932095D01*
X154827314Y-90836857D01*
X154827314Y-90694000D01*
X154874933Y-90598761D01*
X154970171Y-90551142D01*
X155493980Y-90551142D01*
X154827314Y-90217809D02*
X154827314Y-89836857D01*
X154493980Y-90074952D02*
X155351123Y-90074952D01*
X155446361Y-90027333D01*
X155493980Y-89932095D01*
X155493980Y-89836857D01*
X155493980Y-89503523D02*
X154827314Y-89503523D01*
X155017790Y-89503523D02*
X154922552Y-89455904D01*
X154874933Y-89408285D01*
X154827314Y-89313047D01*
X154827314Y-89217809D01*
X155493980Y-88741619D02*
X155446361Y-88836857D01*
X155351123Y-88884476D01*
X154493980Y-88884476D01*
X157957780Y-94500342D02*
X156957780Y-94500342D01*
X156957780Y-94262247D01*
X157005400Y-94119390D01*
X157100638Y-94024152D01*
X157195876Y-93976533D01*
X157386352Y-93928914D01*
X157529209Y-93928914D01*
X157719685Y-93976533D01*
X157814923Y-94024152D01*
X157910161Y-94119390D01*
X157957780Y-94262247D01*
X157957780Y-94500342D01*
X157957780Y-93452723D02*
X157957780Y-93262247D01*
X157910161Y-93167009D01*
X157862542Y-93119390D01*
X157719685Y-93024152D01*
X157529209Y-92976533D01*
X157148257Y-92976533D01*
X157053019Y-93024152D01*
X157005400Y-93071771D01*
X156957780Y-93167009D01*
X156957780Y-93357485D01*
X157005400Y-93452723D01*
X157053019Y-93500342D01*
X157148257Y-93547961D01*
X157386352Y-93547961D01*
X157481590Y-93500342D01*
X157529209Y-93452723D01*
X157576828Y-93357485D01*
X157576828Y-93167009D01*
X157529209Y-93071771D01*
X157481590Y-93024152D01*
X157386352Y-92976533D01*
X157910161Y-91357485D02*
X157957780Y-91452723D01*
X157957780Y-91643200D01*
X157910161Y-91738438D01*
X157862542Y-91786057D01*
X157767304Y-91833676D01*
X157481590Y-91833676D01*
X157386352Y-91786057D01*
X157338733Y-91738438D01*
X157291114Y-91643200D01*
X157291114Y-91452723D01*
X157338733Y-91357485D01*
X157291114Y-90928914D02*
X157957780Y-90928914D01*
X157386352Y-90928914D02*
X157338733Y-90881295D01*
X157291114Y-90786057D01*
X157291114Y-90643200D01*
X157338733Y-90547961D01*
X157433971Y-90500342D01*
X157957780Y-90500342D01*
X157291114Y-90167009D02*
X157291114Y-89786057D01*
X156957780Y-90024152D02*
X157814923Y-90024152D01*
X157910161Y-89976533D01*
X157957780Y-89881295D01*
X157957780Y-89786057D01*
X157957780Y-89452723D02*
X157291114Y-89452723D01*
X157481590Y-89452723D02*
X157386352Y-89405104D01*
X157338733Y-89357485D01*
X157291114Y-89262247D01*
X157291114Y-89167009D01*
X157957780Y-88690819D02*
X157910161Y-88786057D01*
X157814923Y-88833676D01*
X156957780Y-88833676D01*
X160396180Y-94468533D02*
X159396180Y-94468533D01*
X159396180Y-94230438D01*
X159443800Y-94087580D01*
X159539038Y-93992342D01*
X159634276Y-93944723D01*
X159824752Y-93897104D01*
X159967609Y-93897104D01*
X160158085Y-93944723D01*
X160253323Y-93992342D01*
X160348561Y-94087580D01*
X160396180Y-94230438D01*
X160396180Y-94468533D01*
X160396180Y-92944723D02*
X160396180Y-93516152D01*
X160396180Y-93230438D02*
X159396180Y-93230438D01*
X159539038Y-93325676D01*
X159634276Y-93420914D01*
X159681895Y-93516152D01*
X159491419Y-92563771D02*
X159443800Y-92516152D01*
X159396180Y-92420914D01*
X159396180Y-92182819D01*
X159443800Y-92087580D01*
X159491419Y-92039961D01*
X159586657Y-91992342D01*
X159681895Y-91992342D01*
X159824752Y-92039961D01*
X160396180Y-92611390D01*
X160396180Y-91992342D01*
X160348561Y-90373295D02*
X160396180Y-90468533D01*
X160396180Y-90659009D01*
X160348561Y-90754247D01*
X160300942Y-90801866D01*
X160205704Y-90849485D01*
X159919990Y-90849485D01*
X159824752Y-90801866D01*
X159777133Y-90754247D01*
X159729514Y-90659009D01*
X159729514Y-90468533D01*
X159777133Y-90373295D01*
X159729514Y-89944723D02*
X160396180Y-89944723D01*
X159824752Y-89944723D02*
X159777133Y-89897104D01*
X159729514Y-89801866D01*
X159729514Y-89659009D01*
X159777133Y-89563771D01*
X159872371Y-89516152D01*
X160396180Y-89516152D01*
X159729514Y-89182819D02*
X159729514Y-88801866D01*
X159396180Y-89039961D02*
X160253323Y-89039961D01*
X160348561Y-88992342D01*
X160396180Y-88897104D01*
X160396180Y-88801866D01*
X160396180Y-88468533D02*
X159729514Y-88468533D01*
X159919990Y-88468533D02*
X159824752Y-88420914D01*
X159777133Y-88373295D01*
X159729514Y-88278057D01*
X159729514Y-88182819D01*
X160396180Y-87706628D02*
X160348561Y-87801866D01*
X160253323Y-87849485D01*
X159396180Y-87849485D01*
X162412371Y-94208361D02*
X162412371Y-94541695D01*
X162936180Y-94541695D02*
X161936180Y-94541695D01*
X161936180Y-94065504D01*
X162936180Y-93636933D02*
X162936180Y-93446457D01*
X162888561Y-93351219D01*
X162840942Y-93303600D01*
X162698085Y-93208361D01*
X162507609Y-93160742D01*
X162126657Y-93160742D01*
X162031419Y-93208361D01*
X161983800Y-93255980D01*
X161936180Y-93351219D01*
X161936180Y-93541695D01*
X161983800Y-93636933D01*
X162031419Y-93684552D01*
X162126657Y-93732171D01*
X162364752Y-93732171D01*
X162459990Y-93684552D01*
X162507609Y-93636933D01*
X162555228Y-93541695D01*
X162555228Y-93351219D01*
X162507609Y-93255980D01*
X162459990Y-93208361D01*
X162364752Y-93160742D01*
X162936180Y-91827409D02*
X162888561Y-91922647D01*
X162840942Y-91970266D01*
X162745704Y-92017885D01*
X162459990Y-92017885D01*
X162364752Y-91970266D01*
X162317133Y-91922647D01*
X162269514Y-91827409D01*
X162269514Y-91684552D01*
X162317133Y-91589314D01*
X162364752Y-91541695D01*
X162459990Y-91494076D01*
X162745704Y-91494076D01*
X162840942Y-91541695D01*
X162888561Y-91589314D01*
X162936180Y-91684552D01*
X162936180Y-91827409D01*
X162269514Y-90636933D02*
X162936180Y-90636933D01*
X162269514Y-91065504D02*
X162793323Y-91065504D01*
X162888561Y-91017885D01*
X162936180Y-90922647D01*
X162936180Y-90779790D01*
X162888561Y-90684552D01*
X162840942Y-90636933D01*
X162269514Y-90303600D02*
X162269514Y-89922647D01*
X161936180Y-90160742D02*
X162793323Y-90160742D01*
X162888561Y-90113123D01*
X162936180Y-90017885D01*
X162936180Y-89922647D01*
X165355542Y-93892523D02*
X165403161Y-93940142D01*
X165450780Y-94083000D01*
X165450780Y-94178238D01*
X165403161Y-94321095D01*
X165307923Y-94416333D01*
X165212685Y-94463952D01*
X165022209Y-94511571D01*
X164879352Y-94511571D01*
X164688876Y-94463952D01*
X164593638Y-94416333D01*
X164498400Y-94321095D01*
X164450780Y-94178238D01*
X164450780Y-94083000D01*
X164498400Y-93940142D01*
X164546019Y-93892523D01*
X165450780Y-93463952D02*
X164450780Y-93463952D01*
X165450780Y-92892523D02*
X164879352Y-93321095D01*
X164450780Y-92892523D02*
X165022209Y-93463952D01*
X165450780Y-92463952D02*
X164450780Y-92463952D01*
X164450780Y-92083000D01*
X164498400Y-91987761D01*
X164546019Y-91940142D01*
X164641257Y-91892523D01*
X164784114Y-91892523D01*
X164879352Y-91940142D01*
X164926971Y-91987761D01*
X164974590Y-92083000D01*
X164974590Y-92463952D01*
X165069828Y-91463952D02*
X165069828Y-90702047D01*
X167844742Y-93740123D02*
X167892361Y-93787742D01*
X167939980Y-93930600D01*
X167939980Y-94025838D01*
X167892361Y-94168695D01*
X167797123Y-94263933D01*
X167701885Y-94311552D01*
X167511409Y-94359171D01*
X167368552Y-94359171D01*
X167178076Y-94311552D01*
X167082838Y-94263933D01*
X166987600Y-94168695D01*
X166939980Y-94025838D01*
X166939980Y-93930600D01*
X166987600Y-93787742D01*
X167035219Y-93740123D01*
X167939980Y-93311552D02*
X166939980Y-93311552D01*
X167939980Y-92740123D02*
X167368552Y-93168695D01*
X166939980Y-92740123D02*
X167511409Y-93311552D01*
X167939980Y-92311552D02*
X166939980Y-92311552D01*
X166939980Y-91930600D01*
X166987600Y-91835361D01*
X167035219Y-91787742D01*
X167130457Y-91740123D01*
X167273314Y-91740123D01*
X167368552Y-91787742D01*
X167416171Y-91835361D01*
X167463790Y-91930600D01*
X167463790Y-92311552D01*
X167559028Y-91311552D02*
X167559028Y-90549647D01*
X167939980Y-90930600D02*
X167178076Y-90930600D01*
D12*
X169697400Y-93845742D02*
X169649019Y-93942504D01*
X169649019Y-94087647D01*
X169697400Y-94232790D01*
X169794161Y-94329552D01*
X169890923Y-94377933D01*
X170084447Y-94426314D01*
X170229590Y-94426314D01*
X170423114Y-94377933D01*
X170519876Y-94329552D01*
X170616638Y-94232790D01*
X170665019Y-94087647D01*
X170665019Y-93990885D01*
X170616638Y-93845742D01*
X170568257Y-93797361D01*
X170229590Y-93797361D01*
X170229590Y-93990885D01*
X169987685Y-93361933D02*
X170665019Y-93361933D01*
X170084447Y-93361933D02*
X170036066Y-93313552D01*
X169987685Y-93216790D01*
X169987685Y-93071647D01*
X170036066Y-92974885D01*
X170132828Y-92926504D01*
X170665019Y-92926504D01*
X170665019Y-92007266D02*
X169649019Y-92007266D01*
X170616638Y-92007266D02*
X170665019Y-92104028D01*
X170665019Y-92297552D01*
X170616638Y-92394314D01*
X170568257Y-92442695D01*
X170471495Y-92491076D01*
X170181209Y-92491076D01*
X170084447Y-92442695D01*
X170036066Y-92394314D01*
X169987685Y-92297552D01*
X169987685Y-92104028D01*
X170036066Y-92007266D01*
X172339000Y-93642542D02*
X172290619Y-93739304D01*
X172290619Y-93884447D01*
X172339000Y-94029590D01*
X172435761Y-94126352D01*
X172532523Y-94174733D01*
X172726047Y-94223114D01*
X172871190Y-94223114D01*
X173064714Y-94174733D01*
X173161476Y-94126352D01*
X173258238Y-94029590D01*
X173306619Y-93884447D01*
X173306619Y-93787685D01*
X173258238Y-93642542D01*
X173209857Y-93594161D01*
X172871190Y-93594161D01*
X172871190Y-93787685D01*
X172629285Y-93158733D02*
X173306619Y-93158733D01*
X172726047Y-93158733D02*
X172677666Y-93110352D01*
X172629285Y-93013590D01*
X172629285Y-92868447D01*
X172677666Y-92771685D01*
X172774428Y-92723304D01*
X173306619Y-92723304D01*
X173306619Y-91804066D02*
X172290619Y-91804066D01*
X173258238Y-91804066D02*
X173306619Y-91900828D01*
X173306619Y-92094352D01*
X173258238Y-92191114D01*
X173209857Y-92239495D01*
X173113095Y-92287876D01*
X172822809Y-92287876D01*
X172726047Y-92239495D01*
X172677666Y-92191114D01*
X172629285Y-92094352D01*
X172629285Y-91900828D01*
X172677666Y-91804066D01*
X210185000Y-55415542D02*
X210136619Y-55512304D01*
X210136619Y-55657447D01*
X210185000Y-55802590D01*
X210281761Y-55899352D01*
X210378523Y-55947733D01*
X210572047Y-55996114D01*
X210717190Y-55996114D01*
X210910714Y-55947733D01*
X211007476Y-55899352D01*
X211104238Y-55802590D01*
X211152619Y-55657447D01*
X211152619Y-55560685D01*
X211104238Y-55415542D01*
X211055857Y-55367161D01*
X210717190Y-55367161D01*
X210717190Y-55560685D01*
X210475285Y-54931733D02*
X211152619Y-54931733D01*
X210572047Y-54931733D02*
X210523666Y-54883352D01*
X210475285Y-54786590D01*
X210475285Y-54641447D01*
X210523666Y-54544685D01*
X210620428Y-54496304D01*
X211152619Y-54496304D01*
X211152619Y-53577066D02*
X210136619Y-53577066D01*
X211104238Y-53577066D02*
X211152619Y-53673828D01*
X211152619Y-53867352D01*
X211104238Y-53964114D01*
X211055857Y-54012495D01*
X210959095Y-54060876D01*
X210668809Y-54060876D01*
X210572047Y-54012495D01*
X210523666Y-53964114D01*
X210475285Y-53867352D01*
X210475285Y-53673828D01*
X210523666Y-53577066D01*
X207645000Y-55415542D02*
X207596619Y-55512304D01*
X207596619Y-55657447D01*
X207645000Y-55802590D01*
X207741761Y-55899352D01*
X207838523Y-55947733D01*
X208032047Y-55996114D01*
X208177190Y-55996114D01*
X208370714Y-55947733D01*
X208467476Y-55899352D01*
X208564238Y-55802590D01*
X208612619Y-55657447D01*
X208612619Y-55560685D01*
X208564238Y-55415542D01*
X208515857Y-55367161D01*
X208177190Y-55367161D01*
X208177190Y-55560685D01*
X207935285Y-54931733D02*
X208612619Y-54931733D01*
X208032047Y-54931733D02*
X207983666Y-54883352D01*
X207935285Y-54786590D01*
X207935285Y-54641447D01*
X207983666Y-54544685D01*
X208080428Y-54496304D01*
X208612619Y-54496304D01*
X208612619Y-53577066D02*
X207596619Y-53577066D01*
X208564238Y-53577066D02*
X208612619Y-53673828D01*
X208612619Y-53867352D01*
X208564238Y-53964114D01*
X208515857Y-54012495D01*
X208419095Y-54060876D01*
X208128809Y-54060876D01*
X208032047Y-54012495D01*
X207983666Y-53964114D01*
X207935285Y-53867352D01*
X207935285Y-53673828D01*
X207983666Y-53577066D01*
X204952600Y-55415542D02*
X204904219Y-55512304D01*
X204904219Y-55657447D01*
X204952600Y-55802590D01*
X205049361Y-55899352D01*
X205146123Y-55947733D01*
X205339647Y-55996114D01*
X205484790Y-55996114D01*
X205678314Y-55947733D01*
X205775076Y-55899352D01*
X205871838Y-55802590D01*
X205920219Y-55657447D01*
X205920219Y-55560685D01*
X205871838Y-55415542D01*
X205823457Y-55367161D01*
X205484790Y-55367161D01*
X205484790Y-55560685D01*
X205242885Y-54931733D02*
X205920219Y-54931733D01*
X205339647Y-54931733D02*
X205291266Y-54883352D01*
X205242885Y-54786590D01*
X205242885Y-54641447D01*
X205291266Y-54544685D01*
X205388028Y-54496304D01*
X205920219Y-54496304D01*
X205920219Y-53577066D02*
X204904219Y-53577066D01*
X205871838Y-53577066D02*
X205920219Y-53673828D01*
X205920219Y-53867352D01*
X205871838Y-53964114D01*
X205823457Y-54012495D01*
X205726695Y-54060876D01*
X205436409Y-54060876D01*
X205339647Y-54012495D01*
X205291266Y-53964114D01*
X205242885Y-53867352D01*
X205242885Y-53673828D01*
X205291266Y-53577066D01*
X204952600Y-55415542D02*
X204904219Y-55512304D01*
X204904219Y-55657447D01*
X204952600Y-55802590D01*
X205049361Y-55899352D01*
X205146123Y-55947733D01*
X205339647Y-55996114D01*
X205484790Y-55996114D01*
X205678314Y-55947733D01*
X205775076Y-55899352D01*
X205871838Y-55802590D01*
X205920219Y-55657447D01*
X205920219Y-55560685D01*
X205871838Y-55415542D01*
X205823457Y-55367161D01*
X205484790Y-55367161D01*
X205484790Y-55560685D01*
X205242885Y-54931733D02*
X205920219Y-54931733D01*
X205339647Y-54931733D02*
X205291266Y-54883352D01*
X205242885Y-54786590D01*
X205242885Y-54641447D01*
X205291266Y-54544685D01*
X205388028Y-54496304D01*
X205920219Y-54496304D01*
X205920219Y-53577066D02*
X204904219Y-53577066D01*
X205871838Y-53577066D02*
X205920219Y-53673828D01*
X205920219Y-53867352D01*
X205871838Y-53964114D01*
X205823457Y-54012495D01*
X205726695Y-54060876D01*
X205436409Y-54060876D01*
X205339647Y-54012495D01*
X205291266Y-53964114D01*
X205242885Y-53867352D01*
X205242885Y-53673828D01*
X205291266Y-53577066D01*
D13*
%TO.C,JP7*%
X185530800Y-85912000D02*
X185530800Y-83252000D01*
X180390800Y-85912000D02*
X185530800Y-85912000D01*
X180390800Y-83252000D02*
X185530800Y-83252000D01*
X180390800Y-85912000D02*
X180390800Y-83252000D01*
X179120800Y-85912000D02*
X177790800Y-85912000D01*
X177790800Y-85912000D02*
X177790800Y-84582000D01*
%TO.C,JP6*%
X144713000Y-88350400D02*
X144713000Y-85690400D01*
X139573000Y-88350400D02*
X144713000Y-88350400D01*
X139573000Y-85690400D02*
X144713000Y-85690400D01*
X139573000Y-88350400D02*
X139573000Y-85690400D01*
X138303000Y-88350400D02*
X136973000Y-88350400D01*
X136973000Y-88350400D02*
X136973000Y-87020400D01*
%TO.C,JP5*%
X143900200Y-71237800D02*
X141240200Y-71237800D01*
X143900200Y-76377800D02*
X143900200Y-71237800D01*
X141240200Y-76377800D02*
X141240200Y-71237800D01*
X143900200Y-76377800D02*
X141240200Y-76377800D01*
X143900200Y-77647800D02*
X143900200Y-78977800D01*
X143900200Y-78977800D02*
X142570200Y-78977800D01*
%TO.C,D4*%
X184355400Y-81683200D02*
X184355400Y-78743200D01*
X184355400Y-78743200D02*
X178915400Y-78743200D01*
X178915400Y-78743200D02*
X178915400Y-81683200D01*
X178915400Y-81683200D02*
X184355400Y-81683200D01*
X185375400Y-80213200D02*
X184355400Y-80213200D01*
X177895400Y-80213200D02*
X178915400Y-80213200D01*
X183455400Y-81683200D02*
X183455400Y-78743200D01*
X183335400Y-81683200D02*
X183335400Y-78743200D01*
X183575400Y-81683200D02*
X183575400Y-78743200D01*
%TO.C,D2*%
X184609400Y-72056600D02*
X184609400Y-69116600D01*
X184609400Y-69116600D02*
X179169400Y-69116600D01*
X179169400Y-69116600D02*
X179169400Y-72056600D01*
X179169400Y-72056600D02*
X184609400Y-72056600D01*
X185629400Y-70586600D02*
X184609400Y-70586600D01*
X178149400Y-70586600D02*
X179169400Y-70586600D01*
X183709400Y-72056600D02*
X183709400Y-69116600D01*
X183589400Y-72056600D02*
X183589400Y-69116600D01*
X183829400Y-72056600D02*
X183829400Y-69116600D01*
%TO.C,R15*%
X137776200Y-80672000D02*
X137776200Y-81002000D01*
X144316200Y-80672000D02*
X137776200Y-80672000D01*
X144316200Y-81002000D02*
X144316200Y-80672000D01*
X137776200Y-83412000D02*
X137776200Y-83082000D01*
X144316200Y-83412000D02*
X137776200Y-83412000D01*
X144316200Y-83082000D02*
X144316200Y-83412000D01*
%TO.C,R14*%
X137522200Y-66448000D02*
X137522200Y-66778000D01*
X144062200Y-66448000D02*
X137522200Y-66448000D01*
X144062200Y-66778000D02*
X144062200Y-66448000D01*
X137522200Y-69188000D02*
X137522200Y-68858000D01*
X144062200Y-69188000D02*
X137522200Y-69188000D01*
X144062200Y-68858000D02*
X144062200Y-69188000D01*
%TO.C,R3*%
X129013200Y-110542200D02*
X129013200Y-110212200D01*
X129013200Y-110212200D02*
X135553200Y-110212200D01*
X135553200Y-110212200D02*
X135553200Y-110542200D01*
X129013200Y-112622200D02*
X129013200Y-112952200D01*
X129013200Y-112952200D02*
X135553200Y-112952200D01*
X135553200Y-112952200D02*
X135553200Y-112622200D01*
%TO.C,R2*%
X133331200Y-115368200D02*
X133331200Y-115038200D01*
X133331200Y-115038200D02*
X139871200Y-115038200D01*
X139871200Y-115038200D02*
X139871200Y-115368200D01*
X133331200Y-117448200D02*
X133331200Y-117778200D01*
X133331200Y-117778200D02*
X139871200Y-117778200D01*
X139871200Y-117778200D02*
X139871200Y-117448200D01*
%TO.C,R1*%
X143745200Y-115368200D02*
X143745200Y-115038200D01*
X143745200Y-115038200D02*
X150285200Y-115038200D01*
X150285200Y-115038200D02*
X150285200Y-115368200D01*
X143745200Y-117448200D02*
X143745200Y-117778200D01*
X143745200Y-117778200D02*
X150285200Y-117778200D01*
X150285200Y-117778200D02*
X150285200Y-117448200D01*
%TO.C,Q1*%
X143443100Y-109757600D02*
X139843100Y-109757600D01*
X139318916Y-110484805D02*
G75*
G02*
X139843100Y-109757600I2324184J-1122795D01*
G01*
X139286700Y-112706407D02*
G75*
G03*
X141643100Y-114207600I2356400J1098807D01*
G01*
X143999500Y-112706407D02*
G75*
G02*
X141643100Y-114207600I-2356400J1098807D01*
G01*
X143967284Y-110484805D02*
G75*
G03*
X143443100Y-109757600I-2324184J-1122795D01*
G01*
%TO.C,JP4*%
X153178200Y-83118000D02*
X155838200Y-83118000D01*
X153178200Y-77978000D02*
X153178200Y-83118000D01*
X155838200Y-77978000D02*
X155838200Y-83118000D01*
X153178200Y-77978000D02*
X155838200Y-77978000D01*
X153178200Y-76708000D02*
X153178200Y-75378000D01*
X153178200Y-75378000D02*
X154508200Y-75378000D01*
%TO.C,JP3*%
X155838200Y-66488000D02*
X153178200Y-66488000D01*
X155838200Y-71628000D02*
X155838200Y-66488000D01*
X153178200Y-71628000D02*
X153178200Y-66488000D01*
X155838200Y-71628000D02*
X153178200Y-71628000D01*
X155838200Y-72898000D02*
X155838200Y-74228000D01*
X155838200Y-74228000D02*
X154508200Y-74228000D01*
%TO.C,JP2*%
X147336200Y-83372000D02*
X149996200Y-83372000D01*
X147336200Y-80772000D02*
X147336200Y-83372000D01*
X149996200Y-80772000D02*
X149996200Y-83372000D01*
X147336200Y-80772000D02*
X149996200Y-80772000D01*
X147336200Y-79502000D02*
X147336200Y-78172000D01*
X147336200Y-78172000D02*
X148666200Y-78172000D01*
%TO.C,JP1*%
X149742200Y-66488000D02*
X147082200Y-66488000D01*
X149742200Y-69088000D02*
X149742200Y-66488000D01*
X147082200Y-69088000D02*
X147082200Y-66488000D01*
X149742200Y-69088000D02*
X147082200Y-69088000D01*
X149742200Y-70358000D02*
X149742200Y-71688000D01*
X149742200Y-71688000D02*
X148412200Y-71688000D01*
%TO.C,J6*%
X148530000Y-95190000D02*
X148530000Y-97850000D01*
X171450000Y-95190000D02*
X148530000Y-95190000D01*
X171450000Y-97850000D02*
X148530000Y-97850000D01*
X171450000Y-95190000D02*
X171450000Y-97850000D01*
X172720000Y-95190000D02*
X174050000Y-95190000D01*
X174050000Y-95190000D02*
X174050000Y-96520000D01*
%TO.C,J5*%
X109972800Y-119955000D02*
X109972800Y-122615000D01*
X130352800Y-119955000D02*
X109972800Y-119955000D01*
X130352800Y-122615000D02*
X109972800Y-122615000D01*
X130352800Y-119955000D02*
X130352800Y-122615000D01*
X131622800Y-119955000D02*
X132952800Y-119955000D01*
X132952800Y-119955000D02*
X132952800Y-121285000D01*
%TO.C,J4*%
X119320000Y-61020000D02*
X121980000Y-61020000D01*
X119320000Y-48260000D02*
X119320000Y-61020000D01*
X121980000Y-48260000D02*
X121980000Y-61020000D01*
X119320000Y-48260000D02*
X121980000Y-48260000D01*
X119320000Y-46990000D02*
X119320000Y-45660000D01*
X119320000Y-45660000D02*
X120650000Y-45660000D01*
%TO.C,J3*%
X212150000Y-59750000D02*
X212150000Y-57090000D01*
X207010000Y-59750000D02*
X212150000Y-59750000D01*
X207010000Y-57090000D02*
X212150000Y-57090000D01*
X207010000Y-59750000D02*
X207010000Y-57090000D01*
X205740000Y-59750000D02*
X204410000Y-59750000D01*
X204410000Y-59750000D02*
X204410000Y-58420000D01*
%TO.C,J2*%
X119320000Y-87690000D02*
X121980000Y-87690000D01*
X119320000Y-85090000D02*
X119320000Y-87690000D01*
X121980000Y-85090000D02*
X121980000Y-87690000D01*
X119320000Y-85090000D02*
X121980000Y-85090000D01*
X119320000Y-83820000D02*
X119320000Y-82490000D01*
X119320000Y-82490000D02*
X120650000Y-82490000D01*
%TO.C,IC1*%
X162398200Y-69536000D02*
X160748200Y-69536000D01*
X160748200Y-69536000D02*
X160748200Y-79816000D01*
X160748200Y-79816000D02*
X166048200Y-79816000D01*
X166048200Y-79816000D02*
X166048200Y-69536000D01*
X166048200Y-69536000D02*
X164398200Y-69536000D01*
X158258200Y-69476000D02*
X158258200Y-79876000D01*
X158258200Y-79876000D02*
X168538200Y-79876000D01*
X168538200Y-79876000D02*
X168538200Y-69476000D01*
X168538200Y-69476000D02*
X158258200Y-69476000D01*
X164398200Y-69536000D02*
G75*
G02*
X162398200Y-69536000I-1000000J0D01*
G01*
%TO.C,D3*%
X178915400Y-75492000D02*
X178915400Y-78432000D01*
X178915400Y-78432000D02*
X184355400Y-78432000D01*
X184355400Y-78432000D02*
X184355400Y-75492000D01*
X184355400Y-75492000D02*
X178915400Y-75492000D01*
X177895400Y-76962000D02*
X178915400Y-76962000D01*
X185375400Y-76962000D02*
X184355400Y-76962000D01*
X179815400Y-75492000D02*
X179815400Y-78432000D01*
X179935400Y-75492000D02*
X179935400Y-78432000D01*
X179695400Y-75492000D02*
X179695400Y-78432000D01*
%TO.C,D1*%
X179169400Y-65840000D02*
X179169400Y-68780000D01*
X179169400Y-68780000D02*
X184609400Y-68780000D01*
X184609400Y-68780000D02*
X184609400Y-65840000D01*
X184609400Y-65840000D02*
X179169400Y-65840000D01*
X178149400Y-67310000D02*
X179169400Y-67310000D01*
X185629400Y-67310000D02*
X184609400Y-67310000D01*
X180069400Y-65840000D02*
X180069400Y-68780000D01*
X180189400Y-65840000D02*
X180189400Y-68780000D01*
X179949400Y-65840000D02*
X179949400Y-68780000D01*
%TO.C,C2*%
X173607400Y-75592000D02*
X173607400Y-80832000D01*
X170867400Y-75592000D02*
X170867400Y-80832000D01*
X173607400Y-75592000D02*
X170867400Y-75592000D01*
X173607400Y-80832000D02*
X170867400Y-80832000D01*
%TO.C,C1*%
X173861400Y-66702000D02*
X173861400Y-71942000D01*
X171121400Y-66702000D02*
X171121400Y-71942000D01*
X173861400Y-66702000D02*
X171121400Y-66702000D01*
X173861400Y-71942000D02*
X171121400Y-71942000D01*
%TO.C,J1*%
X100407800Y-50318200D02*
X110887800Y-50318200D01*
X110887800Y-50318200D02*
X110887800Y-103538200D01*
X110887800Y-103538200D02*
X100407800Y-103538200D01*
X111782138Y-93298200D02*
X111782138Y-93798200D01*
X111782138Y-93798200D02*
X111349125Y-93548200D01*
X111349125Y-93548200D02*
X111782138Y-93298200D01*
%TO.C,JP7*%
D10*
X175918880Y-85529633D02*
X176633166Y-85529633D01*
X176776023Y-85577252D01*
X176871261Y-85672490D01*
X176918880Y-85815347D01*
X176918880Y-85910585D01*
X176918880Y-85053442D02*
X175918880Y-85053442D01*
X175918880Y-84672490D01*
X175966500Y-84577252D01*
X176014119Y-84529633D01*
X176109357Y-84482014D01*
X176252214Y-84482014D01*
X176347452Y-84529633D01*
X176395071Y-84577252D01*
X176442690Y-84672490D01*
X176442690Y-85053442D01*
X175918880Y-84148680D02*
X175918880Y-83482014D01*
X176918880Y-83910585D01*
X179292571Y-87304571D02*
X179625904Y-87304571D01*
X179768761Y-87828380D02*
X179292571Y-87828380D01*
X179292571Y-86828380D01*
X179768761Y-86828380D01*
X180197333Y-87828380D02*
X180197333Y-86828380D01*
X180768761Y-87828380D01*
X180768761Y-86828380D01*
X181244952Y-87447428D02*
X182006857Y-87447428D01*
X182483047Y-87828380D02*
X182483047Y-86828380D01*
X182721142Y-86828380D01*
X182864000Y-86876000D01*
X182959238Y-86971238D01*
X183006857Y-87066476D01*
X183054476Y-87256952D01*
X183054476Y-87399809D01*
X183006857Y-87590285D01*
X182959238Y-87685523D01*
X182864000Y-87780761D01*
X182721142Y-87828380D01*
X182483047Y-87828380D01*
X183483047Y-87828380D02*
X183483047Y-86828380D01*
X183911619Y-87780761D02*
X184054476Y-87828380D01*
X184292571Y-87828380D01*
X184387809Y-87780761D01*
X184435428Y-87733142D01*
X184483047Y-87637904D01*
X184483047Y-87542666D01*
X184435428Y-87447428D01*
X184387809Y-87399809D01*
X184292571Y-87352190D01*
X184102095Y-87304571D01*
X184006857Y-87256952D01*
X183959238Y-87209333D01*
X183911619Y-87114095D01*
X183911619Y-87018857D01*
X183959238Y-86923619D01*
X184006857Y-86876000D01*
X184102095Y-86828380D01*
X184340190Y-86828380D01*
X184483047Y-86876000D01*
%TO.C,JP6*%
X145413480Y-88056933D02*
X146127766Y-88056933D01*
X146270623Y-88104552D01*
X146365861Y-88199790D01*
X146413480Y-88342647D01*
X146413480Y-88437885D01*
X146413480Y-87580742D02*
X145413480Y-87580742D01*
X145413480Y-87199790D01*
X145461100Y-87104552D01*
X145508719Y-87056933D01*
X145603957Y-87009314D01*
X145746814Y-87009314D01*
X145842052Y-87056933D01*
X145889671Y-87104552D01*
X145937290Y-87199790D01*
X145937290Y-87580742D01*
X145413480Y-86152171D02*
X145413480Y-86342647D01*
X145461100Y-86437885D01*
X145508719Y-86485504D01*
X145651576Y-86580742D01*
X145842052Y-86628361D01*
X146223004Y-86628361D01*
X146318242Y-86580742D01*
X146365861Y-86533123D01*
X146413480Y-86437885D01*
X146413480Y-86247409D01*
X146365861Y-86152171D01*
X146318242Y-86104552D01*
X146223004Y-86056933D01*
X145984909Y-86056933D01*
X145889671Y-86104552D01*
X145842052Y-86152171D01*
X145794433Y-86247409D01*
X145794433Y-86437885D01*
X145842052Y-86533123D01*
X145889671Y-86580742D01*
X145984909Y-86628361D01*
X138220771Y-90215980D02*
X138220771Y-89215980D01*
X138458866Y-89215980D01*
X138601723Y-89263600D01*
X138696961Y-89358838D01*
X138744580Y-89454076D01*
X138792200Y-89644552D01*
X138792200Y-89787409D01*
X138744580Y-89977885D01*
X138696961Y-90073123D01*
X138601723Y-90168361D01*
X138458866Y-90215980D01*
X138220771Y-90215980D01*
X139220771Y-90215980D02*
X139220771Y-89215980D01*
X139649342Y-90168361D02*
X139792200Y-90215980D01*
X140030295Y-90215980D01*
X140125533Y-90168361D01*
X140173152Y-90120742D01*
X140220771Y-90025504D01*
X140220771Y-89930266D01*
X140173152Y-89835028D01*
X140125533Y-89787409D01*
X140030295Y-89739790D01*
X139839819Y-89692171D01*
X139744580Y-89644552D01*
X139696961Y-89596933D01*
X139649342Y-89501695D01*
X139649342Y-89406457D01*
X139696961Y-89311219D01*
X139744580Y-89263600D01*
X139839819Y-89215980D01*
X140077914Y-89215980D01*
X140220771Y-89263600D01*
X140649342Y-89835028D02*
X141411247Y-89835028D01*
X141887438Y-89692171D02*
X142220771Y-89692171D01*
X142363628Y-90215980D02*
X141887438Y-90215980D01*
X141887438Y-89215980D01*
X142363628Y-89215980D01*
X142792200Y-90215980D02*
X142792200Y-89215980D01*
X143363628Y-90215980D01*
X143363628Y-89215980D01*
%TO.C,JP5*%
X141686066Y-69429380D02*
X141686066Y-70143666D01*
X141638447Y-70286523D01*
X141543209Y-70381761D01*
X141400352Y-70429380D01*
X141305114Y-70429380D01*
X142162257Y-70429380D02*
X142162257Y-69429380D01*
X142543209Y-69429380D01*
X142638447Y-69477000D01*
X142686066Y-69524619D01*
X142733685Y-69619857D01*
X142733685Y-69762714D01*
X142686066Y-69857952D01*
X142638447Y-69905571D01*
X142543209Y-69953190D01*
X142162257Y-69953190D01*
X143638447Y-69429380D02*
X143162257Y-69429380D01*
X143114638Y-69905571D01*
X143162257Y-69857952D01*
X143257495Y-69810333D01*
X143495590Y-69810333D01*
X143590828Y-69857952D01*
X143638447Y-69905571D01*
X143686066Y-70000809D01*
X143686066Y-70238904D01*
X143638447Y-70334142D01*
X143590828Y-70381761D01*
X143495590Y-70429380D01*
X143257495Y-70429380D01*
X143162257Y-70381761D01*
X143114638Y-70334142D01*
X145191171Y-77526828D02*
X145191171Y-77193495D01*
X145714980Y-77050638D02*
X145714980Y-77526828D01*
X144714980Y-77526828D01*
X144714980Y-77050638D01*
X145714980Y-76622066D02*
X144714980Y-76622066D01*
X145714980Y-76050638D01*
X144714980Y-76050638D01*
X145334028Y-75574447D02*
X145334028Y-74812542D01*
X145714980Y-74336352D02*
X144714980Y-74336352D01*
X144714980Y-74098257D01*
X144762600Y-73955400D01*
X144857838Y-73860161D01*
X144953076Y-73812542D01*
X145143552Y-73764923D01*
X145286409Y-73764923D01*
X145476885Y-73812542D01*
X145572123Y-73860161D01*
X145667361Y-73955400D01*
X145714980Y-74098257D01*
X145714980Y-74336352D01*
X145714980Y-73336352D02*
X144714980Y-73336352D01*
X145667361Y-72907780D02*
X145714980Y-72764923D01*
X145714980Y-72526828D01*
X145667361Y-72431590D01*
X145619742Y-72383971D01*
X145524504Y-72336352D01*
X145429266Y-72336352D01*
X145334028Y-72383971D01*
X145286409Y-72431590D01*
X145238790Y-72526828D01*
X145191171Y-72717304D01*
X145143552Y-72812542D01*
X145095933Y-72860161D01*
X145000695Y-72907780D01*
X144905457Y-72907780D01*
X144810219Y-72860161D01*
X144762600Y-72812542D01*
X144714980Y-72717304D01*
X144714980Y-72479209D01*
X144762600Y-72336352D01*
%TO.C,D4*%
X188415704Y-80716380D02*
X188415704Y-79716380D01*
X188653800Y-79716380D01*
X188796657Y-79764000D01*
X188891895Y-79859238D01*
X188939514Y-79954476D01*
X188987133Y-80144952D01*
X188987133Y-80287809D01*
X188939514Y-80478285D01*
X188891895Y-80573523D01*
X188796657Y-80668761D01*
X188653800Y-80716380D01*
X188415704Y-80716380D01*
X189844276Y-80049714D02*
X189844276Y-80716380D01*
X189606180Y-79668761D02*
X189368085Y-80383047D01*
X189987133Y-80383047D01*
X179043342Y-80563980D02*
X178471914Y-80563980D01*
X178757628Y-80563980D02*
X178757628Y-79563980D01*
X178662390Y-79706838D01*
X178567152Y-79802076D01*
X178471914Y-79849695D01*
X179471914Y-80563980D02*
X179471914Y-79563980D01*
X180043342Y-80563980D01*
X180043342Y-79563980D01*
X180995723Y-79563980D02*
X180519533Y-79563980D01*
X180471914Y-80040171D01*
X180519533Y-79992552D01*
X180614771Y-79944933D01*
X180852866Y-79944933D01*
X180948104Y-79992552D01*
X180995723Y-80040171D01*
X181043342Y-80135409D01*
X181043342Y-80373504D01*
X180995723Y-80468742D01*
X180948104Y-80516361D01*
X180852866Y-80563980D01*
X180614771Y-80563980D01*
X180519533Y-80516361D01*
X180471914Y-80468742D01*
X181424295Y-79659219D02*
X181471914Y-79611600D01*
X181567152Y-79563980D01*
X181805247Y-79563980D01*
X181900485Y-79611600D01*
X181948104Y-79659219D01*
X181995723Y-79754457D01*
X181995723Y-79849695D01*
X181948104Y-79992552D01*
X181376676Y-80563980D01*
X181995723Y-80563980D01*
X182329057Y-79563980D02*
X182948104Y-79563980D01*
X182614771Y-79944933D01*
X182757628Y-79944933D01*
X182852866Y-79992552D01*
X182900485Y-80040171D01*
X182948104Y-80135409D01*
X182948104Y-80373504D01*
X182900485Y-80468742D01*
X182852866Y-80516361D01*
X182757628Y-80563980D01*
X182471914Y-80563980D01*
X182376676Y-80516361D01*
X182329057Y-80468742D01*
X183900485Y-80563980D02*
X183329057Y-80563980D01*
X183614771Y-80563980D02*
X183614771Y-79563980D01*
X183519533Y-79706838D01*
X183424295Y-79802076D01*
X183329057Y-79849695D01*
X184662390Y-80040171D02*
X184805247Y-80087790D01*
X184852866Y-80135409D01*
X184900485Y-80230647D01*
X184900485Y-80373504D01*
X184852866Y-80468742D01*
X184805247Y-80516361D01*
X184710009Y-80563980D01*
X184329057Y-80563980D01*
X184329057Y-79563980D01*
X184662390Y-79563980D01*
X184757628Y-79611600D01*
X184805247Y-79659219D01*
X184852866Y-79754457D01*
X184852866Y-79849695D01*
X184805247Y-79944933D01*
X184757628Y-79992552D01*
X184662390Y-80040171D01*
X184329057Y-80040171D01*
X186453495Y-82765580D02*
X186453495Y-81765580D01*
X187024923Y-82765580D02*
X186596352Y-82194152D01*
X187024923Y-81765580D02*
X186453495Y-82337009D01*
%TO.C,D2*%
X188568104Y-71216780D02*
X188568104Y-70216780D01*
X188806200Y-70216780D01*
X188949057Y-70264400D01*
X189044295Y-70359638D01*
X189091914Y-70454876D01*
X189139533Y-70645352D01*
X189139533Y-70788209D01*
X189091914Y-70978685D01*
X189044295Y-71073923D01*
X188949057Y-71169161D01*
X188806200Y-71216780D01*
X188568104Y-71216780D01*
X189520485Y-70312019D02*
X189568104Y-70264400D01*
X189663342Y-70216780D01*
X189901438Y-70216780D01*
X189996676Y-70264400D01*
X190044295Y-70312019D01*
X190091914Y-70407257D01*
X190091914Y-70502495D01*
X190044295Y-70645352D01*
X189472866Y-71216780D01*
X190091914Y-71216780D01*
X179195742Y-71064380D02*
X178624314Y-71064380D01*
X178910028Y-71064380D02*
X178910028Y-70064380D01*
X178814790Y-70207238D01*
X178719552Y-70302476D01*
X178624314Y-70350095D01*
X179624314Y-71064380D02*
X179624314Y-70064380D01*
X180195742Y-71064380D01*
X180195742Y-70064380D01*
X181148123Y-70064380D02*
X180671933Y-70064380D01*
X180624314Y-70540571D01*
X180671933Y-70492952D01*
X180767171Y-70445333D01*
X181005266Y-70445333D01*
X181100504Y-70492952D01*
X181148123Y-70540571D01*
X181195742Y-70635809D01*
X181195742Y-70873904D01*
X181148123Y-70969142D01*
X181100504Y-71016761D01*
X181005266Y-71064380D01*
X180767171Y-71064380D01*
X180671933Y-71016761D01*
X180624314Y-70969142D01*
X181576695Y-70159619D02*
X181624314Y-70112000D01*
X181719552Y-70064380D01*
X181957647Y-70064380D01*
X182052885Y-70112000D01*
X182100504Y-70159619D01*
X182148123Y-70254857D01*
X182148123Y-70350095D01*
X182100504Y-70492952D01*
X181529076Y-71064380D01*
X182148123Y-71064380D01*
X182481457Y-70064380D02*
X183100504Y-70064380D01*
X182767171Y-70445333D01*
X182910028Y-70445333D01*
X183005266Y-70492952D01*
X183052885Y-70540571D01*
X183100504Y-70635809D01*
X183100504Y-70873904D01*
X183052885Y-70969142D01*
X183005266Y-71016761D01*
X182910028Y-71064380D01*
X182624314Y-71064380D01*
X182529076Y-71016761D01*
X182481457Y-70969142D01*
X184052885Y-71064380D02*
X183481457Y-71064380D01*
X183767171Y-71064380D02*
X183767171Y-70064380D01*
X183671933Y-70207238D01*
X183576695Y-70302476D01*
X183481457Y-70350095D01*
X184814790Y-70540571D02*
X184957647Y-70588190D01*
X185005266Y-70635809D01*
X185052885Y-70731047D01*
X185052885Y-70873904D01*
X185005266Y-70969142D01*
X184957647Y-71016761D01*
X184862409Y-71064380D01*
X184481457Y-71064380D01*
X184481457Y-70064380D01*
X184814790Y-70064380D01*
X184910028Y-70112000D01*
X184957647Y-70159619D01*
X185005266Y-70254857D01*
X185005266Y-70350095D01*
X184957647Y-70445333D01*
X184910028Y-70492952D01*
X184814790Y-70540571D01*
X184481457Y-70540571D01*
X186707495Y-73138980D02*
X186707495Y-72138980D01*
X187278923Y-73138980D02*
X186850352Y-72567552D01*
X187278923Y-72138980D02*
X186707495Y-72710409D01*
%TO.C,R15*%
X140403342Y-84864380D02*
X140070009Y-84388190D01*
X139831914Y-84864380D02*
X139831914Y-83864380D01*
X140212866Y-83864380D01*
X140308104Y-83912000D01*
X140355723Y-83959619D01*
X140403342Y-84054857D01*
X140403342Y-84197714D01*
X140355723Y-84292952D01*
X140308104Y-84340571D01*
X140212866Y-84388190D01*
X139831914Y-84388190D01*
X141355723Y-84864380D02*
X140784295Y-84864380D01*
X141070009Y-84864380D02*
X141070009Y-83864380D01*
X140974771Y-84007238D01*
X140879533Y-84102476D01*
X140784295Y-84150095D01*
X142260485Y-83864380D02*
X141784295Y-83864380D01*
X141736676Y-84340571D01*
X141784295Y-84292952D01*
X141879533Y-84245333D01*
X142117628Y-84245333D01*
X142212866Y-84292952D01*
X142260485Y-84340571D01*
X142308104Y-84435809D01*
X142308104Y-84673904D01*
X142260485Y-84769142D01*
X142212866Y-84816761D01*
X142117628Y-84864380D01*
X141879533Y-84864380D01*
X141784295Y-84816761D01*
X141736676Y-84769142D01*
X140723952Y-82468980D02*
X140152523Y-82468980D01*
X140438238Y-82468980D02*
X140438238Y-81468980D01*
X140343000Y-81611838D01*
X140247761Y-81707076D01*
X140152523Y-81754695D01*
X141152523Y-82468980D02*
X141152523Y-81468980D01*
X141247761Y-82088028D02*
X141533476Y-82468980D01*
X141533476Y-81802314D02*
X141152523Y-82183266D01*
%TO.C,R14*%
X140403342Y-65857380D02*
X140070009Y-65381190D01*
X139831914Y-65857380D02*
X139831914Y-64857380D01*
X140212866Y-64857380D01*
X140308104Y-64905000D01*
X140355723Y-64952619D01*
X140403342Y-65047857D01*
X140403342Y-65190714D01*
X140355723Y-65285952D01*
X140308104Y-65333571D01*
X140212866Y-65381190D01*
X139831914Y-65381190D01*
X141355723Y-65857380D02*
X140784295Y-65857380D01*
X141070009Y-65857380D02*
X141070009Y-64857380D01*
X140974771Y-65000238D01*
X140879533Y-65095476D01*
X140784295Y-65143095D01*
X142212866Y-65190714D02*
X142212866Y-65857380D01*
X141974771Y-64809761D02*
X141736676Y-65524047D01*
X142355723Y-65524047D01*
X140520752Y-68244980D02*
X139949323Y-68244980D01*
X140235038Y-68244980D02*
X140235038Y-67244980D01*
X140139800Y-67387838D01*
X140044561Y-67483076D01*
X139949323Y-67530695D01*
X140949323Y-68244980D02*
X140949323Y-67244980D01*
X141044561Y-67864028D02*
X141330276Y-68244980D01*
X141330276Y-67578314D02*
X140949323Y-67959266D01*
%TO.C,R3*%
X132116533Y-109664580D02*
X131783200Y-109188390D01*
X131545104Y-109664580D02*
X131545104Y-108664580D01*
X131926057Y-108664580D01*
X132021295Y-108712200D01*
X132068914Y-108759819D01*
X132116533Y-108855057D01*
X132116533Y-108997914D01*
X132068914Y-109093152D01*
X132021295Y-109140771D01*
X131926057Y-109188390D01*
X131545104Y-109188390D01*
X132449866Y-108664580D02*
X133068914Y-108664580D01*
X132735580Y-109045533D01*
X132878438Y-109045533D01*
X132973676Y-109093152D01*
X133021295Y-109140771D01*
X133068914Y-109236009D01*
X133068914Y-109474104D01*
X133021295Y-109569342D01*
X132973676Y-109616961D01*
X132878438Y-109664580D01*
X132592723Y-109664580D01*
X132497485Y-109616961D01*
X132449866Y-109569342D01*
X132018114Y-112059980D02*
X131446685Y-112059980D01*
X131732400Y-112059980D02*
X131732400Y-111059980D01*
X131637161Y-111202838D01*
X131541923Y-111298076D01*
X131446685Y-111345695D01*
X132446685Y-112059980D02*
X132446685Y-111059980D01*
X133018114Y-112059980D02*
X132589542Y-111488552D01*
X133018114Y-111059980D02*
X132446685Y-111631409D01*
%TO.C,R2*%
X136967933Y-119375180D02*
X136634600Y-118898990D01*
X136396504Y-119375180D02*
X136396504Y-118375180D01*
X136777457Y-118375180D01*
X136872695Y-118422800D01*
X136920314Y-118470419D01*
X136967933Y-118565657D01*
X136967933Y-118708514D01*
X136920314Y-118803752D01*
X136872695Y-118851371D01*
X136777457Y-118898990D01*
X136396504Y-118898990D01*
X137348885Y-118470419D02*
X137396504Y-118422800D01*
X137491742Y-118375180D01*
X137729838Y-118375180D01*
X137825076Y-118422800D01*
X137872695Y-118470419D01*
X137920314Y-118565657D01*
X137920314Y-118660895D01*
X137872695Y-118803752D01*
X137301266Y-119375180D01*
X137920314Y-119375180D01*
X135577390Y-116486014D02*
X135577390Y-117152680D01*
X135339295Y-116105061D02*
X135101200Y-116819347D01*
X135720247Y-116819347D01*
X136101200Y-117057442D02*
X136148819Y-117105061D01*
X136101200Y-117152680D01*
X136053580Y-117105061D01*
X136101200Y-117057442D01*
X136101200Y-117152680D01*
X136482152Y-116152680D02*
X137148819Y-116152680D01*
X136720247Y-117152680D01*
X137529771Y-117152680D02*
X137529771Y-116152680D01*
X138101200Y-117152680D02*
X137672628Y-116581252D01*
X138101200Y-116152680D02*
X137529771Y-116724109D01*
%TO.C,R1*%
X147102533Y-119146580D02*
X146769200Y-118670390D01*
X146531104Y-119146580D02*
X146531104Y-118146580D01*
X146912057Y-118146580D01*
X147007295Y-118194200D01*
X147054914Y-118241819D01*
X147102533Y-118337057D01*
X147102533Y-118479914D01*
X147054914Y-118575152D01*
X147007295Y-118622771D01*
X146912057Y-118670390D01*
X146531104Y-118670390D01*
X148054914Y-119146580D02*
X147483485Y-119146580D01*
X147769200Y-119146580D02*
X147769200Y-118146580D01*
X147673961Y-118289438D01*
X147578723Y-118384676D01*
X147483485Y-118432295D01*
X145753295Y-115981219D02*
X145800914Y-115933600D01*
X145896152Y-115885980D01*
X146134247Y-115885980D01*
X146229485Y-115933600D01*
X146277104Y-115981219D01*
X146324723Y-116076457D01*
X146324723Y-116171695D01*
X146277104Y-116314552D01*
X145705676Y-116885980D01*
X146324723Y-116885980D01*
X147181866Y-116219314D02*
X147181866Y-116885980D01*
X146943771Y-115838361D02*
X146705676Y-116552647D01*
X147324723Y-116552647D01*
X147705676Y-116885980D02*
X147705676Y-115885980D01*
X148277104Y-116885980D02*
X147848533Y-116314552D01*
X148277104Y-115885980D02*
X147705676Y-116457409D01*
%TO.C,Q1*%
X146665961Y-112383819D02*
X146570723Y-112336200D01*
X146475485Y-112240961D01*
X146332628Y-112098104D01*
X146237390Y-112050485D01*
X146142152Y-112050485D01*
X146189771Y-112288580D02*
X146094533Y-112240961D01*
X145999295Y-112145723D01*
X145951676Y-111955247D01*
X145951676Y-111621914D01*
X145999295Y-111431438D01*
X146094533Y-111336200D01*
X146189771Y-111288580D01*
X146380247Y-111288580D01*
X146475485Y-111336200D01*
X146570723Y-111431438D01*
X146618342Y-111621914D01*
X146618342Y-111955247D01*
X146570723Y-112145723D01*
X146475485Y-112240961D01*
X146380247Y-112288580D01*
X146189771Y-112288580D01*
X147570723Y-112288580D02*
X146999295Y-112288580D01*
X147285009Y-112288580D02*
X147285009Y-111288580D01*
X147189771Y-111431438D01*
X147094533Y-111526676D01*
X146999295Y-111574295D01*
X138928814Y-108365219D02*
X138976433Y-108317600D01*
X139071671Y-108269980D01*
X139309766Y-108269980D01*
X139405004Y-108317600D01*
X139452623Y-108365219D01*
X139500242Y-108460457D01*
X139500242Y-108555695D01*
X139452623Y-108698552D01*
X138881195Y-109269980D01*
X139500242Y-109269980D01*
X139928814Y-109269980D02*
X139928814Y-108269980D01*
X140500242Y-109269980D01*
X140500242Y-108269980D01*
X140881195Y-108269980D02*
X141500242Y-108269980D01*
X141166909Y-108650933D01*
X141309766Y-108650933D01*
X141405004Y-108698552D01*
X141452623Y-108746171D01*
X141500242Y-108841409D01*
X141500242Y-109079504D01*
X141452623Y-109174742D01*
X141405004Y-109222361D01*
X141309766Y-109269980D01*
X141024052Y-109269980D01*
X140928814Y-109222361D01*
X140881195Y-109174742D01*
X141976433Y-109269980D02*
X142166909Y-109269980D01*
X142262147Y-109222361D01*
X142309766Y-109174742D01*
X142405004Y-109031885D01*
X142452623Y-108841409D01*
X142452623Y-108460457D01*
X142405004Y-108365219D01*
X142357385Y-108317600D01*
X142262147Y-108269980D01*
X142071671Y-108269980D01*
X141976433Y-108317600D01*
X141928814Y-108365219D01*
X141881195Y-108460457D01*
X141881195Y-108698552D01*
X141928814Y-108793790D01*
X141976433Y-108841409D01*
X142071671Y-108889028D01*
X142262147Y-108889028D01*
X142357385Y-108841409D01*
X142405004Y-108793790D01*
X142452623Y-108698552D01*
X143071671Y-108269980D02*
X143166909Y-108269980D01*
X143262147Y-108317600D01*
X143309766Y-108365219D01*
X143357385Y-108460457D01*
X143405004Y-108650933D01*
X143405004Y-108889028D01*
X143357385Y-109079504D01*
X143309766Y-109174742D01*
X143262147Y-109222361D01*
X143166909Y-109269980D01*
X143071671Y-109269980D01*
X142976433Y-109222361D01*
X142928814Y-109174742D01*
X142881195Y-109079504D01*
X142833576Y-108889028D01*
X142833576Y-108650933D01*
X142881195Y-108460457D01*
X142928814Y-108365219D01*
X142976433Y-108317600D01*
X143071671Y-108269980D01*
X144262147Y-108269980D02*
X144071671Y-108269980D01*
X143976433Y-108317600D01*
X143928814Y-108365219D01*
X143833576Y-108508076D01*
X143785957Y-108698552D01*
X143785957Y-109079504D01*
X143833576Y-109174742D01*
X143881195Y-109222361D01*
X143976433Y-109269980D01*
X144166909Y-109269980D01*
X144262147Y-109222361D01*
X144309766Y-109174742D01*
X144357385Y-109079504D01*
X144357385Y-108841409D01*
X144309766Y-108746171D01*
X144262147Y-108698552D01*
X144166909Y-108650933D01*
X143976433Y-108650933D01*
X143881195Y-108698552D01*
X143833576Y-108746171D01*
X143785957Y-108841409D01*
%TO.C,JP4*%
X153611366Y-83996280D02*
X153611366Y-84710566D01*
X153563747Y-84853423D01*
X153468509Y-84948661D01*
X153325652Y-84996280D01*
X153230414Y-84996280D01*
X154087557Y-84996280D02*
X154087557Y-83996280D01*
X154468509Y-83996280D01*
X154563747Y-84043900D01*
X154611366Y-84091519D01*
X154658985Y-84186757D01*
X154658985Y-84329614D01*
X154611366Y-84424852D01*
X154563747Y-84472471D01*
X154468509Y-84520090D01*
X154087557Y-84520090D01*
X155516128Y-84329614D02*
X155516128Y-84996280D01*
X155278033Y-83948661D02*
X155039938Y-84662947D01*
X155658985Y-84662947D01*
X152166580Y-82319428D02*
X151166580Y-82319428D01*
X151642771Y-82319428D02*
X151642771Y-81748000D01*
X152166580Y-81748000D02*
X151166580Y-81748000D01*
X151880866Y-81319428D02*
X151880866Y-80843238D01*
X152166580Y-81414666D02*
X151166580Y-81081333D01*
X152166580Y-80748000D01*
X152166580Y-79938476D02*
X152166580Y-80414666D01*
X151166580Y-80414666D01*
X152166580Y-79128952D02*
X152166580Y-79605142D01*
X151166580Y-79605142D01*
X151785628Y-78795619D02*
X151785628Y-78033714D01*
X151166580Y-77700380D02*
X152166580Y-77367047D01*
X151166580Y-77033714D01*
X152166580Y-76128952D02*
X151690390Y-76462285D01*
X152166580Y-76700380D02*
X151166580Y-76700380D01*
X151166580Y-76319428D01*
X151214200Y-76224190D01*
X151261819Y-76176571D01*
X151357057Y-76128952D01*
X151499914Y-76128952D01*
X151595152Y-76176571D01*
X151642771Y-76224190D01*
X151690390Y-76319428D01*
X151690390Y-76700380D01*
%TO.C,JP3*%
X153408166Y-64654180D02*
X153408166Y-65368466D01*
X153360547Y-65511323D01*
X153265309Y-65606561D01*
X153122452Y-65654180D01*
X153027214Y-65654180D01*
X153884357Y-65654180D02*
X153884357Y-64654180D01*
X154265309Y-64654180D01*
X154360547Y-64701800D01*
X154408166Y-64749419D01*
X154455785Y-64844657D01*
X154455785Y-64987514D01*
X154408166Y-65082752D01*
X154360547Y-65130371D01*
X154265309Y-65177990D01*
X153884357Y-65177990D01*
X154789119Y-64654180D02*
X155408166Y-64654180D01*
X155074833Y-65035133D01*
X155217690Y-65035133D01*
X155312928Y-65082752D01*
X155360547Y-65130371D01*
X155408166Y-65225609D01*
X155408166Y-65463704D01*
X155360547Y-65558942D01*
X155312928Y-65606561D01*
X155217690Y-65654180D01*
X154931976Y-65654180D01*
X154836738Y-65606561D01*
X154789119Y-65558942D01*
X150912580Y-73318285D02*
X151912580Y-72984952D01*
X150912580Y-72651619D01*
X151912580Y-71746857D02*
X151436390Y-72080190D01*
X151912580Y-72318285D02*
X150912580Y-72318285D01*
X150912580Y-71937333D01*
X150960200Y-71842095D01*
X151007819Y-71794476D01*
X151103057Y-71746857D01*
X151245914Y-71746857D01*
X151341152Y-71794476D01*
X151388771Y-71842095D01*
X151436390Y-71937333D01*
X151436390Y-72318285D01*
X151531628Y-71318285D02*
X151531628Y-70556380D01*
X151912580Y-70080190D02*
X150912580Y-70080190D01*
X151388771Y-70080190D02*
X151388771Y-69508761D01*
X151912580Y-69508761D02*
X150912580Y-69508761D01*
X151626866Y-69080190D02*
X151626866Y-68604000D01*
X151912580Y-69175428D02*
X150912580Y-68842095D01*
X151912580Y-68508761D01*
X151912580Y-67699238D02*
X151912580Y-68175428D01*
X150912580Y-68175428D01*
X151912580Y-66889714D02*
X151912580Y-67365904D01*
X150912580Y-67365904D01*
%TO.C,JP2*%
X147731266Y-76236580D02*
X147731266Y-76950866D01*
X147683647Y-77093723D01*
X147588409Y-77188961D01*
X147445552Y-77236580D01*
X147350314Y-77236580D01*
X148207457Y-77236580D02*
X148207457Y-76236580D01*
X148588409Y-76236580D01*
X148683647Y-76284200D01*
X148731266Y-76331819D01*
X148778885Y-76427057D01*
X148778885Y-76569914D01*
X148731266Y-76665152D01*
X148683647Y-76712771D01*
X148588409Y-76760390D01*
X148207457Y-76760390D01*
X149159838Y-76331819D02*
X149207457Y-76284200D01*
X149302695Y-76236580D01*
X149540790Y-76236580D01*
X149636028Y-76284200D01*
X149683647Y-76331819D01*
X149731266Y-76427057D01*
X149731266Y-76522295D01*
X149683647Y-76665152D01*
X149112219Y-77236580D01*
X149731266Y-77236580D01*
X145364604Y-85250280D02*
X145364604Y-84250280D01*
X145745557Y-84250280D01*
X145840795Y-84297900D01*
X145888414Y-84345519D01*
X145936033Y-84440757D01*
X145936033Y-84583614D01*
X145888414Y-84678852D01*
X145840795Y-84726471D01*
X145745557Y-84774090D01*
X145364604Y-84774090D01*
X146364604Y-84250280D02*
X146364604Y-85059804D01*
X146412223Y-85155042D01*
X146459842Y-85202661D01*
X146555080Y-85250280D01*
X146745557Y-85250280D01*
X146840795Y-85202661D01*
X146888414Y-85155042D01*
X146936033Y-85059804D01*
X146936033Y-84250280D01*
X147888414Y-85250280D02*
X147412223Y-85250280D01*
X147412223Y-84250280D01*
X148697938Y-85250280D02*
X148221747Y-85250280D01*
X148221747Y-84250280D01*
X149031271Y-84869328D02*
X149793176Y-84869328D01*
X150269366Y-84250280D02*
X150269366Y-85059804D01*
X150316985Y-85155042D01*
X150364604Y-85202661D01*
X150459842Y-85250280D01*
X150650319Y-85250280D01*
X150745557Y-85202661D01*
X150793176Y-85155042D01*
X150840795Y-85059804D01*
X150840795Y-84250280D01*
X151316985Y-85250280D02*
X151316985Y-84250280D01*
X151697938Y-84250280D01*
X151793176Y-84297900D01*
X151840795Y-84345519D01*
X151888414Y-84440757D01*
X151888414Y-84583614D01*
X151840795Y-84678852D01*
X151793176Y-84726471D01*
X151697938Y-84774090D01*
X151316985Y-84774090D01*
%TO.C,JP1*%
X147477266Y-72578980D02*
X147477266Y-73293266D01*
X147429647Y-73436123D01*
X147334409Y-73531361D01*
X147191552Y-73578980D01*
X147096314Y-73578980D01*
X147953457Y-73578980D02*
X147953457Y-72578980D01*
X148334409Y-72578980D01*
X148429647Y-72626600D01*
X148477266Y-72674219D01*
X148524885Y-72769457D01*
X148524885Y-72912314D01*
X148477266Y-73007552D01*
X148429647Y-73055171D01*
X148334409Y-73102790D01*
X147953457Y-73102790D01*
X149477266Y-73578980D02*
X148905838Y-73578980D01*
X149191552Y-73578980D02*
X149191552Y-72578980D01*
X149096314Y-72721838D01*
X149001076Y-72817076D01*
X148905838Y-72864695D01*
X145618604Y-65552580D02*
X145618604Y-64552580D01*
X145999557Y-64552580D01*
X146094795Y-64600200D01*
X146142414Y-64647819D01*
X146190033Y-64743057D01*
X146190033Y-64885914D01*
X146142414Y-64981152D01*
X146094795Y-65028771D01*
X145999557Y-65076390D01*
X145618604Y-65076390D01*
X146618604Y-64552580D02*
X146618604Y-65362104D01*
X146666223Y-65457342D01*
X146713842Y-65504961D01*
X146809080Y-65552580D01*
X146999557Y-65552580D01*
X147094795Y-65504961D01*
X147142414Y-65457342D01*
X147190033Y-65362104D01*
X147190033Y-64552580D01*
X148142414Y-65552580D02*
X147666223Y-65552580D01*
X147666223Y-64552580D01*
X148951938Y-65552580D02*
X148475747Y-65552580D01*
X148475747Y-64552580D01*
X149285271Y-65171628D02*
X150047176Y-65171628D01*
X150523366Y-64552580D02*
X150523366Y-65362104D01*
X150570985Y-65457342D01*
X150618604Y-65504961D01*
X150713842Y-65552580D01*
X150904319Y-65552580D01*
X150999557Y-65504961D01*
X151047176Y-65457342D01*
X151094795Y-65362104D01*
X151094795Y-64552580D01*
X151570985Y-65552580D02*
X151570985Y-64552580D01*
X151951938Y-64552580D01*
X152047176Y-64600200D01*
X152094795Y-64647819D01*
X152142414Y-64743057D01*
X152142414Y-64885914D01*
X152094795Y-64981152D01*
X152047176Y-65028771D01*
X151951938Y-65076390D01*
X151570985Y-65076390D01*
%TO.C,J6*%
X174826680Y-96942233D02*
X175540966Y-96942233D01*
X175683823Y-96989852D01*
X175779061Y-97085090D01*
X175826680Y-97227947D01*
X175826680Y-97323185D01*
X174826680Y-96037471D02*
X174826680Y-96227947D01*
X174874300Y-96323185D01*
X174921919Y-96370804D01*
X175064776Y-96466042D01*
X175255252Y-96513661D01*
X175636204Y-96513661D01*
X175731442Y-96466042D01*
X175779061Y-96418423D01*
X175826680Y-96323185D01*
X175826680Y-96132709D01*
X175779061Y-96037471D01*
X175731442Y-95989852D01*
X175636204Y-95942233D01*
X175398109Y-95942233D01*
X175302871Y-95989852D01*
X175255252Y-96037471D01*
X175207633Y-96132709D01*
X175207633Y-96323185D01*
X175255252Y-96418423D01*
X175302871Y-96466042D01*
X175398109Y-96513661D01*
%TO.C,J5*%
X107961180Y-121338933D02*
X108675466Y-121338933D01*
X108818323Y-121386552D01*
X108913561Y-121481790D01*
X108961180Y-121624647D01*
X108961180Y-121719885D01*
X107961180Y-120386552D02*
X107961180Y-120862742D01*
X108437371Y-120910361D01*
X108389752Y-120862742D01*
X108342133Y-120767504D01*
X108342133Y-120529409D01*
X108389752Y-120434171D01*
X108437371Y-120386552D01*
X108532609Y-120338933D01*
X108770704Y-120338933D01*
X108865942Y-120386552D01*
X108913561Y-120434171D01*
X108961180Y-120529409D01*
X108961180Y-120767504D01*
X108913561Y-120862742D01*
X108865942Y-120910361D01*
%TO.C,J4*%
X120227766Y-43597580D02*
X120227766Y-44311866D01*
X120180147Y-44454723D01*
X120084909Y-44549961D01*
X119942052Y-44597580D01*
X119846814Y-44597580D01*
X121132528Y-43930914D02*
X121132528Y-44597580D01*
X120894433Y-43549961D02*
X120656338Y-44264247D01*
X121275385Y-44264247D01*
%TO.C,J3*%
X202207880Y-58689833D02*
X202922166Y-58689833D01*
X203065023Y-58737452D01*
X203160261Y-58832690D01*
X203207880Y-58975547D01*
X203207880Y-59070785D01*
X202207880Y-58308880D02*
X202207880Y-57689833D01*
X202588833Y-58023166D01*
X202588833Y-57880309D01*
X202636452Y-57785071D01*
X202684071Y-57737452D01*
X202779309Y-57689833D01*
X203017404Y-57689833D01*
X203112642Y-57737452D01*
X203160261Y-57785071D01*
X203207880Y-57880309D01*
X203207880Y-58166023D01*
X203160261Y-58261261D01*
X203112642Y-58308880D01*
%TO.C,J2*%
X120227766Y-80389480D02*
X120227766Y-81103766D01*
X120180147Y-81246623D01*
X120084909Y-81341861D01*
X119942052Y-81389480D01*
X119846814Y-81389480D01*
X120656338Y-80484719D02*
X120703957Y-80437100D01*
X120799195Y-80389480D01*
X121037290Y-80389480D01*
X121132528Y-80437100D01*
X121180147Y-80484719D01*
X121227766Y-80579957D01*
X121227766Y-80675195D01*
X121180147Y-80818052D01*
X120608719Y-81389480D01*
X121227766Y-81389480D01*
%TO.C,IC1*%
X162422009Y-68988380D02*
X162422009Y-67988380D01*
X163469628Y-68893142D02*
X163422009Y-68940761D01*
X163279152Y-68988380D01*
X163183914Y-68988380D01*
X163041057Y-68940761D01*
X162945819Y-68845523D01*
X162898200Y-68750285D01*
X162850580Y-68559809D01*
X162850580Y-68416952D01*
X162898200Y-68226476D01*
X162945819Y-68131238D01*
X163041057Y-68036000D01*
X163183914Y-67988380D01*
X163279152Y-67988380D01*
X163422009Y-68036000D01*
X163469628Y-68083619D01*
X164422009Y-68988380D02*
X163850580Y-68988380D01*
X164136295Y-68988380D02*
X164136295Y-67988380D01*
X164041057Y-68131238D01*
X163945819Y-68226476D01*
X163850580Y-68274095D01*
X157017247Y-80268380D02*
X157588676Y-80268380D01*
X157302961Y-81268380D02*
X157302961Y-80268380D01*
X157922009Y-81268380D02*
X157922009Y-80601714D01*
X157922009Y-80792190D02*
X157969628Y-80696952D01*
X158017247Y-80649333D01*
X158112485Y-80601714D01*
X158207723Y-80601714D01*
X158541057Y-81268380D02*
X158541057Y-80601714D01*
X158541057Y-80268380D02*
X158493438Y-80316000D01*
X158541057Y-80363619D01*
X158588676Y-80316000D01*
X158541057Y-80268380D01*
X158541057Y-80363619D01*
X159445819Y-80601714D02*
X159445819Y-81411238D01*
X159398200Y-81506476D01*
X159350580Y-81554095D01*
X159255342Y-81601714D01*
X159112485Y-81601714D01*
X159017247Y-81554095D01*
X159445819Y-81220761D02*
X159350580Y-81268380D01*
X159160104Y-81268380D01*
X159064866Y-81220761D01*
X159017247Y-81173142D01*
X158969628Y-81077904D01*
X158969628Y-80792190D01*
X159017247Y-80696952D01*
X159064866Y-80649333D01*
X159160104Y-80601714D01*
X159350580Y-80601714D01*
X159445819Y-80649333D01*
X161255342Y-81173142D02*
X161207723Y-81220761D01*
X161064866Y-81268380D01*
X160969628Y-81268380D01*
X160826771Y-81220761D01*
X160731533Y-81125523D01*
X160683914Y-81030285D01*
X160636295Y-80839809D01*
X160636295Y-80696952D01*
X160683914Y-80506476D01*
X160731533Y-80411238D01*
X160826771Y-80316000D01*
X160969628Y-80268380D01*
X161064866Y-80268380D01*
X161207723Y-80316000D01*
X161255342Y-80363619D01*
X161826771Y-81268380D02*
X161731533Y-81220761D01*
X161683914Y-81173142D01*
X161636295Y-81077904D01*
X161636295Y-80792190D01*
X161683914Y-80696952D01*
X161731533Y-80649333D01*
X161826771Y-80601714D01*
X161969628Y-80601714D01*
X162064866Y-80649333D01*
X162112485Y-80696952D01*
X162160104Y-80792190D01*
X162160104Y-81077904D01*
X162112485Y-81173142D01*
X162064866Y-81220761D01*
X161969628Y-81268380D01*
X161826771Y-81268380D01*
X162588676Y-80601714D02*
X162588676Y-81268380D01*
X162588676Y-80696952D02*
X162636295Y-80649333D01*
X162731533Y-80601714D01*
X162874390Y-80601714D01*
X162969628Y-80649333D01*
X163017247Y-80744571D01*
X163017247Y-81268380D01*
X163922009Y-81268380D02*
X163922009Y-80268380D01*
X163922009Y-81220761D02*
X163826771Y-81268380D01*
X163636295Y-81268380D01*
X163541057Y-81220761D01*
X163493438Y-81173142D01*
X163445819Y-81077904D01*
X163445819Y-80792190D01*
X163493438Y-80696952D01*
X163541057Y-80649333D01*
X163636295Y-80601714D01*
X163826771Y-80601714D01*
X163922009Y-80649333D01*
X165112485Y-81220761D02*
X165255342Y-81268380D01*
X165493438Y-81268380D01*
X165588676Y-81220761D01*
X165636295Y-81173142D01*
X165683914Y-81077904D01*
X165683914Y-80982666D01*
X165636295Y-80887428D01*
X165588676Y-80839809D01*
X165493438Y-80792190D01*
X165302961Y-80744571D01*
X165207723Y-80696952D01*
X165160104Y-80649333D01*
X165112485Y-80554095D01*
X165112485Y-80458857D01*
X165160104Y-80363619D01*
X165207723Y-80316000D01*
X165302961Y-80268380D01*
X165541057Y-80268380D01*
X165683914Y-80316000D01*
X166255342Y-81268380D02*
X166160104Y-81220761D01*
X166112485Y-81173142D01*
X166064866Y-81077904D01*
X166064866Y-80792190D01*
X166112485Y-80696952D01*
X166160104Y-80649333D01*
X166255342Y-80601714D01*
X166398200Y-80601714D01*
X166493438Y-80649333D01*
X166541057Y-80696952D01*
X166588676Y-80792190D01*
X166588676Y-81077904D01*
X166541057Y-81173142D01*
X166493438Y-81220761D01*
X166398200Y-81268380D01*
X166255342Y-81268380D01*
X167445819Y-81220761D02*
X167350580Y-81268380D01*
X167160104Y-81268380D01*
X167064866Y-81220761D01*
X167017247Y-81173142D01*
X166969628Y-81077904D01*
X166969628Y-80792190D01*
X167017247Y-80696952D01*
X167064866Y-80649333D01*
X167160104Y-80601714D01*
X167350580Y-80601714D01*
X167445819Y-80649333D01*
X167874390Y-81268380D02*
X167874390Y-80268380D01*
X167969628Y-80887428D02*
X168255342Y-81268380D01*
X168255342Y-80601714D02*
X167874390Y-80982666D01*
X169064866Y-81220761D02*
X168969628Y-81268380D01*
X168779152Y-81268380D01*
X168683914Y-81220761D01*
X168636295Y-81125523D01*
X168636295Y-80744571D01*
X168683914Y-80649333D01*
X168779152Y-80601714D01*
X168969628Y-80601714D01*
X169064866Y-80649333D01*
X169112485Y-80744571D01*
X169112485Y-80839809D01*
X168636295Y-80935047D01*
X169398200Y-80601714D02*
X169779152Y-80601714D01*
X169541057Y-80268380D02*
X169541057Y-81125523D01*
X169588676Y-81220761D01*
X169683914Y-81268380D01*
X169779152Y-81268380D01*
%TO.C,D3*%
X188517304Y-77160380D02*
X188517304Y-76160380D01*
X188755400Y-76160380D01*
X188898257Y-76208000D01*
X188993495Y-76303238D01*
X189041114Y-76398476D01*
X189088733Y-76588952D01*
X189088733Y-76731809D01*
X189041114Y-76922285D01*
X188993495Y-77017523D01*
X188898257Y-77112761D01*
X188755400Y-77160380D01*
X188517304Y-77160380D01*
X189422066Y-76160380D02*
X190041114Y-76160380D01*
X189707780Y-76541333D01*
X189850638Y-76541333D01*
X189945876Y-76588952D01*
X189993495Y-76636571D01*
X190041114Y-76731809D01*
X190041114Y-76969904D01*
X189993495Y-77065142D01*
X189945876Y-77112761D01*
X189850638Y-77160380D01*
X189564923Y-77160380D01*
X189469685Y-77112761D01*
X189422066Y-77065142D01*
X179492542Y-77414380D02*
X178921114Y-77414380D01*
X179206828Y-77414380D02*
X179206828Y-76414380D01*
X179111590Y-76557238D01*
X179016352Y-76652476D01*
X178921114Y-76700095D01*
X179921114Y-77414380D02*
X179921114Y-76414380D01*
X180492542Y-77414380D01*
X180492542Y-76414380D01*
X181444923Y-76414380D02*
X180968733Y-76414380D01*
X180921114Y-76890571D01*
X180968733Y-76842952D01*
X181063971Y-76795333D01*
X181302066Y-76795333D01*
X181397304Y-76842952D01*
X181444923Y-76890571D01*
X181492542Y-76985809D01*
X181492542Y-77223904D01*
X181444923Y-77319142D01*
X181397304Y-77366761D01*
X181302066Y-77414380D01*
X181063971Y-77414380D01*
X180968733Y-77366761D01*
X180921114Y-77319142D01*
X182063971Y-76842952D02*
X181968733Y-76795333D01*
X181921114Y-76747714D01*
X181873495Y-76652476D01*
X181873495Y-76604857D01*
X181921114Y-76509619D01*
X181968733Y-76462000D01*
X182063971Y-76414380D01*
X182254447Y-76414380D01*
X182349685Y-76462000D01*
X182397304Y-76509619D01*
X182444923Y-76604857D01*
X182444923Y-76652476D01*
X182397304Y-76747714D01*
X182349685Y-76795333D01*
X182254447Y-76842952D01*
X182063971Y-76842952D01*
X181968733Y-76890571D01*
X181921114Y-76938190D01*
X181873495Y-77033428D01*
X181873495Y-77223904D01*
X181921114Y-77319142D01*
X181968733Y-77366761D01*
X182063971Y-77414380D01*
X182254447Y-77414380D01*
X182349685Y-77366761D01*
X182397304Y-77319142D01*
X182444923Y-77223904D01*
X182444923Y-77033428D01*
X182397304Y-76938190D01*
X182349685Y-76890571D01*
X182254447Y-76842952D01*
X183397304Y-77414380D02*
X182825876Y-77414380D01*
X183111590Y-77414380D02*
X183111590Y-76414380D01*
X183016352Y-76557238D01*
X182921114Y-76652476D01*
X182825876Y-76700095D01*
X183968733Y-76842952D02*
X183873495Y-76795333D01*
X183825876Y-76747714D01*
X183778257Y-76652476D01*
X183778257Y-76604857D01*
X183825876Y-76509619D01*
X183873495Y-76462000D01*
X183968733Y-76414380D01*
X184159209Y-76414380D01*
X184254447Y-76462000D01*
X184302066Y-76509619D01*
X184349685Y-76604857D01*
X184349685Y-76652476D01*
X184302066Y-76747714D01*
X184254447Y-76795333D01*
X184159209Y-76842952D01*
X183968733Y-76842952D01*
X183873495Y-76890571D01*
X183825876Y-76938190D01*
X183778257Y-77033428D01*
X183778257Y-77223904D01*
X183825876Y-77319142D01*
X183873495Y-77366761D01*
X183968733Y-77414380D01*
X184159209Y-77414380D01*
X184254447Y-77366761D01*
X184302066Y-77319142D01*
X184349685Y-77223904D01*
X184349685Y-77033428D01*
X184302066Y-76938190D01*
X184254447Y-76890571D01*
X184159209Y-76842952D01*
X176293495Y-75314380D02*
X176293495Y-74314380D01*
X176864923Y-75314380D02*
X176436352Y-74742952D01*
X176864923Y-74314380D02*
X176293495Y-74885809D01*
%TO.C,D1*%
X188771304Y-67508380D02*
X188771304Y-66508380D01*
X189009400Y-66508380D01*
X189152257Y-66556000D01*
X189247495Y-66651238D01*
X189295114Y-66746476D01*
X189342733Y-66936952D01*
X189342733Y-67079809D01*
X189295114Y-67270285D01*
X189247495Y-67365523D01*
X189152257Y-67460761D01*
X189009400Y-67508380D01*
X188771304Y-67508380D01*
X190295114Y-67508380D02*
X189723685Y-67508380D01*
X190009400Y-67508380D02*
X190009400Y-66508380D01*
X189914161Y-66651238D01*
X189818923Y-66746476D01*
X189723685Y-66794095D01*
X179746542Y-67762380D02*
X179175114Y-67762380D01*
X179460828Y-67762380D02*
X179460828Y-66762380D01*
X179365590Y-66905238D01*
X179270352Y-67000476D01*
X179175114Y-67048095D01*
X180175114Y-67762380D02*
X180175114Y-66762380D01*
X180746542Y-67762380D01*
X180746542Y-66762380D01*
X181698923Y-66762380D02*
X181222733Y-66762380D01*
X181175114Y-67238571D01*
X181222733Y-67190952D01*
X181317971Y-67143333D01*
X181556066Y-67143333D01*
X181651304Y-67190952D01*
X181698923Y-67238571D01*
X181746542Y-67333809D01*
X181746542Y-67571904D01*
X181698923Y-67667142D01*
X181651304Y-67714761D01*
X181556066Y-67762380D01*
X181317971Y-67762380D01*
X181222733Y-67714761D01*
X181175114Y-67667142D01*
X182317971Y-67190952D02*
X182222733Y-67143333D01*
X182175114Y-67095714D01*
X182127495Y-67000476D01*
X182127495Y-66952857D01*
X182175114Y-66857619D01*
X182222733Y-66810000D01*
X182317971Y-66762380D01*
X182508447Y-66762380D01*
X182603685Y-66810000D01*
X182651304Y-66857619D01*
X182698923Y-66952857D01*
X182698923Y-67000476D01*
X182651304Y-67095714D01*
X182603685Y-67143333D01*
X182508447Y-67190952D01*
X182317971Y-67190952D01*
X182222733Y-67238571D01*
X182175114Y-67286190D01*
X182127495Y-67381428D01*
X182127495Y-67571904D01*
X182175114Y-67667142D01*
X182222733Y-67714761D01*
X182317971Y-67762380D01*
X182508447Y-67762380D01*
X182603685Y-67714761D01*
X182651304Y-67667142D01*
X182698923Y-67571904D01*
X182698923Y-67381428D01*
X182651304Y-67286190D01*
X182603685Y-67238571D01*
X182508447Y-67190952D01*
X183651304Y-67762380D02*
X183079876Y-67762380D01*
X183365590Y-67762380D02*
X183365590Y-66762380D01*
X183270352Y-66905238D01*
X183175114Y-67000476D01*
X183079876Y-67048095D01*
X184222733Y-67190952D02*
X184127495Y-67143333D01*
X184079876Y-67095714D01*
X184032257Y-67000476D01*
X184032257Y-66952857D01*
X184079876Y-66857619D01*
X184127495Y-66810000D01*
X184222733Y-66762380D01*
X184413209Y-66762380D01*
X184508447Y-66810000D01*
X184556066Y-66857619D01*
X184603685Y-66952857D01*
X184603685Y-67000476D01*
X184556066Y-67095714D01*
X184508447Y-67143333D01*
X184413209Y-67190952D01*
X184222733Y-67190952D01*
X184127495Y-67238571D01*
X184079876Y-67286190D01*
X184032257Y-67381428D01*
X184032257Y-67571904D01*
X184079876Y-67667142D01*
X184127495Y-67714761D01*
X184222733Y-67762380D01*
X184413209Y-67762380D01*
X184508447Y-67714761D01*
X184556066Y-67667142D01*
X184603685Y-67571904D01*
X184603685Y-67381428D01*
X184556066Y-67286190D01*
X184508447Y-67238571D01*
X184413209Y-67190952D01*
X176547495Y-65476380D02*
X176547495Y-64476380D01*
X177118923Y-65476380D02*
X176690352Y-64904952D01*
X177118923Y-64476380D02*
X176547495Y-65047809D01*
%TO.C,C2*%
X170054542Y-78144666D02*
X170102161Y-78192285D01*
X170149780Y-78335142D01*
X170149780Y-78430380D01*
X170102161Y-78573238D01*
X170006923Y-78668476D01*
X169911685Y-78716095D01*
X169721209Y-78763714D01*
X169578352Y-78763714D01*
X169387876Y-78716095D01*
X169292638Y-78668476D01*
X169197400Y-78573238D01*
X169149780Y-78430380D01*
X169149780Y-78335142D01*
X169197400Y-78192285D01*
X169245019Y-78144666D01*
X169245019Y-77763714D02*
X169197400Y-77716095D01*
X169149780Y-77620857D01*
X169149780Y-77382761D01*
X169197400Y-77287523D01*
X169245019Y-77239904D01*
X169340257Y-77192285D01*
X169435495Y-77192285D01*
X169578352Y-77239904D01*
X170149780Y-77811333D01*
X170149780Y-77192285D01*
X171435780Y-84954857D02*
X171435780Y-84859619D01*
X171483400Y-84764380D01*
X171531019Y-84716761D01*
X171626257Y-84669142D01*
X171816733Y-84621523D01*
X172054828Y-84621523D01*
X172245304Y-84669142D01*
X172340542Y-84716761D01*
X172388161Y-84764380D01*
X172435780Y-84859619D01*
X172435780Y-84954857D01*
X172388161Y-85050095D01*
X172340542Y-85097714D01*
X172245304Y-85145333D01*
X172054828Y-85192952D01*
X171816733Y-85192952D01*
X171626257Y-85145333D01*
X171531019Y-85097714D01*
X171483400Y-85050095D01*
X171435780Y-84954857D01*
X172340542Y-84192952D02*
X172388161Y-84145333D01*
X172435780Y-84192952D01*
X172388161Y-84240571D01*
X172340542Y-84192952D01*
X172435780Y-84192952D01*
X172435780Y-83192952D02*
X172435780Y-83764380D01*
X172435780Y-83478666D02*
X171435780Y-83478666D01*
X171578638Y-83573904D01*
X171673876Y-83669142D01*
X171721495Y-83764380D01*
X171769114Y-82335809D02*
X172435780Y-82335809D01*
X171769114Y-82764380D02*
X172292923Y-82764380D01*
X172388161Y-82716761D01*
X172435780Y-82621523D01*
X172435780Y-82478666D01*
X172388161Y-82383428D01*
X172340542Y-82335809D01*
X171911971Y-81526285D02*
X171911971Y-81859619D01*
X172435780Y-81859619D02*
X171435780Y-81859619D01*
X171435780Y-81383428D01*
%TO.C,C1*%
X170054542Y-69762666D02*
X170102161Y-69810285D01*
X170149780Y-69953142D01*
X170149780Y-70048380D01*
X170102161Y-70191238D01*
X170006923Y-70286476D01*
X169911685Y-70334095D01*
X169721209Y-70381714D01*
X169578352Y-70381714D01*
X169387876Y-70334095D01*
X169292638Y-70286476D01*
X169197400Y-70191238D01*
X169149780Y-70048380D01*
X169149780Y-69953142D01*
X169197400Y-69810285D01*
X169245019Y-69762666D01*
X170149780Y-68810285D02*
X170149780Y-69381714D01*
X170149780Y-69096000D02*
X169149780Y-69096000D01*
X169292638Y-69191238D01*
X169387876Y-69286476D01*
X169435495Y-69381714D01*
X171943780Y-65619047D02*
X171943780Y-65523809D01*
X171991400Y-65428571D01*
X172039019Y-65380952D01*
X172134257Y-65333333D01*
X172324733Y-65285714D01*
X172562828Y-65285714D01*
X172753304Y-65333333D01*
X172848542Y-65380952D01*
X172896161Y-65428571D01*
X172943780Y-65523809D01*
X172943780Y-65619047D01*
X172896161Y-65714285D01*
X172848542Y-65761904D01*
X172753304Y-65809523D01*
X172562828Y-65857142D01*
X172324733Y-65857142D01*
X172134257Y-65809523D01*
X172039019Y-65761904D01*
X171991400Y-65714285D01*
X171943780Y-65619047D01*
X172848542Y-64857142D02*
X172896161Y-64809523D01*
X172943780Y-64857142D01*
X172896161Y-64904761D01*
X172848542Y-64857142D01*
X172943780Y-64857142D01*
X171943780Y-64190476D02*
X171943780Y-64095238D01*
X171991400Y-64000000D01*
X172039019Y-63952380D01*
X172134257Y-63904761D01*
X172324733Y-63857142D01*
X172562828Y-63857142D01*
X172753304Y-63904761D01*
X172848542Y-63952380D01*
X172896161Y-64000000D01*
X172943780Y-64095238D01*
X172943780Y-64190476D01*
X172896161Y-64285714D01*
X172848542Y-64333333D01*
X172753304Y-64380952D01*
X172562828Y-64428571D01*
X172324733Y-64428571D01*
X172134257Y-64380952D01*
X172039019Y-64333333D01*
X171991400Y-64285714D01*
X171943780Y-64190476D01*
X172943780Y-62904761D02*
X172943780Y-63476190D01*
X172943780Y-63190476D02*
X171943780Y-63190476D01*
X172086638Y-63285714D01*
X172181876Y-63380952D01*
X172229495Y-63476190D01*
X172277114Y-62047619D02*
X172943780Y-62047619D01*
X172277114Y-62476190D02*
X172800923Y-62476190D01*
X172896161Y-62428571D01*
X172943780Y-62333333D01*
X172943780Y-62190476D01*
X172896161Y-62095238D01*
X172848542Y-62047619D01*
X172419971Y-61238095D02*
X172419971Y-61571428D01*
X172943780Y-61571428D02*
X171943780Y-61571428D01*
X171943780Y-61095238D01*
%TO.C,J1*%
X111280180Y-77261533D02*
X111994466Y-77261533D01*
X112137323Y-77309152D01*
X112232561Y-77404390D01*
X112280180Y-77547247D01*
X112280180Y-77642485D01*
X112280180Y-76261533D02*
X112280180Y-76832961D01*
X112280180Y-76547247D02*
X111280180Y-76547247D01*
X111423038Y-76642485D01*
X111518276Y-76737723D01*
X111565895Y-76832961D01*
%TD*%
M02*
