%TF.GenerationSoftware,KiCad,Pcbnew,(5.1.6)-1*%
%TF.CreationDate,2022-12-03T16:28:51-08:00*%
%TF.ProjectId,DP1600iAuxBot,44503136-3030-4694-9175-78426f742e6b,rev?*%
%TF.SameCoordinates,Original*%
%TF.FileFunction,Legend,Bot*%
%TF.FilePolarity,Positive*%
%FSLAX46Y46*%
G04 Gerber Fmt 4.6, Leading zero omitted, Abs format (unit mm)*
G04 Created by KiCad (PCBNEW (5.1.6)-1) date 2022-12-03 16:28:51*
%MOMM*%
%LPD*%
G01*
G04 APERTURE LIST*
%ADD10C,0.177800*%
%ADD11C,0.150000*%
G04 APERTURE END LIST*
D10*
X177411742Y-31448828D02*
X177411742Y-29924828D01*
X177048885Y-29924828D01*
X176831171Y-29997400D01*
X176686028Y-30142542D01*
X176613457Y-30287685D01*
X176540885Y-30577971D01*
X176540885Y-30795685D01*
X176613457Y-31085971D01*
X176686028Y-31231114D01*
X176831171Y-31376257D01*
X177048885Y-31448828D01*
X177411742Y-31448828D01*
X175887742Y-31448828D02*
X175887742Y-29924828D01*
X175307171Y-29924828D01*
X175162028Y-29997400D01*
X175089457Y-30069971D01*
X175016885Y-30215114D01*
X175016885Y-30432828D01*
X175089457Y-30577971D01*
X175162028Y-30650542D01*
X175307171Y-30723114D01*
X175887742Y-30723114D01*
X173565457Y-31448828D02*
X174436314Y-31448828D01*
X174000885Y-31448828D02*
X174000885Y-29924828D01*
X174146028Y-30142542D01*
X174291171Y-30287685D01*
X174436314Y-30360257D01*
X172259171Y-29924828D02*
X172549457Y-29924828D01*
X172694600Y-29997400D01*
X172767171Y-30069971D01*
X172912314Y-30287685D01*
X172984885Y-30577971D01*
X172984885Y-31158542D01*
X172912314Y-31303685D01*
X172839742Y-31376257D01*
X172694600Y-31448828D01*
X172404314Y-31448828D01*
X172259171Y-31376257D01*
X172186600Y-31303685D01*
X172114028Y-31158542D01*
X172114028Y-30795685D01*
X172186600Y-30650542D01*
X172259171Y-30577971D01*
X172404314Y-30505400D01*
X172694600Y-30505400D01*
X172839742Y-30577971D01*
X172912314Y-30650542D01*
X172984885Y-30795685D01*
X171170600Y-29924828D02*
X171025457Y-29924828D01*
X170880314Y-29997400D01*
X170807742Y-30069971D01*
X170735171Y-30215114D01*
X170662600Y-30505400D01*
X170662600Y-30868257D01*
X170735171Y-31158542D01*
X170807742Y-31303685D01*
X170880314Y-31376257D01*
X171025457Y-31448828D01*
X171170600Y-31448828D01*
X171315742Y-31376257D01*
X171388314Y-31303685D01*
X171460885Y-31158542D01*
X171533457Y-30868257D01*
X171533457Y-30505400D01*
X171460885Y-30215114D01*
X171388314Y-30069971D01*
X171315742Y-29997400D01*
X171170600Y-29924828D01*
X169719171Y-29924828D02*
X169574028Y-29924828D01*
X169428885Y-29997400D01*
X169356314Y-30069971D01*
X169283742Y-30215114D01*
X169211171Y-30505400D01*
X169211171Y-30868257D01*
X169283742Y-31158542D01*
X169356314Y-31303685D01*
X169428885Y-31376257D01*
X169574028Y-31448828D01*
X169719171Y-31448828D01*
X169864314Y-31376257D01*
X169936885Y-31303685D01*
X170009457Y-31158542D01*
X170082028Y-30868257D01*
X170082028Y-30505400D01*
X170009457Y-30215114D01*
X169936885Y-30069971D01*
X169864314Y-29997400D01*
X169719171Y-29924828D01*
X168558028Y-31448828D02*
X168558028Y-30432828D01*
X168558028Y-29924828D02*
X168630600Y-29997400D01*
X168558028Y-30069971D01*
X168485457Y-29997400D01*
X168558028Y-29924828D01*
X168558028Y-30069971D01*
X167904885Y-31013400D02*
X167179171Y-31013400D01*
X168050028Y-31448828D02*
X167542028Y-29924828D01*
X167034028Y-31448828D01*
X165872885Y-30432828D02*
X165872885Y-31448828D01*
X166526028Y-30432828D02*
X166526028Y-31231114D01*
X166453457Y-31376257D01*
X166308314Y-31448828D01*
X166090600Y-31448828D01*
X165945457Y-31376257D01*
X165872885Y-31303685D01*
X165292314Y-31448828D02*
X164494028Y-30432828D01*
X165292314Y-30432828D02*
X164494028Y-31448828D01*
X163405457Y-30650542D02*
X163187742Y-30723114D01*
X163115171Y-30795685D01*
X163042600Y-30940828D01*
X163042600Y-31158542D01*
X163115171Y-31303685D01*
X163187742Y-31376257D01*
X163332885Y-31448828D01*
X163913457Y-31448828D01*
X163913457Y-29924828D01*
X163405457Y-29924828D01*
X163260314Y-29997400D01*
X163187742Y-30069971D01*
X163115171Y-30215114D01*
X163115171Y-30360257D01*
X163187742Y-30505400D01*
X163260314Y-30577971D01*
X163405457Y-30650542D01*
X163913457Y-30650542D01*
X162171742Y-31448828D02*
X162316885Y-31376257D01*
X162389457Y-31303685D01*
X162462028Y-31158542D01*
X162462028Y-30723114D01*
X162389457Y-30577971D01*
X162316885Y-30505400D01*
X162171742Y-30432828D01*
X161954028Y-30432828D01*
X161808885Y-30505400D01*
X161736314Y-30577971D01*
X161663742Y-30723114D01*
X161663742Y-31158542D01*
X161736314Y-31303685D01*
X161808885Y-31376257D01*
X161954028Y-31448828D01*
X162171742Y-31448828D01*
X161228314Y-30432828D02*
X160647742Y-30432828D01*
X161010600Y-29924828D02*
X161010600Y-31231114D01*
X160938028Y-31376257D01*
X160792885Y-31448828D01*
X160647742Y-31448828D01*
D11*
X158258447Y-31211780D02*
X158258447Y-30211780D01*
X157925114Y-30926066D01*
X157591780Y-30211780D01*
X157591780Y-31211780D01*
X157163209Y-30926066D02*
X156687019Y-30926066D01*
X157258447Y-31211780D02*
X156925114Y-30211780D01*
X156591780Y-31211780D01*
X156258447Y-31211780D02*
X156258447Y-30211780D01*
X156020352Y-30211780D01*
X155877495Y-30259400D01*
X155782257Y-30354638D01*
X155734638Y-30449876D01*
X155687019Y-30640352D01*
X155687019Y-30783209D01*
X155734638Y-30973685D01*
X155782257Y-31068923D01*
X155877495Y-31164161D01*
X156020352Y-31211780D01*
X156258447Y-31211780D01*
X155258447Y-30687971D02*
X154925114Y-30687971D01*
X154782257Y-31211780D02*
X155258447Y-31211780D01*
X155258447Y-30211780D01*
X154782257Y-30211780D01*
X153258447Y-30687971D02*
X153591780Y-30687971D01*
X153591780Y-31211780D02*
X153591780Y-30211780D01*
X153115590Y-30211780D01*
X152544161Y-30211780D02*
X152353685Y-30211780D01*
X152258447Y-30259400D01*
X152163209Y-30354638D01*
X152115590Y-30545114D01*
X152115590Y-30878447D01*
X152163209Y-31068923D01*
X152258447Y-31164161D01*
X152353685Y-31211780D01*
X152544161Y-31211780D01*
X152639400Y-31164161D01*
X152734638Y-31068923D01*
X152782257Y-30878447D01*
X152782257Y-30545114D01*
X152734638Y-30354638D01*
X152639400Y-30259400D01*
X152544161Y-30211780D01*
X151115590Y-31211780D02*
X151448923Y-30735590D01*
X151687019Y-31211780D02*
X151687019Y-30211780D01*
X151306066Y-30211780D01*
X151210828Y-30259400D01*
X151163209Y-30307019D01*
X151115590Y-30402257D01*
X151115590Y-30545114D01*
X151163209Y-30640352D01*
X151210828Y-30687971D01*
X151306066Y-30735590D01*
X151687019Y-30735590D01*
X149972733Y-31164161D02*
X149829876Y-31211780D01*
X149591780Y-31211780D01*
X149496542Y-31164161D01*
X149448923Y-31116542D01*
X149401304Y-31021304D01*
X149401304Y-30926066D01*
X149448923Y-30830828D01*
X149496542Y-30783209D01*
X149591780Y-30735590D01*
X149782257Y-30687971D01*
X149877495Y-30640352D01*
X149925114Y-30592733D01*
X149972733Y-30497495D01*
X149972733Y-30402257D01*
X149925114Y-30307019D01*
X149877495Y-30259400D01*
X149782257Y-30211780D01*
X149544161Y-30211780D01*
X149401304Y-30259400D01*
X148972733Y-31211780D02*
X148972733Y-30211780D01*
X148591780Y-30211780D01*
X148496542Y-30259400D01*
X148448923Y-30307019D01*
X148401304Y-30402257D01*
X148401304Y-30545114D01*
X148448923Y-30640352D01*
X148496542Y-30687971D01*
X148591780Y-30735590D01*
X148972733Y-30735590D01*
X147972733Y-30687971D02*
X147639400Y-30687971D01*
X147496542Y-31211780D02*
X147972733Y-31211780D01*
X147972733Y-30211780D01*
X147496542Y-30211780D01*
X147067971Y-30687971D02*
X146734638Y-30687971D01*
X146591780Y-31211780D02*
X147067971Y-31211780D01*
X147067971Y-30211780D01*
X146591780Y-30211780D01*
X146163209Y-31211780D02*
X146163209Y-30211780D01*
X145925114Y-30211780D01*
X145782257Y-30259400D01*
X145687019Y-30354638D01*
X145639400Y-30449876D01*
X145591780Y-30640352D01*
X145591780Y-30783209D01*
X145639400Y-30973685D01*
X145687019Y-31068923D01*
X145782257Y-31164161D01*
X145925114Y-31211780D01*
X146163209Y-31211780D01*
X145163209Y-30211780D02*
X145163209Y-31021304D01*
X145115590Y-31116542D01*
X145067971Y-31164161D01*
X144972733Y-31211780D01*
X144782257Y-31211780D01*
X144687019Y-31164161D01*
X144639400Y-31116542D01*
X144591780Y-31021304D01*
X144591780Y-30211780D01*
X144115590Y-31211780D02*
X144115590Y-30211780D01*
X143639400Y-31211780D02*
X143639400Y-30211780D01*
X143067971Y-31211780D01*
X143067971Y-30211780D01*
X142401304Y-30211780D02*
X142210828Y-30211780D01*
X142115590Y-30259400D01*
X142020352Y-30354638D01*
X141972733Y-30545114D01*
X141972733Y-30878447D01*
X142020352Y-31068923D01*
X142115590Y-31164161D01*
X142210828Y-31211780D01*
X142401304Y-31211780D01*
X142496542Y-31164161D01*
X142591780Y-31068923D01*
X142639400Y-30878447D01*
X142639400Y-30545114D01*
X142591780Y-30354638D01*
X142496542Y-30259400D01*
X142401304Y-30211780D01*
X138991380Y-31186380D02*
X138991380Y-30186380D01*
X138610428Y-30186380D01*
X138515190Y-30234000D01*
X138467571Y-30281619D01*
X138419952Y-30376857D01*
X138419952Y-30519714D01*
X138467571Y-30614952D01*
X138515190Y-30662571D01*
X138610428Y-30710190D01*
X138991380Y-30710190D01*
X137419952Y-31091142D02*
X137467571Y-31138761D01*
X137610428Y-31186380D01*
X137705666Y-31186380D01*
X137848523Y-31138761D01*
X137943761Y-31043523D01*
X137991380Y-30948285D01*
X138039000Y-30757809D01*
X138039000Y-30614952D01*
X137991380Y-30424476D01*
X137943761Y-30329238D01*
X137848523Y-30234000D01*
X137705666Y-30186380D01*
X137610428Y-30186380D01*
X137467571Y-30234000D01*
X137419952Y-30281619D01*
X136658047Y-30662571D02*
X136515190Y-30710190D01*
X136467571Y-30757809D01*
X136419952Y-30853047D01*
X136419952Y-30995904D01*
X136467571Y-31091142D01*
X136515190Y-31138761D01*
X136610428Y-31186380D01*
X136991380Y-31186380D01*
X136991380Y-30186380D01*
X136658047Y-30186380D01*
X136562809Y-30234000D01*
X136515190Y-30281619D01*
X136467571Y-30376857D01*
X136467571Y-30472095D01*
X136515190Y-30567333D01*
X136562809Y-30614952D01*
X136658047Y-30662571D01*
X136991380Y-30662571D01*
X134800904Y-31186380D02*
X134800904Y-30186380D01*
X134800904Y-31138761D02*
X134896142Y-31186380D01*
X135086619Y-31186380D01*
X135181857Y-31138761D01*
X135229476Y-31091142D01*
X135277095Y-30995904D01*
X135277095Y-30710190D01*
X135229476Y-30614952D01*
X135181857Y-30567333D01*
X135086619Y-30519714D01*
X134896142Y-30519714D01*
X134800904Y-30567333D01*
X133943761Y-31138761D02*
X134039000Y-31186380D01*
X134229476Y-31186380D01*
X134324714Y-31138761D01*
X134372333Y-31043523D01*
X134372333Y-30662571D01*
X134324714Y-30567333D01*
X134229476Y-30519714D01*
X134039000Y-30519714D01*
X133943761Y-30567333D01*
X133896142Y-30662571D01*
X133896142Y-30757809D01*
X134372333Y-30853047D01*
X133515190Y-31138761D02*
X133419952Y-31186380D01*
X133229476Y-31186380D01*
X133134238Y-31138761D01*
X133086619Y-31043523D01*
X133086619Y-30995904D01*
X133134238Y-30900666D01*
X133229476Y-30853047D01*
X133372333Y-30853047D01*
X133467571Y-30805428D01*
X133515190Y-30710190D01*
X133515190Y-30662571D01*
X133467571Y-30567333D01*
X133372333Y-30519714D01*
X133229476Y-30519714D01*
X133134238Y-30567333D01*
X132658047Y-31186380D02*
X132658047Y-30519714D01*
X132658047Y-30186380D02*
X132705666Y-30234000D01*
X132658047Y-30281619D01*
X132610428Y-30234000D01*
X132658047Y-30186380D01*
X132658047Y-30281619D01*
X131753285Y-30519714D02*
X131753285Y-31329238D01*
X131800904Y-31424476D01*
X131848523Y-31472095D01*
X131943761Y-31519714D01*
X132086619Y-31519714D01*
X132181857Y-31472095D01*
X131753285Y-31138761D02*
X131848523Y-31186380D01*
X132039000Y-31186380D01*
X132134238Y-31138761D01*
X132181857Y-31091142D01*
X132229476Y-30995904D01*
X132229476Y-30710190D01*
X132181857Y-30614952D01*
X132134238Y-30567333D01*
X132039000Y-30519714D01*
X131848523Y-30519714D01*
X131753285Y-30567333D01*
X131277095Y-30519714D02*
X131277095Y-31186380D01*
X131277095Y-30614952D02*
X131229476Y-30567333D01*
X131134238Y-30519714D01*
X130991380Y-30519714D01*
X130896142Y-30567333D01*
X130848523Y-30662571D01*
X130848523Y-31186380D01*
X129610428Y-31186380D02*
X129610428Y-30186380D01*
X129610428Y-30567333D02*
X129515190Y-30519714D01*
X129324714Y-30519714D01*
X129229476Y-30567333D01*
X129181857Y-30614952D01*
X129134238Y-30710190D01*
X129134238Y-30995904D01*
X129181857Y-31091142D01*
X129229476Y-31138761D01*
X129324714Y-31186380D01*
X129515190Y-31186380D01*
X129610428Y-31138761D01*
X128800904Y-30519714D02*
X128562809Y-31186380D01*
X128324714Y-30519714D02*
X128562809Y-31186380D01*
X128658047Y-31424476D01*
X128705666Y-31472095D01*
X128800904Y-31519714D01*
X126610428Y-31186380D02*
X126943761Y-30710190D01*
X127181857Y-31186380D02*
X127181857Y-30186380D01*
X126800904Y-30186380D01*
X126705666Y-30234000D01*
X126658047Y-30281619D01*
X126610428Y-30376857D01*
X126610428Y-30519714D01*
X126658047Y-30614952D01*
X126705666Y-30662571D01*
X126800904Y-30710190D01*
X127181857Y-30710190D01*
X126039000Y-31186380D02*
X126134238Y-31138761D01*
X126181857Y-31091142D01*
X126229476Y-30995904D01*
X126229476Y-30710190D01*
X126181857Y-30614952D01*
X126134238Y-30567333D01*
X126039000Y-30519714D01*
X125896142Y-30519714D01*
X125800904Y-30567333D01*
X125753285Y-30614952D01*
X125705666Y-30710190D01*
X125705666Y-30995904D01*
X125753285Y-31091142D01*
X125800904Y-31138761D01*
X125896142Y-31186380D01*
X126039000Y-31186380D01*
X125277095Y-31186380D02*
X125277095Y-30186380D01*
X125277095Y-30567333D02*
X125181857Y-30519714D01*
X124991380Y-30519714D01*
X124896142Y-30567333D01*
X124848523Y-30614952D01*
X124800904Y-30710190D01*
X124800904Y-30995904D01*
X124848523Y-31091142D01*
X124896142Y-31138761D01*
X124991380Y-31186380D01*
X125181857Y-31186380D01*
X125277095Y-31138761D01*
X123991380Y-31138761D02*
X124086619Y-31186380D01*
X124277095Y-31186380D01*
X124372333Y-31138761D01*
X124419952Y-31043523D01*
X124419952Y-30662571D01*
X124372333Y-30567333D01*
X124277095Y-30519714D01*
X124086619Y-30519714D01*
X123991380Y-30567333D01*
X123943761Y-30662571D01*
X123943761Y-30757809D01*
X124419952Y-30853047D01*
X123515190Y-31186380D02*
X123515190Y-30519714D01*
X123515190Y-30710190D02*
X123467571Y-30614952D01*
X123419952Y-30567333D01*
X123324714Y-30519714D01*
X123229476Y-30519714D01*
X123039000Y-30519714D02*
X122658047Y-30519714D01*
X122896142Y-30186380D02*
X122896142Y-31043523D01*
X122848523Y-31138761D01*
X122753285Y-31186380D01*
X122658047Y-31186380D01*
X121562809Y-31186380D02*
X121562809Y-30186380D01*
X121562809Y-30662571D02*
X120991380Y-30662571D01*
X120991380Y-31186380D02*
X120991380Y-30186380D01*
X120515190Y-31186380D02*
X120515190Y-30519714D01*
X120515190Y-30186380D02*
X120562809Y-30234000D01*
X120515190Y-30281619D01*
X120467571Y-30234000D01*
X120515190Y-30186380D01*
X120515190Y-30281619D01*
X119658047Y-31138761D02*
X119753285Y-31186380D01*
X119943761Y-31186380D01*
X120039000Y-31138761D01*
X120086619Y-31043523D01*
X120086619Y-30662571D01*
X120039000Y-30567333D01*
X119943761Y-30519714D01*
X119753285Y-30519714D01*
X119658047Y-30567333D01*
X119610428Y-30662571D01*
X119610428Y-30757809D01*
X120086619Y-30853047D01*
X119181857Y-31186380D02*
X119181857Y-30186380D01*
X119181857Y-30567333D02*
X119086619Y-30519714D01*
X118896142Y-30519714D01*
X118800904Y-30567333D01*
X118753285Y-30614952D01*
X118705666Y-30710190D01*
X118705666Y-30995904D01*
X118753285Y-31091142D01*
X118800904Y-31138761D01*
X118896142Y-31186380D01*
X119086619Y-31186380D01*
X119181857Y-31138761D01*
X117896142Y-31138761D02*
X117991380Y-31186380D01*
X118181857Y-31186380D01*
X118277095Y-31138761D01*
X118324714Y-31043523D01*
X118324714Y-30662571D01*
X118277095Y-30567333D01*
X118181857Y-30519714D01*
X117991380Y-30519714D01*
X117896142Y-30567333D01*
X117848523Y-30662571D01*
X117848523Y-30757809D01*
X118324714Y-30853047D01*
X117419952Y-31186380D02*
X117419952Y-30519714D01*
X117419952Y-30710190D02*
X117372333Y-30614952D01*
X117324714Y-30567333D01*
X117229476Y-30519714D01*
X117134238Y-30519714D01*
X116943761Y-30519714D02*
X116562809Y-30519714D01*
X116800904Y-30186380D02*
X116800904Y-31043523D01*
X116753285Y-31138761D01*
X116658047Y-31186380D01*
X116562809Y-31186380D01*
X115467571Y-31186380D02*
X115467571Y-30186380D01*
X115229476Y-30186380D01*
X115086619Y-30234000D01*
X114991380Y-30329238D01*
X114943761Y-30424476D01*
X114896142Y-30614952D01*
X114896142Y-30757809D01*
X114943761Y-30948285D01*
X114991380Y-31043523D01*
X115086619Y-31138761D01*
X115229476Y-31186380D01*
X115467571Y-31186380D01*
X114086619Y-31138761D02*
X114181857Y-31186380D01*
X114372333Y-31186380D01*
X114467571Y-31138761D01*
X114515190Y-31043523D01*
X114515190Y-30662571D01*
X114467571Y-30567333D01*
X114372333Y-30519714D01*
X114181857Y-30519714D01*
X114086619Y-30567333D01*
X114039000Y-30662571D01*
X114039000Y-30757809D01*
X114515190Y-30853047D01*
X113181857Y-31138761D02*
X113277095Y-31186380D01*
X113467571Y-31186380D01*
X113562809Y-31138761D01*
X113610428Y-31091142D01*
X113658047Y-30995904D01*
X113658047Y-30710190D01*
X113610428Y-30614952D01*
X113562809Y-30567333D01*
X113467571Y-30519714D01*
X113277095Y-30519714D01*
X113181857Y-30567333D01*
X112372333Y-31138761D02*
X112467571Y-31186380D01*
X112658047Y-31186380D01*
X112753285Y-31138761D01*
X112800904Y-31043523D01*
X112800904Y-30662571D01*
X112753285Y-30567333D01*
X112658047Y-30519714D01*
X112467571Y-30519714D01*
X112372333Y-30567333D01*
X112324714Y-30662571D01*
X112324714Y-30757809D01*
X112800904Y-30853047D01*
X111896142Y-31186380D02*
X111896142Y-30519714D01*
X111896142Y-30614952D02*
X111848523Y-30567333D01*
X111753285Y-30519714D01*
X111610428Y-30519714D01*
X111515190Y-30567333D01*
X111467571Y-30662571D01*
X111467571Y-31186380D01*
X111467571Y-30662571D02*
X111419952Y-30567333D01*
X111324714Y-30519714D01*
X111181857Y-30519714D01*
X111086619Y-30567333D01*
X111039000Y-30662571D01*
X111039000Y-31186380D01*
X110562809Y-31186380D02*
X110562809Y-30186380D01*
X110562809Y-30567333D02*
X110467571Y-30519714D01*
X110277095Y-30519714D01*
X110181857Y-30567333D01*
X110134238Y-30614952D01*
X110086619Y-30710190D01*
X110086619Y-30995904D01*
X110134238Y-31091142D01*
X110181857Y-31138761D01*
X110277095Y-31186380D01*
X110467571Y-31186380D01*
X110562809Y-31138761D01*
X109277095Y-31138761D02*
X109372333Y-31186380D01*
X109562809Y-31186380D01*
X109658047Y-31138761D01*
X109705666Y-31043523D01*
X109705666Y-30662571D01*
X109658047Y-30567333D01*
X109562809Y-30519714D01*
X109372333Y-30519714D01*
X109277095Y-30567333D01*
X109229476Y-30662571D01*
X109229476Y-30757809D01*
X109705666Y-30853047D01*
X108800904Y-31186380D02*
X108800904Y-30519714D01*
X108800904Y-30710190D02*
X108753285Y-30614952D01*
X108705666Y-30567333D01*
X108610428Y-30519714D01*
X108515190Y-30519714D01*
X107467571Y-30281619D02*
X107419952Y-30234000D01*
X107324714Y-30186380D01*
X107086619Y-30186380D01*
X106991380Y-30234000D01*
X106943761Y-30281619D01*
X106896142Y-30376857D01*
X106896142Y-30472095D01*
X106943761Y-30614952D01*
X107515190Y-31186380D01*
X106896142Y-31186380D01*
X106277095Y-30186380D02*
X106181857Y-30186380D01*
X106086619Y-30234000D01*
X106039000Y-30281619D01*
X105991380Y-30376857D01*
X105943761Y-30567333D01*
X105943761Y-30805428D01*
X105991380Y-30995904D01*
X106039000Y-31091142D01*
X106086619Y-31138761D01*
X106181857Y-31186380D01*
X106277095Y-31186380D01*
X106372333Y-31138761D01*
X106419952Y-31091142D01*
X106467571Y-30995904D01*
X106515190Y-30805428D01*
X106515190Y-30567333D01*
X106467571Y-30376857D01*
X106419952Y-30281619D01*
X106372333Y-30234000D01*
X106277095Y-30186380D01*
X105562809Y-30281619D02*
X105515190Y-30234000D01*
X105419952Y-30186380D01*
X105181857Y-30186380D01*
X105086619Y-30234000D01*
X105039000Y-30281619D01*
X104991380Y-30376857D01*
X104991380Y-30472095D01*
X105039000Y-30614952D01*
X105610428Y-31186380D01*
X104991380Y-31186380D01*
X104610428Y-30281619D02*
X104562809Y-30234000D01*
X104467571Y-30186380D01*
X104229476Y-30186380D01*
X104134238Y-30234000D01*
X104086619Y-30281619D01*
X104039000Y-30376857D01*
X104039000Y-30472095D01*
X104086619Y-30614952D01*
X104658047Y-31186380D01*
X104039000Y-31186380D01*
M02*
