M48
; DRILL file {KiCad (5.1.6)-1} date 12/03/22 16:29:05
; FORMAT={-:-/ absolute / inch / decimal}
; #@! TF.CreationDate,2022-12-03T16:29:05-08:00
; #@! TF.GenerationSoftware,Kicad,Pcbnew,(5.1.6)-1
; #@! TF.FileFunction,Plated,1,2,PTH
FMAT,2
INCH
T1C0.0157
T2C0.0315
T3C0.0394
T4C0.0433
T5C0.1260
%
G90
G05
T1
X4.144Y-4.796
X4.164Y-1.289
X4.465Y-2.5395
X4.472Y-2.746
X4.523Y-2.5915
X4.537Y-3.301
X4.593Y-2.9735
X4.596Y-2.221
X4.606Y-1.999
X4.606Y-2.099
X4.657Y-3.026
X4.662Y-2.323
X4.736Y-2.794
X4.797Y-3.139
X4.799Y-3.083
X4.888Y-2.0
X4.89Y-2.102
X5.062Y-3.719
X5.066Y-3.883
X5.205Y-3.139
X5.205Y-3.139
X5.207Y-3.083
X5.28Y-2.505
X5.28Y-2.676
X5.735Y-3.727
X5.739Y-3.879
X6.085Y-2.56
X6.0975Y-3.5215
X6.177Y-3.082
X6.187Y-2.81
X6.19Y-3.5815
X6.353Y-3.222
X6.355Y-3.406
X6.406Y-2.74
X6.429Y-3.256
X6.429Y-3.256
X6.497Y-3.156
X6.698Y-2.832
X8.559Y-4.756
X8.599Y-1.259
T2
X5.058Y-4.393
X5.358Y-4.393
X5.638Y-4.583
X5.938Y-4.583
X6.781Y-3.03
X6.781Y-3.1284
X5.403Y-3.23
X5.703Y-3.23
X6.283Y-2.79
X6.283Y-2.89
X6.283Y-2.99
X6.283Y-3.09
X6.583Y-2.79
X6.583Y-2.89
X6.583Y-2.99
X6.583Y-3.09
X5.393Y-2.67
X5.693Y-2.67
X5.228Y-4.583
X5.528Y-4.583
X5.4765Y-4.394
X5.5765Y-4.394
X5.6765Y-4.394
X6.791Y-2.68
X6.791Y-2.7784
T3
X7.052Y-3.33
X7.152Y-3.33
X7.252Y-3.33
X6.083Y-3.02
X6.083Y-3.12
X6.083Y-3.22
X4.75Y-3.3
X4.75Y-3.4
X4.1452Y-2.4289
X4.1452Y-2.5379
X4.1452Y-2.647
X4.1452Y-2.756
X4.1452Y-2.8651
X4.1452Y-2.9741
X4.1452Y-3.0832
X4.1452Y-3.1923
X4.1452Y-3.3013
X4.1452Y-3.4104
X4.1452Y-3.5194
X4.1452Y-3.6285
X4.257Y-2.3743
X4.257Y-2.4834
X4.257Y-2.5924
X4.257Y-2.7015
X4.257Y-2.8106
X4.257Y-2.9196
X4.257Y-3.0287
X4.257Y-3.1377
X4.257Y-3.2468
X4.257Y-3.3558
X4.257Y-3.4649
X4.257Y-3.5739
X4.257Y-3.683
X5.613Y-2.857
X5.613Y-2.957
X5.613Y-3.057
X4.75Y-1.85
X4.75Y-1.95
X4.75Y-2.05
X4.75Y-2.15
X4.75Y-2.25
X4.75Y-2.35
X5.853Y-3.13
X5.853Y-3.23
X5.843Y-2.67
X5.843Y-2.77
X8.1Y-2.3
X8.2Y-2.3
X8.3Y-2.3
X5.9Y-3.8
X6.0Y-3.8
X6.1Y-3.8
X6.2Y-3.8
X6.3Y-3.8
X6.4Y-3.8
X6.5Y-3.8
X6.6Y-3.8
X6.7Y-3.8
X6.8Y-3.8
X5.445Y-3.426
X5.545Y-3.426
X5.645Y-3.426
X6.083Y-2.67
X6.083Y-2.77
X6.083Y-2.87
X4.382Y-4.775
X4.482Y-4.775
X4.582Y-4.775
X4.682Y-4.775
X4.782Y-4.775
X4.882Y-4.775
X4.982Y-4.775
X5.082Y-4.775
X5.182Y-4.775
T4
X6.961Y-2.65
X7.361Y-2.65
X6.951Y-3.158
X7.351Y-3.158
X6.961Y-2.779
X7.361Y-2.779
X6.951Y-3.03
X7.351Y-3.03
T5
X4.2452Y-2.1015
X4.2452Y-3.9558
T0
M30
