%TF.GenerationSoftware,KiCad,Pcbnew,(5.1.6)-1*%
%TF.CreationDate,2022-12-03T16:28:51-08:00*%
%TF.ProjectId,DP1600iAuxBot,44503136-3030-4694-9175-78426f742e6b,rev?*%
%TF.SameCoordinates,Original*%
%TF.FileFunction,Soldermask,Bot*%
%TF.FilePolarity,Negative*%
%FSLAX46Y46*%
G04 Gerber Fmt 4.6, Leading zero omitted, Abs format (unit mm)*
G04 Created by KiCad (PCBNEW (5.1.6)-1) date 2022-12-03 16:28:51*
%MOMM*%
%LPD*%
G01*
G04 APERTURE LIST*
%ADD10O,1.800000X1.800000*%
%ADD11R,1.800000X1.800000*%
%ADD12O,2.300000X2.300000*%
%ADD13R,2.300000X2.300000*%
%ADD14O,1.700000X1.700000*%
%ADD15C,1.700000*%
%ADD16R,1.600000X1.600000*%
%ADD17C,1.600000*%
%ADD18R,1.700000X1.700000*%
%ADD19C,4.100000*%
G04 APERTURE END LIST*
D10*
%TO.C,JP7*%
X184200800Y-84582000D03*
X181660800Y-84582000D03*
D11*
X179120800Y-84582000D03*
%TD*%
D10*
%TO.C,JP6*%
X143383000Y-87020400D03*
X140843000Y-87020400D03*
D11*
X138303000Y-87020400D03*
%TD*%
D10*
%TO.C,JP5*%
X142570200Y-72567800D03*
X142570200Y-75107800D03*
D11*
X142570200Y-77647800D03*
%TD*%
D12*
%TO.C,D4*%
X176555400Y-80213200D03*
D13*
X186715400Y-80213200D03*
%TD*%
D12*
%TO.C,D2*%
X176809400Y-70586600D03*
D13*
X186969400Y-70586600D03*
%TD*%
D14*
%TO.C,R15*%
X137236200Y-82042000D03*
D15*
X144856200Y-82042000D03*
%TD*%
D14*
%TO.C,R14*%
X136982200Y-67818000D03*
D15*
X144602200Y-67818000D03*
%TD*%
D14*
%TO.C,R3*%
X136093200Y-111582200D03*
D15*
X128473200Y-111582200D03*
%TD*%
D14*
%TO.C,R2*%
X140411200Y-116408200D03*
D15*
X132791200Y-116408200D03*
%TD*%
D14*
%TO.C,R1*%
X150825200Y-116408200D03*
D15*
X143205200Y-116408200D03*
%TD*%
D16*
%TO.C,Q1*%
X144183100Y-111607600D03*
D17*
X139103100Y-111607600D03*
X141643100Y-111607600D03*
%TD*%
D10*
%TO.C,JP4*%
X154508200Y-81788000D03*
X154508200Y-79248000D03*
D11*
X154508200Y-76708000D03*
%TD*%
D10*
%TO.C,JP3*%
X154508200Y-67818000D03*
X154508200Y-70358000D03*
D11*
X154508200Y-72898000D03*
%TD*%
D10*
%TO.C,JP2*%
X148666200Y-82042000D03*
D11*
X148666200Y-79502000D03*
%TD*%
D10*
%TO.C,JP1*%
X148412200Y-67818000D03*
D11*
X148412200Y-70358000D03*
%TD*%
D10*
%TO.C,J6*%
X149860000Y-96520000D03*
X152400000Y-96520000D03*
X154940000Y-96520000D03*
X157480000Y-96520000D03*
X160020000Y-96520000D03*
X162560000Y-96520000D03*
X165100000Y-96520000D03*
X167640000Y-96520000D03*
X170180000Y-96520000D03*
D11*
X172720000Y-96520000D03*
%TD*%
D10*
%TO.C,J5*%
X111302800Y-121285000D03*
X113842800Y-121285000D03*
X116382800Y-121285000D03*
X118922800Y-121285000D03*
X121462800Y-121285000D03*
X124002800Y-121285000D03*
X126542800Y-121285000D03*
X129082800Y-121285000D03*
D11*
X131622800Y-121285000D03*
%TD*%
D10*
%TO.C,J4*%
X120650000Y-59690000D03*
X120650000Y-57150000D03*
X120650000Y-54610000D03*
X120650000Y-52070000D03*
X120650000Y-49530000D03*
D11*
X120650000Y-46990000D03*
%TD*%
D10*
%TO.C,J3*%
X210820000Y-58420000D03*
X208280000Y-58420000D03*
D11*
X205740000Y-58420000D03*
%TD*%
D10*
%TO.C,J2*%
X120650000Y-86360000D03*
D11*
X120650000Y-83820000D03*
%TD*%
D14*
%TO.C,IC1*%
X167208200Y-70866000D03*
X159588200Y-78486000D03*
X167208200Y-73406000D03*
X159588200Y-75946000D03*
X167208200Y-75946000D03*
X159588200Y-73406000D03*
X167208200Y-78486000D03*
D18*
X159588200Y-70866000D03*
%TD*%
D12*
%TO.C,D3*%
X186715400Y-76962000D03*
D13*
X176555400Y-76962000D03*
%TD*%
D12*
%TO.C,D1*%
X186969400Y-67310000D03*
D13*
X176809400Y-67310000D03*
%TD*%
D15*
%TO.C,C2*%
X172237400Y-79462000D03*
X172237400Y-76962000D03*
%TD*%
%TO.C,C1*%
X172491400Y-70572000D03*
X172491400Y-68072000D03*
%TD*%
D19*
%TO.C,J1*%
X107827800Y-100478200D03*
X107827800Y-53378200D03*
D15*
X105287800Y-61693200D03*
X105287800Y-64463200D03*
X105287800Y-67233200D03*
X105287800Y-70003200D03*
X105287800Y-72773200D03*
X105287800Y-75543200D03*
X105287800Y-78313200D03*
X105287800Y-81083200D03*
X105287800Y-83853200D03*
X105287800Y-86623200D03*
X105287800Y-89393200D03*
X105287800Y-92163200D03*
X108127800Y-60308200D03*
X108127800Y-63078200D03*
X108127800Y-65848200D03*
X108127800Y-68618200D03*
X108127800Y-71388200D03*
X108127800Y-74158200D03*
X108127800Y-76928200D03*
X108127800Y-79698200D03*
X108127800Y-82468200D03*
X108127800Y-85238200D03*
X108127800Y-88008200D03*
X108127800Y-90778200D03*
D18*
X108127800Y-93548200D03*
%TD*%
M02*
