%TF.GenerationSoftware,KiCad,Pcbnew,(5.1.6)-1*%
%TF.CreationDate,2022-12-03T16:28:51-08:00*%
%TF.ProjectId,DP1600iAuxBot,44503136-3030-4694-9175-78426f742e6b,rev?*%
%TF.SameCoordinates,Original*%
%TF.FileFunction,Copper,L1,Top*%
%TF.FilePolarity,Positive*%
%FSLAX46Y46*%
G04 Gerber Fmt 4.6, Leading zero omitted, Abs format (unit mm)*
G04 Created by KiCad (PCBNEW (5.1.6)-1) date 2022-12-03 16:28:51*
%MOMM*%
%LPD*%
G01*
G04 APERTURE LIST*
%TA.AperFunction,ComponentPad*%
%ADD10O,1.700000X1.700000*%
%TD*%
%TA.AperFunction,ComponentPad*%
%ADD11R,1.700000X1.700000*%
%TD*%
%TA.AperFunction,ComponentPad*%
%ADD12O,2.200000X2.200000*%
%TD*%
%TA.AperFunction,ComponentPad*%
%ADD13R,2.200000X2.200000*%
%TD*%
%TA.AperFunction,ComponentPad*%
%ADD14O,1.600000X1.600000*%
%TD*%
%TA.AperFunction,ComponentPad*%
%ADD15C,1.600000*%
%TD*%
%TA.AperFunction,ComponentPad*%
%ADD16R,1.500000X1.500000*%
%TD*%
%TA.AperFunction,ComponentPad*%
%ADD17C,1.500000*%
%TD*%
%TA.AperFunction,ComponentPad*%
%ADD18R,1.600000X1.600000*%
%TD*%
%TA.AperFunction,ComponentPad*%
%ADD19C,4.000000*%
%TD*%
%TA.AperFunction,ViaPad*%
%ADD20C,0.800000*%
%TD*%
%TA.AperFunction,Conductor*%
%ADD21C,0.508000*%
%TD*%
%TA.AperFunction,Conductor*%
%ADD22C,1.016000*%
%TD*%
%TA.AperFunction,Conductor*%
%ADD23C,0.254000*%
%TD*%
G04 APERTURE END LIST*
D10*
%TO.P,JP7,3*%
%TO.N,GND*%
X184200800Y-84582000D03*
%TO.P,JP7,2*%
%TO.N,Net-(IC1-Pad7)*%
X181660800Y-84582000D03*
D11*
%TO.P,JP7,1*%
%TO.N,MCU-D18*%
X179120800Y-84582000D03*
%TD*%
D10*
%TO.P,JP6,3*%
%TO.N,Net-(IC1-Pad4)*%
X143383000Y-87020400D03*
%TO.P,JP6,2*%
%TO.N,CMP-*%
X140843000Y-87020400D03*
D11*
%TO.P,JP6,1*%
%TO.N,GND*%
X138303000Y-87020400D03*
%TD*%
D10*
%TO.P,JP5,3*%
%TO.N,GND*%
X142570200Y-72567800D03*
%TO.P,JP5,2*%
%TO.N,Net-(IC1-Pad3)*%
X142570200Y-75107800D03*
D11*
%TO.P,JP5,1*%
%TO.N,Net-(JP4-Pad1)*%
X142570200Y-77647800D03*
%TD*%
D12*
%TO.P,D4,2*%
%TO.N,MCU-D18*%
X176555400Y-80213200D03*
D13*
%TO.P,D4,1*%
%TO.N,GND*%
X186715400Y-80213200D03*
%TD*%
D12*
%TO.P,D2,2*%
%TO.N,MCU-D19*%
X176809400Y-70586600D03*
D13*
%TO.P,D2,1*%
%TO.N,GND*%
X186969400Y-70586600D03*
%TD*%
D14*
%TO.P,R15,2*%
%TO.N,VDD*%
X137236200Y-82042000D03*
D15*
%TO.P,R15,1*%
%TO.N,Net-(JP2-Pad2)*%
X144856200Y-82042000D03*
%TD*%
D14*
%TO.P,R14,2*%
%TO.N,VDD*%
X136982200Y-67818000D03*
D15*
%TO.P,R14,1*%
%TO.N,Net-(JP1-Pad2)*%
X144602200Y-67818000D03*
%TD*%
D14*
%TO.P,R3,2*%
%TO.N,Net-(Q1-Pad3)*%
X136093200Y-111582200D03*
D15*
%TO.P,R3,1*%
%TO.N,Tachometer*%
X128473200Y-111582200D03*
%TD*%
D14*
%TO.P,R2,2*%
%TO.N,Net-(Q1-Pad2)*%
X140411200Y-116408200D03*
D15*
%TO.P,R2,1*%
%TO.N,D49-control*%
X132791200Y-116408200D03*
%TD*%
D14*
%TO.P,R1,2*%
%TO.N,F9-out*%
X150825200Y-116408200D03*
D15*
%TO.P,R1,1*%
%TO.N,Net-(Q1-Pad2)*%
X143205200Y-116408200D03*
%TD*%
D16*
%TO.P,Q1,1*%
%TO.N,F9-out*%
X144183100Y-111607600D03*
D17*
%TO.P,Q1,3*%
%TO.N,Net-(Q1-Pad3)*%
X139103100Y-111607600D03*
%TO.P,Q1,2*%
%TO.N,Net-(Q1-Pad2)*%
X141643100Y-111607600D03*
%TD*%
D10*
%TO.P,JP4,3*%
%TO.N,MCU-D18*%
X154508200Y-81788000D03*
%TO.P,JP4,2*%
%TO.N,CMP+*%
X154508200Y-79248000D03*
D11*
%TO.P,JP4,1*%
%TO.N,Net-(JP4-Pad1)*%
X154508200Y-76708000D03*
%TD*%
D10*
%TO.P,JP3,3*%
%TO.N,MCU-D19*%
X154508200Y-67818000D03*
%TO.P,JP3,2*%
%TO.N,CKP+*%
X154508200Y-70358000D03*
D11*
%TO.P,JP3,1*%
%TO.N,Net-(IC1-Pad2)*%
X154508200Y-72898000D03*
%TD*%
D10*
%TO.P,JP2,2*%
%TO.N,Net-(JP2-Pad2)*%
X148666200Y-82042000D03*
D11*
%TO.P,JP2,1*%
%TO.N,CMP+*%
X148666200Y-79502000D03*
%TD*%
D10*
%TO.P,JP1,2*%
%TO.N,Net-(JP1-Pad2)*%
X148412200Y-67818000D03*
D11*
%TO.P,JP1,1*%
%TO.N,CKP+*%
X148412200Y-70358000D03*
%TD*%
D10*
%TO.P,J6,10*%
%TO.N,D50-control*%
X149860000Y-96520000D03*
%TO.P,J6,9*%
%TO.N,D51-control*%
X152400000Y-96520000D03*
%TO.P,J6,8*%
%TO.N,D8-control*%
X154940000Y-96520000D03*
%TO.P,J6,7*%
%TO.N,D9-control*%
X157480000Y-96520000D03*
%TO.P,J6,6*%
%TO.N,D12-control*%
X160020000Y-96520000D03*
%TO.P,J6,5*%
%TO.N,F9-out*%
X162560000Y-96520000D03*
%TO.P,J6,4*%
%TO.N,CKP-*%
X165100000Y-96520000D03*
%TO.P,J6,3*%
%TO.N,CKP+*%
X167640000Y-96520000D03*
%TO.P,J6,2*%
%TO.N,GND*%
X170180000Y-96520000D03*
D11*
%TO.P,J6,1*%
X172720000Y-96520000D03*
%TD*%
D10*
%TO.P,J5,9*%
%TO.N,Spare-ADC*%
X111302800Y-121285000D03*
%TO.P,J5,8*%
%TO.N,O2_Sensor*%
X113842800Y-121285000D03*
%TO.P,J5,7*%
%TO.N,TPS_Sensor*%
X116382800Y-121285000D03*
%TO.P,J5,6*%
%TO.N,CLT_Sensor*%
X118922800Y-121285000D03*
%TO.P,J5,5*%
%TO.N,IAT_Sensor*%
X121462800Y-121285000D03*
%TO.P,J5,4*%
%TO.N,SigRtn*%
X124002800Y-121285000D03*
%TO.P,J5,3*%
%TO.N,VDDA*%
X126542800Y-121285000D03*
%TO.P,J5,2*%
%TO.N,12V-Raw*%
X129082800Y-121285000D03*
D11*
%TO.P,J5,1*%
%TO.N,Tachometer*%
X131622800Y-121285000D03*
%TD*%
D10*
%TO.P,J4,6*%
%TO.N,D53-control*%
X120650000Y-59690000D03*
%TO.P,J4,5*%
%TO.N,D52-control*%
X120650000Y-57150000D03*
%TO.P,J4,4*%
%TO.N,D11-control*%
X120650000Y-54610000D03*
%TO.P,J4,3*%
%TO.N,D10-control*%
X120650000Y-52070000D03*
%TO.P,J4,2*%
%TO.N,D13-control*%
X120650000Y-49530000D03*
D11*
%TO.P,J4,1*%
%TO.N,D48-control*%
X120650000Y-46990000D03*
%TD*%
D10*
%TO.P,J3,3*%
%TO.N,GND*%
X210820000Y-58420000D03*
%TO.P,J3,2*%
X208280000Y-58420000D03*
D11*
%TO.P,J3,1*%
X205740000Y-58420000D03*
%TD*%
D10*
%TO.P,J2,2*%
%TO.N,CMP-*%
X120650000Y-86360000D03*
D11*
%TO.P,J2,1*%
%TO.N,CMP+*%
X120650000Y-83820000D03*
%TD*%
D14*
%TO.P,IC1,8*%
%TO.N,MCU-D19*%
X167208200Y-70866000D03*
%TO.P,IC1,4*%
%TO.N,Net-(IC1-Pad4)*%
X159588200Y-78486000D03*
%TO.P,IC1,7*%
%TO.N,Net-(IC1-Pad7)*%
X167208200Y-73406000D03*
%TO.P,IC1,3*%
%TO.N,Net-(IC1-Pad3)*%
X159588200Y-75946000D03*
%TO.P,IC1,6*%
%TO.N,GND*%
X167208200Y-75946000D03*
%TO.P,IC1,2*%
%TO.N,Net-(IC1-Pad2)*%
X159588200Y-73406000D03*
%TO.P,IC1,5*%
%TO.N,VDD*%
X167208200Y-78486000D03*
D18*
%TO.P,IC1,1*%
%TO.N,CKP-*%
X159588200Y-70866000D03*
%TD*%
D12*
%TO.P,D3,2*%
%TO.N,GND*%
X186715400Y-76962000D03*
D13*
%TO.P,D3,1*%
%TO.N,MCU-D18*%
X176555400Y-76962000D03*
%TD*%
D12*
%TO.P,D1,2*%
%TO.N,GND*%
X186969400Y-67310000D03*
D13*
%TO.P,D1,1*%
%TO.N,MCU-D19*%
X176809400Y-67310000D03*
%TD*%
D15*
%TO.P,C2,2*%
%TO.N,MCU-D18*%
X172237400Y-79462000D03*
%TO.P,C2,1*%
%TO.N,GND*%
X172237400Y-76962000D03*
%TD*%
%TO.P,C1,2*%
%TO.N,MCU-D19*%
X172491400Y-70572000D03*
%TO.P,C1,1*%
%TO.N,GND*%
X172491400Y-68072000D03*
%TD*%
D19*
%TO.P,J1,0*%
%TO.N,N/C*%
X107827800Y-100478200D03*
X107827800Y-53378200D03*
D15*
%TO.P,J1,25*%
%TO.N,D8-control*%
X105287800Y-61693200D03*
%TO.P,J1,24*%
%TO.N,D10-control*%
X105287800Y-64463200D03*
%TO.P,J1,23*%
%TO.N,D12-control*%
X105287800Y-67233200D03*
%TO.P,J1,22*%
%TO.N,D48-control*%
X105287800Y-70003200D03*
%TO.P,J1,21*%
%TO.N,D50-control*%
X105287800Y-72773200D03*
%TO.P,J1,20*%
%TO.N,D52-control*%
X105287800Y-75543200D03*
%TO.P,J1,19*%
%TO.N,MCU-D19*%
X105287800Y-78313200D03*
%TO.P,J1,18*%
%TO.N,GND*%
X105287800Y-81083200D03*
%TO.P,J1,17*%
%TO.N,VDD*%
X105287800Y-83853200D03*
%TO.P,J1,16*%
%TO.N,SigRtn*%
X105287800Y-86623200D03*
%TO.P,J1,15*%
%TO.N,CLT_Sensor*%
X105287800Y-89393200D03*
%TO.P,J1,14*%
%TO.N,O2_Sensor*%
X105287800Y-92163200D03*
%TO.P,J1,13*%
%TO.N,12V-Raw*%
X108127800Y-60308200D03*
%TO.P,J1,12*%
%TO.N,D9-control*%
X108127800Y-63078200D03*
%TO.P,J1,11*%
%TO.N,D11-control*%
X108127800Y-65848200D03*
%TO.P,J1,10*%
%TO.N,D13-control*%
X108127800Y-68618200D03*
%TO.P,J1,9*%
%TO.N,D49-control*%
X108127800Y-71388200D03*
%TO.P,J1,8*%
%TO.N,D51-control*%
X108127800Y-74158200D03*
%TO.P,J1,7*%
%TO.N,D53-control*%
X108127800Y-76928200D03*
%TO.P,J1,6*%
%TO.N,MCU-D18*%
X108127800Y-79698200D03*
%TO.P,J1,5*%
%TO.N,GND*%
X108127800Y-82468200D03*
%TO.P,J1,4*%
%TO.N,VDDA*%
X108127800Y-85238200D03*
%TO.P,J1,3*%
%TO.N,IAT_Sensor*%
X108127800Y-88008200D03*
%TO.P,J1,2*%
%TO.N,TPS_Sensor*%
X108127800Y-90778200D03*
D18*
%TO.P,J1,1*%
%TO.N,Spare-ADC*%
X108127800Y-93548200D03*
%TD*%
D20*
%TO.N,MCU-D19*%
X121894600Y-78308200D03*
X132257800Y-78308200D03*
%TO.N,GND*%
X116992400Y-50774600D03*
X116992400Y-53314600D03*
X116738400Y-56413400D03*
X118414800Y-59004200D03*
X145669000Y-94665800D03*
X128574800Y-94462600D03*
X128676400Y-98628200D03*
X145770600Y-98526600D03*
X170129200Y-71932800D03*
X162712400Y-69596000D03*
X157149800Y-71374000D03*
X156895800Y-78282800D03*
X154559000Y-65024000D03*
X120294400Y-70967600D03*
X113588800Y-69748400D03*
X124155200Y-50800000D03*
X124206000Y-53390800D03*
X218414600Y-31978600D03*
X105765600Y-32740600D03*
X105257600Y-121818400D03*
X217398600Y-120802400D03*
%TO.N,MCU-D18*%
X121843800Y-79730600D03*
X132207000Y-79730600D03*
X132207000Y-79730600D03*
X134112000Y-67970400D03*
X134112000Y-63627000D03*
X161366200Y-81838800D03*
X161417000Y-86512400D03*
%TO.N,VDD*%
X115239800Y-83845400D03*
%TO.N,D8-control*%
X154876500Y-89446100D03*
%TO.N,D9-control*%
X157226000Y-90970100D03*
%TO.N,D10-control*%
X113411000Y-64503300D03*
%TO.N,D11-control*%
X114884200Y-65824100D03*
%TO.N,D52-control*%
X116662200Y-75526900D03*
%TO.N,D53-control*%
X118287800Y-76860400D03*
%TO.N,CKP-*%
X163296600Y-82702400D03*
X163296600Y-82702400D03*
%TO.N,CKP+*%
X165023800Y-80162400D03*
%TD*%
D21*
%TO.N,MCU-D19*%
X105287800Y-78313200D02*
X109898100Y-78313200D01*
D22*
X109898100Y-78313200D02*
X121889600Y-78313200D01*
X121889600Y-78313200D02*
X121894600Y-78308200D01*
X176809400Y-67310000D02*
X176784000Y-67284600D01*
X176809400Y-67310000D02*
X176809400Y-70612000D01*
X172531400Y-70612000D02*
X172491400Y-70572000D01*
X176809400Y-70612000D02*
X172531400Y-70612000D01*
X167502200Y-70572000D02*
X167208200Y-70866000D01*
X172491400Y-70572000D02*
X167502200Y-70572000D01*
X154508200Y-67818000D02*
X157302200Y-65024000D01*
X157302200Y-65024000D02*
X174244000Y-65024000D01*
X176530000Y-67310000D02*
X176809400Y-67310000D01*
X174244000Y-65024000D02*
X176530000Y-67310000D01*
X154508200Y-67818000D02*
X151714200Y-65024000D01*
X151714200Y-65024000D02*
X134721600Y-65024000D01*
X132257800Y-67487800D02*
X132257800Y-78308200D01*
X134721600Y-65024000D02*
X132257800Y-67487800D01*
%TO.N,GND*%
X186969400Y-70612000D02*
X187096400Y-70612000D01*
%TO.N,MCU-D18*%
X176555400Y-76962000D02*
X176555400Y-80264000D01*
X173039400Y-80264000D02*
X172237400Y-79462000D01*
X176555400Y-80264000D02*
X173039400Y-80264000D01*
X154609800Y-81686400D02*
X154508200Y-81788000D01*
X121811400Y-79698200D02*
X121843800Y-79730600D01*
X108127800Y-79698200D02*
X121811400Y-79698200D01*
X132207000Y-79730600D02*
X133172200Y-79730600D01*
X133172200Y-79730600D02*
X134112000Y-78790800D01*
X134112000Y-78790800D02*
X134112000Y-67970400D01*
X134112000Y-63627000D02*
X177977800Y-63627000D01*
X177977800Y-63627000D02*
X179628800Y-65278000D01*
X179628800Y-65278000D02*
X179628800Y-75438000D01*
X178104800Y-76962000D02*
X176555400Y-76962000D01*
X179628800Y-75438000D02*
X178104800Y-76962000D01*
X154508200Y-81788000D02*
X161315400Y-81788000D01*
X161315400Y-81788000D02*
X161366200Y-81838800D01*
X161417000Y-86512400D02*
X169722800Y-86512400D01*
X172237400Y-83997800D02*
X172237400Y-79462000D01*
X169722800Y-86512400D02*
X172237400Y-83997800D01*
X179120800Y-84582000D02*
X177647600Y-84582000D01*
X176555400Y-83489800D02*
X176555400Y-80213200D01*
X177647600Y-84582000D02*
X176555400Y-83489800D01*
D21*
%TO.N,VDD*%
X105287800Y-83853200D02*
X109812000Y-83853200D01*
D22*
X109812000Y-83853200D02*
X109819800Y-83845400D01*
X109819800Y-83845400D02*
X115239800Y-83845400D01*
X167208200Y-78486000D02*
X167208200Y-81457800D01*
X167208200Y-81457800D02*
X163880800Y-84785200D01*
X163880800Y-84785200D02*
X138557000Y-84785200D01*
X137236200Y-83464400D02*
X137236200Y-82042000D01*
X138557000Y-84785200D02*
X137236200Y-83464400D01*
%TO.N,Net-(IC1-Pad3)*%
X142570200Y-75107800D02*
X144119600Y-75107800D01*
X144119600Y-75107800D02*
X144487900Y-74739500D01*
X158381700Y-74739500D02*
X159588200Y-75946000D01*
X144487900Y-74739500D02*
X158381700Y-74739500D01*
%TO.N,Net-(IC1-Pad2)*%
X155016200Y-73406000D02*
X154508200Y-72898000D01*
X159588200Y-73406000D02*
X155016200Y-73406000D01*
%TO.N,Tachometer*%
X128473200Y-111582200D02*
X128473200Y-116230400D01*
X131622800Y-119380000D02*
X131622800Y-121285000D01*
X128473200Y-116230400D02*
X131622800Y-119380000D01*
D21*
%TO.N,D8-control*%
X105287800Y-61693200D02*
X109800800Y-61693200D01*
D22*
X109800800Y-61693200D02*
X117878000Y-61693200D01*
X130213100Y-74226304D02*
X130213100Y-87287100D01*
X130213100Y-87287100D02*
X132372100Y-89446100D01*
X132372100Y-89446100D02*
X154876500Y-89446100D01*
X117878000Y-61891204D02*
X130213100Y-74226304D01*
X117878000Y-61693200D02*
X117878000Y-61891204D01*
%TO.N,D9-control*%
X128625600Y-88036400D02*
X131559300Y-90970100D01*
X131559300Y-90970100D02*
X157226000Y-90970100D01*
X108127800Y-63078200D02*
X116773800Y-63078200D01*
X125082300Y-71386700D02*
X125082300Y-71437500D01*
X116773800Y-63078200D02*
X125082300Y-71386700D01*
X128625600Y-74980800D02*
X128625600Y-88036400D01*
X125082300Y-71437500D02*
X128625600Y-74980800D01*
D21*
%TO.N,D10-control*%
X105287800Y-64463200D02*
X109929200Y-64463200D01*
D22*
X109929200Y-64463200D02*
X113370900Y-64463200D01*
X113370900Y-64463200D02*
X113411000Y-64503300D01*
%TO.N,D11-control*%
X108127800Y-65848200D02*
X114860100Y-65848200D01*
X114860100Y-65848200D02*
X114884200Y-65824100D01*
D21*
%TO.N,D12-control*%
X105287800Y-67233200D02*
X109727400Y-67233200D01*
D22*
X109727400Y-67233200D02*
X118807900Y-67233200D01*
X118807900Y-67233200D02*
X127012700Y-75438000D01*
X127012700Y-75438000D02*
X127012700Y-88836500D01*
X127012700Y-88836500D02*
X130822700Y-92646500D01*
X130822700Y-92646500D02*
X158381700Y-92646500D01*
X160020000Y-94284800D02*
X160020000Y-96520000D01*
X158381700Y-92646500D02*
X160020000Y-94284800D01*
%TO.N,D48-control*%
X105287800Y-70003200D02*
X104077300Y-70003200D01*
X104077300Y-70003200D02*
X103212900Y-69138800D01*
X103212900Y-69138800D02*
X103212900Y-49504600D01*
X105727500Y-46990000D02*
X120650000Y-46990000D01*
X103212900Y-49504600D02*
X105727500Y-46990000D01*
D21*
%TO.N,D50-control*%
X105287800Y-72773200D02*
X109781000Y-72773200D01*
D22*
X126822200Y-96520000D02*
X149860000Y-96520000D01*
X125336300Y-95034100D02*
X126822200Y-96520000D01*
X121757100Y-72773200D02*
X125336300Y-76352400D01*
X125336300Y-76352400D02*
X125336300Y-95034100D01*
X109781000Y-72773200D02*
X121757100Y-72773200D01*
%TO.N,D51-control*%
X108127800Y-74158200D02*
X120805300Y-74158200D01*
X120805300Y-74158200D02*
X123659900Y-77012800D01*
X152400000Y-99326700D02*
X152400000Y-96520000D01*
X151218900Y-100507800D02*
X152400000Y-99326700D01*
X123659900Y-77012800D02*
X123659900Y-96697800D01*
X127469900Y-100507800D02*
X151218900Y-100507800D01*
X123659900Y-96697800D02*
X127469900Y-100507800D01*
D21*
%TO.N,D52-control*%
X105287800Y-75543200D02*
X109769700Y-75543200D01*
D22*
X116237600Y-75526900D02*
X116662200Y-75526900D01*
X109769700Y-75543200D02*
X116221300Y-75543200D01*
X116221300Y-75543200D02*
X116237600Y-75526900D01*
%TO.N,D53-control*%
X108195600Y-76860400D02*
X108127800Y-76928200D01*
X118287800Y-76860400D02*
X108195600Y-76860400D01*
D21*
%TO.N,SigRtn*%
X105287800Y-86623200D02*
X109833100Y-86623200D01*
D22*
X109833100Y-86623200D02*
X113305900Y-86623200D01*
X113305900Y-86623200D02*
X118999000Y-92316300D01*
X118999000Y-92316300D02*
X118999000Y-115760500D01*
X124002800Y-120764300D02*
X124002800Y-121285000D01*
X118999000Y-115760500D02*
X124002800Y-120764300D01*
D21*
%TO.N,CLT_Sensor*%
X105287800Y-89393200D02*
X109751300Y-89393200D01*
D22*
X109751300Y-89393200D02*
X112011900Y-89393200D01*
X112011900Y-89393200D02*
X115900200Y-93281500D01*
X115900200Y-93281500D02*
X115900200Y-117436900D01*
X118922800Y-120459500D02*
X118922800Y-121285000D01*
X115900200Y-117436900D02*
X118922800Y-120459500D01*
D21*
%TO.N,O2_Sensor*%
X105287800Y-92163200D02*
X109944600Y-92163200D01*
D22*
X109944600Y-92163200D02*
X110324200Y-92163200D01*
X110324200Y-92163200D02*
X112852200Y-94691200D01*
X112852200Y-94691200D02*
X112852200Y-119354600D01*
X113842800Y-120345200D02*
X113842800Y-121285000D01*
X112852200Y-119354600D02*
X113842800Y-120345200D01*
%TO.N,IAT_Sensor*%
X108127800Y-88008200D02*
X112709700Y-88008200D01*
X112709700Y-88008200D02*
X117424200Y-92722700D01*
X117424200Y-92722700D02*
X117424200Y-116509800D01*
X121462800Y-120548400D02*
X121462800Y-121285000D01*
X117424200Y-116509800D02*
X121462800Y-120548400D01*
%TO.N,TPS_Sensor*%
X108127800Y-90778200D02*
X111225200Y-90778200D01*
X111225200Y-90778200D02*
X114376200Y-93929200D01*
X114376200Y-93929200D02*
X114376200Y-118440200D01*
X116382800Y-120446800D02*
X116382800Y-121285000D01*
X114376200Y-118440200D02*
X116382800Y-120446800D01*
%TO.N,Spare-ADC*%
X108127800Y-93548200D02*
X108661200Y-93548200D01*
X111302800Y-96189800D02*
X111302800Y-121285000D01*
X108661200Y-93548200D02*
X111302800Y-96189800D01*
%TO.N,Net-(JP1-Pad2)*%
X148412200Y-67818000D02*
X144602200Y-67818000D01*
%TO.N,Net-(Q1-Pad3)*%
X139077700Y-111582200D02*
X139103100Y-111607600D01*
X136093200Y-111582200D02*
X139077700Y-111582200D01*
%TO.N,Net-(Q1-Pad2)*%
X143205200Y-116408200D02*
X140411200Y-116408200D01*
X140411200Y-116408200D02*
X141960600Y-114858800D01*
X141960600Y-111925100D02*
X141643100Y-111607600D01*
X141960600Y-114858800D02*
X141960600Y-111925100D01*
%TO.N,VDDA*%
X108127800Y-85238200D02*
X114143400Y-85238200D01*
X114143400Y-85238200D02*
X120573800Y-91668600D01*
X120573800Y-91668600D02*
X120573800Y-114960400D01*
X126542800Y-120929400D02*
X126542800Y-121285000D01*
X120573800Y-114960400D02*
X126542800Y-120929400D01*
%TO.N,CKP-*%
X159588200Y-70866000D02*
X162128200Y-70866000D01*
X162128200Y-70866000D02*
X163296600Y-72034400D01*
X163296600Y-72034400D02*
X163296600Y-82702400D01*
X163296600Y-82702400D02*
X163296600Y-82702400D01*
X163296600Y-82702400D02*
X163296600Y-82702400D01*
%TO.N,CMP+*%
X154254200Y-79502000D02*
X154508200Y-79248000D01*
X148666200Y-79502000D02*
X154254200Y-79502000D01*
%TO.N,F9-out*%
X150825200Y-116408200D02*
X163220400Y-116408200D01*
X163220400Y-116408200D02*
X166166800Y-113461800D01*
X166166800Y-113461800D02*
X166166800Y-101625400D01*
X162560000Y-98018600D02*
X162560000Y-96520000D01*
X166166800Y-101625400D02*
X162560000Y-98018600D01*
X144183100Y-111607600D02*
X144183100Y-111823500D01*
X148767800Y-116408200D02*
X150825200Y-116408200D01*
X144183100Y-111823500D02*
X148767800Y-116408200D01*
%TO.N,CKP+*%
X154508200Y-70358000D02*
X148412200Y-70358000D01*
X154508200Y-70358000D02*
X155829000Y-70358000D01*
X155829000Y-70358000D02*
X158318200Y-67868800D01*
X158318200Y-67868800D02*
X163195000Y-67868800D01*
X163195000Y-67868800D02*
X165023800Y-69697600D01*
X165023800Y-69697600D02*
X165023800Y-80162400D01*
%TO.N,Net-(JP2-Pad2)*%
X144856200Y-82042000D02*
X148666200Y-82042000D01*
%TO.N,Net-(JP4-Pad1)*%
X142570200Y-77647800D02*
X144627600Y-77647800D01*
X145567400Y-76708000D02*
X154508200Y-76708000D01*
X144627600Y-77647800D02*
X145567400Y-76708000D01*
%TD*%
D23*
%TO.N,GND*%
G36*
X221437601Y-124638058D02*
G01*
X102361600Y-124688310D01*
X102361600Y-83711865D01*
X103852800Y-83711865D01*
X103852800Y-83994535D01*
X103907947Y-84271774D01*
X104016120Y-84532927D01*
X104173163Y-84767959D01*
X104373041Y-84967837D01*
X104608073Y-85124880D01*
X104869226Y-85233053D01*
X104895101Y-85238200D01*
X104869226Y-85243347D01*
X104608073Y-85351520D01*
X104373041Y-85508563D01*
X104173163Y-85708441D01*
X104016120Y-85943473D01*
X103907947Y-86204626D01*
X103852800Y-86481865D01*
X103852800Y-86764535D01*
X103907947Y-87041774D01*
X104016120Y-87302927D01*
X104173163Y-87537959D01*
X104373041Y-87737837D01*
X104608073Y-87894880D01*
X104869226Y-88003053D01*
X104895101Y-88008200D01*
X104869226Y-88013347D01*
X104608073Y-88121520D01*
X104373041Y-88278563D01*
X104173163Y-88478441D01*
X104016120Y-88713473D01*
X103907947Y-88974626D01*
X103852800Y-89251865D01*
X103852800Y-89534535D01*
X103907947Y-89811774D01*
X104016120Y-90072927D01*
X104173163Y-90307959D01*
X104373041Y-90507837D01*
X104608073Y-90664880D01*
X104869226Y-90773053D01*
X104895101Y-90778200D01*
X104869226Y-90783347D01*
X104608073Y-90891520D01*
X104373041Y-91048563D01*
X104173163Y-91248441D01*
X104016120Y-91483473D01*
X103907947Y-91744626D01*
X103852800Y-92021865D01*
X103852800Y-92304535D01*
X103907947Y-92581774D01*
X104016120Y-92842927D01*
X104173163Y-93077959D01*
X104373041Y-93277837D01*
X104608073Y-93434880D01*
X104869226Y-93543053D01*
X105146465Y-93598200D01*
X105429135Y-93598200D01*
X105706374Y-93543053D01*
X105967527Y-93434880D01*
X106202559Y-93277837D01*
X106402437Y-93077959D01*
X106419649Y-93052200D01*
X106689728Y-93052200D01*
X106689728Y-94348200D01*
X106701988Y-94472682D01*
X106738298Y-94592380D01*
X106797263Y-94702694D01*
X106876615Y-94799385D01*
X106973306Y-94878737D01*
X107083620Y-94937702D01*
X107203318Y-94974012D01*
X107327800Y-94986272D01*
X108482827Y-94986272D01*
X110159800Y-96663246D01*
X110159800Y-99225409D01*
X109874538Y-98798485D01*
X109507515Y-98431462D01*
X109075941Y-98143093D01*
X108596401Y-97944461D01*
X108087325Y-97843200D01*
X107568275Y-97843200D01*
X107059199Y-97944461D01*
X106579659Y-98143093D01*
X106148085Y-98431462D01*
X105781062Y-98798485D01*
X105492693Y-99230059D01*
X105294061Y-99709599D01*
X105192800Y-100218675D01*
X105192800Y-100737725D01*
X105294061Y-101246801D01*
X105492693Y-101726341D01*
X105781062Y-102157915D01*
X106148085Y-102524938D01*
X106579659Y-102813307D01*
X107059199Y-103011939D01*
X107568275Y-103113200D01*
X108087325Y-103113200D01*
X108596401Y-103011939D01*
X109075941Y-102813307D01*
X109507515Y-102524938D01*
X109874538Y-102157915D01*
X110159800Y-101730991D01*
X110159801Y-120327892D01*
X110149325Y-120338368D01*
X109986810Y-120581589D01*
X109874868Y-120851842D01*
X109817800Y-121138740D01*
X109817800Y-121431260D01*
X109874868Y-121718158D01*
X109986810Y-121988411D01*
X110149325Y-122231632D01*
X110356168Y-122438475D01*
X110599389Y-122600990D01*
X110869642Y-122712932D01*
X111156540Y-122770000D01*
X111449060Y-122770000D01*
X111735958Y-122712932D01*
X112006211Y-122600990D01*
X112249432Y-122438475D01*
X112456275Y-122231632D01*
X112572800Y-122057240D01*
X112689325Y-122231632D01*
X112896168Y-122438475D01*
X113139389Y-122600990D01*
X113409642Y-122712932D01*
X113696540Y-122770000D01*
X113989060Y-122770000D01*
X114275958Y-122712932D01*
X114546211Y-122600990D01*
X114789432Y-122438475D01*
X114996275Y-122231632D01*
X115112800Y-122057240D01*
X115229325Y-122231632D01*
X115436168Y-122438475D01*
X115679389Y-122600990D01*
X115949642Y-122712932D01*
X116236540Y-122770000D01*
X116529060Y-122770000D01*
X116815958Y-122712932D01*
X117086211Y-122600990D01*
X117329432Y-122438475D01*
X117536275Y-122231632D01*
X117652800Y-122057240D01*
X117769325Y-122231632D01*
X117976168Y-122438475D01*
X118219389Y-122600990D01*
X118489642Y-122712932D01*
X118776540Y-122770000D01*
X119069060Y-122770000D01*
X119355958Y-122712932D01*
X119626211Y-122600990D01*
X119869432Y-122438475D01*
X120076275Y-122231632D01*
X120192800Y-122057240D01*
X120309325Y-122231632D01*
X120516168Y-122438475D01*
X120759389Y-122600990D01*
X121029642Y-122712932D01*
X121316540Y-122770000D01*
X121609060Y-122770000D01*
X121895958Y-122712932D01*
X122166211Y-122600990D01*
X122409432Y-122438475D01*
X122616275Y-122231632D01*
X122732800Y-122057240D01*
X122849325Y-122231632D01*
X123056168Y-122438475D01*
X123299389Y-122600990D01*
X123569642Y-122712932D01*
X123856540Y-122770000D01*
X124149060Y-122770000D01*
X124435958Y-122712932D01*
X124706211Y-122600990D01*
X124949432Y-122438475D01*
X125156275Y-122231632D01*
X125272800Y-122057240D01*
X125389325Y-122231632D01*
X125596168Y-122438475D01*
X125839389Y-122600990D01*
X126109642Y-122712932D01*
X126396540Y-122770000D01*
X126689060Y-122770000D01*
X126975958Y-122712932D01*
X127246211Y-122600990D01*
X127489432Y-122438475D01*
X127696275Y-122231632D01*
X127812800Y-122057240D01*
X127929325Y-122231632D01*
X128136168Y-122438475D01*
X128379389Y-122600990D01*
X128649642Y-122712932D01*
X128936540Y-122770000D01*
X129229060Y-122770000D01*
X129515958Y-122712932D01*
X129786211Y-122600990D01*
X130029432Y-122438475D01*
X130161287Y-122306620D01*
X130183298Y-122379180D01*
X130242263Y-122489494D01*
X130321615Y-122586185D01*
X130418306Y-122665537D01*
X130528620Y-122724502D01*
X130648318Y-122760812D01*
X130772800Y-122773072D01*
X132472800Y-122773072D01*
X132597282Y-122760812D01*
X132716980Y-122724502D01*
X132827294Y-122665537D01*
X132923985Y-122586185D01*
X133003337Y-122489494D01*
X133062302Y-122379180D01*
X133098612Y-122259482D01*
X133110872Y-122135000D01*
X133110872Y-120435000D01*
X133098612Y-120310518D01*
X133062302Y-120190820D01*
X133003337Y-120080506D01*
X132923985Y-119983815D01*
X132827294Y-119904463D01*
X132765800Y-119871593D01*
X132765800Y-119436138D01*
X132771329Y-119379999D01*
X132765800Y-119323860D01*
X132765800Y-119323854D01*
X132749261Y-119155933D01*
X132683903Y-118940477D01*
X132577768Y-118741911D01*
X132434933Y-118567867D01*
X132391324Y-118532078D01*
X130126111Y-116266865D01*
X131356200Y-116266865D01*
X131356200Y-116549535D01*
X131411347Y-116826774D01*
X131519520Y-117087927D01*
X131676563Y-117322959D01*
X131876441Y-117522837D01*
X132111473Y-117679880D01*
X132372626Y-117788053D01*
X132649865Y-117843200D01*
X132932535Y-117843200D01*
X133209774Y-117788053D01*
X133470927Y-117679880D01*
X133705959Y-117522837D01*
X133905837Y-117322959D01*
X134062880Y-117087927D01*
X134171053Y-116826774D01*
X134226200Y-116549535D01*
X134226200Y-116266865D01*
X134171053Y-115989626D01*
X134062880Y-115728473D01*
X133905837Y-115493441D01*
X133705959Y-115293563D01*
X133470927Y-115136520D01*
X133209774Y-115028347D01*
X132932535Y-114973200D01*
X132649865Y-114973200D01*
X132372626Y-115028347D01*
X132111473Y-115136520D01*
X131876441Y-115293563D01*
X131676563Y-115493441D01*
X131519520Y-115728473D01*
X131411347Y-115989626D01*
X131356200Y-116266865D01*
X130126111Y-116266865D01*
X129616200Y-115756955D01*
X129616200Y-112454511D01*
X129744880Y-112261927D01*
X129853053Y-112000774D01*
X129908200Y-111723535D01*
X129908200Y-111440865D01*
X129853053Y-111163626D01*
X129744880Y-110902473D01*
X129587837Y-110667441D01*
X129387959Y-110467563D01*
X129152927Y-110310520D01*
X128891774Y-110202347D01*
X128614535Y-110147200D01*
X128331865Y-110147200D01*
X128054626Y-110202347D01*
X127793473Y-110310520D01*
X127558441Y-110467563D01*
X127358563Y-110667441D01*
X127201520Y-110902473D01*
X127093347Y-111163626D01*
X127038200Y-111440865D01*
X127038200Y-111723535D01*
X127093347Y-112000774D01*
X127201520Y-112261927D01*
X127330200Y-112454511D01*
X127330201Y-116174251D01*
X127324671Y-116230400D01*
X127346739Y-116454467D01*
X127382585Y-116572633D01*
X127412098Y-116669923D01*
X127518233Y-116868489D01*
X127661068Y-117042533D01*
X127704678Y-117078323D01*
X130479800Y-119853446D01*
X130479800Y-119871593D01*
X130418306Y-119904463D01*
X130321615Y-119983815D01*
X130242263Y-120080506D01*
X130183298Y-120190820D01*
X130161287Y-120263380D01*
X130029432Y-120131525D01*
X129786211Y-119969010D01*
X129515958Y-119857068D01*
X129229060Y-119800000D01*
X128936540Y-119800000D01*
X128649642Y-119857068D01*
X128379389Y-119969010D01*
X128136168Y-120131525D01*
X127929325Y-120338368D01*
X127812800Y-120512760D01*
X127696275Y-120338368D01*
X127489432Y-120131525D01*
X127246211Y-119969010D01*
X127165371Y-119935525D01*
X121716800Y-114486955D01*
X121716800Y-91724739D01*
X121722329Y-91668600D01*
X121716800Y-91612461D01*
X121716800Y-91612454D01*
X121700261Y-91444533D01*
X121634903Y-91229077D01*
X121528768Y-91030511D01*
X121385933Y-90856467D01*
X121342324Y-90820678D01*
X115486608Y-84964963D01*
X115679323Y-84906503D01*
X115877889Y-84800368D01*
X116051933Y-84657533D01*
X116194768Y-84483489D01*
X116300903Y-84284923D01*
X116366261Y-84069467D01*
X116388330Y-83845400D01*
X116366261Y-83621333D01*
X116300903Y-83405877D01*
X116194768Y-83207311D01*
X116051933Y-83033267D01*
X115974843Y-82970000D01*
X119161928Y-82970000D01*
X119161928Y-84670000D01*
X119174188Y-84794482D01*
X119210498Y-84914180D01*
X119269463Y-85024494D01*
X119348815Y-85121185D01*
X119445506Y-85200537D01*
X119555820Y-85259502D01*
X119628380Y-85281513D01*
X119496525Y-85413368D01*
X119334010Y-85656589D01*
X119222068Y-85926842D01*
X119165000Y-86213740D01*
X119165000Y-86506260D01*
X119222068Y-86793158D01*
X119334010Y-87063411D01*
X119496525Y-87306632D01*
X119703368Y-87513475D01*
X119946589Y-87675990D01*
X120216842Y-87787932D01*
X120503740Y-87845000D01*
X120796260Y-87845000D01*
X121083158Y-87787932D01*
X121353411Y-87675990D01*
X121596632Y-87513475D01*
X121803475Y-87306632D01*
X121965990Y-87063411D01*
X122077932Y-86793158D01*
X122135000Y-86506260D01*
X122135000Y-86213740D01*
X122077932Y-85926842D01*
X121965990Y-85656589D01*
X121803475Y-85413368D01*
X121671620Y-85281513D01*
X121744180Y-85259502D01*
X121854494Y-85200537D01*
X121951185Y-85121185D01*
X122030537Y-85024494D01*
X122089502Y-84914180D01*
X122125812Y-84794482D01*
X122138072Y-84670000D01*
X122138072Y-82970000D01*
X122125812Y-82845518D01*
X122089502Y-82725820D01*
X122030537Y-82615506D01*
X121951185Y-82518815D01*
X121854494Y-82439463D01*
X121744180Y-82380498D01*
X121624482Y-82344188D01*
X121500000Y-82331928D01*
X119800000Y-82331928D01*
X119675518Y-82344188D01*
X119555820Y-82380498D01*
X119445506Y-82439463D01*
X119348815Y-82518815D01*
X119269463Y-82615506D01*
X119210498Y-82725820D01*
X119174188Y-82845518D01*
X119161928Y-82970000D01*
X115974843Y-82970000D01*
X115877889Y-82890432D01*
X115679323Y-82784297D01*
X115463867Y-82718939D01*
X115295946Y-82702400D01*
X109875939Y-82702400D01*
X109819800Y-82696871D01*
X109763661Y-82702400D01*
X109763654Y-82702400D01*
X109595733Y-82718939D01*
X109540114Y-82735811D01*
X109554100Y-82680016D01*
X109568017Y-82397688D01*
X109526587Y-82118070D01*
X109431403Y-81851908D01*
X109364471Y-81726686D01*
X109120502Y-81655103D01*
X108307405Y-82468200D01*
X108321548Y-82482343D01*
X108141943Y-82661948D01*
X108127800Y-82647805D01*
X108113658Y-82661948D01*
X107934053Y-82482343D01*
X107948195Y-82468200D01*
X107135098Y-81655103D01*
X106891129Y-81726686D01*
X106770229Y-81982196D01*
X106701500Y-82256384D01*
X106687583Y-82538712D01*
X106729013Y-82818330D01*
X106781179Y-82964200D01*
X106419649Y-82964200D01*
X106402437Y-82938441D01*
X106202559Y-82738563D01*
X105967527Y-82581520D01*
X105706374Y-82473347D01*
X105677918Y-82467687D01*
X105904092Y-82386803D01*
X106029314Y-82319871D01*
X106100897Y-82075902D01*
X105287800Y-81262805D01*
X104474703Y-82075902D01*
X104546286Y-82319871D01*
X104801796Y-82440771D01*
X104904089Y-82466412D01*
X104869226Y-82473347D01*
X104608073Y-82581520D01*
X104373041Y-82738563D01*
X104173163Y-82938441D01*
X104016120Y-83173473D01*
X103907947Y-83434626D01*
X103852800Y-83711865D01*
X102361600Y-83711865D01*
X102361600Y-81153712D01*
X103847583Y-81153712D01*
X103889013Y-81433330D01*
X103984197Y-81699492D01*
X104051129Y-81824714D01*
X104295098Y-81896297D01*
X105108195Y-81083200D01*
X105467405Y-81083200D01*
X106280502Y-81896297D01*
X106524471Y-81824714D01*
X106645371Y-81569204D01*
X106714100Y-81295016D01*
X106728017Y-81012688D01*
X106686587Y-80733070D01*
X106591403Y-80466908D01*
X106524471Y-80341686D01*
X106280502Y-80270103D01*
X105467405Y-81083200D01*
X105108195Y-81083200D01*
X104295098Y-80270103D01*
X104051129Y-80341686D01*
X103930229Y-80597196D01*
X103861500Y-80871384D01*
X103847583Y-81153712D01*
X102361600Y-81153712D01*
X102361600Y-69903208D01*
X102400767Y-69950933D01*
X102444382Y-69986727D01*
X103229377Y-70771723D01*
X103265167Y-70815333D01*
X103308777Y-70851123D01*
X103308778Y-70851124D01*
X103334642Y-70872350D01*
X103439211Y-70958168D01*
X103637777Y-71064303D01*
X103731327Y-71092681D01*
X103853232Y-71129661D01*
X103875900Y-71131894D01*
X104021154Y-71146200D01*
X104021160Y-71146200D01*
X104077299Y-71151729D01*
X104133438Y-71146200D01*
X104415489Y-71146200D01*
X104608073Y-71274880D01*
X104869226Y-71383053D01*
X104895101Y-71388200D01*
X104869226Y-71393347D01*
X104608073Y-71501520D01*
X104373041Y-71658563D01*
X104173163Y-71858441D01*
X104016120Y-72093473D01*
X103907947Y-72354626D01*
X103852800Y-72631865D01*
X103852800Y-72914535D01*
X103907947Y-73191774D01*
X104016120Y-73452927D01*
X104173163Y-73687959D01*
X104373041Y-73887837D01*
X104608073Y-74044880D01*
X104869226Y-74153053D01*
X104895101Y-74158200D01*
X104869226Y-74163347D01*
X104608073Y-74271520D01*
X104373041Y-74428563D01*
X104173163Y-74628441D01*
X104016120Y-74863473D01*
X103907947Y-75124626D01*
X103852800Y-75401865D01*
X103852800Y-75684535D01*
X103907947Y-75961774D01*
X104016120Y-76222927D01*
X104173163Y-76457959D01*
X104373041Y-76657837D01*
X104608073Y-76814880D01*
X104869226Y-76923053D01*
X104895101Y-76928200D01*
X104869226Y-76933347D01*
X104608073Y-77041520D01*
X104373041Y-77198563D01*
X104173163Y-77398441D01*
X104016120Y-77633473D01*
X103907947Y-77894626D01*
X103852800Y-78171865D01*
X103852800Y-78454535D01*
X103907947Y-78731774D01*
X104016120Y-78992927D01*
X104173163Y-79227959D01*
X104373041Y-79427837D01*
X104608073Y-79584880D01*
X104869226Y-79693053D01*
X104897682Y-79698713D01*
X104671508Y-79779597D01*
X104546286Y-79846529D01*
X104474703Y-80090498D01*
X105287800Y-80903595D01*
X106100897Y-80090498D01*
X106029314Y-79846529D01*
X105773804Y-79725629D01*
X105671511Y-79699988D01*
X105706374Y-79693053D01*
X105967527Y-79584880D01*
X106202559Y-79427837D01*
X106402437Y-79227959D01*
X106419649Y-79202200D01*
X106780018Y-79202200D01*
X106747947Y-79279626D01*
X106692800Y-79556865D01*
X106692800Y-79839535D01*
X106747947Y-80116774D01*
X106856120Y-80377927D01*
X107013163Y-80612959D01*
X107213041Y-80812837D01*
X107448073Y-80969880D01*
X107709226Y-81078053D01*
X107737682Y-81083713D01*
X107511508Y-81164597D01*
X107386286Y-81231529D01*
X107314703Y-81475498D01*
X108127800Y-82288595D01*
X108940897Y-81475498D01*
X108869314Y-81231529D01*
X108613804Y-81110629D01*
X108511511Y-81084988D01*
X108546374Y-81078053D01*
X108807527Y-80969880D01*
X109000111Y-80841200D01*
X121567447Y-80841200D01*
X121619734Y-80857061D01*
X121843800Y-80879129D01*
X122067867Y-80857061D01*
X122283323Y-80791703D01*
X122481889Y-80685567D01*
X122516900Y-80656834D01*
X122516901Y-96641651D01*
X122511371Y-96697800D01*
X122533439Y-96921867D01*
X122576444Y-97063633D01*
X122598798Y-97137323D01*
X122704933Y-97335889D01*
X122847768Y-97509933D01*
X122891378Y-97545723D01*
X126621977Y-101276323D01*
X126657767Y-101319933D01*
X126831811Y-101462768D01*
X126961211Y-101531933D01*
X127030376Y-101568903D01*
X127245832Y-101634261D01*
X127266417Y-101636288D01*
X127413754Y-101650800D01*
X127413761Y-101650800D01*
X127469900Y-101656329D01*
X127526039Y-101650800D01*
X151162761Y-101650800D01*
X151218900Y-101656329D01*
X151275039Y-101650800D01*
X151275046Y-101650800D01*
X151442967Y-101634261D01*
X151658423Y-101568903D01*
X151856989Y-101462768D01*
X152031033Y-101319933D01*
X152066827Y-101276318D01*
X153168524Y-100174622D01*
X153212133Y-100138833D01*
X153354968Y-99964789D01*
X153424133Y-99835389D01*
X153461103Y-99766224D01*
X153526461Y-99550768D01*
X153536711Y-99446697D01*
X153543000Y-99382846D01*
X153543000Y-99382839D01*
X153548529Y-99326700D01*
X153543000Y-99270561D01*
X153543000Y-97477107D01*
X153553475Y-97466632D01*
X153670000Y-97292240D01*
X153786525Y-97466632D01*
X153993368Y-97673475D01*
X154236589Y-97835990D01*
X154506842Y-97947932D01*
X154793740Y-98005000D01*
X155086260Y-98005000D01*
X155373158Y-97947932D01*
X155643411Y-97835990D01*
X155886632Y-97673475D01*
X156093475Y-97466632D01*
X156210000Y-97292240D01*
X156326525Y-97466632D01*
X156533368Y-97673475D01*
X156776589Y-97835990D01*
X157046842Y-97947932D01*
X157333740Y-98005000D01*
X157626260Y-98005000D01*
X157913158Y-97947932D01*
X158183411Y-97835990D01*
X158426632Y-97673475D01*
X158633475Y-97466632D01*
X158750000Y-97292240D01*
X158866525Y-97466632D01*
X159073368Y-97673475D01*
X159316589Y-97835990D01*
X159586842Y-97947932D01*
X159873740Y-98005000D01*
X160166260Y-98005000D01*
X160453158Y-97947932D01*
X160723411Y-97835990D01*
X160966632Y-97673475D01*
X161173475Y-97466632D01*
X161290000Y-97292240D01*
X161406525Y-97466632D01*
X161417000Y-97477107D01*
X161417000Y-97962461D01*
X161411471Y-98018600D01*
X161417000Y-98074739D01*
X161417000Y-98074745D01*
X161433539Y-98242666D01*
X161498897Y-98458122D01*
X161605032Y-98656688D01*
X161747867Y-98830733D01*
X161791482Y-98866527D01*
X165023801Y-102098847D01*
X165023800Y-112988354D01*
X162746955Y-115265200D01*
X151697511Y-115265200D01*
X151504927Y-115136520D01*
X151243774Y-115028347D01*
X150966535Y-114973200D01*
X150683865Y-114973200D01*
X150406626Y-115028347D01*
X150145473Y-115136520D01*
X149952889Y-115265200D01*
X149241246Y-115265200D01*
X145571172Y-111595127D01*
X145571172Y-110857600D01*
X145558912Y-110733118D01*
X145522602Y-110613420D01*
X145463637Y-110503106D01*
X145384285Y-110406415D01*
X145287594Y-110327063D01*
X145177280Y-110268098D01*
X145057582Y-110231788D01*
X144933100Y-110219528D01*
X143433100Y-110219528D01*
X143308618Y-110231788D01*
X143188920Y-110268098D01*
X143078606Y-110327063D01*
X142981915Y-110406415D01*
X142902563Y-110503106D01*
X142843598Y-110613420D01*
X142807288Y-110733118D01*
X142796655Y-110841083D01*
X142718899Y-110724714D01*
X142525986Y-110531801D01*
X142299143Y-110380229D01*
X142047089Y-110275825D01*
X141779511Y-110222600D01*
X141506689Y-110222600D01*
X141239111Y-110275825D01*
X140987057Y-110380229D01*
X140760214Y-110531801D01*
X140567301Y-110724714D01*
X140415729Y-110951557D01*
X140373100Y-111054473D01*
X140330471Y-110951557D01*
X140178899Y-110724714D01*
X139985986Y-110531801D01*
X139759143Y-110380229D01*
X139507089Y-110275825D01*
X139239511Y-110222600D01*
X138966689Y-110222600D01*
X138699111Y-110275825D01*
X138447057Y-110380229D01*
X138358801Y-110439200D01*
X136965511Y-110439200D01*
X136772927Y-110310520D01*
X136511774Y-110202347D01*
X136234535Y-110147200D01*
X135951865Y-110147200D01*
X135674626Y-110202347D01*
X135413473Y-110310520D01*
X135178441Y-110467563D01*
X134978563Y-110667441D01*
X134821520Y-110902473D01*
X134713347Y-111163626D01*
X134658200Y-111440865D01*
X134658200Y-111723535D01*
X134713347Y-112000774D01*
X134821520Y-112261927D01*
X134978563Y-112496959D01*
X135178441Y-112696837D01*
X135413473Y-112853880D01*
X135674626Y-112962053D01*
X135951865Y-113017200D01*
X136234535Y-113017200D01*
X136511774Y-112962053D01*
X136772927Y-112853880D01*
X136965511Y-112725200D01*
X138282773Y-112725200D01*
X138447057Y-112834971D01*
X138699111Y-112939375D01*
X138966689Y-112992600D01*
X139239511Y-112992600D01*
X139507089Y-112939375D01*
X139759143Y-112834971D01*
X139985986Y-112683399D01*
X140178899Y-112490486D01*
X140330471Y-112263643D01*
X140373100Y-112160727D01*
X140415729Y-112263643D01*
X140567301Y-112490486D01*
X140760214Y-112683399D01*
X140817601Y-112721744D01*
X140817600Y-114385354D01*
X140219795Y-114983160D01*
X139992626Y-115028347D01*
X139731473Y-115136520D01*
X139496441Y-115293563D01*
X139296563Y-115493441D01*
X139139520Y-115728473D01*
X139031347Y-115989626D01*
X138976200Y-116266865D01*
X138976200Y-116549535D01*
X139031347Y-116826774D01*
X139139520Y-117087927D01*
X139296563Y-117322959D01*
X139496441Y-117522837D01*
X139731473Y-117679880D01*
X139992626Y-117788053D01*
X140269865Y-117843200D01*
X140552535Y-117843200D01*
X140829774Y-117788053D01*
X141090927Y-117679880D01*
X141283511Y-117551200D01*
X142332889Y-117551200D01*
X142525473Y-117679880D01*
X142786626Y-117788053D01*
X143063865Y-117843200D01*
X143346535Y-117843200D01*
X143623774Y-117788053D01*
X143884927Y-117679880D01*
X144119959Y-117522837D01*
X144319837Y-117322959D01*
X144476880Y-117087927D01*
X144585053Y-116826774D01*
X144640200Y-116549535D01*
X144640200Y-116266865D01*
X144585053Y-115989626D01*
X144476880Y-115728473D01*
X144319837Y-115493441D01*
X144119959Y-115293563D01*
X143884927Y-115136520D01*
X143623774Y-115028347D01*
X143346535Y-114973200D01*
X143097862Y-114973200D01*
X143103600Y-114914946D01*
X143103600Y-114914940D01*
X143109129Y-114858801D01*
X143103600Y-114802662D01*
X143103600Y-112901497D01*
X143188920Y-112947102D01*
X143308618Y-112983412D01*
X143433100Y-112995672D01*
X143738827Y-112995672D01*
X147919877Y-117176723D01*
X147955667Y-117220333D01*
X148129711Y-117363168D01*
X148328277Y-117469303D01*
X148478374Y-117514835D01*
X148543732Y-117534661D01*
X148564317Y-117536688D01*
X148711654Y-117551200D01*
X148711661Y-117551200D01*
X148767800Y-117556729D01*
X148823939Y-117551200D01*
X149952889Y-117551200D01*
X150145473Y-117679880D01*
X150406626Y-117788053D01*
X150683865Y-117843200D01*
X150966535Y-117843200D01*
X151243774Y-117788053D01*
X151504927Y-117679880D01*
X151697511Y-117551200D01*
X163164261Y-117551200D01*
X163220400Y-117556729D01*
X163276539Y-117551200D01*
X163276546Y-117551200D01*
X163444467Y-117534661D01*
X163659923Y-117469303D01*
X163858489Y-117363168D01*
X164032533Y-117220333D01*
X164068327Y-117176718D01*
X166935324Y-114309722D01*
X166978933Y-114273933D01*
X167121768Y-114099889D01*
X167227903Y-113901323D01*
X167293261Y-113685867D01*
X167309800Y-113517946D01*
X167309800Y-113517939D01*
X167315329Y-113461800D01*
X167309800Y-113405661D01*
X167309800Y-101681538D01*
X167315329Y-101625399D01*
X167309800Y-101569260D01*
X167309800Y-101569254D01*
X167293261Y-101401333D01*
X167227903Y-101185877D01*
X167121768Y-100987311D01*
X166978933Y-100813267D01*
X166935323Y-100777477D01*
X163703000Y-97545155D01*
X163703000Y-97477107D01*
X163713475Y-97466632D01*
X163830000Y-97292240D01*
X163946525Y-97466632D01*
X164153368Y-97673475D01*
X164396589Y-97835990D01*
X164666842Y-97947932D01*
X164953740Y-98005000D01*
X165246260Y-98005000D01*
X165533158Y-97947932D01*
X165803411Y-97835990D01*
X166046632Y-97673475D01*
X166253475Y-97466632D01*
X166370000Y-97292240D01*
X166486525Y-97466632D01*
X166693368Y-97673475D01*
X166936589Y-97835990D01*
X167206842Y-97947932D01*
X167493740Y-98005000D01*
X167786260Y-98005000D01*
X168073158Y-97947932D01*
X168343411Y-97835990D01*
X168586632Y-97673475D01*
X168793475Y-97466632D01*
X168915195Y-97284466D01*
X168984822Y-97401355D01*
X169179731Y-97617588D01*
X169413080Y-97791641D01*
X169675901Y-97916825D01*
X169823110Y-97961476D01*
X170053000Y-97840155D01*
X170053000Y-96647000D01*
X170307000Y-96647000D01*
X170307000Y-97840155D01*
X170536890Y-97961476D01*
X170684099Y-97916825D01*
X170946920Y-97791641D01*
X171180269Y-97617588D01*
X171256034Y-97533534D01*
X171280498Y-97614180D01*
X171339463Y-97724494D01*
X171418815Y-97821185D01*
X171515506Y-97900537D01*
X171625820Y-97959502D01*
X171745518Y-97995812D01*
X171870000Y-98008072D01*
X172434250Y-98005000D01*
X172593000Y-97846250D01*
X172593000Y-96647000D01*
X172847000Y-96647000D01*
X172847000Y-97846250D01*
X173005750Y-98005000D01*
X173570000Y-98008072D01*
X173694482Y-97995812D01*
X173814180Y-97959502D01*
X173924494Y-97900537D01*
X174021185Y-97821185D01*
X174100537Y-97724494D01*
X174159502Y-97614180D01*
X174195812Y-97494482D01*
X174208072Y-97370000D01*
X174205000Y-96805750D01*
X174046250Y-96647000D01*
X172847000Y-96647000D01*
X172593000Y-96647000D01*
X170307000Y-96647000D01*
X170053000Y-96647000D01*
X170033000Y-96647000D01*
X170033000Y-96393000D01*
X170053000Y-96393000D01*
X170053000Y-95199845D01*
X170307000Y-95199845D01*
X170307000Y-96393000D01*
X172593000Y-96393000D01*
X172593000Y-95193750D01*
X172847000Y-95193750D01*
X172847000Y-96393000D01*
X174046250Y-96393000D01*
X174205000Y-96234250D01*
X174208072Y-95670000D01*
X174195812Y-95545518D01*
X174159502Y-95425820D01*
X174100537Y-95315506D01*
X174021185Y-95218815D01*
X173924494Y-95139463D01*
X173814180Y-95080498D01*
X173694482Y-95044188D01*
X173570000Y-95031928D01*
X173005750Y-95035000D01*
X172847000Y-95193750D01*
X172593000Y-95193750D01*
X172434250Y-95035000D01*
X171870000Y-95031928D01*
X171745518Y-95044188D01*
X171625820Y-95080498D01*
X171515506Y-95139463D01*
X171418815Y-95218815D01*
X171339463Y-95315506D01*
X171280498Y-95425820D01*
X171256034Y-95506466D01*
X171180269Y-95422412D01*
X170946920Y-95248359D01*
X170684099Y-95123175D01*
X170536890Y-95078524D01*
X170307000Y-95199845D01*
X170053000Y-95199845D01*
X169823110Y-95078524D01*
X169675901Y-95123175D01*
X169413080Y-95248359D01*
X169179731Y-95422412D01*
X168984822Y-95638645D01*
X168915195Y-95755534D01*
X168793475Y-95573368D01*
X168586632Y-95366525D01*
X168343411Y-95204010D01*
X168073158Y-95092068D01*
X167786260Y-95035000D01*
X167493740Y-95035000D01*
X167206842Y-95092068D01*
X166936589Y-95204010D01*
X166693368Y-95366525D01*
X166486525Y-95573368D01*
X166370000Y-95747760D01*
X166253475Y-95573368D01*
X166046632Y-95366525D01*
X165803411Y-95204010D01*
X165533158Y-95092068D01*
X165246260Y-95035000D01*
X164953740Y-95035000D01*
X164666842Y-95092068D01*
X164396589Y-95204010D01*
X164153368Y-95366525D01*
X163946525Y-95573368D01*
X163830000Y-95747760D01*
X163713475Y-95573368D01*
X163506632Y-95366525D01*
X163263411Y-95204010D01*
X162993158Y-95092068D01*
X162706260Y-95035000D01*
X162413740Y-95035000D01*
X162126842Y-95092068D01*
X161856589Y-95204010D01*
X161613368Y-95366525D01*
X161406525Y-95573368D01*
X161290000Y-95747760D01*
X161173475Y-95573368D01*
X161163000Y-95562893D01*
X161163000Y-94340938D01*
X161168529Y-94284799D01*
X161163000Y-94228660D01*
X161163000Y-94228654D01*
X161146461Y-94060733D01*
X161081103Y-93845277D01*
X160974968Y-93646711D01*
X160832133Y-93472667D01*
X160788524Y-93436878D01*
X159229627Y-91877982D01*
X159193833Y-91834367D01*
X159019789Y-91691532D01*
X158821223Y-91585397D01*
X158605767Y-91520039D01*
X158437846Y-91503500D01*
X158437839Y-91503500D01*
X158381700Y-91497971D01*
X158325561Y-91503500D01*
X158236925Y-91503500D01*
X158287103Y-91409623D01*
X158352461Y-91194167D01*
X158374530Y-90970100D01*
X158352461Y-90746033D01*
X158287103Y-90530577D01*
X158180968Y-90332011D01*
X158038133Y-90157967D01*
X157864089Y-90015132D01*
X157665523Y-89908997D01*
X157450067Y-89843639D01*
X157282146Y-89827100D01*
X155955356Y-89827100D01*
X156002961Y-89670167D01*
X156025030Y-89446100D01*
X156002961Y-89222033D01*
X155937603Y-89006577D01*
X155831468Y-88808011D01*
X155688633Y-88633967D01*
X155514589Y-88491132D01*
X155316023Y-88384997D01*
X155100567Y-88319639D01*
X154932646Y-88303100D01*
X144136233Y-88303100D01*
X144329632Y-88173875D01*
X144536475Y-87967032D01*
X144698990Y-87723811D01*
X144810932Y-87453558D01*
X144868000Y-87166660D01*
X144868000Y-86874140D01*
X144810932Y-86587242D01*
X144698990Y-86316989D01*
X144536475Y-86073768D01*
X144390907Y-85928200D01*
X160433228Y-85928200D01*
X160355897Y-86072877D01*
X160290539Y-86288333D01*
X160268470Y-86512400D01*
X160290539Y-86736467D01*
X160355897Y-86951923D01*
X160462032Y-87150489D01*
X160604867Y-87324533D01*
X160778911Y-87467368D01*
X160977477Y-87573503D01*
X161192933Y-87638861D01*
X161360854Y-87655400D01*
X169666661Y-87655400D01*
X169722800Y-87660929D01*
X169778939Y-87655400D01*
X169778946Y-87655400D01*
X169946867Y-87638861D01*
X170162323Y-87573503D01*
X170360889Y-87467368D01*
X170534933Y-87324533D01*
X170570727Y-87280918D01*
X173005924Y-84845722D01*
X173049533Y-84809933D01*
X173192368Y-84635889D01*
X173298503Y-84437323D01*
X173363861Y-84221867D01*
X173380400Y-84053946D01*
X173380400Y-84053940D01*
X173385929Y-83997801D01*
X173380400Y-83941662D01*
X173380400Y-81407000D01*
X175295539Y-81407000D01*
X175412401Y-81523862D01*
X175412400Y-83433661D01*
X175406871Y-83489800D01*
X175412400Y-83545939D01*
X175412400Y-83545945D01*
X175425498Y-83678926D01*
X175428939Y-83713867D01*
X175443996Y-83763503D01*
X175494297Y-83929322D01*
X175600432Y-84127888D01*
X175743267Y-84301933D01*
X175786882Y-84337727D01*
X176799677Y-85350523D01*
X176835467Y-85394133D01*
X177009511Y-85536968D01*
X177208077Y-85643103D01*
X177322204Y-85677723D01*
X177423532Y-85708461D01*
X177446200Y-85710694D01*
X177591454Y-85725000D01*
X177591460Y-85725000D01*
X177647599Y-85730529D01*
X177703738Y-85725000D01*
X177707393Y-85725000D01*
X177740263Y-85786494D01*
X177819615Y-85883185D01*
X177916306Y-85962537D01*
X178026620Y-86021502D01*
X178146318Y-86057812D01*
X178270800Y-86070072D01*
X179970800Y-86070072D01*
X180095282Y-86057812D01*
X180214980Y-86021502D01*
X180325294Y-85962537D01*
X180421985Y-85883185D01*
X180501337Y-85786494D01*
X180560302Y-85676180D01*
X180582313Y-85603620D01*
X180714168Y-85735475D01*
X180957389Y-85897990D01*
X181227642Y-86009932D01*
X181514540Y-86067000D01*
X181807060Y-86067000D01*
X182093958Y-86009932D01*
X182364211Y-85897990D01*
X182607432Y-85735475D01*
X182814275Y-85528632D01*
X182935995Y-85346466D01*
X183005622Y-85463355D01*
X183200531Y-85679588D01*
X183433880Y-85853641D01*
X183696701Y-85978825D01*
X183843910Y-86023476D01*
X184073800Y-85902155D01*
X184073800Y-84709000D01*
X184327800Y-84709000D01*
X184327800Y-85902155D01*
X184557690Y-86023476D01*
X184704899Y-85978825D01*
X184967720Y-85853641D01*
X185201069Y-85679588D01*
X185395978Y-85463355D01*
X185544957Y-85213252D01*
X185642281Y-84938891D01*
X185521614Y-84709000D01*
X184327800Y-84709000D01*
X184073800Y-84709000D01*
X184053800Y-84709000D01*
X184053800Y-84455000D01*
X184073800Y-84455000D01*
X184073800Y-83261845D01*
X184327800Y-83261845D01*
X184327800Y-84455000D01*
X185521614Y-84455000D01*
X185642281Y-84225109D01*
X185544957Y-83950748D01*
X185395978Y-83700645D01*
X185201069Y-83484412D01*
X184967720Y-83310359D01*
X184704899Y-83185175D01*
X184557690Y-83140524D01*
X184327800Y-83261845D01*
X184073800Y-83261845D01*
X183843910Y-83140524D01*
X183696701Y-83185175D01*
X183433880Y-83310359D01*
X183200531Y-83484412D01*
X183005622Y-83700645D01*
X182935995Y-83817534D01*
X182814275Y-83635368D01*
X182607432Y-83428525D01*
X182364211Y-83266010D01*
X182093958Y-83154068D01*
X181807060Y-83097000D01*
X181514540Y-83097000D01*
X181227642Y-83154068D01*
X180957389Y-83266010D01*
X180714168Y-83428525D01*
X180582313Y-83560380D01*
X180560302Y-83487820D01*
X180501337Y-83377506D01*
X180421985Y-83280815D01*
X180325294Y-83201463D01*
X180214980Y-83142498D01*
X180095282Y-83106188D01*
X179970800Y-83093928D01*
X178270800Y-83093928D01*
X178146318Y-83106188D01*
X178026620Y-83142498D01*
X177916306Y-83201463D01*
X177898292Y-83216247D01*
X177698400Y-83016355D01*
X177698400Y-81523861D01*
X177903063Y-81319198D01*
X177907070Y-81313200D01*
X184977328Y-81313200D01*
X184989588Y-81437682D01*
X185025898Y-81557380D01*
X185084863Y-81667694D01*
X185164215Y-81764385D01*
X185260906Y-81843737D01*
X185371220Y-81902702D01*
X185490918Y-81939012D01*
X185615400Y-81951272D01*
X186429650Y-81948200D01*
X186588400Y-81789450D01*
X186588400Y-80340200D01*
X186842400Y-80340200D01*
X186842400Y-81789450D01*
X187001150Y-81948200D01*
X187815400Y-81951272D01*
X187939882Y-81939012D01*
X188059580Y-81902702D01*
X188169894Y-81843737D01*
X188266585Y-81764385D01*
X188345937Y-81667694D01*
X188404902Y-81557380D01*
X188441212Y-81437682D01*
X188453472Y-81313200D01*
X188450400Y-80498950D01*
X188291650Y-80340200D01*
X186842400Y-80340200D01*
X186588400Y-80340200D01*
X185139150Y-80340200D01*
X184980400Y-80498950D01*
X184977328Y-81313200D01*
X177907070Y-81313200D01*
X178092937Y-81035031D01*
X178223725Y-80719281D01*
X178290400Y-80384083D01*
X178290400Y-80042317D01*
X178223725Y-79707119D01*
X178092937Y-79391369D01*
X177907071Y-79113200D01*
X184977328Y-79113200D01*
X184980400Y-79927450D01*
X185139150Y-80086200D01*
X186588400Y-80086200D01*
X186588400Y-78636950D01*
X186516474Y-78565024D01*
X186588400Y-78533600D01*
X186588400Y-77089000D01*
X186842400Y-77089000D01*
X186842400Y-78533600D01*
X186914326Y-78565024D01*
X186842400Y-78636950D01*
X186842400Y-80086200D01*
X188291650Y-80086200D01*
X188450400Y-79927450D01*
X188453472Y-79113200D01*
X188441212Y-78988718D01*
X188404902Y-78869020D01*
X188345937Y-78758706D01*
X188266585Y-78662015D01*
X188169894Y-78582663D01*
X188059580Y-78523698D01*
X187939882Y-78487388D01*
X187815400Y-78475128D01*
X187546223Y-78476144D01*
X187727791Y-78371008D01*
X187983222Y-78146427D01*
X188189931Y-77876329D01*
X188339975Y-77571094D01*
X188404575Y-77358122D01*
X188286525Y-77089000D01*
X186842400Y-77089000D01*
X186588400Y-77089000D01*
X185144275Y-77089000D01*
X185026225Y-77358122D01*
X185090825Y-77571094D01*
X185240869Y-77876329D01*
X185447578Y-78146427D01*
X185703009Y-78371008D01*
X185884577Y-78476144D01*
X185615400Y-78475128D01*
X185490918Y-78487388D01*
X185371220Y-78523698D01*
X185260906Y-78582663D01*
X185164215Y-78662015D01*
X185084863Y-78758706D01*
X185025898Y-78869020D01*
X184989588Y-78988718D01*
X184977328Y-79113200D01*
X177907071Y-79113200D01*
X177903063Y-79107202D01*
X177698400Y-78902539D01*
X177698400Y-78695837D01*
X177779882Y-78687812D01*
X177899580Y-78651502D01*
X178009894Y-78592537D01*
X178106585Y-78513185D01*
X178185937Y-78416494D01*
X178244902Y-78306180D01*
X178281212Y-78186482D01*
X178290494Y-78092240D01*
X178328867Y-78088461D01*
X178544323Y-78023103D01*
X178742889Y-77916968D01*
X178916933Y-77774133D01*
X178952727Y-77730518D01*
X180117367Y-76565878D01*
X185026225Y-76565878D01*
X185144275Y-76835000D01*
X186588400Y-76835000D01*
X186588400Y-75390400D01*
X186842400Y-75390400D01*
X186842400Y-76835000D01*
X188286525Y-76835000D01*
X188404575Y-76565878D01*
X188339975Y-76352906D01*
X188189931Y-76047671D01*
X187983222Y-75777573D01*
X187727791Y-75552992D01*
X187433454Y-75382558D01*
X187111523Y-75272821D01*
X186842400Y-75390400D01*
X186588400Y-75390400D01*
X186319277Y-75272821D01*
X185997346Y-75382558D01*
X185703009Y-75552992D01*
X185447578Y-75777573D01*
X185240869Y-76047671D01*
X185090825Y-76352906D01*
X185026225Y-76565878D01*
X180117367Y-76565878D01*
X180397323Y-76285923D01*
X180440933Y-76250133D01*
X180583768Y-76076089D01*
X180689903Y-75877523D01*
X180745432Y-75694468D01*
X180755261Y-75662068D01*
X180766138Y-75551633D01*
X180771800Y-75494146D01*
X180771800Y-75494140D01*
X180777329Y-75438001D01*
X180771800Y-75381862D01*
X180771800Y-71686600D01*
X185231328Y-71686600D01*
X185243588Y-71811082D01*
X185279898Y-71930780D01*
X185338863Y-72041094D01*
X185418215Y-72137785D01*
X185514906Y-72217137D01*
X185625220Y-72276102D01*
X185744918Y-72312412D01*
X185869400Y-72324672D01*
X186683650Y-72321600D01*
X186842400Y-72162850D01*
X186842400Y-70713600D01*
X187096400Y-70713600D01*
X187096400Y-72162850D01*
X187255150Y-72321600D01*
X188069400Y-72324672D01*
X188193882Y-72312412D01*
X188313580Y-72276102D01*
X188423894Y-72217137D01*
X188520585Y-72137785D01*
X188599937Y-72041094D01*
X188658902Y-71930780D01*
X188695212Y-71811082D01*
X188707472Y-71686600D01*
X188704400Y-70872350D01*
X188545650Y-70713600D01*
X187096400Y-70713600D01*
X186842400Y-70713600D01*
X185393150Y-70713600D01*
X185234400Y-70872350D01*
X185231328Y-71686600D01*
X180771800Y-71686600D01*
X180771800Y-69486600D01*
X185231328Y-69486600D01*
X185234400Y-70300850D01*
X185393150Y-70459600D01*
X186842400Y-70459600D01*
X186842400Y-69010350D01*
X186752797Y-68920747D01*
X186842400Y-68881600D01*
X186842400Y-67437000D01*
X187096400Y-67437000D01*
X187096400Y-68881600D01*
X187186003Y-68920747D01*
X187096400Y-69010350D01*
X187096400Y-70459600D01*
X188545650Y-70459600D01*
X188704400Y-70300850D01*
X188707472Y-69486600D01*
X188695212Y-69362118D01*
X188658902Y-69242420D01*
X188599937Y-69132106D01*
X188520585Y-69035415D01*
X188423894Y-68956063D01*
X188313580Y-68897098D01*
X188193882Y-68860788D01*
X188069400Y-68848528D01*
X187756070Y-68849710D01*
X187981791Y-68719008D01*
X188237222Y-68494427D01*
X188443931Y-68224329D01*
X188593975Y-67919094D01*
X188658575Y-67706122D01*
X188540525Y-67437000D01*
X187096400Y-67437000D01*
X186842400Y-67437000D01*
X185398275Y-67437000D01*
X185280225Y-67706122D01*
X185344825Y-67919094D01*
X185494869Y-68224329D01*
X185701578Y-68494427D01*
X185957009Y-68719008D01*
X186182730Y-68849710D01*
X185869400Y-68848528D01*
X185744918Y-68860788D01*
X185625220Y-68897098D01*
X185514906Y-68956063D01*
X185418215Y-69035415D01*
X185338863Y-69132106D01*
X185279898Y-69242420D01*
X185243588Y-69362118D01*
X185231328Y-69486600D01*
X180771800Y-69486600D01*
X180771800Y-66913878D01*
X185280225Y-66913878D01*
X185398275Y-67183000D01*
X186842400Y-67183000D01*
X186842400Y-65738400D01*
X187096400Y-65738400D01*
X187096400Y-67183000D01*
X188540525Y-67183000D01*
X188658575Y-66913878D01*
X188593975Y-66700906D01*
X188443931Y-66395671D01*
X188237222Y-66125573D01*
X187981791Y-65900992D01*
X187687454Y-65730558D01*
X187365523Y-65620821D01*
X187096400Y-65738400D01*
X186842400Y-65738400D01*
X186573277Y-65620821D01*
X186251346Y-65730558D01*
X185957009Y-65900992D01*
X185701578Y-66125573D01*
X185494869Y-66395671D01*
X185344825Y-66700906D01*
X185280225Y-66913878D01*
X180771800Y-66913878D01*
X180771800Y-65334139D01*
X180777329Y-65278000D01*
X180771800Y-65221861D01*
X180771800Y-65221854D01*
X180755261Y-65053933D01*
X180755261Y-65053932D01*
X180689903Y-64838476D01*
X180644461Y-64753461D01*
X180583768Y-64639911D01*
X180493181Y-64529531D01*
X180476724Y-64509478D01*
X180476723Y-64509477D01*
X180440933Y-64465867D01*
X180397324Y-64430078D01*
X178825727Y-62858482D01*
X178789933Y-62814867D01*
X178615889Y-62672032D01*
X178417323Y-62565897D01*
X178201867Y-62500539D01*
X178033946Y-62484000D01*
X178033939Y-62484000D01*
X177977800Y-62478471D01*
X177921661Y-62484000D01*
X134055854Y-62484000D01*
X133887933Y-62500539D01*
X133672477Y-62565897D01*
X133473911Y-62672032D01*
X133299867Y-62814867D01*
X133157032Y-62988911D01*
X133050897Y-63187477D01*
X132985539Y-63402933D01*
X132963470Y-63627000D01*
X132985539Y-63851067D01*
X133050897Y-64066523D01*
X133157032Y-64265089D01*
X133299867Y-64439133D01*
X133473911Y-64581968D01*
X133521662Y-64607491D01*
X131489282Y-66639873D01*
X131445667Y-66675667D01*
X131302832Y-66849712D01*
X131196697Y-67048278D01*
X131131339Y-67263734D01*
X131114800Y-67431655D01*
X131114800Y-67431661D01*
X131109271Y-67487800D01*
X131114800Y-67543939D01*
X131114801Y-73523309D01*
X131025233Y-73414171D01*
X130981624Y-73378382D01*
X118974889Y-61371648D01*
X118939103Y-61253677D01*
X118832968Y-61055111D01*
X118690133Y-60881067D01*
X118516089Y-60738232D01*
X118317523Y-60632097D01*
X118102067Y-60566739D01*
X117934146Y-60550200D01*
X117878000Y-60544670D01*
X117821854Y-60550200D01*
X109744654Y-60550200D01*
X109576733Y-60566739D01*
X109537095Y-60578763D01*
X109562800Y-60449535D01*
X109562800Y-60166865D01*
X109507653Y-59889626D01*
X109399480Y-59628473D01*
X109242437Y-59393441D01*
X109042559Y-59193563D01*
X108807527Y-59036520D01*
X108546374Y-58928347D01*
X108269135Y-58873200D01*
X107986465Y-58873200D01*
X107709226Y-58928347D01*
X107448073Y-59036520D01*
X107213041Y-59193563D01*
X107013163Y-59393441D01*
X106856120Y-59628473D01*
X106747947Y-59889626D01*
X106692800Y-60166865D01*
X106692800Y-60449535D01*
X106747947Y-60726774D01*
X106780018Y-60804200D01*
X106419649Y-60804200D01*
X106402437Y-60778441D01*
X106202559Y-60578563D01*
X105967527Y-60421520D01*
X105706374Y-60313347D01*
X105429135Y-60258200D01*
X105146465Y-60258200D01*
X104869226Y-60313347D01*
X104608073Y-60421520D01*
X104373041Y-60578563D01*
X104355900Y-60595704D01*
X104355900Y-53118675D01*
X105192800Y-53118675D01*
X105192800Y-53637725D01*
X105294061Y-54146801D01*
X105492693Y-54626341D01*
X105781062Y-55057915D01*
X106148085Y-55424938D01*
X106579659Y-55713307D01*
X107059199Y-55911939D01*
X107568275Y-56013200D01*
X108087325Y-56013200D01*
X108596401Y-55911939D01*
X109075941Y-55713307D01*
X109507515Y-55424938D01*
X109874538Y-55057915D01*
X110162907Y-54626341D01*
X110361539Y-54146801D01*
X110462800Y-53637725D01*
X110462800Y-53118675D01*
X110361539Y-52609599D01*
X110162907Y-52130059D01*
X109874538Y-51698485D01*
X109507515Y-51331462D01*
X109075941Y-51043093D01*
X108596401Y-50844461D01*
X108087325Y-50743200D01*
X107568275Y-50743200D01*
X107059199Y-50844461D01*
X106579659Y-51043093D01*
X106148085Y-51331462D01*
X105781062Y-51698485D01*
X105492693Y-52130059D01*
X105294061Y-52609599D01*
X105192800Y-53118675D01*
X104355900Y-53118675D01*
X104355900Y-49978045D01*
X106200946Y-48133000D01*
X119236593Y-48133000D01*
X119269463Y-48194494D01*
X119348815Y-48291185D01*
X119445506Y-48370537D01*
X119555820Y-48429502D01*
X119628380Y-48451513D01*
X119496525Y-48583368D01*
X119334010Y-48826589D01*
X119222068Y-49096842D01*
X119165000Y-49383740D01*
X119165000Y-49676260D01*
X119222068Y-49963158D01*
X119334010Y-50233411D01*
X119496525Y-50476632D01*
X119703368Y-50683475D01*
X119877760Y-50800000D01*
X119703368Y-50916525D01*
X119496525Y-51123368D01*
X119334010Y-51366589D01*
X119222068Y-51636842D01*
X119165000Y-51923740D01*
X119165000Y-52216260D01*
X119222068Y-52503158D01*
X119334010Y-52773411D01*
X119496525Y-53016632D01*
X119703368Y-53223475D01*
X119877760Y-53340000D01*
X119703368Y-53456525D01*
X119496525Y-53663368D01*
X119334010Y-53906589D01*
X119222068Y-54176842D01*
X119165000Y-54463740D01*
X119165000Y-54756260D01*
X119222068Y-55043158D01*
X119334010Y-55313411D01*
X119496525Y-55556632D01*
X119703368Y-55763475D01*
X119877760Y-55880000D01*
X119703368Y-55996525D01*
X119496525Y-56203368D01*
X119334010Y-56446589D01*
X119222068Y-56716842D01*
X119165000Y-57003740D01*
X119165000Y-57296260D01*
X119222068Y-57583158D01*
X119334010Y-57853411D01*
X119496525Y-58096632D01*
X119703368Y-58303475D01*
X119877760Y-58420000D01*
X119703368Y-58536525D01*
X119496525Y-58743368D01*
X119334010Y-58986589D01*
X119222068Y-59256842D01*
X119165000Y-59543740D01*
X119165000Y-59836260D01*
X119222068Y-60123158D01*
X119334010Y-60393411D01*
X119496525Y-60636632D01*
X119703368Y-60843475D01*
X119946589Y-61005990D01*
X120216842Y-61117932D01*
X120503740Y-61175000D01*
X120796260Y-61175000D01*
X121083158Y-61117932D01*
X121353411Y-61005990D01*
X121596632Y-60843475D01*
X121803475Y-60636632D01*
X121965990Y-60393411D01*
X122077932Y-60123158D01*
X122135000Y-59836260D01*
X122135000Y-59543740D01*
X122080550Y-59270000D01*
X204251928Y-59270000D01*
X204264188Y-59394482D01*
X204300498Y-59514180D01*
X204359463Y-59624494D01*
X204438815Y-59721185D01*
X204535506Y-59800537D01*
X204645820Y-59859502D01*
X204765518Y-59895812D01*
X204890000Y-59908072D01*
X205454250Y-59905000D01*
X205613000Y-59746250D01*
X205613000Y-58547000D01*
X205867000Y-58547000D01*
X205867000Y-59746250D01*
X206025750Y-59905000D01*
X206590000Y-59908072D01*
X206714482Y-59895812D01*
X206834180Y-59859502D01*
X206944494Y-59800537D01*
X207041185Y-59721185D01*
X207120537Y-59624494D01*
X207179502Y-59514180D01*
X207203966Y-59433534D01*
X207279731Y-59517588D01*
X207513080Y-59691641D01*
X207775901Y-59816825D01*
X207923110Y-59861476D01*
X208153000Y-59740155D01*
X208153000Y-58547000D01*
X208407000Y-58547000D01*
X208407000Y-59740155D01*
X208636890Y-59861476D01*
X208784099Y-59816825D01*
X209046920Y-59691641D01*
X209280269Y-59517588D01*
X209475178Y-59301355D01*
X209550000Y-59175745D01*
X209624822Y-59301355D01*
X209819731Y-59517588D01*
X210053080Y-59691641D01*
X210315901Y-59816825D01*
X210463110Y-59861476D01*
X210693000Y-59740155D01*
X210693000Y-58547000D01*
X210947000Y-58547000D01*
X210947000Y-59740155D01*
X211176890Y-59861476D01*
X211324099Y-59816825D01*
X211586920Y-59691641D01*
X211820269Y-59517588D01*
X212015178Y-59301355D01*
X212164157Y-59051252D01*
X212261481Y-58776891D01*
X212140814Y-58547000D01*
X210947000Y-58547000D01*
X210693000Y-58547000D01*
X208407000Y-58547000D01*
X208153000Y-58547000D01*
X205867000Y-58547000D01*
X205613000Y-58547000D01*
X204413750Y-58547000D01*
X204255000Y-58705750D01*
X204251928Y-59270000D01*
X122080550Y-59270000D01*
X122077932Y-59256842D01*
X121965990Y-58986589D01*
X121803475Y-58743368D01*
X121596632Y-58536525D01*
X121422240Y-58420000D01*
X121596632Y-58303475D01*
X121803475Y-58096632D01*
X121965990Y-57853411D01*
X122077932Y-57583158D01*
X122080549Y-57570000D01*
X204251928Y-57570000D01*
X204255000Y-58134250D01*
X204413750Y-58293000D01*
X205613000Y-58293000D01*
X205613000Y-57093750D01*
X205867000Y-57093750D01*
X205867000Y-58293000D01*
X208153000Y-58293000D01*
X208153000Y-57099845D01*
X208407000Y-57099845D01*
X208407000Y-58293000D01*
X210693000Y-58293000D01*
X210693000Y-57099845D01*
X210947000Y-57099845D01*
X210947000Y-58293000D01*
X212140814Y-58293000D01*
X212261481Y-58063109D01*
X212164157Y-57788748D01*
X212015178Y-57538645D01*
X211820269Y-57322412D01*
X211586920Y-57148359D01*
X211324099Y-57023175D01*
X211176890Y-56978524D01*
X210947000Y-57099845D01*
X210693000Y-57099845D01*
X210463110Y-56978524D01*
X210315901Y-57023175D01*
X210053080Y-57148359D01*
X209819731Y-57322412D01*
X209624822Y-57538645D01*
X209550000Y-57664255D01*
X209475178Y-57538645D01*
X209280269Y-57322412D01*
X209046920Y-57148359D01*
X208784099Y-57023175D01*
X208636890Y-56978524D01*
X208407000Y-57099845D01*
X208153000Y-57099845D01*
X207923110Y-56978524D01*
X207775901Y-57023175D01*
X207513080Y-57148359D01*
X207279731Y-57322412D01*
X207203966Y-57406466D01*
X207179502Y-57325820D01*
X207120537Y-57215506D01*
X207041185Y-57118815D01*
X206944494Y-57039463D01*
X206834180Y-56980498D01*
X206714482Y-56944188D01*
X206590000Y-56931928D01*
X206025750Y-56935000D01*
X205867000Y-57093750D01*
X205613000Y-57093750D01*
X205454250Y-56935000D01*
X204890000Y-56931928D01*
X204765518Y-56944188D01*
X204645820Y-56980498D01*
X204535506Y-57039463D01*
X204438815Y-57118815D01*
X204359463Y-57215506D01*
X204300498Y-57325820D01*
X204264188Y-57445518D01*
X204251928Y-57570000D01*
X122080549Y-57570000D01*
X122135000Y-57296260D01*
X122135000Y-57003740D01*
X122077932Y-56716842D01*
X121965990Y-56446589D01*
X121803475Y-56203368D01*
X121596632Y-55996525D01*
X121422240Y-55880000D01*
X121596632Y-55763475D01*
X121803475Y-55556632D01*
X121965990Y-55313411D01*
X122077932Y-55043158D01*
X122135000Y-54756260D01*
X122135000Y-54463740D01*
X122077932Y-54176842D01*
X121965990Y-53906589D01*
X121803475Y-53663368D01*
X121596632Y-53456525D01*
X121422240Y-53340000D01*
X121596632Y-53223475D01*
X121803475Y-53016632D01*
X121965990Y-52773411D01*
X122077932Y-52503158D01*
X122135000Y-52216260D01*
X122135000Y-51923740D01*
X122077932Y-51636842D01*
X121965990Y-51366589D01*
X121803475Y-51123368D01*
X121596632Y-50916525D01*
X121422240Y-50800000D01*
X121596632Y-50683475D01*
X121803475Y-50476632D01*
X121965990Y-50233411D01*
X122077932Y-49963158D01*
X122135000Y-49676260D01*
X122135000Y-49383740D01*
X122077932Y-49096842D01*
X121965990Y-48826589D01*
X121803475Y-48583368D01*
X121671620Y-48451513D01*
X121744180Y-48429502D01*
X121854494Y-48370537D01*
X121951185Y-48291185D01*
X122030537Y-48194494D01*
X122089502Y-48084180D01*
X122125812Y-47964482D01*
X122138072Y-47840000D01*
X122138072Y-46140000D01*
X122125812Y-46015518D01*
X122089502Y-45895820D01*
X122030537Y-45785506D01*
X121951185Y-45688815D01*
X121854494Y-45609463D01*
X121744180Y-45550498D01*
X121624482Y-45514188D01*
X121500000Y-45501928D01*
X119800000Y-45501928D01*
X119675518Y-45514188D01*
X119555820Y-45550498D01*
X119445506Y-45609463D01*
X119348815Y-45688815D01*
X119269463Y-45785506D01*
X119236593Y-45847000D01*
X105783638Y-45847000D01*
X105727499Y-45841471D01*
X105671360Y-45847000D01*
X105671354Y-45847000D01*
X105526100Y-45861306D01*
X105503432Y-45863539D01*
X105438074Y-45883365D01*
X105287977Y-45928897D01*
X105089411Y-46035032D01*
X104915367Y-46177867D01*
X104879577Y-46221477D01*
X102444378Y-48656677D01*
X102400768Y-48692467D01*
X102361600Y-48740193D01*
X102361600Y-29133800D01*
X221437600Y-29133800D01*
X221437601Y-124638058D01*
G37*
X221437601Y-124638058D02*
X102361600Y-124688310D01*
X102361600Y-83711865D01*
X103852800Y-83711865D01*
X103852800Y-83994535D01*
X103907947Y-84271774D01*
X104016120Y-84532927D01*
X104173163Y-84767959D01*
X104373041Y-84967837D01*
X104608073Y-85124880D01*
X104869226Y-85233053D01*
X104895101Y-85238200D01*
X104869226Y-85243347D01*
X104608073Y-85351520D01*
X104373041Y-85508563D01*
X104173163Y-85708441D01*
X104016120Y-85943473D01*
X103907947Y-86204626D01*
X103852800Y-86481865D01*
X103852800Y-86764535D01*
X103907947Y-87041774D01*
X104016120Y-87302927D01*
X104173163Y-87537959D01*
X104373041Y-87737837D01*
X104608073Y-87894880D01*
X104869226Y-88003053D01*
X104895101Y-88008200D01*
X104869226Y-88013347D01*
X104608073Y-88121520D01*
X104373041Y-88278563D01*
X104173163Y-88478441D01*
X104016120Y-88713473D01*
X103907947Y-88974626D01*
X103852800Y-89251865D01*
X103852800Y-89534535D01*
X103907947Y-89811774D01*
X104016120Y-90072927D01*
X104173163Y-90307959D01*
X104373041Y-90507837D01*
X104608073Y-90664880D01*
X104869226Y-90773053D01*
X104895101Y-90778200D01*
X104869226Y-90783347D01*
X104608073Y-90891520D01*
X104373041Y-91048563D01*
X104173163Y-91248441D01*
X104016120Y-91483473D01*
X103907947Y-91744626D01*
X103852800Y-92021865D01*
X103852800Y-92304535D01*
X103907947Y-92581774D01*
X104016120Y-92842927D01*
X104173163Y-93077959D01*
X104373041Y-93277837D01*
X104608073Y-93434880D01*
X104869226Y-93543053D01*
X105146465Y-93598200D01*
X105429135Y-93598200D01*
X105706374Y-93543053D01*
X105967527Y-93434880D01*
X106202559Y-93277837D01*
X106402437Y-93077959D01*
X106419649Y-93052200D01*
X106689728Y-93052200D01*
X106689728Y-94348200D01*
X106701988Y-94472682D01*
X106738298Y-94592380D01*
X106797263Y-94702694D01*
X106876615Y-94799385D01*
X106973306Y-94878737D01*
X107083620Y-94937702D01*
X107203318Y-94974012D01*
X107327800Y-94986272D01*
X108482827Y-94986272D01*
X110159800Y-96663246D01*
X110159800Y-99225409D01*
X109874538Y-98798485D01*
X109507515Y-98431462D01*
X109075941Y-98143093D01*
X108596401Y-97944461D01*
X108087325Y-97843200D01*
X107568275Y-97843200D01*
X107059199Y-97944461D01*
X106579659Y-98143093D01*
X106148085Y-98431462D01*
X105781062Y-98798485D01*
X105492693Y-99230059D01*
X105294061Y-99709599D01*
X105192800Y-100218675D01*
X105192800Y-100737725D01*
X105294061Y-101246801D01*
X105492693Y-101726341D01*
X105781062Y-102157915D01*
X106148085Y-102524938D01*
X106579659Y-102813307D01*
X107059199Y-103011939D01*
X107568275Y-103113200D01*
X108087325Y-103113200D01*
X108596401Y-103011939D01*
X109075941Y-102813307D01*
X109507515Y-102524938D01*
X109874538Y-102157915D01*
X110159800Y-101730991D01*
X110159801Y-120327892D01*
X110149325Y-120338368D01*
X109986810Y-120581589D01*
X109874868Y-120851842D01*
X109817800Y-121138740D01*
X109817800Y-121431260D01*
X109874868Y-121718158D01*
X109986810Y-121988411D01*
X110149325Y-122231632D01*
X110356168Y-122438475D01*
X110599389Y-122600990D01*
X110869642Y-122712932D01*
X111156540Y-122770000D01*
X111449060Y-122770000D01*
X111735958Y-122712932D01*
X112006211Y-122600990D01*
X112249432Y-122438475D01*
X112456275Y-122231632D01*
X112572800Y-122057240D01*
X112689325Y-122231632D01*
X112896168Y-122438475D01*
X113139389Y-122600990D01*
X113409642Y-122712932D01*
X113696540Y-122770000D01*
X113989060Y-122770000D01*
X114275958Y-122712932D01*
X114546211Y-122600990D01*
X114789432Y-122438475D01*
X114996275Y-122231632D01*
X115112800Y-122057240D01*
X115229325Y-122231632D01*
X115436168Y-122438475D01*
X115679389Y-122600990D01*
X115949642Y-122712932D01*
X116236540Y-122770000D01*
X116529060Y-122770000D01*
X116815958Y-122712932D01*
X117086211Y-122600990D01*
X117329432Y-122438475D01*
X117536275Y-122231632D01*
X117652800Y-122057240D01*
X117769325Y-122231632D01*
X117976168Y-122438475D01*
X118219389Y-122600990D01*
X118489642Y-122712932D01*
X118776540Y-122770000D01*
X119069060Y-122770000D01*
X119355958Y-122712932D01*
X119626211Y-122600990D01*
X119869432Y-122438475D01*
X120076275Y-122231632D01*
X120192800Y-122057240D01*
X120309325Y-122231632D01*
X120516168Y-122438475D01*
X120759389Y-122600990D01*
X121029642Y-122712932D01*
X121316540Y-122770000D01*
X121609060Y-122770000D01*
X121895958Y-122712932D01*
X122166211Y-122600990D01*
X122409432Y-122438475D01*
X122616275Y-122231632D01*
X122732800Y-122057240D01*
X122849325Y-122231632D01*
X123056168Y-122438475D01*
X123299389Y-122600990D01*
X123569642Y-122712932D01*
X123856540Y-122770000D01*
X124149060Y-122770000D01*
X124435958Y-122712932D01*
X124706211Y-122600990D01*
X124949432Y-122438475D01*
X125156275Y-122231632D01*
X125272800Y-122057240D01*
X125389325Y-122231632D01*
X125596168Y-122438475D01*
X125839389Y-122600990D01*
X126109642Y-122712932D01*
X126396540Y-122770000D01*
X126689060Y-122770000D01*
X126975958Y-122712932D01*
X127246211Y-122600990D01*
X127489432Y-122438475D01*
X127696275Y-122231632D01*
X127812800Y-122057240D01*
X127929325Y-122231632D01*
X128136168Y-122438475D01*
X128379389Y-122600990D01*
X128649642Y-122712932D01*
X128936540Y-122770000D01*
X129229060Y-122770000D01*
X129515958Y-122712932D01*
X129786211Y-122600990D01*
X130029432Y-122438475D01*
X130161287Y-122306620D01*
X130183298Y-122379180D01*
X130242263Y-122489494D01*
X130321615Y-122586185D01*
X130418306Y-122665537D01*
X130528620Y-122724502D01*
X130648318Y-122760812D01*
X130772800Y-122773072D01*
X132472800Y-122773072D01*
X132597282Y-122760812D01*
X132716980Y-122724502D01*
X132827294Y-122665537D01*
X132923985Y-122586185D01*
X133003337Y-122489494D01*
X133062302Y-122379180D01*
X133098612Y-122259482D01*
X133110872Y-122135000D01*
X133110872Y-120435000D01*
X133098612Y-120310518D01*
X133062302Y-120190820D01*
X133003337Y-120080506D01*
X132923985Y-119983815D01*
X132827294Y-119904463D01*
X132765800Y-119871593D01*
X132765800Y-119436138D01*
X132771329Y-119379999D01*
X132765800Y-119323860D01*
X132765800Y-119323854D01*
X132749261Y-119155933D01*
X132683903Y-118940477D01*
X132577768Y-118741911D01*
X132434933Y-118567867D01*
X132391324Y-118532078D01*
X130126111Y-116266865D01*
X131356200Y-116266865D01*
X131356200Y-116549535D01*
X131411347Y-116826774D01*
X131519520Y-117087927D01*
X131676563Y-117322959D01*
X131876441Y-117522837D01*
X132111473Y-117679880D01*
X132372626Y-117788053D01*
X132649865Y-117843200D01*
X132932535Y-117843200D01*
X133209774Y-117788053D01*
X133470927Y-117679880D01*
X133705959Y-117522837D01*
X133905837Y-117322959D01*
X134062880Y-117087927D01*
X134171053Y-116826774D01*
X134226200Y-116549535D01*
X134226200Y-116266865D01*
X134171053Y-115989626D01*
X134062880Y-115728473D01*
X133905837Y-115493441D01*
X133705959Y-115293563D01*
X133470927Y-115136520D01*
X133209774Y-115028347D01*
X132932535Y-114973200D01*
X132649865Y-114973200D01*
X132372626Y-115028347D01*
X132111473Y-115136520D01*
X131876441Y-115293563D01*
X131676563Y-115493441D01*
X131519520Y-115728473D01*
X131411347Y-115989626D01*
X131356200Y-116266865D01*
X130126111Y-116266865D01*
X129616200Y-115756955D01*
X129616200Y-112454511D01*
X129744880Y-112261927D01*
X129853053Y-112000774D01*
X129908200Y-111723535D01*
X129908200Y-111440865D01*
X129853053Y-111163626D01*
X129744880Y-110902473D01*
X129587837Y-110667441D01*
X129387959Y-110467563D01*
X129152927Y-110310520D01*
X128891774Y-110202347D01*
X128614535Y-110147200D01*
X128331865Y-110147200D01*
X128054626Y-110202347D01*
X127793473Y-110310520D01*
X127558441Y-110467563D01*
X127358563Y-110667441D01*
X127201520Y-110902473D01*
X127093347Y-111163626D01*
X127038200Y-111440865D01*
X127038200Y-111723535D01*
X127093347Y-112000774D01*
X127201520Y-112261927D01*
X127330200Y-112454511D01*
X127330201Y-116174251D01*
X127324671Y-116230400D01*
X127346739Y-116454467D01*
X127382585Y-116572633D01*
X127412098Y-116669923D01*
X127518233Y-116868489D01*
X127661068Y-117042533D01*
X127704678Y-117078323D01*
X130479800Y-119853446D01*
X130479800Y-119871593D01*
X130418306Y-119904463D01*
X130321615Y-119983815D01*
X130242263Y-120080506D01*
X130183298Y-120190820D01*
X130161287Y-120263380D01*
X130029432Y-120131525D01*
X129786211Y-119969010D01*
X129515958Y-119857068D01*
X129229060Y-119800000D01*
X128936540Y-119800000D01*
X128649642Y-119857068D01*
X128379389Y-119969010D01*
X128136168Y-120131525D01*
X127929325Y-120338368D01*
X127812800Y-120512760D01*
X127696275Y-120338368D01*
X127489432Y-120131525D01*
X127246211Y-119969010D01*
X127165371Y-119935525D01*
X121716800Y-114486955D01*
X121716800Y-91724739D01*
X121722329Y-91668600D01*
X121716800Y-91612461D01*
X121716800Y-91612454D01*
X121700261Y-91444533D01*
X121634903Y-91229077D01*
X121528768Y-91030511D01*
X121385933Y-90856467D01*
X121342324Y-90820678D01*
X115486608Y-84964963D01*
X115679323Y-84906503D01*
X115877889Y-84800368D01*
X116051933Y-84657533D01*
X116194768Y-84483489D01*
X116300903Y-84284923D01*
X116366261Y-84069467D01*
X116388330Y-83845400D01*
X116366261Y-83621333D01*
X116300903Y-83405877D01*
X116194768Y-83207311D01*
X116051933Y-83033267D01*
X115974843Y-82970000D01*
X119161928Y-82970000D01*
X119161928Y-84670000D01*
X119174188Y-84794482D01*
X119210498Y-84914180D01*
X119269463Y-85024494D01*
X119348815Y-85121185D01*
X119445506Y-85200537D01*
X119555820Y-85259502D01*
X119628380Y-85281513D01*
X119496525Y-85413368D01*
X119334010Y-85656589D01*
X119222068Y-85926842D01*
X119165000Y-86213740D01*
X119165000Y-86506260D01*
X119222068Y-86793158D01*
X119334010Y-87063411D01*
X119496525Y-87306632D01*
X119703368Y-87513475D01*
X119946589Y-87675990D01*
X120216842Y-87787932D01*
X120503740Y-87845000D01*
X120796260Y-87845000D01*
X121083158Y-87787932D01*
X121353411Y-87675990D01*
X121596632Y-87513475D01*
X121803475Y-87306632D01*
X121965990Y-87063411D01*
X122077932Y-86793158D01*
X122135000Y-86506260D01*
X122135000Y-86213740D01*
X122077932Y-85926842D01*
X121965990Y-85656589D01*
X121803475Y-85413368D01*
X121671620Y-85281513D01*
X121744180Y-85259502D01*
X121854494Y-85200537D01*
X121951185Y-85121185D01*
X122030537Y-85024494D01*
X122089502Y-84914180D01*
X122125812Y-84794482D01*
X122138072Y-84670000D01*
X122138072Y-82970000D01*
X122125812Y-82845518D01*
X122089502Y-82725820D01*
X122030537Y-82615506D01*
X121951185Y-82518815D01*
X121854494Y-82439463D01*
X121744180Y-82380498D01*
X121624482Y-82344188D01*
X121500000Y-82331928D01*
X119800000Y-82331928D01*
X119675518Y-82344188D01*
X119555820Y-82380498D01*
X119445506Y-82439463D01*
X119348815Y-82518815D01*
X119269463Y-82615506D01*
X119210498Y-82725820D01*
X119174188Y-82845518D01*
X119161928Y-82970000D01*
X115974843Y-82970000D01*
X115877889Y-82890432D01*
X115679323Y-82784297D01*
X115463867Y-82718939D01*
X115295946Y-82702400D01*
X109875939Y-82702400D01*
X109819800Y-82696871D01*
X109763661Y-82702400D01*
X109763654Y-82702400D01*
X109595733Y-82718939D01*
X109540114Y-82735811D01*
X109554100Y-82680016D01*
X109568017Y-82397688D01*
X109526587Y-82118070D01*
X109431403Y-81851908D01*
X109364471Y-81726686D01*
X109120502Y-81655103D01*
X108307405Y-82468200D01*
X108321548Y-82482343D01*
X108141943Y-82661948D01*
X108127800Y-82647805D01*
X108113658Y-82661948D01*
X107934053Y-82482343D01*
X107948195Y-82468200D01*
X107135098Y-81655103D01*
X106891129Y-81726686D01*
X106770229Y-81982196D01*
X106701500Y-82256384D01*
X106687583Y-82538712D01*
X106729013Y-82818330D01*
X106781179Y-82964200D01*
X106419649Y-82964200D01*
X106402437Y-82938441D01*
X106202559Y-82738563D01*
X105967527Y-82581520D01*
X105706374Y-82473347D01*
X105677918Y-82467687D01*
X105904092Y-82386803D01*
X106029314Y-82319871D01*
X106100897Y-82075902D01*
X105287800Y-81262805D01*
X104474703Y-82075902D01*
X104546286Y-82319871D01*
X104801796Y-82440771D01*
X104904089Y-82466412D01*
X104869226Y-82473347D01*
X104608073Y-82581520D01*
X104373041Y-82738563D01*
X104173163Y-82938441D01*
X104016120Y-83173473D01*
X103907947Y-83434626D01*
X103852800Y-83711865D01*
X102361600Y-83711865D01*
X102361600Y-81153712D01*
X103847583Y-81153712D01*
X103889013Y-81433330D01*
X103984197Y-81699492D01*
X104051129Y-81824714D01*
X104295098Y-81896297D01*
X105108195Y-81083200D01*
X105467405Y-81083200D01*
X106280502Y-81896297D01*
X106524471Y-81824714D01*
X106645371Y-81569204D01*
X106714100Y-81295016D01*
X106728017Y-81012688D01*
X106686587Y-80733070D01*
X106591403Y-80466908D01*
X106524471Y-80341686D01*
X106280502Y-80270103D01*
X105467405Y-81083200D01*
X105108195Y-81083200D01*
X104295098Y-80270103D01*
X104051129Y-80341686D01*
X103930229Y-80597196D01*
X103861500Y-80871384D01*
X103847583Y-81153712D01*
X102361600Y-81153712D01*
X102361600Y-69903208D01*
X102400767Y-69950933D01*
X102444382Y-69986727D01*
X103229377Y-70771723D01*
X103265167Y-70815333D01*
X103308777Y-70851123D01*
X103308778Y-70851124D01*
X103334642Y-70872350D01*
X103439211Y-70958168D01*
X103637777Y-71064303D01*
X103731327Y-71092681D01*
X103853232Y-71129661D01*
X103875900Y-71131894D01*
X104021154Y-71146200D01*
X104021160Y-71146200D01*
X104077299Y-71151729D01*
X104133438Y-71146200D01*
X104415489Y-71146200D01*
X104608073Y-71274880D01*
X104869226Y-71383053D01*
X104895101Y-71388200D01*
X104869226Y-71393347D01*
X104608073Y-71501520D01*
X104373041Y-71658563D01*
X104173163Y-71858441D01*
X104016120Y-72093473D01*
X103907947Y-72354626D01*
X103852800Y-72631865D01*
X103852800Y-72914535D01*
X103907947Y-73191774D01*
X104016120Y-73452927D01*
X104173163Y-73687959D01*
X104373041Y-73887837D01*
X104608073Y-74044880D01*
X104869226Y-74153053D01*
X104895101Y-74158200D01*
X104869226Y-74163347D01*
X104608073Y-74271520D01*
X104373041Y-74428563D01*
X104173163Y-74628441D01*
X104016120Y-74863473D01*
X103907947Y-75124626D01*
X103852800Y-75401865D01*
X103852800Y-75684535D01*
X103907947Y-75961774D01*
X104016120Y-76222927D01*
X104173163Y-76457959D01*
X104373041Y-76657837D01*
X104608073Y-76814880D01*
X104869226Y-76923053D01*
X104895101Y-76928200D01*
X104869226Y-76933347D01*
X104608073Y-77041520D01*
X104373041Y-77198563D01*
X104173163Y-77398441D01*
X104016120Y-77633473D01*
X103907947Y-77894626D01*
X103852800Y-78171865D01*
X103852800Y-78454535D01*
X103907947Y-78731774D01*
X104016120Y-78992927D01*
X104173163Y-79227959D01*
X104373041Y-79427837D01*
X104608073Y-79584880D01*
X104869226Y-79693053D01*
X104897682Y-79698713D01*
X104671508Y-79779597D01*
X104546286Y-79846529D01*
X104474703Y-80090498D01*
X105287800Y-80903595D01*
X106100897Y-80090498D01*
X106029314Y-79846529D01*
X105773804Y-79725629D01*
X105671511Y-79699988D01*
X105706374Y-79693053D01*
X105967527Y-79584880D01*
X106202559Y-79427837D01*
X106402437Y-79227959D01*
X106419649Y-79202200D01*
X106780018Y-79202200D01*
X106747947Y-79279626D01*
X106692800Y-79556865D01*
X106692800Y-79839535D01*
X106747947Y-80116774D01*
X106856120Y-80377927D01*
X107013163Y-80612959D01*
X107213041Y-80812837D01*
X107448073Y-80969880D01*
X107709226Y-81078053D01*
X107737682Y-81083713D01*
X107511508Y-81164597D01*
X107386286Y-81231529D01*
X107314703Y-81475498D01*
X108127800Y-82288595D01*
X108940897Y-81475498D01*
X108869314Y-81231529D01*
X108613804Y-81110629D01*
X108511511Y-81084988D01*
X108546374Y-81078053D01*
X108807527Y-80969880D01*
X109000111Y-80841200D01*
X121567447Y-80841200D01*
X121619734Y-80857061D01*
X121843800Y-80879129D01*
X122067867Y-80857061D01*
X122283323Y-80791703D01*
X122481889Y-80685567D01*
X122516900Y-80656834D01*
X122516901Y-96641651D01*
X122511371Y-96697800D01*
X122533439Y-96921867D01*
X122576444Y-97063633D01*
X122598798Y-97137323D01*
X122704933Y-97335889D01*
X122847768Y-97509933D01*
X122891378Y-97545723D01*
X126621977Y-101276323D01*
X126657767Y-101319933D01*
X126831811Y-101462768D01*
X126961211Y-101531933D01*
X127030376Y-101568903D01*
X127245832Y-101634261D01*
X127266417Y-101636288D01*
X127413754Y-101650800D01*
X127413761Y-101650800D01*
X127469900Y-101656329D01*
X127526039Y-101650800D01*
X151162761Y-101650800D01*
X151218900Y-101656329D01*
X151275039Y-101650800D01*
X151275046Y-101650800D01*
X151442967Y-101634261D01*
X151658423Y-101568903D01*
X151856989Y-101462768D01*
X152031033Y-101319933D01*
X152066827Y-101276318D01*
X153168524Y-100174622D01*
X153212133Y-100138833D01*
X153354968Y-99964789D01*
X153424133Y-99835389D01*
X153461103Y-99766224D01*
X153526461Y-99550768D01*
X153536711Y-99446697D01*
X153543000Y-99382846D01*
X153543000Y-99382839D01*
X153548529Y-99326700D01*
X153543000Y-99270561D01*
X153543000Y-97477107D01*
X153553475Y-97466632D01*
X153670000Y-97292240D01*
X153786525Y-97466632D01*
X153993368Y-97673475D01*
X154236589Y-97835990D01*
X154506842Y-97947932D01*
X154793740Y-98005000D01*
X155086260Y-98005000D01*
X155373158Y-97947932D01*
X155643411Y-97835990D01*
X155886632Y-97673475D01*
X156093475Y-97466632D01*
X156210000Y-97292240D01*
X156326525Y-97466632D01*
X156533368Y-97673475D01*
X156776589Y-97835990D01*
X157046842Y-97947932D01*
X157333740Y-98005000D01*
X157626260Y-98005000D01*
X157913158Y-97947932D01*
X158183411Y-97835990D01*
X158426632Y-97673475D01*
X158633475Y-97466632D01*
X158750000Y-97292240D01*
X158866525Y-97466632D01*
X159073368Y-97673475D01*
X159316589Y-97835990D01*
X159586842Y-97947932D01*
X159873740Y-98005000D01*
X160166260Y-98005000D01*
X160453158Y-97947932D01*
X160723411Y-97835990D01*
X160966632Y-97673475D01*
X161173475Y-97466632D01*
X161290000Y-97292240D01*
X161406525Y-97466632D01*
X161417000Y-97477107D01*
X161417000Y-97962461D01*
X161411471Y-98018600D01*
X161417000Y-98074739D01*
X161417000Y-98074745D01*
X161433539Y-98242666D01*
X161498897Y-98458122D01*
X161605032Y-98656688D01*
X161747867Y-98830733D01*
X161791482Y-98866527D01*
X165023801Y-102098847D01*
X165023800Y-112988354D01*
X162746955Y-115265200D01*
X151697511Y-115265200D01*
X151504927Y-115136520D01*
X151243774Y-115028347D01*
X150966535Y-114973200D01*
X150683865Y-114973200D01*
X150406626Y-115028347D01*
X150145473Y-115136520D01*
X149952889Y-115265200D01*
X149241246Y-115265200D01*
X145571172Y-111595127D01*
X145571172Y-110857600D01*
X145558912Y-110733118D01*
X145522602Y-110613420D01*
X145463637Y-110503106D01*
X145384285Y-110406415D01*
X145287594Y-110327063D01*
X145177280Y-110268098D01*
X145057582Y-110231788D01*
X144933100Y-110219528D01*
X143433100Y-110219528D01*
X143308618Y-110231788D01*
X143188920Y-110268098D01*
X143078606Y-110327063D01*
X142981915Y-110406415D01*
X142902563Y-110503106D01*
X142843598Y-110613420D01*
X142807288Y-110733118D01*
X142796655Y-110841083D01*
X142718899Y-110724714D01*
X142525986Y-110531801D01*
X142299143Y-110380229D01*
X142047089Y-110275825D01*
X141779511Y-110222600D01*
X141506689Y-110222600D01*
X141239111Y-110275825D01*
X140987057Y-110380229D01*
X140760214Y-110531801D01*
X140567301Y-110724714D01*
X140415729Y-110951557D01*
X140373100Y-111054473D01*
X140330471Y-110951557D01*
X140178899Y-110724714D01*
X139985986Y-110531801D01*
X139759143Y-110380229D01*
X139507089Y-110275825D01*
X139239511Y-110222600D01*
X138966689Y-110222600D01*
X138699111Y-110275825D01*
X138447057Y-110380229D01*
X138358801Y-110439200D01*
X136965511Y-110439200D01*
X136772927Y-110310520D01*
X136511774Y-110202347D01*
X136234535Y-110147200D01*
X135951865Y-110147200D01*
X135674626Y-110202347D01*
X135413473Y-110310520D01*
X135178441Y-110467563D01*
X134978563Y-110667441D01*
X134821520Y-110902473D01*
X134713347Y-111163626D01*
X134658200Y-111440865D01*
X134658200Y-111723535D01*
X134713347Y-112000774D01*
X134821520Y-112261927D01*
X134978563Y-112496959D01*
X135178441Y-112696837D01*
X135413473Y-112853880D01*
X135674626Y-112962053D01*
X135951865Y-113017200D01*
X136234535Y-113017200D01*
X136511774Y-112962053D01*
X136772927Y-112853880D01*
X136965511Y-112725200D01*
X138282773Y-112725200D01*
X138447057Y-112834971D01*
X138699111Y-112939375D01*
X138966689Y-112992600D01*
X139239511Y-112992600D01*
X139507089Y-112939375D01*
X139759143Y-112834971D01*
X139985986Y-112683399D01*
X140178899Y-112490486D01*
X140330471Y-112263643D01*
X140373100Y-112160727D01*
X140415729Y-112263643D01*
X140567301Y-112490486D01*
X140760214Y-112683399D01*
X140817601Y-112721744D01*
X140817600Y-114385354D01*
X140219795Y-114983160D01*
X139992626Y-115028347D01*
X139731473Y-115136520D01*
X139496441Y-115293563D01*
X139296563Y-115493441D01*
X139139520Y-115728473D01*
X139031347Y-115989626D01*
X138976200Y-116266865D01*
X138976200Y-116549535D01*
X139031347Y-116826774D01*
X139139520Y-117087927D01*
X139296563Y-117322959D01*
X139496441Y-117522837D01*
X139731473Y-117679880D01*
X139992626Y-117788053D01*
X140269865Y-117843200D01*
X140552535Y-117843200D01*
X140829774Y-117788053D01*
X141090927Y-117679880D01*
X141283511Y-117551200D01*
X142332889Y-117551200D01*
X142525473Y-117679880D01*
X142786626Y-117788053D01*
X143063865Y-117843200D01*
X143346535Y-117843200D01*
X143623774Y-117788053D01*
X143884927Y-117679880D01*
X144119959Y-117522837D01*
X144319837Y-117322959D01*
X144476880Y-117087927D01*
X144585053Y-116826774D01*
X144640200Y-116549535D01*
X144640200Y-116266865D01*
X144585053Y-115989626D01*
X144476880Y-115728473D01*
X144319837Y-115493441D01*
X144119959Y-115293563D01*
X143884927Y-115136520D01*
X143623774Y-115028347D01*
X143346535Y-114973200D01*
X143097862Y-114973200D01*
X143103600Y-114914946D01*
X143103600Y-114914940D01*
X143109129Y-114858801D01*
X143103600Y-114802662D01*
X143103600Y-112901497D01*
X143188920Y-112947102D01*
X143308618Y-112983412D01*
X143433100Y-112995672D01*
X143738827Y-112995672D01*
X147919877Y-117176723D01*
X147955667Y-117220333D01*
X148129711Y-117363168D01*
X148328277Y-117469303D01*
X148478374Y-117514835D01*
X148543732Y-117534661D01*
X148564317Y-117536688D01*
X148711654Y-117551200D01*
X148711661Y-117551200D01*
X148767800Y-117556729D01*
X148823939Y-117551200D01*
X149952889Y-117551200D01*
X150145473Y-117679880D01*
X150406626Y-117788053D01*
X150683865Y-117843200D01*
X150966535Y-117843200D01*
X151243774Y-117788053D01*
X151504927Y-117679880D01*
X151697511Y-117551200D01*
X163164261Y-117551200D01*
X163220400Y-117556729D01*
X163276539Y-117551200D01*
X163276546Y-117551200D01*
X163444467Y-117534661D01*
X163659923Y-117469303D01*
X163858489Y-117363168D01*
X164032533Y-117220333D01*
X164068327Y-117176718D01*
X166935324Y-114309722D01*
X166978933Y-114273933D01*
X167121768Y-114099889D01*
X167227903Y-113901323D01*
X167293261Y-113685867D01*
X167309800Y-113517946D01*
X167309800Y-113517939D01*
X167315329Y-113461800D01*
X167309800Y-113405661D01*
X167309800Y-101681538D01*
X167315329Y-101625399D01*
X167309800Y-101569260D01*
X167309800Y-101569254D01*
X167293261Y-101401333D01*
X167227903Y-101185877D01*
X167121768Y-100987311D01*
X166978933Y-100813267D01*
X166935323Y-100777477D01*
X163703000Y-97545155D01*
X163703000Y-97477107D01*
X163713475Y-97466632D01*
X163830000Y-97292240D01*
X163946525Y-97466632D01*
X164153368Y-97673475D01*
X164396589Y-97835990D01*
X164666842Y-97947932D01*
X164953740Y-98005000D01*
X165246260Y-98005000D01*
X165533158Y-97947932D01*
X165803411Y-97835990D01*
X166046632Y-97673475D01*
X166253475Y-97466632D01*
X166370000Y-97292240D01*
X166486525Y-97466632D01*
X166693368Y-97673475D01*
X166936589Y-97835990D01*
X167206842Y-97947932D01*
X167493740Y-98005000D01*
X167786260Y-98005000D01*
X168073158Y-97947932D01*
X168343411Y-97835990D01*
X168586632Y-97673475D01*
X168793475Y-97466632D01*
X168915195Y-97284466D01*
X168984822Y-97401355D01*
X169179731Y-97617588D01*
X169413080Y-97791641D01*
X169675901Y-97916825D01*
X169823110Y-97961476D01*
X170053000Y-97840155D01*
X170053000Y-96647000D01*
X170307000Y-96647000D01*
X170307000Y-97840155D01*
X170536890Y-97961476D01*
X170684099Y-97916825D01*
X170946920Y-97791641D01*
X171180269Y-97617588D01*
X171256034Y-97533534D01*
X171280498Y-97614180D01*
X171339463Y-97724494D01*
X171418815Y-97821185D01*
X171515506Y-97900537D01*
X171625820Y-97959502D01*
X171745518Y-97995812D01*
X171870000Y-98008072D01*
X172434250Y-98005000D01*
X172593000Y-97846250D01*
X172593000Y-96647000D01*
X172847000Y-96647000D01*
X172847000Y-97846250D01*
X173005750Y-98005000D01*
X173570000Y-98008072D01*
X173694482Y-97995812D01*
X173814180Y-97959502D01*
X173924494Y-97900537D01*
X174021185Y-97821185D01*
X174100537Y-97724494D01*
X174159502Y-97614180D01*
X174195812Y-97494482D01*
X174208072Y-97370000D01*
X174205000Y-96805750D01*
X174046250Y-96647000D01*
X172847000Y-96647000D01*
X172593000Y-96647000D01*
X170307000Y-96647000D01*
X170053000Y-96647000D01*
X170033000Y-96647000D01*
X170033000Y-96393000D01*
X170053000Y-96393000D01*
X170053000Y-95199845D01*
X170307000Y-95199845D01*
X170307000Y-96393000D01*
X172593000Y-96393000D01*
X172593000Y-95193750D01*
X172847000Y-95193750D01*
X172847000Y-96393000D01*
X174046250Y-96393000D01*
X174205000Y-96234250D01*
X174208072Y-95670000D01*
X174195812Y-95545518D01*
X174159502Y-95425820D01*
X174100537Y-95315506D01*
X174021185Y-95218815D01*
X173924494Y-95139463D01*
X173814180Y-95080498D01*
X173694482Y-95044188D01*
X173570000Y-95031928D01*
X173005750Y-95035000D01*
X172847000Y-95193750D01*
X172593000Y-95193750D01*
X172434250Y-95035000D01*
X171870000Y-95031928D01*
X171745518Y-95044188D01*
X171625820Y-95080498D01*
X171515506Y-95139463D01*
X171418815Y-95218815D01*
X171339463Y-95315506D01*
X171280498Y-95425820D01*
X171256034Y-95506466D01*
X171180269Y-95422412D01*
X170946920Y-95248359D01*
X170684099Y-95123175D01*
X170536890Y-95078524D01*
X170307000Y-95199845D01*
X170053000Y-95199845D01*
X169823110Y-95078524D01*
X169675901Y-95123175D01*
X169413080Y-95248359D01*
X169179731Y-95422412D01*
X168984822Y-95638645D01*
X168915195Y-95755534D01*
X168793475Y-95573368D01*
X168586632Y-95366525D01*
X168343411Y-95204010D01*
X168073158Y-95092068D01*
X167786260Y-95035000D01*
X167493740Y-95035000D01*
X167206842Y-95092068D01*
X166936589Y-95204010D01*
X166693368Y-95366525D01*
X166486525Y-95573368D01*
X166370000Y-95747760D01*
X166253475Y-95573368D01*
X166046632Y-95366525D01*
X165803411Y-95204010D01*
X165533158Y-95092068D01*
X165246260Y-95035000D01*
X164953740Y-95035000D01*
X164666842Y-95092068D01*
X164396589Y-95204010D01*
X164153368Y-95366525D01*
X163946525Y-95573368D01*
X163830000Y-95747760D01*
X163713475Y-95573368D01*
X163506632Y-95366525D01*
X163263411Y-95204010D01*
X162993158Y-95092068D01*
X162706260Y-95035000D01*
X162413740Y-95035000D01*
X162126842Y-95092068D01*
X161856589Y-95204010D01*
X161613368Y-95366525D01*
X161406525Y-95573368D01*
X161290000Y-95747760D01*
X161173475Y-95573368D01*
X161163000Y-95562893D01*
X161163000Y-94340938D01*
X161168529Y-94284799D01*
X161163000Y-94228660D01*
X161163000Y-94228654D01*
X161146461Y-94060733D01*
X161081103Y-93845277D01*
X160974968Y-93646711D01*
X160832133Y-93472667D01*
X160788524Y-93436878D01*
X159229627Y-91877982D01*
X159193833Y-91834367D01*
X159019789Y-91691532D01*
X158821223Y-91585397D01*
X158605767Y-91520039D01*
X158437846Y-91503500D01*
X158437839Y-91503500D01*
X158381700Y-91497971D01*
X158325561Y-91503500D01*
X158236925Y-91503500D01*
X158287103Y-91409623D01*
X158352461Y-91194167D01*
X158374530Y-90970100D01*
X158352461Y-90746033D01*
X158287103Y-90530577D01*
X158180968Y-90332011D01*
X158038133Y-90157967D01*
X157864089Y-90015132D01*
X157665523Y-89908997D01*
X157450067Y-89843639D01*
X157282146Y-89827100D01*
X155955356Y-89827100D01*
X156002961Y-89670167D01*
X156025030Y-89446100D01*
X156002961Y-89222033D01*
X155937603Y-89006577D01*
X155831468Y-88808011D01*
X155688633Y-88633967D01*
X155514589Y-88491132D01*
X155316023Y-88384997D01*
X155100567Y-88319639D01*
X154932646Y-88303100D01*
X144136233Y-88303100D01*
X144329632Y-88173875D01*
X144536475Y-87967032D01*
X144698990Y-87723811D01*
X144810932Y-87453558D01*
X144868000Y-87166660D01*
X144868000Y-86874140D01*
X144810932Y-86587242D01*
X144698990Y-86316989D01*
X144536475Y-86073768D01*
X144390907Y-85928200D01*
X160433228Y-85928200D01*
X160355897Y-86072877D01*
X160290539Y-86288333D01*
X160268470Y-86512400D01*
X160290539Y-86736467D01*
X160355897Y-86951923D01*
X160462032Y-87150489D01*
X160604867Y-87324533D01*
X160778911Y-87467368D01*
X160977477Y-87573503D01*
X161192933Y-87638861D01*
X161360854Y-87655400D01*
X169666661Y-87655400D01*
X169722800Y-87660929D01*
X169778939Y-87655400D01*
X169778946Y-87655400D01*
X169946867Y-87638861D01*
X170162323Y-87573503D01*
X170360889Y-87467368D01*
X170534933Y-87324533D01*
X170570727Y-87280918D01*
X173005924Y-84845722D01*
X173049533Y-84809933D01*
X173192368Y-84635889D01*
X173298503Y-84437323D01*
X173363861Y-84221867D01*
X173380400Y-84053946D01*
X173380400Y-84053940D01*
X173385929Y-83997801D01*
X173380400Y-83941662D01*
X173380400Y-81407000D01*
X175295539Y-81407000D01*
X175412401Y-81523862D01*
X175412400Y-83433661D01*
X175406871Y-83489800D01*
X175412400Y-83545939D01*
X175412400Y-83545945D01*
X175425498Y-83678926D01*
X175428939Y-83713867D01*
X175443996Y-83763503D01*
X175494297Y-83929322D01*
X175600432Y-84127888D01*
X175743267Y-84301933D01*
X175786882Y-84337727D01*
X176799677Y-85350523D01*
X176835467Y-85394133D01*
X177009511Y-85536968D01*
X177208077Y-85643103D01*
X177322204Y-85677723D01*
X177423532Y-85708461D01*
X177446200Y-85710694D01*
X177591454Y-85725000D01*
X177591460Y-85725000D01*
X177647599Y-85730529D01*
X177703738Y-85725000D01*
X177707393Y-85725000D01*
X177740263Y-85786494D01*
X177819615Y-85883185D01*
X177916306Y-85962537D01*
X178026620Y-86021502D01*
X178146318Y-86057812D01*
X178270800Y-86070072D01*
X179970800Y-86070072D01*
X180095282Y-86057812D01*
X180214980Y-86021502D01*
X180325294Y-85962537D01*
X180421985Y-85883185D01*
X180501337Y-85786494D01*
X180560302Y-85676180D01*
X180582313Y-85603620D01*
X180714168Y-85735475D01*
X180957389Y-85897990D01*
X181227642Y-86009932D01*
X181514540Y-86067000D01*
X181807060Y-86067000D01*
X182093958Y-86009932D01*
X182364211Y-85897990D01*
X182607432Y-85735475D01*
X182814275Y-85528632D01*
X182935995Y-85346466D01*
X183005622Y-85463355D01*
X183200531Y-85679588D01*
X183433880Y-85853641D01*
X183696701Y-85978825D01*
X183843910Y-86023476D01*
X184073800Y-85902155D01*
X184073800Y-84709000D01*
X184327800Y-84709000D01*
X184327800Y-85902155D01*
X184557690Y-86023476D01*
X184704899Y-85978825D01*
X184967720Y-85853641D01*
X185201069Y-85679588D01*
X185395978Y-85463355D01*
X185544957Y-85213252D01*
X185642281Y-84938891D01*
X185521614Y-84709000D01*
X184327800Y-84709000D01*
X184073800Y-84709000D01*
X184053800Y-84709000D01*
X184053800Y-84455000D01*
X184073800Y-84455000D01*
X184073800Y-83261845D01*
X184327800Y-83261845D01*
X184327800Y-84455000D01*
X185521614Y-84455000D01*
X185642281Y-84225109D01*
X185544957Y-83950748D01*
X185395978Y-83700645D01*
X185201069Y-83484412D01*
X184967720Y-83310359D01*
X184704899Y-83185175D01*
X184557690Y-83140524D01*
X184327800Y-83261845D01*
X184073800Y-83261845D01*
X183843910Y-83140524D01*
X183696701Y-83185175D01*
X183433880Y-83310359D01*
X183200531Y-83484412D01*
X183005622Y-83700645D01*
X182935995Y-83817534D01*
X182814275Y-83635368D01*
X182607432Y-83428525D01*
X182364211Y-83266010D01*
X182093958Y-83154068D01*
X181807060Y-83097000D01*
X181514540Y-83097000D01*
X181227642Y-83154068D01*
X180957389Y-83266010D01*
X180714168Y-83428525D01*
X180582313Y-83560380D01*
X180560302Y-83487820D01*
X180501337Y-83377506D01*
X180421985Y-83280815D01*
X180325294Y-83201463D01*
X180214980Y-83142498D01*
X180095282Y-83106188D01*
X179970800Y-83093928D01*
X178270800Y-83093928D01*
X178146318Y-83106188D01*
X178026620Y-83142498D01*
X177916306Y-83201463D01*
X177898292Y-83216247D01*
X177698400Y-83016355D01*
X177698400Y-81523861D01*
X177903063Y-81319198D01*
X177907070Y-81313200D01*
X184977328Y-81313200D01*
X184989588Y-81437682D01*
X185025898Y-81557380D01*
X185084863Y-81667694D01*
X185164215Y-81764385D01*
X185260906Y-81843737D01*
X185371220Y-81902702D01*
X185490918Y-81939012D01*
X185615400Y-81951272D01*
X186429650Y-81948200D01*
X186588400Y-81789450D01*
X186588400Y-80340200D01*
X186842400Y-80340200D01*
X186842400Y-81789450D01*
X187001150Y-81948200D01*
X187815400Y-81951272D01*
X187939882Y-81939012D01*
X188059580Y-81902702D01*
X188169894Y-81843737D01*
X188266585Y-81764385D01*
X188345937Y-81667694D01*
X188404902Y-81557380D01*
X188441212Y-81437682D01*
X188453472Y-81313200D01*
X188450400Y-80498950D01*
X188291650Y-80340200D01*
X186842400Y-80340200D01*
X186588400Y-80340200D01*
X185139150Y-80340200D01*
X184980400Y-80498950D01*
X184977328Y-81313200D01*
X177907070Y-81313200D01*
X178092937Y-81035031D01*
X178223725Y-80719281D01*
X178290400Y-80384083D01*
X178290400Y-80042317D01*
X178223725Y-79707119D01*
X178092937Y-79391369D01*
X177907071Y-79113200D01*
X184977328Y-79113200D01*
X184980400Y-79927450D01*
X185139150Y-80086200D01*
X186588400Y-80086200D01*
X186588400Y-78636950D01*
X186516474Y-78565024D01*
X186588400Y-78533600D01*
X186588400Y-77089000D01*
X186842400Y-77089000D01*
X186842400Y-78533600D01*
X186914326Y-78565024D01*
X186842400Y-78636950D01*
X186842400Y-80086200D01*
X188291650Y-80086200D01*
X188450400Y-79927450D01*
X188453472Y-79113200D01*
X188441212Y-78988718D01*
X188404902Y-78869020D01*
X188345937Y-78758706D01*
X188266585Y-78662015D01*
X188169894Y-78582663D01*
X188059580Y-78523698D01*
X187939882Y-78487388D01*
X187815400Y-78475128D01*
X187546223Y-78476144D01*
X187727791Y-78371008D01*
X187983222Y-78146427D01*
X188189931Y-77876329D01*
X188339975Y-77571094D01*
X188404575Y-77358122D01*
X188286525Y-77089000D01*
X186842400Y-77089000D01*
X186588400Y-77089000D01*
X185144275Y-77089000D01*
X185026225Y-77358122D01*
X185090825Y-77571094D01*
X185240869Y-77876329D01*
X185447578Y-78146427D01*
X185703009Y-78371008D01*
X185884577Y-78476144D01*
X185615400Y-78475128D01*
X185490918Y-78487388D01*
X185371220Y-78523698D01*
X185260906Y-78582663D01*
X185164215Y-78662015D01*
X185084863Y-78758706D01*
X185025898Y-78869020D01*
X184989588Y-78988718D01*
X184977328Y-79113200D01*
X177907071Y-79113200D01*
X177903063Y-79107202D01*
X177698400Y-78902539D01*
X177698400Y-78695837D01*
X177779882Y-78687812D01*
X177899580Y-78651502D01*
X178009894Y-78592537D01*
X178106585Y-78513185D01*
X178185937Y-78416494D01*
X178244902Y-78306180D01*
X178281212Y-78186482D01*
X178290494Y-78092240D01*
X178328867Y-78088461D01*
X178544323Y-78023103D01*
X178742889Y-77916968D01*
X178916933Y-77774133D01*
X178952727Y-77730518D01*
X180117367Y-76565878D01*
X185026225Y-76565878D01*
X185144275Y-76835000D01*
X186588400Y-76835000D01*
X186588400Y-75390400D01*
X186842400Y-75390400D01*
X186842400Y-76835000D01*
X188286525Y-76835000D01*
X188404575Y-76565878D01*
X188339975Y-76352906D01*
X188189931Y-76047671D01*
X187983222Y-75777573D01*
X187727791Y-75552992D01*
X187433454Y-75382558D01*
X187111523Y-75272821D01*
X186842400Y-75390400D01*
X186588400Y-75390400D01*
X186319277Y-75272821D01*
X185997346Y-75382558D01*
X185703009Y-75552992D01*
X185447578Y-75777573D01*
X185240869Y-76047671D01*
X185090825Y-76352906D01*
X185026225Y-76565878D01*
X180117367Y-76565878D01*
X180397323Y-76285923D01*
X180440933Y-76250133D01*
X180583768Y-76076089D01*
X180689903Y-75877523D01*
X180745432Y-75694468D01*
X180755261Y-75662068D01*
X180766138Y-75551633D01*
X180771800Y-75494146D01*
X180771800Y-75494140D01*
X180777329Y-75438001D01*
X180771800Y-75381862D01*
X180771800Y-71686600D01*
X185231328Y-71686600D01*
X185243588Y-71811082D01*
X185279898Y-71930780D01*
X185338863Y-72041094D01*
X185418215Y-72137785D01*
X185514906Y-72217137D01*
X185625220Y-72276102D01*
X185744918Y-72312412D01*
X185869400Y-72324672D01*
X186683650Y-72321600D01*
X186842400Y-72162850D01*
X186842400Y-70713600D01*
X187096400Y-70713600D01*
X187096400Y-72162850D01*
X187255150Y-72321600D01*
X188069400Y-72324672D01*
X188193882Y-72312412D01*
X188313580Y-72276102D01*
X188423894Y-72217137D01*
X188520585Y-72137785D01*
X188599937Y-72041094D01*
X188658902Y-71930780D01*
X188695212Y-71811082D01*
X188707472Y-71686600D01*
X188704400Y-70872350D01*
X188545650Y-70713600D01*
X187096400Y-70713600D01*
X186842400Y-70713600D01*
X185393150Y-70713600D01*
X185234400Y-70872350D01*
X185231328Y-71686600D01*
X180771800Y-71686600D01*
X180771800Y-69486600D01*
X185231328Y-69486600D01*
X185234400Y-70300850D01*
X185393150Y-70459600D01*
X186842400Y-70459600D01*
X186842400Y-69010350D01*
X186752797Y-68920747D01*
X186842400Y-68881600D01*
X186842400Y-67437000D01*
X187096400Y-67437000D01*
X187096400Y-68881600D01*
X187186003Y-68920747D01*
X187096400Y-69010350D01*
X187096400Y-70459600D01*
X188545650Y-70459600D01*
X188704400Y-70300850D01*
X188707472Y-69486600D01*
X188695212Y-69362118D01*
X188658902Y-69242420D01*
X188599937Y-69132106D01*
X188520585Y-69035415D01*
X188423894Y-68956063D01*
X188313580Y-68897098D01*
X188193882Y-68860788D01*
X188069400Y-68848528D01*
X187756070Y-68849710D01*
X187981791Y-68719008D01*
X188237222Y-68494427D01*
X188443931Y-68224329D01*
X188593975Y-67919094D01*
X188658575Y-67706122D01*
X188540525Y-67437000D01*
X187096400Y-67437000D01*
X186842400Y-67437000D01*
X185398275Y-67437000D01*
X185280225Y-67706122D01*
X185344825Y-67919094D01*
X185494869Y-68224329D01*
X185701578Y-68494427D01*
X185957009Y-68719008D01*
X186182730Y-68849710D01*
X185869400Y-68848528D01*
X185744918Y-68860788D01*
X185625220Y-68897098D01*
X185514906Y-68956063D01*
X185418215Y-69035415D01*
X185338863Y-69132106D01*
X185279898Y-69242420D01*
X185243588Y-69362118D01*
X185231328Y-69486600D01*
X180771800Y-69486600D01*
X180771800Y-66913878D01*
X185280225Y-66913878D01*
X185398275Y-67183000D01*
X186842400Y-67183000D01*
X186842400Y-65738400D01*
X187096400Y-65738400D01*
X187096400Y-67183000D01*
X188540525Y-67183000D01*
X188658575Y-66913878D01*
X188593975Y-66700906D01*
X188443931Y-66395671D01*
X188237222Y-66125573D01*
X187981791Y-65900992D01*
X187687454Y-65730558D01*
X187365523Y-65620821D01*
X187096400Y-65738400D01*
X186842400Y-65738400D01*
X186573277Y-65620821D01*
X186251346Y-65730558D01*
X185957009Y-65900992D01*
X185701578Y-66125573D01*
X185494869Y-66395671D01*
X185344825Y-66700906D01*
X185280225Y-66913878D01*
X180771800Y-66913878D01*
X180771800Y-65334139D01*
X180777329Y-65278000D01*
X180771800Y-65221861D01*
X180771800Y-65221854D01*
X180755261Y-65053933D01*
X180755261Y-65053932D01*
X180689903Y-64838476D01*
X180644461Y-64753461D01*
X180583768Y-64639911D01*
X180493181Y-64529531D01*
X180476724Y-64509478D01*
X180476723Y-64509477D01*
X180440933Y-64465867D01*
X180397324Y-64430078D01*
X178825727Y-62858482D01*
X178789933Y-62814867D01*
X178615889Y-62672032D01*
X178417323Y-62565897D01*
X178201867Y-62500539D01*
X178033946Y-62484000D01*
X178033939Y-62484000D01*
X177977800Y-62478471D01*
X177921661Y-62484000D01*
X134055854Y-62484000D01*
X133887933Y-62500539D01*
X133672477Y-62565897D01*
X133473911Y-62672032D01*
X133299867Y-62814867D01*
X133157032Y-62988911D01*
X133050897Y-63187477D01*
X132985539Y-63402933D01*
X132963470Y-63627000D01*
X132985539Y-63851067D01*
X133050897Y-64066523D01*
X133157032Y-64265089D01*
X133299867Y-64439133D01*
X133473911Y-64581968D01*
X133521662Y-64607491D01*
X131489282Y-66639873D01*
X131445667Y-66675667D01*
X131302832Y-66849712D01*
X131196697Y-67048278D01*
X131131339Y-67263734D01*
X131114800Y-67431655D01*
X131114800Y-67431661D01*
X131109271Y-67487800D01*
X131114800Y-67543939D01*
X131114801Y-73523309D01*
X131025233Y-73414171D01*
X130981624Y-73378382D01*
X118974889Y-61371648D01*
X118939103Y-61253677D01*
X118832968Y-61055111D01*
X118690133Y-60881067D01*
X118516089Y-60738232D01*
X118317523Y-60632097D01*
X118102067Y-60566739D01*
X117934146Y-60550200D01*
X117878000Y-60544670D01*
X117821854Y-60550200D01*
X109744654Y-60550200D01*
X109576733Y-60566739D01*
X109537095Y-60578763D01*
X109562800Y-60449535D01*
X109562800Y-60166865D01*
X109507653Y-59889626D01*
X109399480Y-59628473D01*
X109242437Y-59393441D01*
X109042559Y-59193563D01*
X108807527Y-59036520D01*
X108546374Y-58928347D01*
X108269135Y-58873200D01*
X107986465Y-58873200D01*
X107709226Y-58928347D01*
X107448073Y-59036520D01*
X107213041Y-59193563D01*
X107013163Y-59393441D01*
X106856120Y-59628473D01*
X106747947Y-59889626D01*
X106692800Y-60166865D01*
X106692800Y-60449535D01*
X106747947Y-60726774D01*
X106780018Y-60804200D01*
X106419649Y-60804200D01*
X106402437Y-60778441D01*
X106202559Y-60578563D01*
X105967527Y-60421520D01*
X105706374Y-60313347D01*
X105429135Y-60258200D01*
X105146465Y-60258200D01*
X104869226Y-60313347D01*
X104608073Y-60421520D01*
X104373041Y-60578563D01*
X104355900Y-60595704D01*
X104355900Y-53118675D01*
X105192800Y-53118675D01*
X105192800Y-53637725D01*
X105294061Y-54146801D01*
X105492693Y-54626341D01*
X105781062Y-55057915D01*
X106148085Y-55424938D01*
X106579659Y-55713307D01*
X107059199Y-55911939D01*
X107568275Y-56013200D01*
X108087325Y-56013200D01*
X108596401Y-55911939D01*
X109075941Y-55713307D01*
X109507515Y-55424938D01*
X109874538Y-55057915D01*
X110162907Y-54626341D01*
X110361539Y-54146801D01*
X110462800Y-53637725D01*
X110462800Y-53118675D01*
X110361539Y-52609599D01*
X110162907Y-52130059D01*
X109874538Y-51698485D01*
X109507515Y-51331462D01*
X109075941Y-51043093D01*
X108596401Y-50844461D01*
X108087325Y-50743200D01*
X107568275Y-50743200D01*
X107059199Y-50844461D01*
X106579659Y-51043093D01*
X106148085Y-51331462D01*
X105781062Y-51698485D01*
X105492693Y-52130059D01*
X105294061Y-52609599D01*
X105192800Y-53118675D01*
X104355900Y-53118675D01*
X104355900Y-49978045D01*
X106200946Y-48133000D01*
X119236593Y-48133000D01*
X119269463Y-48194494D01*
X119348815Y-48291185D01*
X119445506Y-48370537D01*
X119555820Y-48429502D01*
X119628380Y-48451513D01*
X119496525Y-48583368D01*
X119334010Y-48826589D01*
X119222068Y-49096842D01*
X119165000Y-49383740D01*
X119165000Y-49676260D01*
X119222068Y-49963158D01*
X119334010Y-50233411D01*
X119496525Y-50476632D01*
X119703368Y-50683475D01*
X119877760Y-50800000D01*
X119703368Y-50916525D01*
X119496525Y-51123368D01*
X119334010Y-51366589D01*
X119222068Y-51636842D01*
X119165000Y-51923740D01*
X119165000Y-52216260D01*
X119222068Y-52503158D01*
X119334010Y-52773411D01*
X119496525Y-53016632D01*
X119703368Y-53223475D01*
X119877760Y-53340000D01*
X119703368Y-53456525D01*
X119496525Y-53663368D01*
X119334010Y-53906589D01*
X119222068Y-54176842D01*
X119165000Y-54463740D01*
X119165000Y-54756260D01*
X119222068Y-55043158D01*
X119334010Y-55313411D01*
X119496525Y-55556632D01*
X119703368Y-55763475D01*
X119877760Y-55880000D01*
X119703368Y-55996525D01*
X119496525Y-56203368D01*
X119334010Y-56446589D01*
X119222068Y-56716842D01*
X119165000Y-57003740D01*
X119165000Y-57296260D01*
X119222068Y-57583158D01*
X119334010Y-57853411D01*
X119496525Y-58096632D01*
X119703368Y-58303475D01*
X119877760Y-58420000D01*
X119703368Y-58536525D01*
X119496525Y-58743368D01*
X119334010Y-58986589D01*
X119222068Y-59256842D01*
X119165000Y-59543740D01*
X119165000Y-59836260D01*
X119222068Y-60123158D01*
X119334010Y-60393411D01*
X119496525Y-60636632D01*
X119703368Y-60843475D01*
X119946589Y-61005990D01*
X120216842Y-61117932D01*
X120503740Y-61175000D01*
X120796260Y-61175000D01*
X121083158Y-61117932D01*
X121353411Y-61005990D01*
X121596632Y-60843475D01*
X121803475Y-60636632D01*
X121965990Y-60393411D01*
X122077932Y-60123158D01*
X122135000Y-59836260D01*
X122135000Y-59543740D01*
X122080550Y-59270000D01*
X204251928Y-59270000D01*
X204264188Y-59394482D01*
X204300498Y-59514180D01*
X204359463Y-59624494D01*
X204438815Y-59721185D01*
X204535506Y-59800537D01*
X204645820Y-59859502D01*
X204765518Y-59895812D01*
X204890000Y-59908072D01*
X205454250Y-59905000D01*
X205613000Y-59746250D01*
X205613000Y-58547000D01*
X205867000Y-58547000D01*
X205867000Y-59746250D01*
X206025750Y-59905000D01*
X206590000Y-59908072D01*
X206714482Y-59895812D01*
X206834180Y-59859502D01*
X206944494Y-59800537D01*
X207041185Y-59721185D01*
X207120537Y-59624494D01*
X207179502Y-59514180D01*
X207203966Y-59433534D01*
X207279731Y-59517588D01*
X207513080Y-59691641D01*
X207775901Y-59816825D01*
X207923110Y-59861476D01*
X208153000Y-59740155D01*
X208153000Y-58547000D01*
X208407000Y-58547000D01*
X208407000Y-59740155D01*
X208636890Y-59861476D01*
X208784099Y-59816825D01*
X209046920Y-59691641D01*
X209280269Y-59517588D01*
X209475178Y-59301355D01*
X209550000Y-59175745D01*
X209624822Y-59301355D01*
X209819731Y-59517588D01*
X210053080Y-59691641D01*
X210315901Y-59816825D01*
X210463110Y-59861476D01*
X210693000Y-59740155D01*
X210693000Y-58547000D01*
X210947000Y-58547000D01*
X210947000Y-59740155D01*
X211176890Y-59861476D01*
X211324099Y-59816825D01*
X211586920Y-59691641D01*
X211820269Y-59517588D01*
X212015178Y-59301355D01*
X212164157Y-59051252D01*
X212261481Y-58776891D01*
X212140814Y-58547000D01*
X210947000Y-58547000D01*
X210693000Y-58547000D01*
X208407000Y-58547000D01*
X208153000Y-58547000D01*
X205867000Y-58547000D01*
X205613000Y-58547000D01*
X204413750Y-58547000D01*
X204255000Y-58705750D01*
X204251928Y-59270000D01*
X122080550Y-59270000D01*
X122077932Y-59256842D01*
X121965990Y-58986589D01*
X121803475Y-58743368D01*
X121596632Y-58536525D01*
X121422240Y-58420000D01*
X121596632Y-58303475D01*
X121803475Y-58096632D01*
X121965990Y-57853411D01*
X122077932Y-57583158D01*
X122080549Y-57570000D01*
X204251928Y-57570000D01*
X204255000Y-58134250D01*
X204413750Y-58293000D01*
X205613000Y-58293000D01*
X205613000Y-57093750D01*
X205867000Y-57093750D01*
X205867000Y-58293000D01*
X208153000Y-58293000D01*
X208153000Y-57099845D01*
X208407000Y-57099845D01*
X208407000Y-58293000D01*
X210693000Y-58293000D01*
X210693000Y-57099845D01*
X210947000Y-57099845D01*
X210947000Y-58293000D01*
X212140814Y-58293000D01*
X212261481Y-58063109D01*
X212164157Y-57788748D01*
X212015178Y-57538645D01*
X211820269Y-57322412D01*
X211586920Y-57148359D01*
X211324099Y-57023175D01*
X211176890Y-56978524D01*
X210947000Y-57099845D01*
X210693000Y-57099845D01*
X210463110Y-56978524D01*
X210315901Y-57023175D01*
X210053080Y-57148359D01*
X209819731Y-57322412D01*
X209624822Y-57538645D01*
X209550000Y-57664255D01*
X209475178Y-57538645D01*
X209280269Y-57322412D01*
X209046920Y-57148359D01*
X208784099Y-57023175D01*
X208636890Y-56978524D01*
X208407000Y-57099845D01*
X208153000Y-57099845D01*
X207923110Y-56978524D01*
X207775901Y-57023175D01*
X207513080Y-57148359D01*
X207279731Y-57322412D01*
X207203966Y-57406466D01*
X207179502Y-57325820D01*
X207120537Y-57215506D01*
X207041185Y-57118815D01*
X206944494Y-57039463D01*
X206834180Y-56980498D01*
X206714482Y-56944188D01*
X206590000Y-56931928D01*
X206025750Y-56935000D01*
X205867000Y-57093750D01*
X205613000Y-57093750D01*
X205454250Y-56935000D01*
X204890000Y-56931928D01*
X204765518Y-56944188D01*
X204645820Y-56980498D01*
X204535506Y-57039463D01*
X204438815Y-57118815D01*
X204359463Y-57215506D01*
X204300498Y-57325820D01*
X204264188Y-57445518D01*
X204251928Y-57570000D01*
X122080549Y-57570000D01*
X122135000Y-57296260D01*
X122135000Y-57003740D01*
X122077932Y-56716842D01*
X121965990Y-56446589D01*
X121803475Y-56203368D01*
X121596632Y-55996525D01*
X121422240Y-55880000D01*
X121596632Y-55763475D01*
X121803475Y-55556632D01*
X121965990Y-55313411D01*
X122077932Y-55043158D01*
X122135000Y-54756260D01*
X122135000Y-54463740D01*
X122077932Y-54176842D01*
X121965990Y-53906589D01*
X121803475Y-53663368D01*
X121596632Y-53456525D01*
X121422240Y-53340000D01*
X121596632Y-53223475D01*
X121803475Y-53016632D01*
X121965990Y-52773411D01*
X122077932Y-52503158D01*
X122135000Y-52216260D01*
X122135000Y-51923740D01*
X122077932Y-51636842D01*
X121965990Y-51366589D01*
X121803475Y-51123368D01*
X121596632Y-50916525D01*
X121422240Y-50800000D01*
X121596632Y-50683475D01*
X121803475Y-50476632D01*
X121965990Y-50233411D01*
X122077932Y-49963158D01*
X122135000Y-49676260D01*
X122135000Y-49383740D01*
X122077932Y-49096842D01*
X121965990Y-48826589D01*
X121803475Y-48583368D01*
X121671620Y-48451513D01*
X121744180Y-48429502D01*
X121854494Y-48370537D01*
X121951185Y-48291185D01*
X122030537Y-48194494D01*
X122089502Y-48084180D01*
X122125812Y-47964482D01*
X122138072Y-47840000D01*
X122138072Y-46140000D01*
X122125812Y-46015518D01*
X122089502Y-45895820D01*
X122030537Y-45785506D01*
X121951185Y-45688815D01*
X121854494Y-45609463D01*
X121744180Y-45550498D01*
X121624482Y-45514188D01*
X121500000Y-45501928D01*
X119800000Y-45501928D01*
X119675518Y-45514188D01*
X119555820Y-45550498D01*
X119445506Y-45609463D01*
X119348815Y-45688815D01*
X119269463Y-45785506D01*
X119236593Y-45847000D01*
X105783638Y-45847000D01*
X105727499Y-45841471D01*
X105671360Y-45847000D01*
X105671354Y-45847000D01*
X105526100Y-45861306D01*
X105503432Y-45863539D01*
X105438074Y-45883365D01*
X105287977Y-45928897D01*
X105089411Y-46035032D01*
X104915367Y-46177867D01*
X104879577Y-46221477D01*
X102444378Y-48656677D01*
X102400768Y-48692467D01*
X102361600Y-48740193D01*
X102361600Y-29133800D01*
X221437600Y-29133800D01*
X221437601Y-124638058D01*
G36*
X125974277Y-97288523D02*
G01*
X126010067Y-97332133D01*
X126184111Y-97474968D01*
X126382677Y-97581103D01*
X126502952Y-97617588D01*
X126598132Y-97646461D01*
X126618717Y-97648488D01*
X126766054Y-97663000D01*
X126766061Y-97663000D01*
X126822200Y-97668529D01*
X126878339Y-97663000D01*
X148902893Y-97663000D01*
X148913368Y-97673475D01*
X149156589Y-97835990D01*
X149426842Y-97947932D01*
X149713740Y-98005000D01*
X150006260Y-98005000D01*
X150293158Y-97947932D01*
X150563411Y-97835990D01*
X150806632Y-97673475D01*
X151013475Y-97466632D01*
X151130000Y-97292240D01*
X151246525Y-97466632D01*
X151257001Y-97477108D01*
X151257000Y-98853254D01*
X150745455Y-99364800D01*
X127943346Y-99364800D01*
X124802900Y-96224355D01*
X124802900Y-96117145D01*
X125974277Y-97288523D01*
G37*
X125974277Y-97288523D02*
X126010067Y-97332133D01*
X126184111Y-97474968D01*
X126382677Y-97581103D01*
X126502952Y-97617588D01*
X126598132Y-97646461D01*
X126618717Y-97648488D01*
X126766054Y-97663000D01*
X126766061Y-97663000D01*
X126822200Y-97668529D01*
X126878339Y-97663000D01*
X148902893Y-97663000D01*
X148913368Y-97673475D01*
X149156589Y-97835990D01*
X149426842Y-97947932D01*
X149713740Y-98005000D01*
X150006260Y-98005000D01*
X150293158Y-97947932D01*
X150563411Y-97835990D01*
X150806632Y-97673475D01*
X151013475Y-97466632D01*
X151130000Y-97292240D01*
X151246525Y-97466632D01*
X151257001Y-97477108D01*
X151257000Y-98853254D01*
X150745455Y-99364800D01*
X127943346Y-99364800D01*
X124802900Y-96224355D01*
X124802900Y-96117145D01*
X125974277Y-97288523D01*
G36*
X129974775Y-93415021D02*
G01*
X130010567Y-93458633D01*
X130184611Y-93601468D01*
X130314011Y-93670633D01*
X130383176Y-93707603D01*
X130598632Y-93772961D01*
X130619217Y-93774988D01*
X130766554Y-93789500D01*
X130766561Y-93789500D01*
X130822700Y-93795029D01*
X130878839Y-93789500D01*
X157908255Y-93789500D01*
X158877000Y-94758246D01*
X158877001Y-95562892D01*
X158866525Y-95573368D01*
X158750000Y-95747760D01*
X158633475Y-95573368D01*
X158426632Y-95366525D01*
X158183411Y-95204010D01*
X157913158Y-95092068D01*
X157626260Y-95035000D01*
X157333740Y-95035000D01*
X157046842Y-95092068D01*
X156776589Y-95204010D01*
X156533368Y-95366525D01*
X156326525Y-95573368D01*
X156210000Y-95747760D01*
X156093475Y-95573368D01*
X155886632Y-95366525D01*
X155643411Y-95204010D01*
X155373158Y-95092068D01*
X155086260Y-95035000D01*
X154793740Y-95035000D01*
X154506842Y-95092068D01*
X154236589Y-95204010D01*
X153993368Y-95366525D01*
X153786525Y-95573368D01*
X153670000Y-95747760D01*
X153553475Y-95573368D01*
X153346632Y-95366525D01*
X153103411Y-95204010D01*
X152833158Y-95092068D01*
X152546260Y-95035000D01*
X152253740Y-95035000D01*
X151966842Y-95092068D01*
X151696589Y-95204010D01*
X151453368Y-95366525D01*
X151246525Y-95573368D01*
X151130000Y-95747760D01*
X151013475Y-95573368D01*
X150806632Y-95366525D01*
X150563411Y-95204010D01*
X150293158Y-95092068D01*
X150006260Y-95035000D01*
X149713740Y-95035000D01*
X149426842Y-95092068D01*
X149156589Y-95204010D01*
X148913368Y-95366525D01*
X148902893Y-95377000D01*
X127295646Y-95377000D01*
X126479300Y-94560655D01*
X126479300Y-89919545D01*
X129974775Y-93415021D01*
G37*
X129974775Y-93415021D02*
X130010567Y-93458633D01*
X130184611Y-93601468D01*
X130314011Y-93670633D01*
X130383176Y-93707603D01*
X130598632Y-93772961D01*
X130619217Y-93774988D01*
X130766554Y-93789500D01*
X130766561Y-93789500D01*
X130822700Y-93795029D01*
X130878839Y-93789500D01*
X157908255Y-93789500D01*
X158877000Y-94758246D01*
X158877001Y-95562892D01*
X158866525Y-95573368D01*
X158750000Y-95747760D01*
X158633475Y-95573368D01*
X158426632Y-95366525D01*
X158183411Y-95204010D01*
X157913158Y-95092068D01*
X157626260Y-95035000D01*
X157333740Y-95035000D01*
X157046842Y-95092068D01*
X156776589Y-95204010D01*
X156533368Y-95366525D01*
X156326525Y-95573368D01*
X156210000Y-95747760D01*
X156093475Y-95573368D01*
X155886632Y-95366525D01*
X155643411Y-95204010D01*
X155373158Y-95092068D01*
X155086260Y-95035000D01*
X154793740Y-95035000D01*
X154506842Y-95092068D01*
X154236589Y-95204010D01*
X153993368Y-95366525D01*
X153786525Y-95573368D01*
X153670000Y-95747760D01*
X153553475Y-95573368D01*
X153346632Y-95366525D01*
X153103411Y-95204010D01*
X152833158Y-95092068D01*
X152546260Y-95035000D01*
X152253740Y-95035000D01*
X151966842Y-95092068D01*
X151696589Y-95204010D01*
X151453368Y-95366525D01*
X151246525Y-95573368D01*
X151130000Y-95747760D01*
X151013475Y-95573368D01*
X150806632Y-95366525D01*
X150563411Y-95204010D01*
X150293158Y-95092068D01*
X150006260Y-95035000D01*
X149713740Y-95035000D01*
X149426842Y-95092068D01*
X149156589Y-95204010D01*
X148913368Y-95366525D01*
X148902893Y-95377000D01*
X127295646Y-95377000D01*
X126479300Y-94560655D01*
X126479300Y-89919545D01*
X129974775Y-93415021D01*
G36*
X153023200Y-67949446D02*
G01*
X153023200Y-67964260D01*
X153080268Y-68251158D01*
X153192210Y-68521411D01*
X153354725Y-68764632D01*
X153561568Y-68971475D01*
X153735960Y-69088000D01*
X153561568Y-69204525D01*
X153551093Y-69215000D01*
X149825607Y-69215000D01*
X149792737Y-69153506D01*
X149713385Y-69056815D01*
X149616694Y-68977463D01*
X149506380Y-68918498D01*
X149433820Y-68896487D01*
X149565675Y-68764632D01*
X149728190Y-68521411D01*
X149840132Y-68251158D01*
X149897200Y-67964260D01*
X149897200Y-67671740D01*
X149840132Y-67384842D01*
X149728190Y-67114589D01*
X149565675Y-66871368D01*
X149358832Y-66664525D01*
X149115611Y-66502010D01*
X148845358Y-66390068D01*
X148558460Y-66333000D01*
X148265940Y-66333000D01*
X147979042Y-66390068D01*
X147708789Y-66502010D01*
X147465568Y-66664525D01*
X147455093Y-66675000D01*
X145474511Y-66675000D01*
X145281927Y-66546320D01*
X145020774Y-66438147D01*
X144743535Y-66383000D01*
X144460865Y-66383000D01*
X144183626Y-66438147D01*
X143922473Y-66546320D01*
X143687441Y-66703363D01*
X143487563Y-66903241D01*
X143330520Y-67138273D01*
X143222347Y-67399426D01*
X143167200Y-67676665D01*
X143167200Y-67959335D01*
X143222347Y-68236574D01*
X143330520Y-68497727D01*
X143487563Y-68732759D01*
X143687441Y-68932637D01*
X143922473Y-69089680D01*
X144183626Y-69197853D01*
X144460865Y-69253000D01*
X144743535Y-69253000D01*
X145020774Y-69197853D01*
X145281927Y-69089680D01*
X145474511Y-68961000D01*
X147238506Y-68961000D01*
X147207706Y-68977463D01*
X147111015Y-69056815D01*
X147031663Y-69153506D01*
X146972698Y-69263820D01*
X146936388Y-69383518D01*
X146924128Y-69508000D01*
X146924128Y-71208000D01*
X146936388Y-71332482D01*
X146972698Y-71452180D01*
X147031663Y-71562494D01*
X147111015Y-71659185D01*
X147207706Y-71738537D01*
X147318020Y-71797502D01*
X147437718Y-71833812D01*
X147562200Y-71846072D01*
X149262200Y-71846072D01*
X149386682Y-71833812D01*
X149506380Y-71797502D01*
X149616694Y-71738537D01*
X149713385Y-71659185D01*
X149792737Y-71562494D01*
X149825607Y-71501000D01*
X153334506Y-71501000D01*
X153303706Y-71517463D01*
X153207015Y-71596815D01*
X153127663Y-71693506D01*
X153068698Y-71803820D01*
X153032388Y-71923518D01*
X153020128Y-72048000D01*
X153020128Y-73596500D01*
X144544039Y-73596500D01*
X144487900Y-73590971D01*
X144431761Y-73596500D01*
X144431754Y-73596500D01*
X144284417Y-73611012D01*
X144263832Y-73613039D01*
X144231655Y-73622800D01*
X144048377Y-73678397D01*
X143849811Y-73784532D01*
X143675767Y-73927367D01*
X143645046Y-73964800D01*
X143527307Y-73964800D01*
X143516832Y-73954325D01*
X143334666Y-73832605D01*
X143451555Y-73762978D01*
X143667788Y-73568069D01*
X143841841Y-73334720D01*
X143967025Y-73071899D01*
X144011676Y-72924690D01*
X143890355Y-72694800D01*
X142697200Y-72694800D01*
X142697200Y-72714800D01*
X142443200Y-72714800D01*
X142443200Y-72694800D01*
X141250045Y-72694800D01*
X141128724Y-72924690D01*
X141173375Y-73071899D01*
X141298559Y-73334720D01*
X141472612Y-73568069D01*
X141688845Y-73762978D01*
X141805734Y-73832605D01*
X141623568Y-73954325D01*
X141416725Y-74161168D01*
X141254210Y-74404389D01*
X141142268Y-74674642D01*
X141085200Y-74961540D01*
X141085200Y-75254060D01*
X141142268Y-75540958D01*
X141254210Y-75811211D01*
X141416725Y-76054432D01*
X141548580Y-76186287D01*
X141476020Y-76208298D01*
X141365706Y-76267263D01*
X141269015Y-76346615D01*
X141189663Y-76443306D01*
X141130698Y-76553620D01*
X141094388Y-76673318D01*
X141082128Y-76797800D01*
X141082128Y-78497800D01*
X141094388Y-78622282D01*
X141130698Y-78741980D01*
X141189663Y-78852294D01*
X141269015Y-78948985D01*
X141365706Y-79028337D01*
X141476020Y-79087302D01*
X141595718Y-79123612D01*
X141720200Y-79135872D01*
X143420200Y-79135872D01*
X143544682Y-79123612D01*
X143664380Y-79087302D01*
X143774694Y-79028337D01*
X143871385Y-78948985D01*
X143950737Y-78852294D01*
X143983607Y-78790800D01*
X144571461Y-78790800D01*
X144627600Y-78796329D01*
X144683739Y-78790800D01*
X144683746Y-78790800D01*
X144851667Y-78774261D01*
X145067123Y-78708903D01*
X145265689Y-78602768D01*
X145439733Y-78459933D01*
X145475527Y-78416318D01*
X146040846Y-77851000D01*
X153094793Y-77851000D01*
X153127663Y-77912494D01*
X153207015Y-78009185D01*
X153303706Y-78088537D01*
X153414020Y-78147502D01*
X153486580Y-78169513D01*
X153354725Y-78301368D01*
X153316217Y-78359000D01*
X150079607Y-78359000D01*
X150046737Y-78297506D01*
X149967385Y-78200815D01*
X149870694Y-78121463D01*
X149760380Y-78062498D01*
X149640682Y-78026188D01*
X149516200Y-78013928D01*
X147816200Y-78013928D01*
X147691718Y-78026188D01*
X147572020Y-78062498D01*
X147461706Y-78121463D01*
X147365015Y-78200815D01*
X147285663Y-78297506D01*
X147226698Y-78407820D01*
X147190388Y-78527518D01*
X147178128Y-78652000D01*
X147178128Y-80352000D01*
X147190388Y-80476482D01*
X147226698Y-80596180D01*
X147285663Y-80706494D01*
X147365015Y-80803185D01*
X147461706Y-80882537D01*
X147492506Y-80899000D01*
X145728511Y-80899000D01*
X145535927Y-80770320D01*
X145274774Y-80662147D01*
X144997535Y-80607000D01*
X144714865Y-80607000D01*
X144437626Y-80662147D01*
X144176473Y-80770320D01*
X143941441Y-80927363D01*
X143741563Y-81127241D01*
X143584520Y-81362273D01*
X143476347Y-81623426D01*
X143421200Y-81900665D01*
X143421200Y-82183335D01*
X143476347Y-82460574D01*
X143584520Y-82721727D01*
X143741563Y-82956759D01*
X143941441Y-83156637D01*
X144176473Y-83313680D01*
X144437626Y-83421853D01*
X144714865Y-83477000D01*
X144997535Y-83477000D01*
X145274774Y-83421853D01*
X145535927Y-83313680D01*
X145728511Y-83185000D01*
X147709093Y-83185000D01*
X147719568Y-83195475D01*
X147962789Y-83357990D01*
X148233042Y-83469932D01*
X148519940Y-83527000D01*
X148812460Y-83527000D01*
X149099358Y-83469932D01*
X149369611Y-83357990D01*
X149612832Y-83195475D01*
X149819675Y-82988632D01*
X149982190Y-82745411D01*
X150094132Y-82475158D01*
X150151200Y-82188260D01*
X150151200Y-81895740D01*
X150094132Y-81608842D01*
X149982190Y-81338589D01*
X149819675Y-81095368D01*
X149687820Y-80963513D01*
X149760380Y-80941502D01*
X149870694Y-80882537D01*
X149967385Y-80803185D01*
X150046737Y-80706494D01*
X150079607Y-80645000D01*
X153551093Y-80645000D01*
X153354725Y-80841368D01*
X153192210Y-81084589D01*
X153080268Y-81354842D01*
X153023200Y-81641740D01*
X153023200Y-81934260D01*
X153080268Y-82221158D01*
X153192210Y-82491411D01*
X153354725Y-82734632D01*
X153561568Y-82941475D01*
X153804789Y-83103990D01*
X154075042Y-83215932D01*
X154361940Y-83273000D01*
X154654460Y-83273000D01*
X154941358Y-83215932D01*
X155211611Y-83103990D01*
X155454832Y-82941475D01*
X155465307Y-82931000D01*
X161029192Y-82931000D01*
X161142133Y-82965261D01*
X161366199Y-82987329D01*
X161590267Y-82965261D01*
X161805723Y-82899902D01*
X162004288Y-82793767D01*
X162150924Y-82673427D01*
X162148070Y-82702400D01*
X162170139Y-82926467D01*
X162235497Y-83141923D01*
X162341632Y-83340489D01*
X162484467Y-83514533D01*
X162640029Y-83642200D01*
X139030446Y-83642200D01*
X138379200Y-82990954D01*
X138379200Y-82914311D01*
X138507880Y-82721727D01*
X138616053Y-82460574D01*
X138671200Y-82183335D01*
X138671200Y-81900665D01*
X138616053Y-81623426D01*
X138507880Y-81362273D01*
X138350837Y-81127241D01*
X138150959Y-80927363D01*
X137915927Y-80770320D01*
X137654774Y-80662147D01*
X137377535Y-80607000D01*
X137094865Y-80607000D01*
X136817626Y-80662147D01*
X136556473Y-80770320D01*
X136321441Y-80927363D01*
X136121563Y-81127241D01*
X135964520Y-81362273D01*
X135856347Y-81623426D01*
X135801200Y-81900665D01*
X135801200Y-82183335D01*
X135856347Y-82460574D01*
X135964520Y-82721727D01*
X136093200Y-82914311D01*
X136093200Y-83408261D01*
X136087671Y-83464400D01*
X136093200Y-83520539D01*
X136093200Y-83520545D01*
X136101766Y-83607518D01*
X136109739Y-83688467D01*
X136122945Y-83732000D01*
X136175097Y-83903922D01*
X136281232Y-84102488D01*
X136424067Y-84276533D01*
X136467682Y-84312327D01*
X137688966Y-85533613D01*
X137453000Y-85532328D01*
X137328518Y-85544588D01*
X137208820Y-85580898D01*
X137098506Y-85639863D01*
X137001815Y-85719215D01*
X136922463Y-85815906D01*
X136863498Y-85926220D01*
X136827188Y-86045918D01*
X136814928Y-86170400D01*
X136818000Y-86734650D01*
X136976750Y-86893400D01*
X138176000Y-86893400D01*
X138176000Y-86873400D01*
X138430000Y-86873400D01*
X138430000Y-86893400D01*
X138450000Y-86893400D01*
X138450000Y-87147400D01*
X138430000Y-87147400D01*
X138430000Y-87167400D01*
X138176000Y-87167400D01*
X138176000Y-87147400D01*
X136976750Y-87147400D01*
X136818000Y-87306150D01*
X136814928Y-87870400D01*
X136827188Y-87994882D01*
X136863498Y-88114580D01*
X136922463Y-88224894D01*
X136986645Y-88303100D01*
X132845546Y-88303100D01*
X131356100Y-86813655D01*
X131356100Y-80495496D01*
X131394867Y-80542733D01*
X131568911Y-80685568D01*
X131767477Y-80791703D01*
X131982933Y-80857061D01*
X132150854Y-80873600D01*
X133116061Y-80873600D01*
X133172200Y-80879129D01*
X133228339Y-80873600D01*
X133228346Y-80873600D01*
X133396267Y-80857061D01*
X133611723Y-80791703D01*
X133810289Y-80685568D01*
X133984333Y-80542733D01*
X134020127Y-80499118D01*
X134880524Y-79638722D01*
X134924133Y-79602933D01*
X135066968Y-79428889D01*
X135173103Y-79230323D01*
X135238461Y-79014867D01*
X135255000Y-78846946D01*
X135255000Y-78846939D01*
X135260529Y-78790800D01*
X135255000Y-78734661D01*
X135255000Y-72210910D01*
X141128724Y-72210910D01*
X141250045Y-72440800D01*
X142443200Y-72440800D01*
X142443200Y-71246986D01*
X142697200Y-71246986D01*
X142697200Y-72440800D01*
X143890355Y-72440800D01*
X144011676Y-72210910D01*
X143967025Y-72063701D01*
X143841841Y-71800880D01*
X143667788Y-71567531D01*
X143451555Y-71372622D01*
X143201452Y-71223643D01*
X142927091Y-71126319D01*
X142697200Y-71246986D01*
X142443200Y-71246986D01*
X142213309Y-71126319D01*
X141938948Y-71223643D01*
X141688845Y-71372622D01*
X141472612Y-71567531D01*
X141298559Y-71800880D01*
X141173375Y-72063701D01*
X141128724Y-72210910D01*
X135255000Y-72210910D01*
X135255000Y-67914254D01*
X135238461Y-67746333D01*
X135217328Y-67676665D01*
X135547200Y-67676665D01*
X135547200Y-67959335D01*
X135602347Y-68236574D01*
X135710520Y-68497727D01*
X135867563Y-68732759D01*
X136067441Y-68932637D01*
X136302473Y-69089680D01*
X136563626Y-69197853D01*
X136840865Y-69253000D01*
X137123535Y-69253000D01*
X137400774Y-69197853D01*
X137661927Y-69089680D01*
X137896959Y-68932637D01*
X138096837Y-68732759D01*
X138253880Y-68497727D01*
X138362053Y-68236574D01*
X138417200Y-67959335D01*
X138417200Y-67676665D01*
X138362053Y-67399426D01*
X138253880Y-67138273D01*
X138096837Y-66903241D01*
X137896959Y-66703363D01*
X137661927Y-66546320D01*
X137400774Y-66438147D01*
X137123535Y-66383000D01*
X136840865Y-66383000D01*
X136563626Y-66438147D01*
X136302473Y-66546320D01*
X136067441Y-66703363D01*
X135867563Y-66903241D01*
X135710520Y-67138273D01*
X135602347Y-67399426D01*
X135547200Y-67676665D01*
X135217328Y-67676665D01*
X135173103Y-67530877D01*
X135066968Y-67332311D01*
X134924133Y-67158267D01*
X134750089Y-67015432D01*
X134551523Y-66909297D01*
X134475738Y-66886308D01*
X135195047Y-66167000D01*
X151240755Y-66167000D01*
X153023200Y-67949446D01*
G37*
X153023200Y-67949446D02*
X153023200Y-67964260D01*
X153080268Y-68251158D01*
X153192210Y-68521411D01*
X153354725Y-68764632D01*
X153561568Y-68971475D01*
X153735960Y-69088000D01*
X153561568Y-69204525D01*
X153551093Y-69215000D01*
X149825607Y-69215000D01*
X149792737Y-69153506D01*
X149713385Y-69056815D01*
X149616694Y-68977463D01*
X149506380Y-68918498D01*
X149433820Y-68896487D01*
X149565675Y-68764632D01*
X149728190Y-68521411D01*
X149840132Y-68251158D01*
X149897200Y-67964260D01*
X149897200Y-67671740D01*
X149840132Y-67384842D01*
X149728190Y-67114589D01*
X149565675Y-66871368D01*
X149358832Y-66664525D01*
X149115611Y-66502010D01*
X148845358Y-66390068D01*
X148558460Y-66333000D01*
X148265940Y-66333000D01*
X147979042Y-66390068D01*
X147708789Y-66502010D01*
X147465568Y-66664525D01*
X147455093Y-66675000D01*
X145474511Y-66675000D01*
X145281927Y-66546320D01*
X145020774Y-66438147D01*
X144743535Y-66383000D01*
X144460865Y-66383000D01*
X144183626Y-66438147D01*
X143922473Y-66546320D01*
X143687441Y-66703363D01*
X143487563Y-66903241D01*
X143330520Y-67138273D01*
X143222347Y-67399426D01*
X143167200Y-67676665D01*
X143167200Y-67959335D01*
X143222347Y-68236574D01*
X143330520Y-68497727D01*
X143487563Y-68732759D01*
X143687441Y-68932637D01*
X143922473Y-69089680D01*
X144183626Y-69197853D01*
X144460865Y-69253000D01*
X144743535Y-69253000D01*
X145020774Y-69197853D01*
X145281927Y-69089680D01*
X145474511Y-68961000D01*
X147238506Y-68961000D01*
X147207706Y-68977463D01*
X147111015Y-69056815D01*
X147031663Y-69153506D01*
X146972698Y-69263820D01*
X146936388Y-69383518D01*
X146924128Y-69508000D01*
X146924128Y-71208000D01*
X146936388Y-71332482D01*
X146972698Y-71452180D01*
X147031663Y-71562494D01*
X147111015Y-71659185D01*
X147207706Y-71738537D01*
X147318020Y-71797502D01*
X147437718Y-71833812D01*
X147562200Y-71846072D01*
X149262200Y-71846072D01*
X149386682Y-71833812D01*
X149506380Y-71797502D01*
X149616694Y-71738537D01*
X149713385Y-71659185D01*
X149792737Y-71562494D01*
X149825607Y-71501000D01*
X153334506Y-71501000D01*
X153303706Y-71517463D01*
X153207015Y-71596815D01*
X153127663Y-71693506D01*
X153068698Y-71803820D01*
X153032388Y-71923518D01*
X153020128Y-72048000D01*
X153020128Y-73596500D01*
X144544039Y-73596500D01*
X144487900Y-73590971D01*
X144431761Y-73596500D01*
X144431754Y-73596500D01*
X144284417Y-73611012D01*
X144263832Y-73613039D01*
X144231655Y-73622800D01*
X144048377Y-73678397D01*
X143849811Y-73784532D01*
X143675767Y-73927367D01*
X143645046Y-73964800D01*
X143527307Y-73964800D01*
X143516832Y-73954325D01*
X143334666Y-73832605D01*
X143451555Y-73762978D01*
X143667788Y-73568069D01*
X143841841Y-73334720D01*
X143967025Y-73071899D01*
X144011676Y-72924690D01*
X143890355Y-72694800D01*
X142697200Y-72694800D01*
X142697200Y-72714800D01*
X142443200Y-72714800D01*
X142443200Y-72694800D01*
X141250045Y-72694800D01*
X141128724Y-72924690D01*
X141173375Y-73071899D01*
X141298559Y-73334720D01*
X141472612Y-73568069D01*
X141688845Y-73762978D01*
X141805734Y-73832605D01*
X141623568Y-73954325D01*
X141416725Y-74161168D01*
X141254210Y-74404389D01*
X141142268Y-74674642D01*
X141085200Y-74961540D01*
X141085200Y-75254060D01*
X141142268Y-75540958D01*
X141254210Y-75811211D01*
X141416725Y-76054432D01*
X141548580Y-76186287D01*
X141476020Y-76208298D01*
X141365706Y-76267263D01*
X141269015Y-76346615D01*
X141189663Y-76443306D01*
X141130698Y-76553620D01*
X141094388Y-76673318D01*
X141082128Y-76797800D01*
X141082128Y-78497800D01*
X141094388Y-78622282D01*
X141130698Y-78741980D01*
X141189663Y-78852294D01*
X141269015Y-78948985D01*
X141365706Y-79028337D01*
X141476020Y-79087302D01*
X141595718Y-79123612D01*
X141720200Y-79135872D01*
X143420200Y-79135872D01*
X143544682Y-79123612D01*
X143664380Y-79087302D01*
X143774694Y-79028337D01*
X143871385Y-78948985D01*
X143950737Y-78852294D01*
X143983607Y-78790800D01*
X144571461Y-78790800D01*
X144627600Y-78796329D01*
X144683739Y-78790800D01*
X144683746Y-78790800D01*
X144851667Y-78774261D01*
X145067123Y-78708903D01*
X145265689Y-78602768D01*
X145439733Y-78459933D01*
X145475527Y-78416318D01*
X146040846Y-77851000D01*
X153094793Y-77851000D01*
X153127663Y-77912494D01*
X153207015Y-78009185D01*
X153303706Y-78088537D01*
X153414020Y-78147502D01*
X153486580Y-78169513D01*
X153354725Y-78301368D01*
X153316217Y-78359000D01*
X150079607Y-78359000D01*
X150046737Y-78297506D01*
X149967385Y-78200815D01*
X149870694Y-78121463D01*
X149760380Y-78062498D01*
X149640682Y-78026188D01*
X149516200Y-78013928D01*
X147816200Y-78013928D01*
X147691718Y-78026188D01*
X147572020Y-78062498D01*
X147461706Y-78121463D01*
X147365015Y-78200815D01*
X147285663Y-78297506D01*
X147226698Y-78407820D01*
X147190388Y-78527518D01*
X147178128Y-78652000D01*
X147178128Y-80352000D01*
X147190388Y-80476482D01*
X147226698Y-80596180D01*
X147285663Y-80706494D01*
X147365015Y-80803185D01*
X147461706Y-80882537D01*
X147492506Y-80899000D01*
X145728511Y-80899000D01*
X145535927Y-80770320D01*
X145274774Y-80662147D01*
X144997535Y-80607000D01*
X144714865Y-80607000D01*
X144437626Y-80662147D01*
X144176473Y-80770320D01*
X143941441Y-80927363D01*
X143741563Y-81127241D01*
X143584520Y-81362273D01*
X143476347Y-81623426D01*
X143421200Y-81900665D01*
X143421200Y-82183335D01*
X143476347Y-82460574D01*
X143584520Y-82721727D01*
X143741563Y-82956759D01*
X143941441Y-83156637D01*
X144176473Y-83313680D01*
X144437626Y-83421853D01*
X144714865Y-83477000D01*
X144997535Y-83477000D01*
X145274774Y-83421853D01*
X145535927Y-83313680D01*
X145728511Y-83185000D01*
X147709093Y-83185000D01*
X147719568Y-83195475D01*
X147962789Y-83357990D01*
X148233042Y-83469932D01*
X148519940Y-83527000D01*
X148812460Y-83527000D01*
X149099358Y-83469932D01*
X149369611Y-83357990D01*
X149612832Y-83195475D01*
X149819675Y-82988632D01*
X149982190Y-82745411D01*
X150094132Y-82475158D01*
X150151200Y-82188260D01*
X150151200Y-81895740D01*
X150094132Y-81608842D01*
X149982190Y-81338589D01*
X149819675Y-81095368D01*
X149687820Y-80963513D01*
X149760380Y-80941502D01*
X149870694Y-80882537D01*
X149967385Y-80803185D01*
X150046737Y-80706494D01*
X150079607Y-80645000D01*
X153551093Y-80645000D01*
X153354725Y-80841368D01*
X153192210Y-81084589D01*
X153080268Y-81354842D01*
X153023200Y-81641740D01*
X153023200Y-81934260D01*
X153080268Y-82221158D01*
X153192210Y-82491411D01*
X153354725Y-82734632D01*
X153561568Y-82941475D01*
X153804789Y-83103990D01*
X154075042Y-83215932D01*
X154361940Y-83273000D01*
X154654460Y-83273000D01*
X154941358Y-83215932D01*
X155211611Y-83103990D01*
X155454832Y-82941475D01*
X155465307Y-82931000D01*
X161029192Y-82931000D01*
X161142133Y-82965261D01*
X161366199Y-82987329D01*
X161590267Y-82965261D01*
X161805723Y-82899902D01*
X162004288Y-82793767D01*
X162150924Y-82673427D01*
X162148070Y-82702400D01*
X162170139Y-82926467D01*
X162235497Y-83141923D01*
X162341632Y-83340489D01*
X162484467Y-83514533D01*
X162640029Y-83642200D01*
X139030446Y-83642200D01*
X138379200Y-82990954D01*
X138379200Y-82914311D01*
X138507880Y-82721727D01*
X138616053Y-82460574D01*
X138671200Y-82183335D01*
X138671200Y-81900665D01*
X138616053Y-81623426D01*
X138507880Y-81362273D01*
X138350837Y-81127241D01*
X138150959Y-80927363D01*
X137915927Y-80770320D01*
X137654774Y-80662147D01*
X137377535Y-80607000D01*
X137094865Y-80607000D01*
X136817626Y-80662147D01*
X136556473Y-80770320D01*
X136321441Y-80927363D01*
X136121563Y-81127241D01*
X135964520Y-81362273D01*
X135856347Y-81623426D01*
X135801200Y-81900665D01*
X135801200Y-82183335D01*
X135856347Y-82460574D01*
X135964520Y-82721727D01*
X136093200Y-82914311D01*
X136093200Y-83408261D01*
X136087671Y-83464400D01*
X136093200Y-83520539D01*
X136093200Y-83520545D01*
X136101766Y-83607518D01*
X136109739Y-83688467D01*
X136122945Y-83732000D01*
X136175097Y-83903922D01*
X136281232Y-84102488D01*
X136424067Y-84276533D01*
X136467682Y-84312327D01*
X137688966Y-85533613D01*
X137453000Y-85532328D01*
X137328518Y-85544588D01*
X137208820Y-85580898D01*
X137098506Y-85639863D01*
X137001815Y-85719215D01*
X136922463Y-85815906D01*
X136863498Y-85926220D01*
X136827188Y-86045918D01*
X136814928Y-86170400D01*
X136818000Y-86734650D01*
X136976750Y-86893400D01*
X138176000Y-86893400D01*
X138176000Y-86873400D01*
X138430000Y-86873400D01*
X138430000Y-86893400D01*
X138450000Y-86893400D01*
X138450000Y-87147400D01*
X138430000Y-87147400D01*
X138430000Y-87167400D01*
X138176000Y-87167400D01*
X138176000Y-87147400D01*
X136976750Y-87147400D01*
X136818000Y-87306150D01*
X136814928Y-87870400D01*
X136827188Y-87994882D01*
X136863498Y-88114580D01*
X136922463Y-88224894D01*
X136986645Y-88303100D01*
X132845546Y-88303100D01*
X131356100Y-86813655D01*
X131356100Y-80495496D01*
X131394867Y-80542733D01*
X131568911Y-80685568D01*
X131767477Y-80791703D01*
X131982933Y-80857061D01*
X132150854Y-80873600D01*
X133116061Y-80873600D01*
X133172200Y-80879129D01*
X133228339Y-80873600D01*
X133228346Y-80873600D01*
X133396267Y-80857061D01*
X133611723Y-80791703D01*
X133810289Y-80685568D01*
X133984333Y-80542733D01*
X134020127Y-80499118D01*
X134880524Y-79638722D01*
X134924133Y-79602933D01*
X135066968Y-79428889D01*
X135173103Y-79230323D01*
X135238461Y-79014867D01*
X135255000Y-78846946D01*
X135255000Y-78846939D01*
X135260529Y-78790800D01*
X135255000Y-78734661D01*
X135255000Y-72210910D01*
X141128724Y-72210910D01*
X141250045Y-72440800D01*
X142443200Y-72440800D01*
X142443200Y-71246986D01*
X142697200Y-71246986D01*
X142697200Y-72440800D01*
X143890355Y-72440800D01*
X144011676Y-72210910D01*
X143967025Y-72063701D01*
X143841841Y-71800880D01*
X143667788Y-71567531D01*
X143451555Y-71372622D01*
X143201452Y-71223643D01*
X142927091Y-71126319D01*
X142697200Y-71246986D01*
X142443200Y-71246986D01*
X142213309Y-71126319D01*
X141938948Y-71223643D01*
X141688845Y-71372622D01*
X141472612Y-71567531D01*
X141298559Y-71800880D01*
X141173375Y-72063701D01*
X141128724Y-72210910D01*
X135255000Y-72210910D01*
X135255000Y-67914254D01*
X135238461Y-67746333D01*
X135217328Y-67676665D01*
X135547200Y-67676665D01*
X135547200Y-67959335D01*
X135602347Y-68236574D01*
X135710520Y-68497727D01*
X135867563Y-68732759D01*
X136067441Y-68932637D01*
X136302473Y-69089680D01*
X136563626Y-69197853D01*
X136840865Y-69253000D01*
X137123535Y-69253000D01*
X137400774Y-69197853D01*
X137661927Y-69089680D01*
X137896959Y-68932637D01*
X138096837Y-68732759D01*
X138253880Y-68497727D01*
X138362053Y-68236574D01*
X138417200Y-67959335D01*
X138417200Y-67676665D01*
X138362053Y-67399426D01*
X138253880Y-67138273D01*
X138096837Y-66903241D01*
X137896959Y-66703363D01*
X137661927Y-66546320D01*
X137400774Y-66438147D01*
X137123535Y-66383000D01*
X136840865Y-66383000D01*
X136563626Y-66438147D01*
X136302473Y-66546320D01*
X136067441Y-66703363D01*
X135867563Y-66903241D01*
X135710520Y-67138273D01*
X135602347Y-67399426D01*
X135547200Y-67676665D01*
X135217328Y-67676665D01*
X135173103Y-67530877D01*
X135066968Y-67332311D01*
X134924133Y-67158267D01*
X134750089Y-67015432D01*
X134551523Y-66909297D01*
X134475738Y-66886308D01*
X135195047Y-66167000D01*
X151240755Y-66167000D01*
X153023200Y-67949446D01*
G36*
X178485801Y-74964553D02*
G01*
X178069760Y-75380594D01*
X178009894Y-75331463D01*
X177899580Y-75272498D01*
X177779882Y-75236188D01*
X177655400Y-75223928D01*
X175455400Y-75223928D01*
X175330918Y-75236188D01*
X175211220Y-75272498D01*
X175100906Y-75331463D01*
X175004215Y-75410815D01*
X174924863Y-75507506D01*
X174865898Y-75617820D01*
X174829588Y-75737518D01*
X174817328Y-75862000D01*
X174817328Y-78062000D01*
X174829588Y-78186482D01*
X174865898Y-78306180D01*
X174924863Y-78416494D01*
X175004215Y-78513185D01*
X175100906Y-78592537D01*
X175211220Y-78651502D01*
X175330918Y-78687812D01*
X175412401Y-78695837D01*
X175412401Y-78902538D01*
X175207737Y-79107202D01*
X175198517Y-79121000D01*
X173632684Y-79121000D01*
X173617253Y-79043426D01*
X173509080Y-78782273D01*
X173352037Y-78547241D01*
X173152159Y-78347363D01*
X172951531Y-78213308D01*
X172978914Y-78198671D01*
X173050497Y-77954702D01*
X172237400Y-77141605D01*
X171424303Y-77954702D01*
X171495886Y-78198671D01*
X171524741Y-78212324D01*
X171322641Y-78347363D01*
X171122763Y-78547241D01*
X170965720Y-78782273D01*
X170857547Y-79043426D01*
X170802400Y-79320665D01*
X170802400Y-79603335D01*
X170857547Y-79880574D01*
X170965720Y-80141727D01*
X171094401Y-80334312D01*
X171094400Y-83524354D01*
X169249355Y-85369400D01*
X164913045Y-85369400D01*
X167976723Y-82305723D01*
X168020333Y-82269933D01*
X168067760Y-82212144D01*
X168163167Y-82095890D01*
X168173851Y-82075902D01*
X168269303Y-81897323D01*
X168334661Y-81681867D01*
X168351200Y-81513946D01*
X168351200Y-81513940D01*
X168356729Y-81457801D01*
X168351200Y-81401662D01*
X168351200Y-79358311D01*
X168479880Y-79165727D01*
X168588053Y-78904574D01*
X168643200Y-78627335D01*
X168643200Y-78344665D01*
X168588053Y-78067426D01*
X168479880Y-77806273D01*
X168322837Y-77571241D01*
X168122959Y-77371363D01*
X167887927Y-77214320D01*
X167877335Y-77209933D01*
X168063331Y-77098385D01*
X168135972Y-77032512D01*
X170797183Y-77032512D01*
X170838613Y-77312130D01*
X170933797Y-77578292D01*
X171000729Y-77703514D01*
X171244698Y-77775097D01*
X172057795Y-76962000D01*
X172417005Y-76962000D01*
X173230102Y-77775097D01*
X173474071Y-77703514D01*
X173594971Y-77448004D01*
X173663700Y-77173816D01*
X173677617Y-76891488D01*
X173636187Y-76611870D01*
X173541003Y-76345708D01*
X173474071Y-76220486D01*
X173230102Y-76148903D01*
X172417005Y-76962000D01*
X172057795Y-76962000D01*
X171244698Y-76148903D01*
X171000729Y-76220486D01*
X170879829Y-76475996D01*
X170811100Y-76750184D01*
X170797183Y-77032512D01*
X168135972Y-77032512D01*
X168271719Y-76909414D01*
X168439237Y-76683420D01*
X168559446Y-76429087D01*
X168600104Y-76295039D01*
X168478115Y-76073000D01*
X167335200Y-76073000D01*
X167335200Y-76093000D01*
X167081200Y-76093000D01*
X167081200Y-76073000D01*
X167061200Y-76073000D01*
X167061200Y-75969298D01*
X171424303Y-75969298D01*
X172237400Y-76782395D01*
X173050497Y-75969298D01*
X172978914Y-75725329D01*
X172723404Y-75604429D01*
X172449216Y-75535700D01*
X172166888Y-75521783D01*
X171887270Y-75563213D01*
X171621108Y-75658397D01*
X171495886Y-75725329D01*
X171424303Y-75969298D01*
X167061200Y-75969298D01*
X167061200Y-75819000D01*
X167081200Y-75819000D01*
X167081200Y-75799000D01*
X167335200Y-75799000D01*
X167335200Y-75819000D01*
X168478115Y-75819000D01*
X168600104Y-75596961D01*
X168559446Y-75462913D01*
X168439237Y-75208580D01*
X168271719Y-74982586D01*
X168063331Y-74793615D01*
X167877335Y-74682067D01*
X167887927Y-74677680D01*
X168122959Y-74520637D01*
X168322837Y-74320759D01*
X168479880Y-74085727D01*
X168588053Y-73824574D01*
X168643200Y-73547335D01*
X168643200Y-73264665D01*
X168588053Y-72987426D01*
X168479880Y-72726273D01*
X168322837Y-72491241D01*
X168122959Y-72291363D01*
X167890441Y-72136000D01*
X168122959Y-71980637D01*
X168322837Y-71780759D01*
X168366776Y-71715000D01*
X171619089Y-71715000D01*
X171811673Y-71843680D01*
X172072826Y-71951853D01*
X172350065Y-72007000D01*
X172632735Y-72007000D01*
X172909974Y-71951853D01*
X173171127Y-71843680D01*
X173303846Y-71755000D01*
X175524139Y-71755000D01*
X175703402Y-71934263D01*
X175987569Y-72124137D01*
X176303319Y-72254925D01*
X176638517Y-72321600D01*
X176980283Y-72321600D01*
X177315481Y-72254925D01*
X177631231Y-72124137D01*
X177915398Y-71934263D01*
X178157063Y-71692598D01*
X178346937Y-71408431D01*
X178477725Y-71092681D01*
X178485801Y-71052082D01*
X178485801Y-74964553D01*
G37*
X178485801Y-74964553D02*
X178069760Y-75380594D01*
X178009894Y-75331463D01*
X177899580Y-75272498D01*
X177779882Y-75236188D01*
X177655400Y-75223928D01*
X175455400Y-75223928D01*
X175330918Y-75236188D01*
X175211220Y-75272498D01*
X175100906Y-75331463D01*
X175004215Y-75410815D01*
X174924863Y-75507506D01*
X174865898Y-75617820D01*
X174829588Y-75737518D01*
X174817328Y-75862000D01*
X174817328Y-78062000D01*
X174829588Y-78186482D01*
X174865898Y-78306180D01*
X174924863Y-78416494D01*
X175004215Y-78513185D01*
X175100906Y-78592537D01*
X175211220Y-78651502D01*
X175330918Y-78687812D01*
X175412401Y-78695837D01*
X175412401Y-78902538D01*
X175207737Y-79107202D01*
X175198517Y-79121000D01*
X173632684Y-79121000D01*
X173617253Y-79043426D01*
X173509080Y-78782273D01*
X173352037Y-78547241D01*
X173152159Y-78347363D01*
X172951531Y-78213308D01*
X172978914Y-78198671D01*
X173050497Y-77954702D01*
X172237400Y-77141605D01*
X171424303Y-77954702D01*
X171495886Y-78198671D01*
X171524741Y-78212324D01*
X171322641Y-78347363D01*
X171122763Y-78547241D01*
X170965720Y-78782273D01*
X170857547Y-79043426D01*
X170802400Y-79320665D01*
X170802400Y-79603335D01*
X170857547Y-79880574D01*
X170965720Y-80141727D01*
X171094401Y-80334312D01*
X171094400Y-83524354D01*
X169249355Y-85369400D01*
X164913045Y-85369400D01*
X167976723Y-82305723D01*
X168020333Y-82269933D01*
X168067760Y-82212144D01*
X168163167Y-82095890D01*
X168173851Y-82075902D01*
X168269303Y-81897323D01*
X168334661Y-81681867D01*
X168351200Y-81513946D01*
X168351200Y-81513940D01*
X168356729Y-81457801D01*
X168351200Y-81401662D01*
X168351200Y-79358311D01*
X168479880Y-79165727D01*
X168588053Y-78904574D01*
X168643200Y-78627335D01*
X168643200Y-78344665D01*
X168588053Y-78067426D01*
X168479880Y-77806273D01*
X168322837Y-77571241D01*
X168122959Y-77371363D01*
X167887927Y-77214320D01*
X167877335Y-77209933D01*
X168063331Y-77098385D01*
X168135972Y-77032512D01*
X170797183Y-77032512D01*
X170838613Y-77312130D01*
X170933797Y-77578292D01*
X171000729Y-77703514D01*
X171244698Y-77775097D01*
X172057795Y-76962000D01*
X172417005Y-76962000D01*
X173230102Y-77775097D01*
X173474071Y-77703514D01*
X173594971Y-77448004D01*
X173663700Y-77173816D01*
X173677617Y-76891488D01*
X173636187Y-76611870D01*
X173541003Y-76345708D01*
X173474071Y-76220486D01*
X173230102Y-76148903D01*
X172417005Y-76962000D01*
X172057795Y-76962000D01*
X171244698Y-76148903D01*
X171000729Y-76220486D01*
X170879829Y-76475996D01*
X170811100Y-76750184D01*
X170797183Y-77032512D01*
X168135972Y-77032512D01*
X168271719Y-76909414D01*
X168439237Y-76683420D01*
X168559446Y-76429087D01*
X168600104Y-76295039D01*
X168478115Y-76073000D01*
X167335200Y-76073000D01*
X167335200Y-76093000D01*
X167081200Y-76093000D01*
X167081200Y-76073000D01*
X167061200Y-76073000D01*
X167061200Y-75969298D01*
X171424303Y-75969298D01*
X172237400Y-76782395D01*
X173050497Y-75969298D01*
X172978914Y-75725329D01*
X172723404Y-75604429D01*
X172449216Y-75535700D01*
X172166888Y-75521783D01*
X171887270Y-75563213D01*
X171621108Y-75658397D01*
X171495886Y-75725329D01*
X171424303Y-75969298D01*
X167061200Y-75969298D01*
X167061200Y-75819000D01*
X167081200Y-75819000D01*
X167081200Y-75799000D01*
X167335200Y-75799000D01*
X167335200Y-75819000D01*
X168478115Y-75819000D01*
X168600104Y-75596961D01*
X168559446Y-75462913D01*
X168439237Y-75208580D01*
X168271719Y-74982586D01*
X168063331Y-74793615D01*
X167877335Y-74682067D01*
X167887927Y-74677680D01*
X168122959Y-74520637D01*
X168322837Y-74320759D01*
X168479880Y-74085727D01*
X168588053Y-73824574D01*
X168643200Y-73547335D01*
X168643200Y-73264665D01*
X168588053Y-72987426D01*
X168479880Y-72726273D01*
X168322837Y-72491241D01*
X168122959Y-72291363D01*
X167890441Y-72136000D01*
X168122959Y-71980637D01*
X168322837Y-71780759D01*
X168366776Y-71715000D01*
X171619089Y-71715000D01*
X171811673Y-71843680D01*
X172072826Y-71951853D01*
X172350065Y-72007000D01*
X172632735Y-72007000D01*
X172909974Y-71951853D01*
X173171127Y-71843680D01*
X173303846Y-71755000D01*
X175524139Y-71755000D01*
X175703402Y-71934263D01*
X175987569Y-72124137D01*
X176303319Y-72254925D01*
X176638517Y-72321600D01*
X176980283Y-72321600D01*
X177315481Y-72254925D01*
X177631231Y-72124137D01*
X177915398Y-71934263D01*
X178157063Y-71692598D01*
X178346937Y-71408431D01*
X178477725Y-71092681D01*
X178485801Y-71052082D01*
X178485801Y-74964553D01*
G36*
X162153600Y-72507846D02*
G01*
X162153601Y-81007631D01*
X162127533Y-80975867D01*
X161953489Y-80833032D01*
X161754923Y-80726897D01*
X161539467Y-80661539D01*
X161371546Y-80645000D01*
X161371539Y-80645000D01*
X161315400Y-80639471D01*
X161259261Y-80645000D01*
X155465307Y-80645000D01*
X155454832Y-80634525D01*
X155280440Y-80518000D01*
X155454832Y-80401475D01*
X155661675Y-80194632D01*
X155824190Y-79951411D01*
X155936132Y-79681158D01*
X155993200Y-79394260D01*
X155993200Y-79101740D01*
X155936132Y-78814842D01*
X155824190Y-78544589D01*
X155661675Y-78301368D01*
X155529820Y-78169513D01*
X155602380Y-78147502D01*
X155712694Y-78088537D01*
X155809385Y-78009185D01*
X155888737Y-77912494D01*
X155947702Y-77802180D01*
X155984012Y-77682482D01*
X155996272Y-77558000D01*
X155996272Y-75882500D01*
X157908255Y-75882500D01*
X158163160Y-76137405D01*
X158208347Y-76364574D01*
X158316520Y-76625727D01*
X158473563Y-76860759D01*
X158673441Y-77060637D01*
X158905959Y-77216000D01*
X158673441Y-77371363D01*
X158473563Y-77571241D01*
X158316520Y-77806273D01*
X158208347Y-78067426D01*
X158153200Y-78344665D01*
X158153200Y-78627335D01*
X158208347Y-78904574D01*
X158316520Y-79165727D01*
X158473563Y-79400759D01*
X158673441Y-79600637D01*
X158908473Y-79757680D01*
X159169626Y-79865853D01*
X159446865Y-79921000D01*
X159729535Y-79921000D01*
X160006774Y-79865853D01*
X160267927Y-79757680D01*
X160502959Y-79600637D01*
X160702837Y-79400759D01*
X160859880Y-79165727D01*
X160968053Y-78904574D01*
X161023200Y-78627335D01*
X161023200Y-78344665D01*
X160968053Y-78067426D01*
X160859880Y-77806273D01*
X160702837Y-77571241D01*
X160502959Y-77371363D01*
X160270441Y-77216000D01*
X160502959Y-77060637D01*
X160702837Y-76860759D01*
X160859880Y-76625727D01*
X160968053Y-76364574D01*
X161023200Y-76087335D01*
X161023200Y-75804665D01*
X160968053Y-75527426D01*
X160859880Y-75266273D01*
X160702837Y-75031241D01*
X160502959Y-74831363D01*
X160270441Y-74676000D01*
X160502959Y-74520637D01*
X160702837Y-74320759D01*
X160859880Y-74085727D01*
X160968053Y-73824574D01*
X161023200Y-73547335D01*
X161023200Y-73264665D01*
X160968053Y-72987426D01*
X160859880Y-72726273D01*
X160702837Y-72491241D01*
X160504239Y-72292643D01*
X160512682Y-72291812D01*
X160632380Y-72255502D01*
X160742694Y-72196537D01*
X160839385Y-72117185D01*
X160918737Y-72020494D01*
X160924881Y-72009000D01*
X161654755Y-72009000D01*
X162153600Y-72507846D01*
G37*
X162153600Y-72507846D02*
X162153601Y-81007631D01*
X162127533Y-80975867D01*
X161953489Y-80833032D01*
X161754923Y-80726897D01*
X161539467Y-80661539D01*
X161371546Y-80645000D01*
X161371539Y-80645000D01*
X161315400Y-80639471D01*
X161259261Y-80645000D01*
X155465307Y-80645000D01*
X155454832Y-80634525D01*
X155280440Y-80518000D01*
X155454832Y-80401475D01*
X155661675Y-80194632D01*
X155824190Y-79951411D01*
X155936132Y-79681158D01*
X155993200Y-79394260D01*
X155993200Y-79101740D01*
X155936132Y-78814842D01*
X155824190Y-78544589D01*
X155661675Y-78301368D01*
X155529820Y-78169513D01*
X155602380Y-78147502D01*
X155712694Y-78088537D01*
X155809385Y-78009185D01*
X155888737Y-77912494D01*
X155947702Y-77802180D01*
X155984012Y-77682482D01*
X155996272Y-77558000D01*
X155996272Y-75882500D01*
X157908255Y-75882500D01*
X158163160Y-76137405D01*
X158208347Y-76364574D01*
X158316520Y-76625727D01*
X158473563Y-76860759D01*
X158673441Y-77060637D01*
X158905959Y-77216000D01*
X158673441Y-77371363D01*
X158473563Y-77571241D01*
X158316520Y-77806273D01*
X158208347Y-78067426D01*
X158153200Y-78344665D01*
X158153200Y-78627335D01*
X158208347Y-78904574D01*
X158316520Y-79165727D01*
X158473563Y-79400759D01*
X158673441Y-79600637D01*
X158908473Y-79757680D01*
X159169626Y-79865853D01*
X159446865Y-79921000D01*
X159729535Y-79921000D01*
X160006774Y-79865853D01*
X160267927Y-79757680D01*
X160502959Y-79600637D01*
X160702837Y-79400759D01*
X160859880Y-79165727D01*
X160968053Y-78904574D01*
X161023200Y-78627335D01*
X161023200Y-78344665D01*
X160968053Y-78067426D01*
X160859880Y-77806273D01*
X160702837Y-77571241D01*
X160502959Y-77371363D01*
X160270441Y-77216000D01*
X160502959Y-77060637D01*
X160702837Y-76860759D01*
X160859880Y-76625727D01*
X160968053Y-76364574D01*
X161023200Y-76087335D01*
X161023200Y-75804665D01*
X160968053Y-75527426D01*
X160859880Y-75266273D01*
X160702837Y-75031241D01*
X160502959Y-74831363D01*
X160270441Y-74676000D01*
X160502959Y-74520637D01*
X160702837Y-74320759D01*
X160859880Y-74085727D01*
X160968053Y-73824574D01*
X161023200Y-73547335D01*
X161023200Y-73264665D01*
X160968053Y-72987426D01*
X160859880Y-72726273D01*
X160702837Y-72491241D01*
X160504239Y-72292643D01*
X160512682Y-72291812D01*
X160632380Y-72255502D01*
X160742694Y-72196537D01*
X160839385Y-72117185D01*
X160918737Y-72020494D01*
X160924881Y-72009000D01*
X161654755Y-72009000D01*
X162153600Y-72507846D01*
G36*
X163880800Y-70171046D02*
G01*
X163880800Y-71002154D01*
X162976127Y-70097482D01*
X162940333Y-70053867D01*
X162766289Y-69911032D01*
X162567723Y-69804897D01*
X162352267Y-69739539D01*
X162184346Y-69723000D01*
X162184339Y-69723000D01*
X162128200Y-69717471D01*
X162072061Y-69723000D01*
X160924881Y-69723000D01*
X160918737Y-69711506D01*
X160839385Y-69614815D01*
X160742694Y-69535463D01*
X160632380Y-69476498D01*
X160512682Y-69440188D01*
X160388200Y-69427928D01*
X158788200Y-69427928D01*
X158663718Y-69440188D01*
X158544020Y-69476498D01*
X158433706Y-69535463D01*
X158337015Y-69614815D01*
X158257663Y-69711506D01*
X158198698Y-69821820D01*
X158162388Y-69941518D01*
X158150128Y-70066000D01*
X158150128Y-71666000D01*
X158162388Y-71790482D01*
X158198698Y-71910180D01*
X158257663Y-72020494D01*
X158337015Y-72117185D01*
X158433706Y-72196537D01*
X158544020Y-72255502D01*
X158568738Y-72263000D01*
X155996272Y-72263000D01*
X155996272Y-72048000D01*
X155984012Y-71923518D01*
X155947702Y-71803820D01*
X155888737Y-71693506D01*
X155809385Y-71596815D01*
X155712694Y-71517463D01*
X155681894Y-71501000D01*
X155772861Y-71501000D01*
X155829000Y-71506529D01*
X155885139Y-71501000D01*
X155885146Y-71501000D01*
X156053067Y-71484461D01*
X156268523Y-71419103D01*
X156467089Y-71312968D01*
X156641133Y-71170133D01*
X156676927Y-71126518D01*
X158791646Y-69011800D01*
X162721555Y-69011800D01*
X163880800Y-70171046D01*
G37*
X163880800Y-70171046D02*
X163880800Y-71002154D01*
X162976127Y-70097482D01*
X162940333Y-70053867D01*
X162766289Y-69911032D01*
X162567723Y-69804897D01*
X162352267Y-69739539D01*
X162184346Y-69723000D01*
X162184339Y-69723000D01*
X162128200Y-69717471D01*
X162072061Y-69723000D01*
X160924881Y-69723000D01*
X160918737Y-69711506D01*
X160839385Y-69614815D01*
X160742694Y-69535463D01*
X160632380Y-69476498D01*
X160512682Y-69440188D01*
X160388200Y-69427928D01*
X158788200Y-69427928D01*
X158663718Y-69440188D01*
X158544020Y-69476498D01*
X158433706Y-69535463D01*
X158337015Y-69614815D01*
X158257663Y-69711506D01*
X158198698Y-69821820D01*
X158162388Y-69941518D01*
X158150128Y-70066000D01*
X158150128Y-71666000D01*
X158162388Y-71790482D01*
X158198698Y-71910180D01*
X158257663Y-72020494D01*
X158337015Y-72117185D01*
X158433706Y-72196537D01*
X158544020Y-72255502D01*
X158568738Y-72263000D01*
X155996272Y-72263000D01*
X155996272Y-72048000D01*
X155984012Y-71923518D01*
X155947702Y-71803820D01*
X155888737Y-71693506D01*
X155809385Y-71596815D01*
X155712694Y-71517463D01*
X155681894Y-71501000D01*
X155772861Y-71501000D01*
X155829000Y-71506529D01*
X155885139Y-71501000D01*
X155885146Y-71501000D01*
X156053067Y-71484461D01*
X156268523Y-71419103D01*
X156467089Y-71312968D01*
X156641133Y-71170133D01*
X156676927Y-71126518D01*
X158791646Y-69011800D01*
X162721555Y-69011800D01*
X163880800Y-70171046D01*
G36*
X109671254Y-68376200D02*
G01*
X118334455Y-68376200D01*
X121588455Y-71630200D01*
X109724854Y-71630200D01*
X109556933Y-71646739D01*
X109538366Y-71652371D01*
X109562800Y-71529535D01*
X109562800Y-71246865D01*
X109507653Y-70969626D01*
X109399480Y-70708473D01*
X109242437Y-70473441D01*
X109042559Y-70273563D01*
X108807527Y-70116520D01*
X108546374Y-70008347D01*
X108520499Y-70003200D01*
X108546374Y-69998053D01*
X108807527Y-69889880D01*
X109042559Y-69732837D01*
X109242437Y-69532959D01*
X109399480Y-69297927D01*
X109507653Y-69036774D01*
X109562800Y-68759535D01*
X109562800Y-68476865D01*
X109540209Y-68363293D01*
X109671254Y-68376200D01*
G37*
X109671254Y-68376200D02*
X118334455Y-68376200D01*
X121588455Y-71630200D01*
X109724854Y-71630200D01*
X109556933Y-71646739D01*
X109538366Y-71652371D01*
X109562800Y-71529535D01*
X109562800Y-71246865D01*
X109507653Y-70969626D01*
X109399480Y-70708473D01*
X109242437Y-70473441D01*
X109042559Y-70273563D01*
X108807527Y-70116520D01*
X108546374Y-70008347D01*
X108520499Y-70003200D01*
X108546374Y-69998053D01*
X108807527Y-69889880D01*
X109042559Y-69732837D01*
X109242437Y-69532959D01*
X109399480Y-69297927D01*
X109507653Y-69036774D01*
X109562800Y-68759535D01*
X109562800Y-68476865D01*
X109540209Y-68363293D01*
X109671254Y-68376200D01*
G36*
X175071328Y-67467774D02*
G01*
X175071328Y-68410000D01*
X175083588Y-68534482D01*
X175119898Y-68654180D01*
X175178863Y-68764494D01*
X175258215Y-68861185D01*
X175354906Y-68940537D01*
X175465220Y-68999502D01*
X175584918Y-69035812D01*
X175666401Y-69043837D01*
X175666401Y-69275938D01*
X175473339Y-69469000D01*
X173417796Y-69469000D01*
X173406159Y-69457363D01*
X173205531Y-69323308D01*
X173232914Y-69308671D01*
X173304497Y-69064702D01*
X172491400Y-68251605D01*
X171678303Y-69064702D01*
X171749886Y-69308671D01*
X171778741Y-69322324D01*
X171619089Y-69429000D01*
X167558339Y-69429000D01*
X167502200Y-69423471D01*
X167446061Y-69429000D01*
X167446054Y-69429000D01*
X167374774Y-69436021D01*
X167349535Y-69431000D01*
X167066865Y-69431000D01*
X166789626Y-69486147D01*
X166528473Y-69594320D01*
X166293441Y-69751363D01*
X166166800Y-69878004D01*
X166166800Y-69753739D01*
X166172329Y-69697600D01*
X166166800Y-69641461D01*
X166166800Y-69641454D01*
X166150261Y-69473533D01*
X166084903Y-69258077D01*
X165978768Y-69059511D01*
X165835933Y-68885467D01*
X165792324Y-68849678D01*
X165085158Y-68142512D01*
X171051183Y-68142512D01*
X171092613Y-68422130D01*
X171187797Y-68688292D01*
X171254729Y-68813514D01*
X171498698Y-68885097D01*
X172311795Y-68072000D01*
X172671005Y-68072000D01*
X173484102Y-68885097D01*
X173728071Y-68813514D01*
X173848971Y-68558004D01*
X173917700Y-68283816D01*
X173931617Y-68001488D01*
X173890187Y-67721870D01*
X173795003Y-67455708D01*
X173728071Y-67330486D01*
X173484102Y-67258903D01*
X172671005Y-68072000D01*
X172311795Y-68072000D01*
X171498698Y-67258903D01*
X171254729Y-67330486D01*
X171133829Y-67585996D01*
X171065100Y-67860184D01*
X171051183Y-68142512D01*
X165085158Y-68142512D01*
X164042927Y-67100282D01*
X164025706Y-67079298D01*
X171678303Y-67079298D01*
X172491400Y-67892395D01*
X173304497Y-67079298D01*
X173232914Y-66835329D01*
X172977404Y-66714429D01*
X172703216Y-66645700D01*
X172420888Y-66631783D01*
X172141270Y-66673213D01*
X171875108Y-66768397D01*
X171749886Y-66835329D01*
X171678303Y-67079298D01*
X164025706Y-67079298D01*
X164007133Y-67056667D01*
X163833089Y-66913832D01*
X163634523Y-66807697D01*
X163419067Y-66742339D01*
X163251146Y-66725800D01*
X163251139Y-66725800D01*
X163195000Y-66720271D01*
X163138861Y-66725800D01*
X158374338Y-66725800D01*
X158318199Y-66720271D01*
X158262060Y-66725800D01*
X158262054Y-66725800D01*
X158116800Y-66740106D01*
X158094132Y-66742339D01*
X158046142Y-66756897D01*
X157878677Y-66807697D01*
X157680111Y-66913832D01*
X157506067Y-67056667D01*
X157470277Y-67100277D01*
X155401599Y-69168956D01*
X155280440Y-69088000D01*
X155454832Y-68971475D01*
X155661675Y-68764632D01*
X155824190Y-68521411D01*
X155936132Y-68251158D01*
X155993200Y-67964260D01*
X155993200Y-67949445D01*
X157775646Y-66167000D01*
X173770555Y-66167000D01*
X175071328Y-67467774D01*
G37*
X175071328Y-67467774D02*
X175071328Y-68410000D01*
X175083588Y-68534482D01*
X175119898Y-68654180D01*
X175178863Y-68764494D01*
X175258215Y-68861185D01*
X175354906Y-68940537D01*
X175465220Y-68999502D01*
X175584918Y-69035812D01*
X175666401Y-69043837D01*
X175666401Y-69275938D01*
X175473339Y-69469000D01*
X173417796Y-69469000D01*
X173406159Y-69457363D01*
X173205531Y-69323308D01*
X173232914Y-69308671D01*
X173304497Y-69064702D01*
X172491400Y-68251605D01*
X171678303Y-69064702D01*
X171749886Y-69308671D01*
X171778741Y-69322324D01*
X171619089Y-69429000D01*
X167558339Y-69429000D01*
X167502200Y-69423471D01*
X167446061Y-69429000D01*
X167446054Y-69429000D01*
X167374774Y-69436021D01*
X167349535Y-69431000D01*
X167066865Y-69431000D01*
X166789626Y-69486147D01*
X166528473Y-69594320D01*
X166293441Y-69751363D01*
X166166800Y-69878004D01*
X166166800Y-69753739D01*
X166172329Y-69697600D01*
X166166800Y-69641461D01*
X166166800Y-69641454D01*
X166150261Y-69473533D01*
X166084903Y-69258077D01*
X165978768Y-69059511D01*
X165835933Y-68885467D01*
X165792324Y-68849678D01*
X165085158Y-68142512D01*
X171051183Y-68142512D01*
X171092613Y-68422130D01*
X171187797Y-68688292D01*
X171254729Y-68813514D01*
X171498698Y-68885097D01*
X172311795Y-68072000D01*
X172671005Y-68072000D01*
X173484102Y-68885097D01*
X173728071Y-68813514D01*
X173848971Y-68558004D01*
X173917700Y-68283816D01*
X173931617Y-68001488D01*
X173890187Y-67721870D01*
X173795003Y-67455708D01*
X173728071Y-67330486D01*
X173484102Y-67258903D01*
X172671005Y-68072000D01*
X172311795Y-68072000D01*
X171498698Y-67258903D01*
X171254729Y-67330486D01*
X171133829Y-67585996D01*
X171065100Y-67860184D01*
X171051183Y-68142512D01*
X165085158Y-68142512D01*
X164042927Y-67100282D01*
X164025706Y-67079298D01*
X171678303Y-67079298D01*
X172491400Y-67892395D01*
X173304497Y-67079298D01*
X173232914Y-66835329D01*
X172977404Y-66714429D01*
X172703216Y-66645700D01*
X172420888Y-66631783D01*
X172141270Y-66673213D01*
X171875108Y-66768397D01*
X171749886Y-66835329D01*
X171678303Y-67079298D01*
X164025706Y-67079298D01*
X164007133Y-67056667D01*
X163833089Y-66913832D01*
X163634523Y-66807697D01*
X163419067Y-66742339D01*
X163251146Y-66725800D01*
X163251139Y-66725800D01*
X163195000Y-66720271D01*
X163138861Y-66725800D01*
X158374338Y-66725800D01*
X158318199Y-66720271D01*
X158262060Y-66725800D01*
X158262054Y-66725800D01*
X158116800Y-66740106D01*
X158094132Y-66742339D01*
X158046142Y-66756897D01*
X157878677Y-66807697D01*
X157680111Y-66913832D01*
X157506067Y-67056667D01*
X157470277Y-67100277D01*
X155401599Y-69168956D01*
X155280440Y-69088000D01*
X155454832Y-68971475D01*
X155661675Y-68764632D01*
X155824190Y-68521411D01*
X155936132Y-68251158D01*
X155993200Y-67964260D01*
X155993200Y-67949445D01*
X157775646Y-66167000D01*
X173770555Y-66167000D01*
X175071328Y-67467774D01*
G36*
X154508200Y-66201554D02*
G01*
X153076645Y-64770000D01*
X155939754Y-64770000D01*
X154508200Y-66201554D01*
G37*
X154508200Y-66201554D02*
X153076645Y-64770000D01*
X155939754Y-64770000D01*
X154508200Y-66201554D01*
%TD*%
M02*
