M48
; DRILL file {KiCad (5.1.6)-1} date 12/03/21 10:29:48
; FORMAT={-:-/ absolute / inch / decimal}
; #@! TF.CreationDate,2021-12-03T10:29:48-08:00
; #@! TF.GenerationSoftware,Kicad,Pcbnew,(5.1.6)-1
; #@! TF.FileFunction,Plated,1,2,PTH
FMAT,2
INCH
T1C0.0157
T2C0.0315
%
G90
G05
T1
X5.79Y-3.42
X5.8Y-2.77
X5.8Y-2.94
X5.81Y-3.14
X5.86Y-3.735
X5.88Y-3.33
X5.94Y-2.94
X5.95Y-2.76
X5.95Y-3.14
X6.025Y-3.25
X6.08Y-2.62
X6.16Y-3.3
X6.19Y-2.81
X6.26Y-3.195
X6.26Y-3.425
X6.27Y-3.015
X6.28Y-3.745
X6.31Y-2.81
X6.41Y-3.075
X6.42Y-2.62
X6.45Y-3.2
X6.45Y-3.295
X6.55Y-2.84
X6.57Y-3.12
X6.57Y-3.48
X6.68Y-3.4
X6.705Y-3.155
X6.715Y-3.73
T2
X6.55Y-2.65
X6.55Y-3.05
X6.55Y-3.3
X6.65Y-3.3
X6.75Y-3.3
X5.95Y-3.25
X5.95Y-3.65
X6.1Y-3.15
X6.1Y-3.25
X6.1Y-3.35
X6.1Y-3.45
X6.4Y-3.15
X6.4Y-3.25
X6.4Y-3.35
X6.4Y-3.45
X6.1Y-2.7
X6.1Y-2.8
X6.1Y-2.9
X6.1Y-3.0
X6.4Y-2.7
X6.4Y-2.8
X6.4Y-2.9
X6.4Y-3.0
X5.95Y-2.65
X5.95Y-3.05
X6.55Y-3.6
X6.65Y-3.6
X6.75Y-3.6
X5.8Y-2.65
X5.8Y-3.05
X5.8Y-3.25
X5.8Y-3.65
X6.7Y-2.65
X6.7Y-3.05
T0
M30
