%TF.GenerationSoftware,KiCad,Pcbnew,(5.1.6)-1*%
%TF.CreationDate,2021-12-03T10:29:43-08:00*%
%TF.ProjectId,Speeduino Dual Opto Board,53706565-6475-4696-9e6f-204475616c20,rev?*%
%TF.SameCoordinates,Original*%
%TF.FileFunction,Copper,L2,Bot*%
%TF.FilePolarity,Positive*%
%FSLAX46Y46*%
G04 Gerber Fmt 4.6, Leading zero omitted, Abs format (unit mm)*
G04 Created by KiCad (PCBNEW (5.1.6)-1) date 2021-12-03 10:29:43*
%MOMM*%
%LPD*%
G01*
G04 APERTURE LIST*
%TA.AperFunction,ComponentPad*%
%ADD10O,1.600000X1.600000*%
%TD*%
%TA.AperFunction,ComponentPad*%
%ADD11R,1.600000X1.600000*%
%TD*%
%TA.AperFunction,ComponentPad*%
%ADD12C,1.600000*%
%TD*%
%TA.AperFunction,ComponentPad*%
%ADD13R,1.500000X1.500000*%
%TD*%
%TA.AperFunction,ComponentPad*%
%ADD14C,1.500000*%
%TD*%
%TA.AperFunction,ViaPad*%
%ADD15C,0.800000*%
%TD*%
%TA.AperFunction,Conductor*%
%ADD16C,0.508000*%
%TD*%
%TA.AperFunction,Conductor*%
%ADD17C,0.254000*%
%TD*%
G04 APERTURE END LIST*
D10*
%TO.P,U1,8*%
%TO.N,Net-(Q1-Pad2)*%
X162560000Y-68580000D03*
%TO.P,U1,4*%
%TO.N,Net-(R2-Pad1)*%
X154940000Y-76200000D03*
%TO.P,U1,7*%
%TO.N,+5V*%
X162560000Y-71120000D03*
%TO.P,U1,3*%
%TO.N,CMP*%
X154940000Y-73660000D03*
%TO.P,U1,6*%
%TO.N,+5V*%
X162560000Y-73660000D03*
%TO.P,U1,2*%
%TO.N,CKP*%
X154940000Y-71120000D03*
%TO.P,U1,5*%
%TO.N,Net-(Q2-Pad2)*%
X162560000Y-76200000D03*
D11*
%TO.P,U1,1*%
%TO.N,Net-(R1-Pad2)*%
X154940000Y-68580000D03*
%TD*%
D10*
%TO.P,R6,2*%
%TO.N,CMP-CPU*%
X147320000Y-92710000D03*
D12*
%TO.P,R6,1*%
%TO.N,GND*%
X147320000Y-82550000D03*
%TD*%
D10*
%TO.P,R5,2*%
%TO.N,CKP-CPU*%
X170180000Y-77470000D03*
D12*
%TO.P,R5,1*%
%TO.N,GND*%
X170180000Y-67310000D03*
%TD*%
D10*
%TO.P,R4,2*%
%TO.N,Net-(Q2-Pad2)*%
X151130000Y-82550000D03*
D12*
%TO.P,R4,1*%
%TO.N,CMP-CPU*%
X151130000Y-92710000D03*
%TD*%
D10*
%TO.P,R3,2*%
%TO.N,Net-(Q1-Pad2)*%
X166370000Y-67310000D03*
D12*
%TO.P,R3,1*%
%TO.N,CKP-CPU*%
X166370000Y-77470000D03*
%TD*%
D10*
%TO.P,R2,2*%
%TO.N,+5V*%
X147320000Y-77470000D03*
D12*
%TO.P,R2,1*%
%TO.N,Net-(R2-Pad1)*%
X147320000Y-67310000D03*
%TD*%
D10*
%TO.P,R1,2*%
%TO.N,Net-(R1-Pad2)*%
X151130000Y-67310000D03*
D12*
%TO.P,R1,1*%
%TO.N,+5V*%
X151130000Y-77470000D03*
%TD*%
D13*
%TO.P,Q2,1*%
%TO.N,CMP-CPU*%
X166370000Y-91440000D03*
D14*
%TO.P,Q2,3*%
%TO.N,+5V*%
X171450000Y-91440000D03*
%TO.P,Q2,2*%
%TO.N,Net-(Q2-Pad2)*%
X168910000Y-91440000D03*
%TD*%
D13*
%TO.P,Q1,1*%
%TO.N,CKP-CPU*%
X166370000Y-83820000D03*
D14*
%TO.P,Q1,3*%
%TO.N,+5V*%
X171450000Y-83820000D03*
%TO.P,Q1,2*%
%TO.N,Net-(Q1-Pad2)*%
X168910000Y-83820000D03*
%TD*%
D10*
%TO.P,J1,8*%
%TO.N,CKP-CPU*%
X162560000Y-80010000D03*
%TO.P,J1,4*%
%TO.N,CMP*%
X154940000Y-87630000D03*
%TO.P,J1,7*%
%TO.N,CMP-CPU*%
X162560000Y-82550000D03*
%TO.P,J1,3*%
%TO.N,Net-(J1-Pad3)*%
X154940000Y-85090000D03*
%TO.P,J1,6*%
%TO.N,GND*%
X162560000Y-85090000D03*
%TO.P,J1,2*%
%TO.N,Net-(J1-Pad2)*%
X154940000Y-82550000D03*
%TO.P,J1,5*%
%TO.N,+5V*%
X162560000Y-87630000D03*
D11*
%TO.P,J1,1*%
%TO.N,CKP*%
X154940000Y-80010000D03*
%TD*%
D15*
%TO.N,GND*%
X163068000Y-66548000D03*
X154432000Y-66548000D03*
X157226000Y-71374000D03*
X160274000Y-71374000D03*
X151130000Y-70104000D03*
X147320000Y-70358000D03*
X147320000Y-74676000D03*
X150876000Y-74676000D03*
X151130000Y-79756000D03*
X147574000Y-79756000D03*
X149352000Y-84582000D03*
X147066000Y-86868000D03*
X159258000Y-76581000D03*
X169672000Y-86360000D03*
X162814000Y-78105000D03*
X153035000Y-82550000D03*
X170561000Y-94742000D03*
X148844000Y-94869000D03*
X159512000Y-95123000D03*
X159004000Y-86995000D03*
X159004000Y-81153000D03*
X166370000Y-72136000D03*
X156464000Y-83820000D03*
X166878000Y-79248000D03*
X163830000Y-81280000D03*
X163830000Y-83693000D03*
X166878000Y-88392000D03*
X170307000Y-80137000D03*
%TD*%
D16*
%TO.N,CMP*%
X154940000Y-73660000D02*
X156210000Y-73660000D01*
X156210000Y-73660000D02*
X157480000Y-74930000D01*
X157480000Y-74930000D02*
X157480000Y-86614000D01*
X156464000Y-87630000D02*
X154940000Y-87630000D01*
X157480000Y-86614000D02*
X156464000Y-87630000D01*
%TO.N,GND*%
X163830000Y-86360000D02*
X162560000Y-85090000D01*
%TO.N,CKP*%
X154940000Y-71120000D02*
X154178000Y-71120000D01*
X154178000Y-71120000D02*
X153416000Y-71882000D01*
X153416000Y-78486000D02*
X154940000Y-80010000D01*
X153416000Y-71882000D02*
X153416000Y-78486000D01*
%TO.N,Net-(Q1-Pad2)*%
X166370000Y-67310000D02*
X168148000Y-69088000D01*
X168148000Y-83058000D02*
X168910000Y-83820000D01*
X168148000Y-69088000D02*
X168148000Y-83058000D01*
%TO.N,Net-(Q2-Pad2)*%
X168910000Y-89027000D02*
X168910000Y-91440000D01*
X164846000Y-77216000D02*
X164846000Y-84963000D01*
X164846000Y-84963000D02*
X168910000Y-89027000D01*
X162560000Y-76200000D02*
X163830000Y-76200000D01*
X163830000Y-76200000D02*
X164846000Y-77216000D01*
%TD*%
D17*
%TO.N,GND*%
G36*
X150450273Y-66038320D02*
G01*
X150215241Y-66195363D01*
X150015363Y-66395241D01*
X149858320Y-66630273D01*
X149750147Y-66891426D01*
X149695000Y-67168665D01*
X149695000Y-67451335D01*
X149750147Y-67728574D01*
X149858320Y-67989727D01*
X150015363Y-68224759D01*
X150215241Y-68424637D01*
X150450273Y-68581680D01*
X150711426Y-68689853D01*
X150988665Y-68745000D01*
X151271335Y-68745000D01*
X151548574Y-68689853D01*
X151809727Y-68581680D01*
X152044759Y-68424637D01*
X152244637Y-68224759D01*
X152401680Y-67989727D01*
X152509853Y-67728574D01*
X152565000Y-67451335D01*
X152565000Y-67168665D01*
X152509853Y-66891426D01*
X152401680Y-66630273D01*
X152244637Y-66395241D01*
X152044759Y-66195363D01*
X151809727Y-66038320D01*
X151567533Y-65938000D01*
X165932467Y-65938000D01*
X165690273Y-66038320D01*
X165455241Y-66195363D01*
X165255363Y-66395241D01*
X165098320Y-66630273D01*
X164990147Y-66891426D01*
X164935000Y-67168665D01*
X164935000Y-67451335D01*
X164990147Y-67728574D01*
X165098320Y-67989727D01*
X165255363Y-68224759D01*
X165455241Y-68424637D01*
X165690273Y-68581680D01*
X165951426Y-68689853D01*
X166228665Y-68745000D01*
X166511335Y-68745000D01*
X166541720Y-68738956D01*
X167259000Y-69456236D01*
X167259001Y-76338152D01*
X167049727Y-76198320D01*
X166788574Y-76090147D01*
X166511335Y-76035000D01*
X166228665Y-76035000D01*
X165951426Y-76090147D01*
X165690273Y-76198320D01*
X165455241Y-76355363D01*
X165348920Y-76461684D01*
X164489499Y-75602264D01*
X164461659Y-75568341D01*
X164326291Y-75457247D01*
X164171851Y-75374697D01*
X164004274Y-75323864D01*
X163873667Y-75311000D01*
X163873660Y-75311000D01*
X163830000Y-75306700D01*
X163786340Y-75311000D01*
X163691849Y-75311000D01*
X163674637Y-75285241D01*
X163474759Y-75085363D01*
X163242241Y-74930000D01*
X163474759Y-74774637D01*
X163674637Y-74574759D01*
X163831680Y-74339727D01*
X163939853Y-74078574D01*
X163995000Y-73801335D01*
X163995000Y-73518665D01*
X163939853Y-73241426D01*
X163831680Y-72980273D01*
X163674637Y-72745241D01*
X163474759Y-72545363D01*
X163242241Y-72390000D01*
X163474759Y-72234637D01*
X163674637Y-72034759D01*
X163831680Y-71799727D01*
X163939853Y-71538574D01*
X163995000Y-71261335D01*
X163995000Y-70978665D01*
X163939853Y-70701426D01*
X163831680Y-70440273D01*
X163674637Y-70205241D01*
X163474759Y-70005363D01*
X163242241Y-69850000D01*
X163474759Y-69694637D01*
X163674637Y-69494759D01*
X163831680Y-69259727D01*
X163939853Y-68998574D01*
X163995000Y-68721335D01*
X163995000Y-68438665D01*
X163939853Y-68161426D01*
X163831680Y-67900273D01*
X163674637Y-67665241D01*
X163474759Y-67465363D01*
X163239727Y-67308320D01*
X162978574Y-67200147D01*
X162701335Y-67145000D01*
X162418665Y-67145000D01*
X162141426Y-67200147D01*
X161880273Y-67308320D01*
X161645241Y-67465363D01*
X161445363Y-67665241D01*
X161288320Y-67900273D01*
X161180147Y-68161426D01*
X161125000Y-68438665D01*
X161125000Y-68721335D01*
X161180147Y-68998574D01*
X161288320Y-69259727D01*
X161445363Y-69494759D01*
X161645241Y-69694637D01*
X161877759Y-69850000D01*
X161645241Y-70005363D01*
X161445363Y-70205241D01*
X161288320Y-70440273D01*
X161180147Y-70701426D01*
X161125000Y-70978665D01*
X161125000Y-71261335D01*
X161180147Y-71538574D01*
X161288320Y-71799727D01*
X161445363Y-72034759D01*
X161645241Y-72234637D01*
X161877759Y-72390000D01*
X161645241Y-72545363D01*
X161445363Y-72745241D01*
X161288320Y-72980273D01*
X161180147Y-73241426D01*
X161125000Y-73518665D01*
X161125000Y-73801335D01*
X161180147Y-74078574D01*
X161288320Y-74339727D01*
X161445363Y-74574759D01*
X161645241Y-74774637D01*
X161877759Y-74930000D01*
X161645241Y-75085363D01*
X161445363Y-75285241D01*
X161288320Y-75520273D01*
X161180147Y-75781426D01*
X161125000Y-76058665D01*
X161125000Y-76341335D01*
X161180147Y-76618574D01*
X161288320Y-76879727D01*
X161445363Y-77114759D01*
X161645241Y-77314637D01*
X161880273Y-77471680D01*
X162141426Y-77579853D01*
X162418665Y-77635000D01*
X162701335Y-77635000D01*
X162978574Y-77579853D01*
X163239727Y-77471680D01*
X163474759Y-77314637D01*
X163581080Y-77208316D01*
X163957000Y-77584236D01*
X163957000Y-79677630D01*
X163939853Y-79591426D01*
X163831680Y-79330273D01*
X163674637Y-79095241D01*
X163474759Y-78895363D01*
X163239727Y-78738320D01*
X162978574Y-78630147D01*
X162701335Y-78575000D01*
X162418665Y-78575000D01*
X162141426Y-78630147D01*
X161880273Y-78738320D01*
X161645241Y-78895363D01*
X161445363Y-79095241D01*
X161288320Y-79330273D01*
X161180147Y-79591426D01*
X161125000Y-79868665D01*
X161125000Y-80151335D01*
X161180147Y-80428574D01*
X161288320Y-80689727D01*
X161445363Y-80924759D01*
X161645241Y-81124637D01*
X161877759Y-81280000D01*
X161645241Y-81435363D01*
X161445363Y-81635241D01*
X161288320Y-81870273D01*
X161180147Y-82131426D01*
X161125000Y-82408665D01*
X161125000Y-82691335D01*
X161180147Y-82968574D01*
X161288320Y-83229727D01*
X161445363Y-83464759D01*
X161645241Y-83664637D01*
X161880273Y-83821680D01*
X161890865Y-83826067D01*
X161704869Y-83937615D01*
X161496481Y-84126586D01*
X161328963Y-84352580D01*
X161208754Y-84606913D01*
X161168096Y-84740961D01*
X161290085Y-84963000D01*
X162433000Y-84963000D01*
X162433000Y-84943000D01*
X162687000Y-84943000D01*
X162687000Y-84963000D01*
X162707000Y-84963000D01*
X162707000Y-85217000D01*
X162687000Y-85217000D01*
X162687000Y-85237000D01*
X162433000Y-85237000D01*
X162433000Y-85217000D01*
X161290085Y-85217000D01*
X161168096Y-85439039D01*
X161208754Y-85573087D01*
X161328963Y-85827420D01*
X161496481Y-86053414D01*
X161704869Y-86242385D01*
X161890865Y-86353933D01*
X161880273Y-86358320D01*
X161645241Y-86515363D01*
X161445363Y-86715241D01*
X161288320Y-86950273D01*
X161180147Y-87211426D01*
X161125000Y-87488665D01*
X161125000Y-87771335D01*
X161180147Y-88048574D01*
X161288320Y-88309727D01*
X161445363Y-88544759D01*
X161645241Y-88744637D01*
X161880273Y-88901680D01*
X162141426Y-89009853D01*
X162418665Y-89065000D01*
X162701335Y-89065000D01*
X162978574Y-89009853D01*
X163239727Y-88901680D01*
X163474759Y-88744637D01*
X163674637Y-88544759D01*
X163831680Y-88309727D01*
X163939853Y-88048574D01*
X163995000Y-87771335D01*
X163995000Y-87488665D01*
X163939853Y-87211426D01*
X163831680Y-86950273D01*
X163674637Y-86715241D01*
X163474759Y-86515363D01*
X163239727Y-86358320D01*
X163229135Y-86353933D01*
X163415131Y-86242385D01*
X163623519Y-86053414D01*
X163791037Y-85827420D01*
X163911246Y-85573087D01*
X163951904Y-85439039D01*
X163829916Y-85217002D01*
X163994049Y-85217002D01*
X164020698Y-85304852D01*
X164103248Y-85459291D01*
X164143694Y-85508574D01*
X164214342Y-85594659D01*
X164248259Y-85622494D01*
X168021000Y-89395236D01*
X168021001Y-90370314D01*
X167834201Y-90557114D01*
X167756445Y-90673483D01*
X167745812Y-90565518D01*
X167709502Y-90445820D01*
X167650537Y-90335506D01*
X167571185Y-90238815D01*
X167474494Y-90159463D01*
X167364180Y-90100498D01*
X167244482Y-90064188D01*
X167120000Y-90051928D01*
X165620000Y-90051928D01*
X165495518Y-90064188D01*
X165375820Y-90100498D01*
X165265506Y-90159463D01*
X165168815Y-90238815D01*
X165089463Y-90335506D01*
X165030498Y-90445820D01*
X164994188Y-90565518D01*
X164981928Y-90690000D01*
X164981928Y-92190000D01*
X164994188Y-92314482D01*
X165030498Y-92434180D01*
X165089463Y-92544494D01*
X165168815Y-92641185D01*
X165265506Y-92720537D01*
X165375820Y-92779502D01*
X165495518Y-92815812D01*
X165620000Y-92828072D01*
X167120000Y-92828072D01*
X167244482Y-92815812D01*
X167364180Y-92779502D01*
X167474494Y-92720537D01*
X167571185Y-92641185D01*
X167650537Y-92544494D01*
X167709502Y-92434180D01*
X167745812Y-92314482D01*
X167756445Y-92206517D01*
X167834201Y-92322886D01*
X168027114Y-92515799D01*
X168253957Y-92667371D01*
X168506011Y-92771775D01*
X168773589Y-92825000D01*
X169046411Y-92825000D01*
X169313989Y-92771775D01*
X169566043Y-92667371D01*
X169792886Y-92515799D01*
X169985799Y-92322886D01*
X170137371Y-92096043D01*
X170180000Y-91993127D01*
X170222629Y-92096043D01*
X170374201Y-92322886D01*
X170567114Y-92515799D01*
X170793957Y-92667371D01*
X171046011Y-92771775D01*
X171313589Y-92825000D01*
X171586411Y-92825000D01*
X171853989Y-92771775D01*
X172060001Y-92686442D01*
X172060001Y-94963572D01*
X172060000Y-94963582D01*
X172060001Y-95860000D01*
X146202000Y-95860000D01*
X146202000Y-93619726D01*
X146205363Y-93624759D01*
X146405241Y-93824637D01*
X146640273Y-93981680D01*
X146901426Y-94089853D01*
X147178665Y-94145000D01*
X147461335Y-94145000D01*
X147738574Y-94089853D01*
X147999727Y-93981680D01*
X148234759Y-93824637D01*
X148434637Y-93624759D01*
X148591680Y-93389727D01*
X148699853Y-93128574D01*
X148755000Y-92851335D01*
X148755000Y-92568665D01*
X149695000Y-92568665D01*
X149695000Y-92851335D01*
X149750147Y-93128574D01*
X149858320Y-93389727D01*
X150015363Y-93624759D01*
X150215241Y-93824637D01*
X150450273Y-93981680D01*
X150711426Y-94089853D01*
X150988665Y-94145000D01*
X151271335Y-94145000D01*
X151548574Y-94089853D01*
X151809727Y-93981680D01*
X152044759Y-93824637D01*
X152244637Y-93624759D01*
X152401680Y-93389727D01*
X152509853Y-93128574D01*
X152565000Y-92851335D01*
X152565000Y-92568665D01*
X152509853Y-92291426D01*
X152401680Y-92030273D01*
X152244637Y-91795241D01*
X152044759Y-91595363D01*
X151809727Y-91438320D01*
X151548574Y-91330147D01*
X151271335Y-91275000D01*
X150988665Y-91275000D01*
X150711426Y-91330147D01*
X150450273Y-91438320D01*
X150215241Y-91595363D01*
X150015363Y-91795241D01*
X149858320Y-92030273D01*
X149750147Y-92291426D01*
X149695000Y-92568665D01*
X148755000Y-92568665D01*
X148699853Y-92291426D01*
X148591680Y-92030273D01*
X148434637Y-91795241D01*
X148234759Y-91595363D01*
X147999727Y-91438320D01*
X147738574Y-91330147D01*
X147461335Y-91275000D01*
X147178665Y-91275000D01*
X146901426Y-91330147D01*
X146640273Y-91438320D01*
X146405241Y-91595363D01*
X146205363Y-91795241D01*
X146202000Y-91800274D01*
X146202000Y-83542702D01*
X146506903Y-83542702D01*
X146578486Y-83786671D01*
X146833996Y-83907571D01*
X147108184Y-83976300D01*
X147390512Y-83990217D01*
X147670130Y-83948787D01*
X147936292Y-83853603D01*
X148061514Y-83786671D01*
X148133097Y-83542702D01*
X147320000Y-82729605D01*
X146506903Y-83542702D01*
X146202000Y-83542702D01*
X146202000Y-83326333D01*
X146327298Y-83363097D01*
X147140395Y-82550000D01*
X147499605Y-82550000D01*
X148312702Y-83363097D01*
X148556671Y-83291514D01*
X148677571Y-83036004D01*
X148746300Y-82761816D01*
X148760217Y-82479488D01*
X148749724Y-82408665D01*
X149695000Y-82408665D01*
X149695000Y-82691335D01*
X149750147Y-82968574D01*
X149858320Y-83229727D01*
X150015363Y-83464759D01*
X150215241Y-83664637D01*
X150450273Y-83821680D01*
X150711426Y-83929853D01*
X150988665Y-83985000D01*
X151271335Y-83985000D01*
X151548574Y-83929853D01*
X151809727Y-83821680D01*
X152044759Y-83664637D01*
X152244637Y-83464759D01*
X152401680Y-83229727D01*
X152509853Y-82968574D01*
X152565000Y-82691335D01*
X152565000Y-82408665D01*
X152509853Y-82131426D01*
X152401680Y-81870273D01*
X152244637Y-81635241D01*
X152044759Y-81435363D01*
X151809727Y-81278320D01*
X151548574Y-81170147D01*
X151271335Y-81115000D01*
X150988665Y-81115000D01*
X150711426Y-81170147D01*
X150450273Y-81278320D01*
X150215241Y-81435363D01*
X150015363Y-81635241D01*
X149858320Y-81870273D01*
X149750147Y-82131426D01*
X149695000Y-82408665D01*
X148749724Y-82408665D01*
X148718787Y-82199870D01*
X148623603Y-81933708D01*
X148556671Y-81808486D01*
X148312702Y-81736903D01*
X147499605Y-82550000D01*
X147140395Y-82550000D01*
X146327298Y-81736903D01*
X146202000Y-81773667D01*
X146202000Y-81557298D01*
X146506903Y-81557298D01*
X147320000Y-82370395D01*
X148133097Y-81557298D01*
X148061514Y-81313329D01*
X147806004Y-81192429D01*
X147531816Y-81123700D01*
X147249488Y-81109783D01*
X146969870Y-81151213D01*
X146703708Y-81246397D01*
X146578486Y-81313329D01*
X146506903Y-81557298D01*
X146202000Y-81557298D01*
X146202000Y-78379726D01*
X146205363Y-78384759D01*
X146405241Y-78584637D01*
X146640273Y-78741680D01*
X146901426Y-78849853D01*
X147178665Y-78905000D01*
X147461335Y-78905000D01*
X147738574Y-78849853D01*
X147999727Y-78741680D01*
X148234759Y-78584637D01*
X148434637Y-78384759D01*
X148591680Y-78149727D01*
X148699853Y-77888574D01*
X148755000Y-77611335D01*
X148755000Y-77328665D01*
X149695000Y-77328665D01*
X149695000Y-77611335D01*
X149750147Y-77888574D01*
X149858320Y-78149727D01*
X150015363Y-78384759D01*
X150215241Y-78584637D01*
X150450273Y-78741680D01*
X150711426Y-78849853D01*
X150988665Y-78905000D01*
X151271335Y-78905000D01*
X151548574Y-78849853D01*
X151809727Y-78741680D01*
X152044759Y-78584637D01*
X152244637Y-78384759D01*
X152401680Y-78149727D01*
X152509853Y-77888574D01*
X152527001Y-77802367D01*
X152527001Y-78442330D01*
X152522700Y-78486000D01*
X152539864Y-78660274D01*
X152590698Y-78827852D01*
X152626784Y-78895363D01*
X152673248Y-78982291D01*
X152784342Y-79117659D01*
X152818259Y-79145494D01*
X153501928Y-79829163D01*
X153501928Y-80810000D01*
X153514188Y-80934482D01*
X153550498Y-81054180D01*
X153609463Y-81164494D01*
X153688815Y-81261185D01*
X153785506Y-81340537D01*
X153895820Y-81399502D01*
X154015518Y-81435812D01*
X154023961Y-81436643D01*
X153825363Y-81635241D01*
X153668320Y-81870273D01*
X153560147Y-82131426D01*
X153505000Y-82408665D01*
X153505000Y-82691335D01*
X153560147Y-82968574D01*
X153668320Y-83229727D01*
X153825363Y-83464759D01*
X154025241Y-83664637D01*
X154257759Y-83820000D01*
X154025241Y-83975363D01*
X153825363Y-84175241D01*
X153668320Y-84410273D01*
X153560147Y-84671426D01*
X153505000Y-84948665D01*
X153505000Y-85231335D01*
X153560147Y-85508574D01*
X153668320Y-85769727D01*
X153825363Y-86004759D01*
X154025241Y-86204637D01*
X154257759Y-86360000D01*
X154025241Y-86515363D01*
X153825363Y-86715241D01*
X153668320Y-86950273D01*
X153560147Y-87211426D01*
X153505000Y-87488665D01*
X153505000Y-87771335D01*
X153560147Y-88048574D01*
X153668320Y-88309727D01*
X153825363Y-88544759D01*
X154025241Y-88744637D01*
X154260273Y-88901680D01*
X154521426Y-89009853D01*
X154798665Y-89065000D01*
X155081335Y-89065000D01*
X155358574Y-89009853D01*
X155619727Y-88901680D01*
X155854759Y-88744637D01*
X156054637Y-88544759D01*
X156071849Y-88519000D01*
X156420340Y-88519000D01*
X156464000Y-88523300D01*
X156507660Y-88519000D01*
X156507667Y-88519000D01*
X156638274Y-88506136D01*
X156805851Y-88455303D01*
X156960291Y-88372753D01*
X157095659Y-88261659D01*
X157123499Y-88227736D01*
X158077741Y-87273495D01*
X158111659Y-87245659D01*
X158139754Y-87211426D01*
X158222752Y-87110292D01*
X158305302Y-86955853D01*
X158356136Y-86788275D01*
X158363329Y-86715241D01*
X158369000Y-86657667D01*
X158369000Y-86657660D01*
X158373300Y-86614000D01*
X158369000Y-86570340D01*
X158369000Y-74973659D01*
X158373300Y-74929999D01*
X158369000Y-74886334D01*
X158369000Y-74886333D01*
X158357999Y-74774637D01*
X158356136Y-74755724D01*
X158305302Y-74588147D01*
X158277501Y-74536136D01*
X158222753Y-74433709D01*
X158111659Y-74298341D01*
X158077743Y-74270507D01*
X156869499Y-73062264D01*
X156841659Y-73028341D01*
X156706291Y-72917247D01*
X156551851Y-72834697D01*
X156384274Y-72783864D01*
X156253667Y-72771000D01*
X156253660Y-72771000D01*
X156210000Y-72766700D01*
X156166340Y-72771000D01*
X156071849Y-72771000D01*
X156054637Y-72745241D01*
X155854759Y-72545363D01*
X155622241Y-72390000D01*
X155854759Y-72234637D01*
X156054637Y-72034759D01*
X156211680Y-71799727D01*
X156319853Y-71538574D01*
X156375000Y-71261335D01*
X156375000Y-70978665D01*
X156319853Y-70701426D01*
X156211680Y-70440273D01*
X156054637Y-70205241D01*
X155856039Y-70006643D01*
X155864482Y-70005812D01*
X155984180Y-69969502D01*
X156094494Y-69910537D01*
X156191185Y-69831185D01*
X156270537Y-69734494D01*
X156329502Y-69624180D01*
X156365812Y-69504482D01*
X156378072Y-69380000D01*
X156378072Y-67780000D01*
X156365812Y-67655518D01*
X156329502Y-67535820D01*
X156270537Y-67425506D01*
X156191185Y-67328815D01*
X156094494Y-67249463D01*
X155984180Y-67190498D01*
X155864482Y-67154188D01*
X155740000Y-67141928D01*
X154140000Y-67141928D01*
X154015518Y-67154188D01*
X153895820Y-67190498D01*
X153785506Y-67249463D01*
X153688815Y-67328815D01*
X153609463Y-67425506D01*
X153550498Y-67535820D01*
X153514188Y-67655518D01*
X153501928Y-67780000D01*
X153501928Y-69380000D01*
X153514188Y-69504482D01*
X153550498Y-69624180D01*
X153609463Y-69734494D01*
X153688815Y-69831185D01*
X153785506Y-69910537D01*
X153895820Y-69969502D01*
X154015518Y-70005812D01*
X154023961Y-70006643D01*
X153825363Y-70205241D01*
X153726390Y-70353364D01*
X153681709Y-70377247D01*
X153546341Y-70488341D01*
X153518505Y-70522259D01*
X152818263Y-71222501D01*
X152784341Y-71250341D01*
X152673247Y-71385710D01*
X152590697Y-71540150D01*
X152539864Y-71707727D01*
X152527000Y-71838334D01*
X152527000Y-71838340D01*
X152522700Y-71882000D01*
X152527000Y-71925660D01*
X152527001Y-77137633D01*
X152509853Y-77051426D01*
X152401680Y-76790273D01*
X152244637Y-76555241D01*
X152044759Y-76355363D01*
X151809727Y-76198320D01*
X151548574Y-76090147D01*
X151271335Y-76035000D01*
X150988665Y-76035000D01*
X150711426Y-76090147D01*
X150450273Y-76198320D01*
X150215241Y-76355363D01*
X150015363Y-76555241D01*
X149858320Y-76790273D01*
X149750147Y-77051426D01*
X149695000Y-77328665D01*
X148755000Y-77328665D01*
X148699853Y-77051426D01*
X148591680Y-76790273D01*
X148434637Y-76555241D01*
X148234759Y-76355363D01*
X147999727Y-76198320D01*
X147738574Y-76090147D01*
X147461335Y-76035000D01*
X147178665Y-76035000D01*
X146901426Y-76090147D01*
X146640273Y-76198320D01*
X146405241Y-76355363D01*
X146205363Y-76555241D01*
X146202000Y-76560274D01*
X146202000Y-68219726D01*
X146205363Y-68224759D01*
X146405241Y-68424637D01*
X146640273Y-68581680D01*
X146901426Y-68689853D01*
X147178665Y-68745000D01*
X147461335Y-68745000D01*
X147738574Y-68689853D01*
X147999727Y-68581680D01*
X148234759Y-68424637D01*
X148434637Y-68224759D01*
X148591680Y-67989727D01*
X148699853Y-67728574D01*
X148755000Y-67451335D01*
X148755000Y-67168665D01*
X148699853Y-66891426D01*
X148591680Y-66630273D01*
X148434637Y-66395241D01*
X148234759Y-66195363D01*
X147999727Y-66038320D01*
X147757533Y-65938000D01*
X150692467Y-65938000D01*
X150450273Y-66038320D01*
G37*
X150450273Y-66038320D02*
X150215241Y-66195363D01*
X150015363Y-66395241D01*
X149858320Y-66630273D01*
X149750147Y-66891426D01*
X149695000Y-67168665D01*
X149695000Y-67451335D01*
X149750147Y-67728574D01*
X149858320Y-67989727D01*
X150015363Y-68224759D01*
X150215241Y-68424637D01*
X150450273Y-68581680D01*
X150711426Y-68689853D01*
X150988665Y-68745000D01*
X151271335Y-68745000D01*
X151548574Y-68689853D01*
X151809727Y-68581680D01*
X152044759Y-68424637D01*
X152244637Y-68224759D01*
X152401680Y-67989727D01*
X152509853Y-67728574D01*
X152565000Y-67451335D01*
X152565000Y-67168665D01*
X152509853Y-66891426D01*
X152401680Y-66630273D01*
X152244637Y-66395241D01*
X152044759Y-66195363D01*
X151809727Y-66038320D01*
X151567533Y-65938000D01*
X165932467Y-65938000D01*
X165690273Y-66038320D01*
X165455241Y-66195363D01*
X165255363Y-66395241D01*
X165098320Y-66630273D01*
X164990147Y-66891426D01*
X164935000Y-67168665D01*
X164935000Y-67451335D01*
X164990147Y-67728574D01*
X165098320Y-67989727D01*
X165255363Y-68224759D01*
X165455241Y-68424637D01*
X165690273Y-68581680D01*
X165951426Y-68689853D01*
X166228665Y-68745000D01*
X166511335Y-68745000D01*
X166541720Y-68738956D01*
X167259000Y-69456236D01*
X167259001Y-76338152D01*
X167049727Y-76198320D01*
X166788574Y-76090147D01*
X166511335Y-76035000D01*
X166228665Y-76035000D01*
X165951426Y-76090147D01*
X165690273Y-76198320D01*
X165455241Y-76355363D01*
X165348920Y-76461684D01*
X164489499Y-75602264D01*
X164461659Y-75568341D01*
X164326291Y-75457247D01*
X164171851Y-75374697D01*
X164004274Y-75323864D01*
X163873667Y-75311000D01*
X163873660Y-75311000D01*
X163830000Y-75306700D01*
X163786340Y-75311000D01*
X163691849Y-75311000D01*
X163674637Y-75285241D01*
X163474759Y-75085363D01*
X163242241Y-74930000D01*
X163474759Y-74774637D01*
X163674637Y-74574759D01*
X163831680Y-74339727D01*
X163939853Y-74078574D01*
X163995000Y-73801335D01*
X163995000Y-73518665D01*
X163939853Y-73241426D01*
X163831680Y-72980273D01*
X163674637Y-72745241D01*
X163474759Y-72545363D01*
X163242241Y-72390000D01*
X163474759Y-72234637D01*
X163674637Y-72034759D01*
X163831680Y-71799727D01*
X163939853Y-71538574D01*
X163995000Y-71261335D01*
X163995000Y-70978665D01*
X163939853Y-70701426D01*
X163831680Y-70440273D01*
X163674637Y-70205241D01*
X163474759Y-70005363D01*
X163242241Y-69850000D01*
X163474759Y-69694637D01*
X163674637Y-69494759D01*
X163831680Y-69259727D01*
X163939853Y-68998574D01*
X163995000Y-68721335D01*
X163995000Y-68438665D01*
X163939853Y-68161426D01*
X163831680Y-67900273D01*
X163674637Y-67665241D01*
X163474759Y-67465363D01*
X163239727Y-67308320D01*
X162978574Y-67200147D01*
X162701335Y-67145000D01*
X162418665Y-67145000D01*
X162141426Y-67200147D01*
X161880273Y-67308320D01*
X161645241Y-67465363D01*
X161445363Y-67665241D01*
X161288320Y-67900273D01*
X161180147Y-68161426D01*
X161125000Y-68438665D01*
X161125000Y-68721335D01*
X161180147Y-68998574D01*
X161288320Y-69259727D01*
X161445363Y-69494759D01*
X161645241Y-69694637D01*
X161877759Y-69850000D01*
X161645241Y-70005363D01*
X161445363Y-70205241D01*
X161288320Y-70440273D01*
X161180147Y-70701426D01*
X161125000Y-70978665D01*
X161125000Y-71261335D01*
X161180147Y-71538574D01*
X161288320Y-71799727D01*
X161445363Y-72034759D01*
X161645241Y-72234637D01*
X161877759Y-72390000D01*
X161645241Y-72545363D01*
X161445363Y-72745241D01*
X161288320Y-72980273D01*
X161180147Y-73241426D01*
X161125000Y-73518665D01*
X161125000Y-73801335D01*
X161180147Y-74078574D01*
X161288320Y-74339727D01*
X161445363Y-74574759D01*
X161645241Y-74774637D01*
X161877759Y-74930000D01*
X161645241Y-75085363D01*
X161445363Y-75285241D01*
X161288320Y-75520273D01*
X161180147Y-75781426D01*
X161125000Y-76058665D01*
X161125000Y-76341335D01*
X161180147Y-76618574D01*
X161288320Y-76879727D01*
X161445363Y-77114759D01*
X161645241Y-77314637D01*
X161880273Y-77471680D01*
X162141426Y-77579853D01*
X162418665Y-77635000D01*
X162701335Y-77635000D01*
X162978574Y-77579853D01*
X163239727Y-77471680D01*
X163474759Y-77314637D01*
X163581080Y-77208316D01*
X163957000Y-77584236D01*
X163957000Y-79677630D01*
X163939853Y-79591426D01*
X163831680Y-79330273D01*
X163674637Y-79095241D01*
X163474759Y-78895363D01*
X163239727Y-78738320D01*
X162978574Y-78630147D01*
X162701335Y-78575000D01*
X162418665Y-78575000D01*
X162141426Y-78630147D01*
X161880273Y-78738320D01*
X161645241Y-78895363D01*
X161445363Y-79095241D01*
X161288320Y-79330273D01*
X161180147Y-79591426D01*
X161125000Y-79868665D01*
X161125000Y-80151335D01*
X161180147Y-80428574D01*
X161288320Y-80689727D01*
X161445363Y-80924759D01*
X161645241Y-81124637D01*
X161877759Y-81280000D01*
X161645241Y-81435363D01*
X161445363Y-81635241D01*
X161288320Y-81870273D01*
X161180147Y-82131426D01*
X161125000Y-82408665D01*
X161125000Y-82691335D01*
X161180147Y-82968574D01*
X161288320Y-83229727D01*
X161445363Y-83464759D01*
X161645241Y-83664637D01*
X161880273Y-83821680D01*
X161890865Y-83826067D01*
X161704869Y-83937615D01*
X161496481Y-84126586D01*
X161328963Y-84352580D01*
X161208754Y-84606913D01*
X161168096Y-84740961D01*
X161290085Y-84963000D01*
X162433000Y-84963000D01*
X162433000Y-84943000D01*
X162687000Y-84943000D01*
X162687000Y-84963000D01*
X162707000Y-84963000D01*
X162707000Y-85217000D01*
X162687000Y-85217000D01*
X162687000Y-85237000D01*
X162433000Y-85237000D01*
X162433000Y-85217000D01*
X161290085Y-85217000D01*
X161168096Y-85439039D01*
X161208754Y-85573087D01*
X161328963Y-85827420D01*
X161496481Y-86053414D01*
X161704869Y-86242385D01*
X161890865Y-86353933D01*
X161880273Y-86358320D01*
X161645241Y-86515363D01*
X161445363Y-86715241D01*
X161288320Y-86950273D01*
X161180147Y-87211426D01*
X161125000Y-87488665D01*
X161125000Y-87771335D01*
X161180147Y-88048574D01*
X161288320Y-88309727D01*
X161445363Y-88544759D01*
X161645241Y-88744637D01*
X161880273Y-88901680D01*
X162141426Y-89009853D01*
X162418665Y-89065000D01*
X162701335Y-89065000D01*
X162978574Y-89009853D01*
X163239727Y-88901680D01*
X163474759Y-88744637D01*
X163674637Y-88544759D01*
X163831680Y-88309727D01*
X163939853Y-88048574D01*
X163995000Y-87771335D01*
X163995000Y-87488665D01*
X163939853Y-87211426D01*
X163831680Y-86950273D01*
X163674637Y-86715241D01*
X163474759Y-86515363D01*
X163239727Y-86358320D01*
X163229135Y-86353933D01*
X163415131Y-86242385D01*
X163623519Y-86053414D01*
X163791037Y-85827420D01*
X163911246Y-85573087D01*
X163951904Y-85439039D01*
X163829916Y-85217002D01*
X163994049Y-85217002D01*
X164020698Y-85304852D01*
X164103248Y-85459291D01*
X164143694Y-85508574D01*
X164214342Y-85594659D01*
X164248259Y-85622494D01*
X168021000Y-89395236D01*
X168021001Y-90370314D01*
X167834201Y-90557114D01*
X167756445Y-90673483D01*
X167745812Y-90565518D01*
X167709502Y-90445820D01*
X167650537Y-90335506D01*
X167571185Y-90238815D01*
X167474494Y-90159463D01*
X167364180Y-90100498D01*
X167244482Y-90064188D01*
X167120000Y-90051928D01*
X165620000Y-90051928D01*
X165495518Y-90064188D01*
X165375820Y-90100498D01*
X165265506Y-90159463D01*
X165168815Y-90238815D01*
X165089463Y-90335506D01*
X165030498Y-90445820D01*
X164994188Y-90565518D01*
X164981928Y-90690000D01*
X164981928Y-92190000D01*
X164994188Y-92314482D01*
X165030498Y-92434180D01*
X165089463Y-92544494D01*
X165168815Y-92641185D01*
X165265506Y-92720537D01*
X165375820Y-92779502D01*
X165495518Y-92815812D01*
X165620000Y-92828072D01*
X167120000Y-92828072D01*
X167244482Y-92815812D01*
X167364180Y-92779502D01*
X167474494Y-92720537D01*
X167571185Y-92641185D01*
X167650537Y-92544494D01*
X167709502Y-92434180D01*
X167745812Y-92314482D01*
X167756445Y-92206517D01*
X167834201Y-92322886D01*
X168027114Y-92515799D01*
X168253957Y-92667371D01*
X168506011Y-92771775D01*
X168773589Y-92825000D01*
X169046411Y-92825000D01*
X169313989Y-92771775D01*
X169566043Y-92667371D01*
X169792886Y-92515799D01*
X169985799Y-92322886D01*
X170137371Y-92096043D01*
X170180000Y-91993127D01*
X170222629Y-92096043D01*
X170374201Y-92322886D01*
X170567114Y-92515799D01*
X170793957Y-92667371D01*
X171046011Y-92771775D01*
X171313589Y-92825000D01*
X171586411Y-92825000D01*
X171853989Y-92771775D01*
X172060001Y-92686442D01*
X172060001Y-94963572D01*
X172060000Y-94963582D01*
X172060001Y-95860000D01*
X146202000Y-95860000D01*
X146202000Y-93619726D01*
X146205363Y-93624759D01*
X146405241Y-93824637D01*
X146640273Y-93981680D01*
X146901426Y-94089853D01*
X147178665Y-94145000D01*
X147461335Y-94145000D01*
X147738574Y-94089853D01*
X147999727Y-93981680D01*
X148234759Y-93824637D01*
X148434637Y-93624759D01*
X148591680Y-93389727D01*
X148699853Y-93128574D01*
X148755000Y-92851335D01*
X148755000Y-92568665D01*
X149695000Y-92568665D01*
X149695000Y-92851335D01*
X149750147Y-93128574D01*
X149858320Y-93389727D01*
X150015363Y-93624759D01*
X150215241Y-93824637D01*
X150450273Y-93981680D01*
X150711426Y-94089853D01*
X150988665Y-94145000D01*
X151271335Y-94145000D01*
X151548574Y-94089853D01*
X151809727Y-93981680D01*
X152044759Y-93824637D01*
X152244637Y-93624759D01*
X152401680Y-93389727D01*
X152509853Y-93128574D01*
X152565000Y-92851335D01*
X152565000Y-92568665D01*
X152509853Y-92291426D01*
X152401680Y-92030273D01*
X152244637Y-91795241D01*
X152044759Y-91595363D01*
X151809727Y-91438320D01*
X151548574Y-91330147D01*
X151271335Y-91275000D01*
X150988665Y-91275000D01*
X150711426Y-91330147D01*
X150450273Y-91438320D01*
X150215241Y-91595363D01*
X150015363Y-91795241D01*
X149858320Y-92030273D01*
X149750147Y-92291426D01*
X149695000Y-92568665D01*
X148755000Y-92568665D01*
X148699853Y-92291426D01*
X148591680Y-92030273D01*
X148434637Y-91795241D01*
X148234759Y-91595363D01*
X147999727Y-91438320D01*
X147738574Y-91330147D01*
X147461335Y-91275000D01*
X147178665Y-91275000D01*
X146901426Y-91330147D01*
X146640273Y-91438320D01*
X146405241Y-91595363D01*
X146205363Y-91795241D01*
X146202000Y-91800274D01*
X146202000Y-83542702D01*
X146506903Y-83542702D01*
X146578486Y-83786671D01*
X146833996Y-83907571D01*
X147108184Y-83976300D01*
X147390512Y-83990217D01*
X147670130Y-83948787D01*
X147936292Y-83853603D01*
X148061514Y-83786671D01*
X148133097Y-83542702D01*
X147320000Y-82729605D01*
X146506903Y-83542702D01*
X146202000Y-83542702D01*
X146202000Y-83326333D01*
X146327298Y-83363097D01*
X147140395Y-82550000D01*
X147499605Y-82550000D01*
X148312702Y-83363097D01*
X148556671Y-83291514D01*
X148677571Y-83036004D01*
X148746300Y-82761816D01*
X148760217Y-82479488D01*
X148749724Y-82408665D01*
X149695000Y-82408665D01*
X149695000Y-82691335D01*
X149750147Y-82968574D01*
X149858320Y-83229727D01*
X150015363Y-83464759D01*
X150215241Y-83664637D01*
X150450273Y-83821680D01*
X150711426Y-83929853D01*
X150988665Y-83985000D01*
X151271335Y-83985000D01*
X151548574Y-83929853D01*
X151809727Y-83821680D01*
X152044759Y-83664637D01*
X152244637Y-83464759D01*
X152401680Y-83229727D01*
X152509853Y-82968574D01*
X152565000Y-82691335D01*
X152565000Y-82408665D01*
X152509853Y-82131426D01*
X152401680Y-81870273D01*
X152244637Y-81635241D01*
X152044759Y-81435363D01*
X151809727Y-81278320D01*
X151548574Y-81170147D01*
X151271335Y-81115000D01*
X150988665Y-81115000D01*
X150711426Y-81170147D01*
X150450273Y-81278320D01*
X150215241Y-81435363D01*
X150015363Y-81635241D01*
X149858320Y-81870273D01*
X149750147Y-82131426D01*
X149695000Y-82408665D01*
X148749724Y-82408665D01*
X148718787Y-82199870D01*
X148623603Y-81933708D01*
X148556671Y-81808486D01*
X148312702Y-81736903D01*
X147499605Y-82550000D01*
X147140395Y-82550000D01*
X146327298Y-81736903D01*
X146202000Y-81773667D01*
X146202000Y-81557298D01*
X146506903Y-81557298D01*
X147320000Y-82370395D01*
X148133097Y-81557298D01*
X148061514Y-81313329D01*
X147806004Y-81192429D01*
X147531816Y-81123700D01*
X147249488Y-81109783D01*
X146969870Y-81151213D01*
X146703708Y-81246397D01*
X146578486Y-81313329D01*
X146506903Y-81557298D01*
X146202000Y-81557298D01*
X146202000Y-78379726D01*
X146205363Y-78384759D01*
X146405241Y-78584637D01*
X146640273Y-78741680D01*
X146901426Y-78849853D01*
X147178665Y-78905000D01*
X147461335Y-78905000D01*
X147738574Y-78849853D01*
X147999727Y-78741680D01*
X148234759Y-78584637D01*
X148434637Y-78384759D01*
X148591680Y-78149727D01*
X148699853Y-77888574D01*
X148755000Y-77611335D01*
X148755000Y-77328665D01*
X149695000Y-77328665D01*
X149695000Y-77611335D01*
X149750147Y-77888574D01*
X149858320Y-78149727D01*
X150015363Y-78384759D01*
X150215241Y-78584637D01*
X150450273Y-78741680D01*
X150711426Y-78849853D01*
X150988665Y-78905000D01*
X151271335Y-78905000D01*
X151548574Y-78849853D01*
X151809727Y-78741680D01*
X152044759Y-78584637D01*
X152244637Y-78384759D01*
X152401680Y-78149727D01*
X152509853Y-77888574D01*
X152527001Y-77802367D01*
X152527001Y-78442330D01*
X152522700Y-78486000D01*
X152539864Y-78660274D01*
X152590698Y-78827852D01*
X152626784Y-78895363D01*
X152673248Y-78982291D01*
X152784342Y-79117659D01*
X152818259Y-79145494D01*
X153501928Y-79829163D01*
X153501928Y-80810000D01*
X153514188Y-80934482D01*
X153550498Y-81054180D01*
X153609463Y-81164494D01*
X153688815Y-81261185D01*
X153785506Y-81340537D01*
X153895820Y-81399502D01*
X154015518Y-81435812D01*
X154023961Y-81436643D01*
X153825363Y-81635241D01*
X153668320Y-81870273D01*
X153560147Y-82131426D01*
X153505000Y-82408665D01*
X153505000Y-82691335D01*
X153560147Y-82968574D01*
X153668320Y-83229727D01*
X153825363Y-83464759D01*
X154025241Y-83664637D01*
X154257759Y-83820000D01*
X154025241Y-83975363D01*
X153825363Y-84175241D01*
X153668320Y-84410273D01*
X153560147Y-84671426D01*
X153505000Y-84948665D01*
X153505000Y-85231335D01*
X153560147Y-85508574D01*
X153668320Y-85769727D01*
X153825363Y-86004759D01*
X154025241Y-86204637D01*
X154257759Y-86360000D01*
X154025241Y-86515363D01*
X153825363Y-86715241D01*
X153668320Y-86950273D01*
X153560147Y-87211426D01*
X153505000Y-87488665D01*
X153505000Y-87771335D01*
X153560147Y-88048574D01*
X153668320Y-88309727D01*
X153825363Y-88544759D01*
X154025241Y-88744637D01*
X154260273Y-88901680D01*
X154521426Y-89009853D01*
X154798665Y-89065000D01*
X155081335Y-89065000D01*
X155358574Y-89009853D01*
X155619727Y-88901680D01*
X155854759Y-88744637D01*
X156054637Y-88544759D01*
X156071849Y-88519000D01*
X156420340Y-88519000D01*
X156464000Y-88523300D01*
X156507660Y-88519000D01*
X156507667Y-88519000D01*
X156638274Y-88506136D01*
X156805851Y-88455303D01*
X156960291Y-88372753D01*
X157095659Y-88261659D01*
X157123499Y-88227736D01*
X158077741Y-87273495D01*
X158111659Y-87245659D01*
X158139754Y-87211426D01*
X158222752Y-87110292D01*
X158305302Y-86955853D01*
X158356136Y-86788275D01*
X158363329Y-86715241D01*
X158369000Y-86657667D01*
X158369000Y-86657660D01*
X158373300Y-86614000D01*
X158369000Y-86570340D01*
X158369000Y-74973659D01*
X158373300Y-74929999D01*
X158369000Y-74886334D01*
X158369000Y-74886333D01*
X158357999Y-74774637D01*
X158356136Y-74755724D01*
X158305302Y-74588147D01*
X158277501Y-74536136D01*
X158222753Y-74433709D01*
X158111659Y-74298341D01*
X158077743Y-74270507D01*
X156869499Y-73062264D01*
X156841659Y-73028341D01*
X156706291Y-72917247D01*
X156551851Y-72834697D01*
X156384274Y-72783864D01*
X156253667Y-72771000D01*
X156253660Y-72771000D01*
X156210000Y-72766700D01*
X156166340Y-72771000D01*
X156071849Y-72771000D01*
X156054637Y-72745241D01*
X155854759Y-72545363D01*
X155622241Y-72390000D01*
X155854759Y-72234637D01*
X156054637Y-72034759D01*
X156211680Y-71799727D01*
X156319853Y-71538574D01*
X156375000Y-71261335D01*
X156375000Y-70978665D01*
X156319853Y-70701426D01*
X156211680Y-70440273D01*
X156054637Y-70205241D01*
X155856039Y-70006643D01*
X155864482Y-70005812D01*
X155984180Y-69969502D01*
X156094494Y-69910537D01*
X156191185Y-69831185D01*
X156270537Y-69734494D01*
X156329502Y-69624180D01*
X156365812Y-69504482D01*
X156378072Y-69380000D01*
X156378072Y-67780000D01*
X156365812Y-67655518D01*
X156329502Y-67535820D01*
X156270537Y-67425506D01*
X156191185Y-67328815D01*
X156094494Y-67249463D01*
X155984180Y-67190498D01*
X155864482Y-67154188D01*
X155740000Y-67141928D01*
X154140000Y-67141928D01*
X154015518Y-67154188D01*
X153895820Y-67190498D01*
X153785506Y-67249463D01*
X153688815Y-67328815D01*
X153609463Y-67425506D01*
X153550498Y-67535820D01*
X153514188Y-67655518D01*
X153501928Y-67780000D01*
X153501928Y-69380000D01*
X153514188Y-69504482D01*
X153550498Y-69624180D01*
X153609463Y-69734494D01*
X153688815Y-69831185D01*
X153785506Y-69910537D01*
X153895820Y-69969502D01*
X154015518Y-70005812D01*
X154023961Y-70006643D01*
X153825363Y-70205241D01*
X153726390Y-70353364D01*
X153681709Y-70377247D01*
X153546341Y-70488341D01*
X153518505Y-70522259D01*
X152818263Y-71222501D01*
X152784341Y-71250341D01*
X152673247Y-71385710D01*
X152590697Y-71540150D01*
X152539864Y-71707727D01*
X152527000Y-71838334D01*
X152527000Y-71838340D01*
X152522700Y-71882000D01*
X152527000Y-71925660D01*
X152527001Y-77137633D01*
X152509853Y-77051426D01*
X152401680Y-76790273D01*
X152244637Y-76555241D01*
X152044759Y-76355363D01*
X151809727Y-76198320D01*
X151548574Y-76090147D01*
X151271335Y-76035000D01*
X150988665Y-76035000D01*
X150711426Y-76090147D01*
X150450273Y-76198320D01*
X150215241Y-76355363D01*
X150015363Y-76555241D01*
X149858320Y-76790273D01*
X149750147Y-77051426D01*
X149695000Y-77328665D01*
X148755000Y-77328665D01*
X148699853Y-77051426D01*
X148591680Y-76790273D01*
X148434637Y-76555241D01*
X148234759Y-76355363D01*
X147999727Y-76198320D01*
X147738574Y-76090147D01*
X147461335Y-76035000D01*
X147178665Y-76035000D01*
X146901426Y-76090147D01*
X146640273Y-76198320D01*
X146405241Y-76355363D01*
X146205363Y-76555241D01*
X146202000Y-76560274D01*
X146202000Y-68219726D01*
X146205363Y-68224759D01*
X146405241Y-68424637D01*
X146640273Y-68581680D01*
X146901426Y-68689853D01*
X147178665Y-68745000D01*
X147461335Y-68745000D01*
X147738574Y-68689853D01*
X147999727Y-68581680D01*
X148234759Y-68424637D01*
X148434637Y-68224759D01*
X148591680Y-67989727D01*
X148699853Y-67728574D01*
X148755000Y-67451335D01*
X148755000Y-67168665D01*
X148699853Y-66891426D01*
X148591680Y-66630273D01*
X148434637Y-66395241D01*
X148234759Y-66195363D01*
X147999727Y-66038320D01*
X147757533Y-65938000D01*
X150692467Y-65938000D01*
X150450273Y-66038320D01*
G36*
X156591000Y-75298236D02*
G01*
X156591001Y-86245763D01*
X156095765Y-86741000D01*
X156071849Y-86741000D01*
X156054637Y-86715241D01*
X155854759Y-86515363D01*
X155622241Y-86360000D01*
X155854759Y-86204637D01*
X156054637Y-86004759D01*
X156211680Y-85769727D01*
X156319853Y-85508574D01*
X156375000Y-85231335D01*
X156375000Y-84948665D01*
X156319853Y-84671426D01*
X156211680Y-84410273D01*
X156054637Y-84175241D01*
X155854759Y-83975363D01*
X155622241Y-83820000D01*
X155854759Y-83664637D01*
X156054637Y-83464759D01*
X156211680Y-83229727D01*
X156319853Y-82968574D01*
X156375000Y-82691335D01*
X156375000Y-82408665D01*
X156319853Y-82131426D01*
X156211680Y-81870273D01*
X156054637Y-81635241D01*
X155856039Y-81436643D01*
X155864482Y-81435812D01*
X155984180Y-81399502D01*
X156094494Y-81340537D01*
X156191185Y-81261185D01*
X156270537Y-81164494D01*
X156329502Y-81054180D01*
X156365812Y-80934482D01*
X156378072Y-80810000D01*
X156378072Y-79210000D01*
X156365812Y-79085518D01*
X156329502Y-78965820D01*
X156270537Y-78855506D01*
X156191185Y-78758815D01*
X156094494Y-78679463D01*
X155984180Y-78620498D01*
X155864482Y-78584188D01*
X155740000Y-78571928D01*
X154759163Y-78571928D01*
X154305000Y-78117765D01*
X154305000Y-77490207D01*
X154521426Y-77579853D01*
X154798665Y-77635000D01*
X155081335Y-77635000D01*
X155358574Y-77579853D01*
X155619727Y-77471680D01*
X155854759Y-77314637D01*
X156054637Y-77114759D01*
X156211680Y-76879727D01*
X156319853Y-76618574D01*
X156375000Y-76341335D01*
X156375000Y-76058665D01*
X156319853Y-75781426D01*
X156211680Y-75520273D01*
X156054637Y-75285241D01*
X155854759Y-75085363D01*
X155622241Y-74930000D01*
X155854759Y-74774637D01*
X155961080Y-74668316D01*
X156591000Y-75298236D01*
G37*
X156591000Y-75298236D02*
X156591001Y-86245763D01*
X156095765Y-86741000D01*
X156071849Y-86741000D01*
X156054637Y-86715241D01*
X155854759Y-86515363D01*
X155622241Y-86360000D01*
X155854759Y-86204637D01*
X156054637Y-86004759D01*
X156211680Y-85769727D01*
X156319853Y-85508574D01*
X156375000Y-85231335D01*
X156375000Y-84948665D01*
X156319853Y-84671426D01*
X156211680Y-84410273D01*
X156054637Y-84175241D01*
X155854759Y-83975363D01*
X155622241Y-83820000D01*
X155854759Y-83664637D01*
X156054637Y-83464759D01*
X156211680Y-83229727D01*
X156319853Y-82968574D01*
X156375000Y-82691335D01*
X156375000Y-82408665D01*
X156319853Y-82131426D01*
X156211680Y-81870273D01*
X156054637Y-81635241D01*
X155856039Y-81436643D01*
X155864482Y-81435812D01*
X155984180Y-81399502D01*
X156094494Y-81340537D01*
X156191185Y-81261185D01*
X156270537Y-81164494D01*
X156329502Y-81054180D01*
X156365812Y-80934482D01*
X156378072Y-80810000D01*
X156378072Y-79210000D01*
X156365812Y-79085518D01*
X156329502Y-78965820D01*
X156270537Y-78855506D01*
X156191185Y-78758815D01*
X156094494Y-78679463D01*
X155984180Y-78620498D01*
X155864482Y-78584188D01*
X155740000Y-78571928D01*
X154759163Y-78571928D01*
X154305000Y-78117765D01*
X154305000Y-77490207D01*
X154521426Y-77579853D01*
X154798665Y-77635000D01*
X155081335Y-77635000D01*
X155358574Y-77579853D01*
X155619727Y-77471680D01*
X155854759Y-77314637D01*
X156054637Y-77114759D01*
X156211680Y-76879727D01*
X156319853Y-76618574D01*
X156375000Y-76341335D01*
X156375000Y-76058665D01*
X156319853Y-75781426D01*
X156211680Y-75520273D01*
X156054637Y-75285241D01*
X155854759Y-75085363D01*
X155622241Y-74930000D01*
X155854759Y-74774637D01*
X155961080Y-74668316D01*
X156591000Y-75298236D01*
G36*
X170222629Y-84476043D02*
G01*
X170374201Y-84702886D01*
X170567114Y-84895799D01*
X170793957Y-85047371D01*
X171046011Y-85151775D01*
X171313589Y-85205000D01*
X171586411Y-85205000D01*
X171853989Y-85151775D01*
X172060001Y-85066442D01*
X172060001Y-90193558D01*
X171853989Y-90108225D01*
X171586411Y-90055000D01*
X171313589Y-90055000D01*
X171046011Y-90108225D01*
X170793957Y-90212629D01*
X170567114Y-90364201D01*
X170374201Y-90557114D01*
X170222629Y-90783957D01*
X170180000Y-90886873D01*
X170137371Y-90783957D01*
X169985799Y-90557114D01*
X169799000Y-90370315D01*
X169799000Y-89070660D01*
X169803300Y-89027000D01*
X169799000Y-88983340D01*
X169799000Y-88983333D01*
X169786136Y-88852726D01*
X169735303Y-88685149D01*
X169652753Y-88530709D01*
X169541659Y-88395341D01*
X169507743Y-88367507D01*
X166348307Y-85208072D01*
X167120000Y-85208072D01*
X167244482Y-85195812D01*
X167364180Y-85159502D01*
X167474494Y-85100537D01*
X167571185Y-85021185D01*
X167650537Y-84924494D01*
X167709502Y-84814180D01*
X167745812Y-84694482D01*
X167756445Y-84586517D01*
X167834201Y-84702886D01*
X168027114Y-84895799D01*
X168253957Y-85047371D01*
X168506011Y-85151775D01*
X168773589Y-85205000D01*
X169046411Y-85205000D01*
X169313989Y-85151775D01*
X169566043Y-85047371D01*
X169792886Y-84895799D01*
X169985799Y-84702886D01*
X170137371Y-84476043D01*
X170180000Y-84373127D01*
X170222629Y-84476043D01*
G37*
X170222629Y-84476043D02*
X170374201Y-84702886D01*
X170567114Y-84895799D01*
X170793957Y-85047371D01*
X171046011Y-85151775D01*
X171313589Y-85205000D01*
X171586411Y-85205000D01*
X171853989Y-85151775D01*
X172060001Y-85066442D01*
X172060001Y-90193558D01*
X171853989Y-90108225D01*
X171586411Y-90055000D01*
X171313589Y-90055000D01*
X171046011Y-90108225D01*
X170793957Y-90212629D01*
X170567114Y-90364201D01*
X170374201Y-90557114D01*
X170222629Y-90783957D01*
X170180000Y-90886873D01*
X170137371Y-90783957D01*
X169985799Y-90557114D01*
X169799000Y-90370315D01*
X169799000Y-89070660D01*
X169803300Y-89027000D01*
X169799000Y-88983340D01*
X169799000Y-88983333D01*
X169786136Y-88852726D01*
X169735303Y-88685149D01*
X169652753Y-88530709D01*
X169541659Y-88395341D01*
X169507743Y-88367507D01*
X166348307Y-85208072D01*
X167120000Y-85208072D01*
X167244482Y-85195812D01*
X167364180Y-85159502D01*
X167474494Y-85100537D01*
X167571185Y-85021185D01*
X167650537Y-84924494D01*
X167709502Y-84814180D01*
X167745812Y-84694482D01*
X167756445Y-84586517D01*
X167834201Y-84702886D01*
X168027114Y-84895799D01*
X168253957Y-85047371D01*
X168506011Y-85151775D01*
X168773589Y-85205000D01*
X169046411Y-85205000D01*
X169313989Y-85151775D01*
X169566043Y-85047371D01*
X169792886Y-84895799D01*
X169985799Y-84702886D01*
X170137371Y-84476043D01*
X170180000Y-84373127D01*
X170222629Y-84476043D01*
G36*
X163957001Y-84919330D02*
G01*
X163952700Y-84962998D01*
X163829916Y-84962998D01*
X163951904Y-84740961D01*
X163911246Y-84606913D01*
X163791037Y-84352580D01*
X163623519Y-84126586D01*
X163415131Y-83937615D01*
X163229135Y-83826067D01*
X163239727Y-83821680D01*
X163474759Y-83664637D01*
X163674637Y-83464759D01*
X163831680Y-83229727D01*
X163939853Y-82968574D01*
X163957001Y-82882368D01*
X163957001Y-84919330D01*
G37*
X163957001Y-84919330D02*
X163952700Y-84962998D01*
X163829916Y-84962998D01*
X163951904Y-84740961D01*
X163911246Y-84606913D01*
X163791037Y-84352580D01*
X163623519Y-84126586D01*
X163415131Y-83937615D01*
X163229135Y-83826067D01*
X163239727Y-83821680D01*
X163474759Y-83664637D01*
X163674637Y-83464759D01*
X163831680Y-83229727D01*
X163939853Y-82968574D01*
X163957001Y-82882368D01*
X163957001Y-84919330D01*
G36*
X169563708Y-66006397D02*
G01*
X169438486Y-66073329D01*
X169366903Y-66317298D01*
X170180000Y-67130395D01*
X170993097Y-66317298D01*
X170921514Y-66073329D01*
X170666004Y-65952429D01*
X170608441Y-65938000D01*
X172060000Y-65938000D01*
X172060001Y-82573558D01*
X171853989Y-82488225D01*
X171586411Y-82435000D01*
X171313589Y-82435000D01*
X171046011Y-82488225D01*
X170793957Y-82592629D01*
X170567114Y-82744201D01*
X170374201Y-82937114D01*
X170222629Y-83163957D01*
X170180000Y-83266873D01*
X170137371Y-83163957D01*
X169985799Y-82937114D01*
X169792886Y-82744201D01*
X169566043Y-82592629D01*
X169313989Y-82488225D01*
X169046411Y-82435000D01*
X169037000Y-82435000D01*
X169037000Y-78342311D01*
X169065363Y-78384759D01*
X169265241Y-78584637D01*
X169500273Y-78741680D01*
X169761426Y-78849853D01*
X170038665Y-78905000D01*
X170321335Y-78905000D01*
X170598574Y-78849853D01*
X170859727Y-78741680D01*
X171094759Y-78584637D01*
X171294637Y-78384759D01*
X171451680Y-78149727D01*
X171559853Y-77888574D01*
X171615000Y-77611335D01*
X171615000Y-77328665D01*
X171559853Y-77051426D01*
X171451680Y-76790273D01*
X171294637Y-76555241D01*
X171094759Y-76355363D01*
X170859727Y-76198320D01*
X170598574Y-76090147D01*
X170321335Y-76035000D01*
X170038665Y-76035000D01*
X169761426Y-76090147D01*
X169500273Y-76198320D01*
X169265241Y-76355363D01*
X169065363Y-76555241D01*
X169037000Y-76597689D01*
X169037000Y-69131660D01*
X169041300Y-69088000D01*
X169037000Y-69044340D01*
X169037000Y-69044333D01*
X169024136Y-68913726D01*
X168973303Y-68746149D01*
X168890753Y-68591709D01*
X168779659Y-68456341D01*
X168745743Y-68428507D01*
X168619938Y-68302702D01*
X169366903Y-68302702D01*
X169438486Y-68546671D01*
X169693996Y-68667571D01*
X169968184Y-68736300D01*
X170250512Y-68750217D01*
X170530130Y-68708787D01*
X170796292Y-68613603D01*
X170921514Y-68546671D01*
X170993097Y-68302702D01*
X170180000Y-67489605D01*
X169366903Y-68302702D01*
X168619938Y-68302702D01*
X167798956Y-67481720D01*
X167805000Y-67451335D01*
X167805000Y-67380512D01*
X168739783Y-67380512D01*
X168781213Y-67660130D01*
X168876397Y-67926292D01*
X168943329Y-68051514D01*
X169187298Y-68123097D01*
X170000395Y-67310000D01*
X170359605Y-67310000D01*
X171172702Y-68123097D01*
X171416671Y-68051514D01*
X171537571Y-67796004D01*
X171606300Y-67521816D01*
X171620217Y-67239488D01*
X171578787Y-66959870D01*
X171483603Y-66693708D01*
X171416671Y-66568486D01*
X171172702Y-66496903D01*
X170359605Y-67310000D01*
X170000395Y-67310000D01*
X169187298Y-66496903D01*
X168943329Y-66568486D01*
X168822429Y-66823996D01*
X168753700Y-67098184D01*
X168739783Y-67380512D01*
X167805000Y-67380512D01*
X167805000Y-67168665D01*
X167749853Y-66891426D01*
X167641680Y-66630273D01*
X167484637Y-66395241D01*
X167284759Y-66195363D01*
X167049727Y-66038320D01*
X166807533Y-65938000D01*
X169754966Y-65938000D01*
X169563708Y-66006397D01*
G37*
X169563708Y-66006397D02*
X169438486Y-66073329D01*
X169366903Y-66317298D01*
X170180000Y-67130395D01*
X170993097Y-66317298D01*
X170921514Y-66073329D01*
X170666004Y-65952429D01*
X170608441Y-65938000D01*
X172060000Y-65938000D01*
X172060001Y-82573558D01*
X171853989Y-82488225D01*
X171586411Y-82435000D01*
X171313589Y-82435000D01*
X171046011Y-82488225D01*
X170793957Y-82592629D01*
X170567114Y-82744201D01*
X170374201Y-82937114D01*
X170222629Y-83163957D01*
X170180000Y-83266873D01*
X170137371Y-83163957D01*
X169985799Y-82937114D01*
X169792886Y-82744201D01*
X169566043Y-82592629D01*
X169313989Y-82488225D01*
X169046411Y-82435000D01*
X169037000Y-82435000D01*
X169037000Y-78342311D01*
X169065363Y-78384759D01*
X169265241Y-78584637D01*
X169500273Y-78741680D01*
X169761426Y-78849853D01*
X170038665Y-78905000D01*
X170321335Y-78905000D01*
X170598574Y-78849853D01*
X170859727Y-78741680D01*
X171094759Y-78584637D01*
X171294637Y-78384759D01*
X171451680Y-78149727D01*
X171559853Y-77888574D01*
X171615000Y-77611335D01*
X171615000Y-77328665D01*
X171559853Y-77051426D01*
X171451680Y-76790273D01*
X171294637Y-76555241D01*
X171094759Y-76355363D01*
X170859727Y-76198320D01*
X170598574Y-76090147D01*
X170321335Y-76035000D01*
X170038665Y-76035000D01*
X169761426Y-76090147D01*
X169500273Y-76198320D01*
X169265241Y-76355363D01*
X169065363Y-76555241D01*
X169037000Y-76597689D01*
X169037000Y-69131660D01*
X169041300Y-69088000D01*
X169037000Y-69044340D01*
X169037000Y-69044333D01*
X169024136Y-68913726D01*
X168973303Y-68746149D01*
X168890753Y-68591709D01*
X168779659Y-68456341D01*
X168745743Y-68428507D01*
X168619938Y-68302702D01*
X169366903Y-68302702D01*
X169438486Y-68546671D01*
X169693996Y-68667571D01*
X169968184Y-68736300D01*
X170250512Y-68750217D01*
X170530130Y-68708787D01*
X170796292Y-68613603D01*
X170921514Y-68546671D01*
X170993097Y-68302702D01*
X170180000Y-67489605D01*
X169366903Y-68302702D01*
X168619938Y-68302702D01*
X167798956Y-67481720D01*
X167805000Y-67451335D01*
X167805000Y-67380512D01*
X168739783Y-67380512D01*
X168781213Y-67660130D01*
X168876397Y-67926292D01*
X168943329Y-68051514D01*
X169187298Y-68123097D01*
X170000395Y-67310000D01*
X170359605Y-67310000D01*
X171172702Y-68123097D01*
X171416671Y-68051514D01*
X171537571Y-67796004D01*
X171606300Y-67521816D01*
X171620217Y-67239488D01*
X171578787Y-66959870D01*
X171483603Y-66693708D01*
X171416671Y-66568486D01*
X171172702Y-66496903D01*
X170359605Y-67310000D01*
X170000395Y-67310000D01*
X169187298Y-66496903D01*
X168943329Y-66568486D01*
X168822429Y-66823996D01*
X168753700Y-67098184D01*
X168739783Y-67380512D01*
X167805000Y-67380512D01*
X167805000Y-67168665D01*
X167749853Y-66891426D01*
X167641680Y-66630273D01*
X167484637Y-66395241D01*
X167284759Y-66195363D01*
X167049727Y-66038320D01*
X166807533Y-65938000D01*
X169754966Y-65938000D01*
X169563708Y-66006397D01*
G36*
X167259001Y-82448592D02*
G01*
X167244482Y-82444188D01*
X167120000Y-82431928D01*
X165735000Y-82431928D01*
X165735000Y-78760207D01*
X165951426Y-78849853D01*
X166228665Y-78905000D01*
X166511335Y-78905000D01*
X166788574Y-78849853D01*
X167049727Y-78741680D01*
X167259001Y-78601848D01*
X167259001Y-82448592D01*
G37*
X167259001Y-82448592D02*
X167244482Y-82444188D01*
X167120000Y-82431928D01*
X165735000Y-82431928D01*
X165735000Y-78760207D01*
X165951426Y-78849853D01*
X166228665Y-78905000D01*
X166511335Y-78905000D01*
X166788574Y-78849853D01*
X167049727Y-78741680D01*
X167259001Y-78601848D01*
X167259001Y-82448592D01*
G36*
X163957001Y-82217632D02*
G01*
X163939853Y-82131426D01*
X163831680Y-81870273D01*
X163674637Y-81635241D01*
X163474759Y-81435363D01*
X163242241Y-81280000D01*
X163474759Y-81124637D01*
X163674637Y-80924759D01*
X163831680Y-80689727D01*
X163939853Y-80428574D01*
X163957000Y-80342369D01*
X163957001Y-82217632D01*
G37*
X163957001Y-82217632D02*
X163939853Y-82131426D01*
X163831680Y-81870273D01*
X163674637Y-81635241D01*
X163474759Y-81435363D01*
X163242241Y-81280000D01*
X163474759Y-81124637D01*
X163674637Y-80924759D01*
X163831680Y-80689727D01*
X163939853Y-80428574D01*
X163957000Y-80342369D01*
X163957001Y-82217632D01*
%TD*%
M02*
