%TF.GenerationSoftware,KiCad,Pcbnew,(5.1.6)-1*%
%TF.CreationDate,2021-12-03T10:29:43-08:00*%
%TF.ProjectId,Speeduino Dual Opto Board,53706565-6475-4696-9e6f-204475616c20,rev?*%
%TF.SameCoordinates,Original*%
%TF.FileFunction,Legend,Top*%
%TF.FilePolarity,Positive*%
%FSLAX46Y46*%
G04 Gerber Fmt 4.6, Leading zero omitted, Abs format (unit mm)*
G04 Created by KiCad (PCBNEW (5.1.6)-1) date 2021-12-03 10:29:43*
%MOMM*%
%LPD*%
G01*
G04 APERTURE LIST*
%ADD10C,0.101600*%
%ADD11C,0.120000*%
%ADD12C,0.150000*%
G04 APERTURE END LIST*
D10*
X154250571Y-92928923D02*
X154341285Y-92959161D01*
X154492476Y-92959161D01*
X154552952Y-92928923D01*
X154583190Y-92898685D01*
X154613428Y-92838209D01*
X154613428Y-92777733D01*
X154583190Y-92717257D01*
X154552952Y-92687019D01*
X154492476Y-92656780D01*
X154371523Y-92626542D01*
X154311047Y-92596304D01*
X154280809Y-92566066D01*
X154250571Y-92505590D01*
X154250571Y-92445114D01*
X154280809Y-92384638D01*
X154311047Y-92354400D01*
X154371523Y-92324161D01*
X154522714Y-92324161D01*
X154613428Y-92354400D01*
X154885571Y-92535828D02*
X154885571Y-93170828D01*
X154885571Y-92566066D02*
X154946047Y-92535828D01*
X155067000Y-92535828D01*
X155127476Y-92566066D01*
X155157714Y-92596304D01*
X155187952Y-92656780D01*
X155187952Y-92838209D01*
X155157714Y-92898685D01*
X155127476Y-92928923D01*
X155067000Y-92959161D01*
X154946047Y-92959161D01*
X154885571Y-92928923D01*
X155702000Y-92928923D02*
X155641523Y-92959161D01*
X155520571Y-92959161D01*
X155460095Y-92928923D01*
X155429857Y-92868447D01*
X155429857Y-92626542D01*
X155460095Y-92566066D01*
X155520571Y-92535828D01*
X155641523Y-92535828D01*
X155702000Y-92566066D01*
X155732238Y-92626542D01*
X155732238Y-92687019D01*
X155429857Y-92747495D01*
X156246285Y-92928923D02*
X156185809Y-92959161D01*
X156064857Y-92959161D01*
X156004380Y-92928923D01*
X155974142Y-92868447D01*
X155974142Y-92626542D01*
X156004380Y-92566066D01*
X156064857Y-92535828D01*
X156185809Y-92535828D01*
X156246285Y-92566066D01*
X156276523Y-92626542D01*
X156276523Y-92687019D01*
X155974142Y-92747495D01*
X156820809Y-92959161D02*
X156820809Y-92324161D01*
X156820809Y-92928923D02*
X156760333Y-92959161D01*
X156639380Y-92959161D01*
X156578904Y-92928923D01*
X156548666Y-92898685D01*
X156518428Y-92838209D01*
X156518428Y-92656780D01*
X156548666Y-92596304D01*
X156578904Y-92566066D01*
X156639380Y-92535828D01*
X156760333Y-92535828D01*
X156820809Y-92566066D01*
X157395333Y-92535828D02*
X157395333Y-92959161D01*
X157123190Y-92535828D02*
X157123190Y-92868447D01*
X157153428Y-92928923D01*
X157213904Y-92959161D01*
X157304619Y-92959161D01*
X157365095Y-92928923D01*
X157395333Y-92898685D01*
X157697714Y-92959161D02*
X157697714Y-92535828D01*
X157697714Y-92324161D02*
X157667476Y-92354400D01*
X157697714Y-92384638D01*
X157727952Y-92354400D01*
X157697714Y-92324161D01*
X157697714Y-92384638D01*
X158000095Y-92535828D02*
X158000095Y-92959161D01*
X158000095Y-92596304D02*
X158030333Y-92566066D01*
X158090809Y-92535828D01*
X158181523Y-92535828D01*
X158242000Y-92566066D01*
X158272238Y-92626542D01*
X158272238Y-92959161D01*
X158665333Y-92959161D02*
X158604857Y-92928923D01*
X158574619Y-92898685D01*
X158544380Y-92838209D01*
X158544380Y-92656780D01*
X158574619Y-92596304D01*
X158604857Y-92566066D01*
X158665333Y-92535828D01*
X158756047Y-92535828D01*
X158816523Y-92566066D01*
X158846761Y-92596304D01*
X158877000Y-92656780D01*
X158877000Y-92838209D01*
X158846761Y-92898685D01*
X158816523Y-92928923D01*
X158756047Y-92959161D01*
X158665333Y-92959161D01*
X159753904Y-92324161D02*
X159874857Y-92324161D01*
X159935333Y-92354400D01*
X159995809Y-92414876D01*
X160026047Y-92535828D01*
X160026047Y-92747495D01*
X159995809Y-92868447D01*
X159935333Y-92928923D01*
X159874857Y-92959161D01*
X159753904Y-92959161D01*
X159693428Y-92928923D01*
X159632952Y-92868447D01*
X159602714Y-92747495D01*
X159602714Y-92535828D01*
X159632952Y-92414876D01*
X159693428Y-92354400D01*
X159753904Y-92324161D01*
X160298190Y-92535828D02*
X160298190Y-93170828D01*
X160298190Y-92566066D02*
X160358666Y-92535828D01*
X160479619Y-92535828D01*
X160540095Y-92566066D01*
X160570333Y-92596304D01*
X160600571Y-92656780D01*
X160600571Y-92838209D01*
X160570333Y-92898685D01*
X160540095Y-92928923D01*
X160479619Y-92959161D01*
X160358666Y-92959161D01*
X160298190Y-92928923D01*
X160782000Y-92535828D02*
X161023904Y-92535828D01*
X160872714Y-92324161D02*
X160872714Y-92868447D01*
X160902952Y-92928923D01*
X160963428Y-92959161D01*
X161023904Y-92959161D01*
X161326285Y-92959161D02*
X161265809Y-92928923D01*
X161235571Y-92898685D01*
X161205333Y-92838209D01*
X161205333Y-92656780D01*
X161235571Y-92596304D01*
X161265809Y-92566066D01*
X161326285Y-92535828D01*
X161417000Y-92535828D01*
X161477476Y-92566066D01*
X161507714Y-92596304D01*
X161537952Y-92656780D01*
X161537952Y-92838209D01*
X161507714Y-92898685D01*
X161477476Y-92928923D01*
X161417000Y-92959161D01*
X161326285Y-92959161D01*
X162505571Y-92626542D02*
X162596285Y-92656780D01*
X162626523Y-92687019D01*
X162656761Y-92747495D01*
X162656761Y-92838209D01*
X162626523Y-92898685D01*
X162596285Y-92928923D01*
X162535809Y-92959161D01*
X162293904Y-92959161D01*
X162293904Y-92324161D01*
X162505571Y-92324161D01*
X162566047Y-92354400D01*
X162596285Y-92384638D01*
X162626523Y-92445114D01*
X162626523Y-92505590D01*
X162596285Y-92566066D01*
X162566047Y-92596304D01*
X162505571Y-92626542D01*
X162293904Y-92626542D01*
X163019619Y-92959161D02*
X162959142Y-92928923D01*
X162928904Y-92898685D01*
X162898666Y-92838209D01*
X162898666Y-92656780D01*
X162928904Y-92596304D01*
X162959142Y-92566066D01*
X163019619Y-92535828D01*
X163110333Y-92535828D01*
X163170809Y-92566066D01*
X163201047Y-92596304D01*
X163231285Y-92656780D01*
X163231285Y-92838209D01*
X163201047Y-92898685D01*
X163170809Y-92928923D01*
X163110333Y-92959161D01*
X163019619Y-92959161D01*
X163775571Y-92959161D02*
X163775571Y-92626542D01*
X163745333Y-92566066D01*
X163684857Y-92535828D01*
X163563904Y-92535828D01*
X163503428Y-92566066D01*
X163775571Y-92928923D02*
X163715095Y-92959161D01*
X163563904Y-92959161D01*
X163503428Y-92928923D01*
X163473190Y-92868447D01*
X163473190Y-92807971D01*
X163503428Y-92747495D01*
X163563904Y-92717257D01*
X163715095Y-92717257D01*
X163775571Y-92687019D01*
X164077952Y-92959161D02*
X164077952Y-92535828D01*
X164077952Y-92656780D02*
X164108190Y-92596304D01*
X164138428Y-92566066D01*
X164198904Y-92535828D01*
X164259380Y-92535828D01*
X164743190Y-92959161D02*
X164743190Y-92324161D01*
X164743190Y-92928923D02*
X164682714Y-92959161D01*
X164561761Y-92959161D01*
X164501285Y-92928923D01*
X164471047Y-92898685D01*
X164440809Y-92838209D01*
X164440809Y-92656780D01*
X164471047Y-92596304D01*
X164501285Y-92566066D01*
X164561761Y-92535828D01*
X164682714Y-92535828D01*
X164743190Y-92566066D01*
X153041047Y-94013261D02*
X153041047Y-93378261D01*
X153192238Y-93378261D01*
X153282952Y-93408500D01*
X153343428Y-93468976D01*
X153373666Y-93529452D01*
X153403904Y-93650404D01*
X153403904Y-93741119D01*
X153373666Y-93862071D01*
X153343428Y-93922547D01*
X153282952Y-93983023D01*
X153192238Y-94013261D01*
X153041047Y-94013261D01*
X153917952Y-93983023D02*
X153857476Y-94013261D01*
X153736523Y-94013261D01*
X153676047Y-93983023D01*
X153645809Y-93922547D01*
X153645809Y-93680642D01*
X153676047Y-93620166D01*
X153736523Y-93589928D01*
X153857476Y-93589928D01*
X153917952Y-93620166D01*
X153948190Y-93680642D01*
X153948190Y-93741119D01*
X153645809Y-93801595D01*
X154190095Y-93983023D02*
X154250571Y-94013261D01*
X154371523Y-94013261D01*
X154432000Y-93983023D01*
X154462238Y-93922547D01*
X154462238Y-93892309D01*
X154432000Y-93831833D01*
X154371523Y-93801595D01*
X154280809Y-93801595D01*
X154220333Y-93771357D01*
X154190095Y-93710880D01*
X154190095Y-93680642D01*
X154220333Y-93620166D01*
X154280809Y-93589928D01*
X154371523Y-93589928D01*
X154432000Y-93620166D01*
X154734380Y-94013261D02*
X154734380Y-93589928D01*
X154734380Y-93378261D02*
X154704142Y-93408500D01*
X154734380Y-93438738D01*
X154764619Y-93408500D01*
X154734380Y-93378261D01*
X154734380Y-93438738D01*
X155308904Y-93589928D02*
X155308904Y-94103976D01*
X155278666Y-94164452D01*
X155248428Y-94194690D01*
X155187952Y-94224928D01*
X155097238Y-94224928D01*
X155036761Y-94194690D01*
X155308904Y-93983023D02*
X155248428Y-94013261D01*
X155127476Y-94013261D01*
X155067000Y-93983023D01*
X155036761Y-93952785D01*
X155006523Y-93892309D01*
X155006523Y-93710880D01*
X155036761Y-93650404D01*
X155067000Y-93620166D01*
X155127476Y-93589928D01*
X155248428Y-93589928D01*
X155308904Y-93620166D01*
X155611285Y-93589928D02*
X155611285Y-94013261D01*
X155611285Y-93650404D02*
X155641523Y-93620166D01*
X155702000Y-93589928D01*
X155792714Y-93589928D01*
X155853190Y-93620166D01*
X155883428Y-93680642D01*
X155883428Y-94013261D01*
X156427714Y-93983023D02*
X156367238Y-94013261D01*
X156246285Y-94013261D01*
X156185809Y-93983023D01*
X156155571Y-93922547D01*
X156155571Y-93680642D01*
X156185809Y-93620166D01*
X156246285Y-93589928D01*
X156367238Y-93589928D01*
X156427714Y-93620166D01*
X156457952Y-93680642D01*
X156457952Y-93741119D01*
X156155571Y-93801595D01*
X157002238Y-94013261D02*
X157002238Y-93378261D01*
X157002238Y-93983023D02*
X156941761Y-94013261D01*
X156820809Y-94013261D01*
X156760333Y-93983023D01*
X156730095Y-93952785D01*
X156699857Y-93892309D01*
X156699857Y-93710880D01*
X156730095Y-93650404D01*
X156760333Y-93620166D01*
X156820809Y-93589928D01*
X156941761Y-93589928D01*
X157002238Y-93620166D01*
X157788428Y-94013261D02*
X157788428Y-93378261D01*
X157788428Y-93620166D02*
X157848904Y-93589928D01*
X157969857Y-93589928D01*
X158030333Y-93620166D01*
X158060571Y-93650404D01*
X158090809Y-93710880D01*
X158090809Y-93892309D01*
X158060571Y-93952785D01*
X158030333Y-93983023D01*
X157969857Y-94013261D01*
X157848904Y-94013261D01*
X157788428Y-93983023D01*
X158302476Y-93589928D02*
X158453666Y-94013261D01*
X158604857Y-93589928D02*
X158453666Y-94013261D01*
X158393190Y-94164452D01*
X158362952Y-94194690D01*
X158302476Y-94224928D01*
X159693428Y-94013261D02*
X159481761Y-93710880D01*
X159330571Y-94013261D02*
X159330571Y-93378261D01*
X159572476Y-93378261D01*
X159632952Y-93408500D01*
X159663190Y-93438738D01*
X159693428Y-93499214D01*
X159693428Y-93589928D01*
X159663190Y-93650404D01*
X159632952Y-93680642D01*
X159572476Y-93710880D01*
X159330571Y-93710880D01*
X160056285Y-94013261D02*
X159995809Y-93983023D01*
X159965571Y-93952785D01*
X159935333Y-93892309D01*
X159935333Y-93710880D01*
X159965571Y-93650404D01*
X159995809Y-93620166D01*
X160056285Y-93589928D01*
X160147000Y-93589928D01*
X160207476Y-93620166D01*
X160237714Y-93650404D01*
X160267952Y-93710880D01*
X160267952Y-93892309D01*
X160237714Y-93952785D01*
X160207476Y-93983023D01*
X160147000Y-94013261D01*
X160056285Y-94013261D01*
X160540095Y-94013261D02*
X160540095Y-93378261D01*
X160540095Y-93620166D02*
X160600571Y-93589928D01*
X160721523Y-93589928D01*
X160782000Y-93620166D01*
X160812238Y-93650404D01*
X160842476Y-93710880D01*
X160842476Y-93892309D01*
X160812238Y-93952785D01*
X160782000Y-93983023D01*
X160721523Y-94013261D01*
X160600571Y-94013261D01*
X160540095Y-93983023D01*
X161356523Y-93983023D02*
X161296047Y-94013261D01*
X161175095Y-94013261D01*
X161114619Y-93983023D01*
X161084380Y-93922547D01*
X161084380Y-93680642D01*
X161114619Y-93620166D01*
X161175095Y-93589928D01*
X161296047Y-93589928D01*
X161356523Y-93620166D01*
X161386761Y-93680642D01*
X161386761Y-93741119D01*
X161084380Y-93801595D01*
X161658904Y-94013261D02*
X161658904Y-93589928D01*
X161658904Y-93710880D02*
X161689142Y-93650404D01*
X161719380Y-93620166D01*
X161779857Y-93589928D01*
X161840333Y-93589928D01*
X161961285Y-93589928D02*
X162203190Y-93589928D01*
X162052000Y-93378261D02*
X162052000Y-93922547D01*
X162082238Y-93983023D01*
X162142714Y-94013261D01*
X162203190Y-94013261D01*
X162898666Y-94013261D02*
X162898666Y-93378261D01*
X162898666Y-93680642D02*
X163261523Y-93680642D01*
X163261523Y-94013261D02*
X163261523Y-93378261D01*
X163563904Y-94013261D02*
X163563904Y-93589928D01*
X163563904Y-93378261D02*
X163533666Y-93408500D01*
X163563904Y-93438738D01*
X163594142Y-93408500D01*
X163563904Y-93378261D01*
X163563904Y-93438738D01*
X164108190Y-93983023D02*
X164047714Y-94013261D01*
X163926761Y-94013261D01*
X163866285Y-93983023D01*
X163836047Y-93922547D01*
X163836047Y-93680642D01*
X163866285Y-93620166D01*
X163926761Y-93589928D01*
X164047714Y-93589928D01*
X164108190Y-93620166D01*
X164138428Y-93680642D01*
X164138428Y-93741119D01*
X163836047Y-93801595D01*
X164410571Y-94013261D02*
X164410571Y-93378261D01*
X164410571Y-93620166D02*
X164471047Y-93589928D01*
X164592000Y-93589928D01*
X164652476Y-93620166D01*
X164682714Y-93650404D01*
X164712952Y-93710880D01*
X164712952Y-93892309D01*
X164682714Y-93952785D01*
X164652476Y-93983023D01*
X164592000Y-94013261D01*
X164471047Y-94013261D01*
X164410571Y-93983023D01*
X165227000Y-93983023D02*
X165166523Y-94013261D01*
X165045571Y-94013261D01*
X164985095Y-93983023D01*
X164954857Y-93922547D01*
X164954857Y-93680642D01*
X164985095Y-93620166D01*
X165045571Y-93589928D01*
X165166523Y-93589928D01*
X165227000Y-93620166D01*
X165257238Y-93680642D01*
X165257238Y-93741119D01*
X164954857Y-93801595D01*
X165529380Y-94013261D02*
X165529380Y-93589928D01*
X165529380Y-93710880D02*
X165559619Y-93650404D01*
X165589857Y-93620166D01*
X165650333Y-93589928D01*
X165710809Y-93589928D01*
X165831761Y-93589928D02*
X166073666Y-93589928D01*
X165922476Y-93378261D02*
X165922476Y-93922547D01*
X165952714Y-93983023D01*
X166013190Y-94013261D01*
X166073666Y-94013261D01*
X157516285Y-95067361D02*
X157153428Y-95067361D01*
X157334857Y-95067361D02*
X157334857Y-94432361D01*
X157274380Y-94523076D01*
X157213904Y-94583552D01*
X157153428Y-94613790D01*
X157758190Y-94492838D02*
X157788428Y-94462600D01*
X157848904Y-94432361D01*
X158000095Y-94432361D01*
X158060571Y-94462600D01*
X158090809Y-94492838D01*
X158121047Y-94553314D01*
X158121047Y-94613790D01*
X158090809Y-94704504D01*
X157727952Y-95067361D01*
X158121047Y-95067361D01*
X158846761Y-94402123D02*
X158302476Y-95218552D01*
X159179380Y-94432361D02*
X159239857Y-94432361D01*
X159300333Y-94462600D01*
X159330571Y-94492838D01*
X159360809Y-94553314D01*
X159391047Y-94674266D01*
X159391047Y-94825457D01*
X159360809Y-94946409D01*
X159330571Y-95006885D01*
X159300333Y-95037123D01*
X159239857Y-95067361D01*
X159179380Y-95067361D01*
X159118904Y-95037123D01*
X159088666Y-95006885D01*
X159058428Y-94946409D01*
X159028190Y-94825457D01*
X159028190Y-94674266D01*
X159058428Y-94553314D01*
X159088666Y-94492838D01*
X159118904Y-94462600D01*
X159179380Y-94432361D01*
X159632952Y-94492838D02*
X159663190Y-94462600D01*
X159723666Y-94432361D01*
X159874857Y-94432361D01*
X159935333Y-94462600D01*
X159965571Y-94492838D01*
X159995809Y-94553314D01*
X159995809Y-94613790D01*
X159965571Y-94704504D01*
X159602714Y-95067361D01*
X159995809Y-95067361D01*
X160721523Y-94402123D02*
X160177238Y-95218552D01*
X160902952Y-94492838D02*
X160933190Y-94462600D01*
X160993666Y-94432361D01*
X161144857Y-94432361D01*
X161205333Y-94462600D01*
X161235571Y-94492838D01*
X161265809Y-94553314D01*
X161265809Y-94613790D01*
X161235571Y-94704504D01*
X160872714Y-95067361D01*
X161265809Y-95067361D01*
X161870571Y-95067361D02*
X161507714Y-95067361D01*
X161689142Y-95067361D02*
X161689142Y-94432361D01*
X161628666Y-94523076D01*
X161568190Y-94583552D01*
X161507714Y-94613790D01*
D11*
%TO.C,U1*%
X157750000Y-67250000D02*
X156100000Y-67250000D01*
X156100000Y-67250000D02*
X156100000Y-77530000D01*
X156100000Y-77530000D02*
X161400000Y-77530000D01*
X161400000Y-77530000D02*
X161400000Y-67250000D01*
X161400000Y-67250000D02*
X159750000Y-67250000D01*
X159750000Y-67250000D02*
G75*
G02*
X157750000Y-67250000I-1000000J0D01*
G01*
%TO.C,R6*%
X148690000Y-84360000D02*
X145950000Y-84360000D01*
X145950000Y-84360000D02*
X145950000Y-90900000D01*
X145950000Y-90900000D02*
X148690000Y-90900000D01*
X148690000Y-90900000D02*
X148690000Y-84360000D01*
X147320000Y-83590000D02*
X147320000Y-84360000D01*
X147320000Y-91670000D02*
X147320000Y-90900000D01*
%TO.C,R5*%
X171550000Y-69120000D02*
X168810000Y-69120000D01*
X168810000Y-69120000D02*
X168810000Y-75660000D01*
X168810000Y-75660000D02*
X171550000Y-75660000D01*
X171550000Y-75660000D02*
X171550000Y-69120000D01*
X170180000Y-68350000D02*
X170180000Y-69120000D01*
X170180000Y-76430000D02*
X170180000Y-75660000D01*
%TO.C,R4*%
X149760000Y-90900000D02*
X152500000Y-90900000D01*
X152500000Y-90900000D02*
X152500000Y-84360000D01*
X152500000Y-84360000D02*
X149760000Y-84360000D01*
X149760000Y-84360000D02*
X149760000Y-90900000D01*
X151130000Y-91670000D02*
X151130000Y-90900000D01*
X151130000Y-83590000D02*
X151130000Y-84360000D01*
%TO.C,R3*%
X165000000Y-75660000D02*
X167740000Y-75660000D01*
X167740000Y-75660000D02*
X167740000Y-69120000D01*
X167740000Y-69120000D02*
X165000000Y-69120000D01*
X165000000Y-69120000D02*
X165000000Y-75660000D01*
X166370000Y-76430000D02*
X166370000Y-75660000D01*
X166370000Y-68350000D02*
X166370000Y-69120000D01*
%TO.C,R2*%
X148690000Y-69120000D02*
X145950000Y-69120000D01*
X145950000Y-69120000D02*
X145950000Y-75660000D01*
X145950000Y-75660000D02*
X148690000Y-75660000D01*
X148690000Y-75660000D02*
X148690000Y-69120000D01*
X147320000Y-68350000D02*
X147320000Y-69120000D01*
X147320000Y-76430000D02*
X147320000Y-75660000D01*
%TO.C,R1*%
X149760000Y-75660000D02*
X152500000Y-75660000D01*
X152500000Y-75660000D02*
X152500000Y-69120000D01*
X152500000Y-69120000D02*
X149760000Y-69120000D01*
X149760000Y-69120000D02*
X149760000Y-75660000D01*
X151130000Y-76430000D02*
X151130000Y-75660000D01*
X151130000Y-68350000D02*
X151130000Y-69120000D01*
%TO.C,Q2*%
X167110000Y-93290000D02*
X170710000Y-93290000D01*
X171234184Y-92562795D02*
G75*
G02*
X170710000Y-93290000I-2324184J1122795D01*
G01*
X171266400Y-90341193D02*
G75*
G03*
X168910000Y-88840000I-2356400J-1098807D01*
G01*
X166553600Y-90341193D02*
G75*
G02*
X168910000Y-88840000I2356400J-1098807D01*
G01*
X166585816Y-92562795D02*
G75*
G03*
X167110000Y-93290000I2324184J1122795D01*
G01*
%TO.C,Q1*%
X167110000Y-85670000D02*
X170710000Y-85670000D01*
X171234184Y-84942795D02*
G75*
G02*
X170710000Y-85670000I-2324184J1122795D01*
G01*
X171266400Y-82721193D02*
G75*
G03*
X168910000Y-81220000I-2356400J-1098807D01*
G01*
X166553600Y-82721193D02*
G75*
G02*
X168910000Y-81220000I2356400J-1098807D01*
G01*
X166585816Y-84942795D02*
G75*
G03*
X167110000Y-85670000I2324184J1122795D01*
G01*
%TO.C,J1*%
X157750000Y-78680000D02*
X156100000Y-78680000D01*
X156100000Y-78680000D02*
X156100000Y-88960000D01*
X156100000Y-88960000D02*
X161400000Y-88960000D01*
X161400000Y-88960000D02*
X161400000Y-78680000D01*
X161400000Y-78680000D02*
X159750000Y-78680000D01*
X159750000Y-78680000D02*
G75*
G02*
X157750000Y-78680000I-1000000J0D01*
G01*
%TO.C,U1*%
D12*
X155448095Y-65492380D02*
X155448095Y-66301904D01*
X155495714Y-66397142D01*
X155543333Y-66444761D01*
X155638571Y-66492380D01*
X155829047Y-66492380D01*
X155924285Y-66444761D01*
X155971904Y-66397142D01*
X156019523Y-66301904D01*
X156019523Y-65492380D01*
X157019523Y-66492380D02*
X156448095Y-66492380D01*
X156733809Y-66492380D02*
X156733809Y-65492380D01*
X156638571Y-65635238D01*
X156543333Y-65730476D01*
X156448095Y-65778095D01*
X159909047Y-66492380D02*
X159909047Y-65492380D01*
X160861428Y-66492380D02*
X160385238Y-66492380D01*
X160385238Y-65492380D01*
X161194761Y-66492380D02*
X161194761Y-65492380D01*
X161432857Y-65492380D01*
X161575714Y-65540000D01*
X161670952Y-65635238D01*
X161718571Y-65730476D01*
X161766190Y-65920952D01*
X161766190Y-66063809D01*
X161718571Y-66254285D01*
X161670952Y-66349523D01*
X161575714Y-66444761D01*
X161432857Y-66492380D01*
X161194761Y-66492380D01*
X162718571Y-66492380D02*
X162147142Y-66492380D01*
X162432857Y-66492380D02*
X162432857Y-65492380D01*
X162337619Y-65635238D01*
X162242380Y-65730476D01*
X162147142Y-65778095D01*
%TO.C,R6*%
X147772380Y-95416666D02*
X147296190Y-95750000D01*
X147772380Y-95988095D02*
X146772380Y-95988095D01*
X146772380Y-95607142D01*
X146820000Y-95511904D01*
X146867619Y-95464285D01*
X146962857Y-95416666D01*
X147105714Y-95416666D01*
X147200952Y-95464285D01*
X147248571Y-95511904D01*
X147296190Y-95607142D01*
X147296190Y-95988095D01*
X146772380Y-94559523D02*
X146772380Y-94750000D01*
X146820000Y-94845238D01*
X146867619Y-94892857D01*
X147010476Y-94988095D01*
X147200952Y-95035714D01*
X147581904Y-95035714D01*
X147677142Y-94988095D01*
X147724761Y-94940476D01*
X147772380Y-94845238D01*
X147772380Y-94654761D01*
X147724761Y-94559523D01*
X147677142Y-94511904D01*
X147581904Y-94464285D01*
X147343809Y-94464285D01*
X147248571Y-94511904D01*
X147200952Y-94559523D01*
X147153333Y-94654761D01*
X147153333Y-94845238D01*
X147200952Y-94940476D01*
X147248571Y-94988095D01*
X147343809Y-95035714D01*
X147772380Y-87844285D02*
X147772380Y-88415714D01*
X147772380Y-88130000D02*
X146772380Y-88130000D01*
X146915238Y-88225238D01*
X147010476Y-88320476D01*
X147058095Y-88415714D01*
X147772380Y-87415714D02*
X146772380Y-87415714D01*
X147772380Y-86844285D02*
X147200952Y-87272857D01*
X146772380Y-86844285D02*
X147343809Y-87415714D01*
%TO.C,R5*%
X170632380Y-80176666D02*
X170156190Y-80510000D01*
X170632380Y-80748095D02*
X169632380Y-80748095D01*
X169632380Y-80367142D01*
X169680000Y-80271904D01*
X169727619Y-80224285D01*
X169822857Y-80176666D01*
X169965714Y-80176666D01*
X170060952Y-80224285D01*
X170108571Y-80271904D01*
X170156190Y-80367142D01*
X170156190Y-80748095D01*
X169632380Y-79271904D02*
X169632380Y-79748095D01*
X170108571Y-79795714D01*
X170060952Y-79748095D01*
X170013333Y-79652857D01*
X170013333Y-79414761D01*
X170060952Y-79319523D01*
X170108571Y-79271904D01*
X170203809Y-79224285D01*
X170441904Y-79224285D01*
X170537142Y-79271904D01*
X170584761Y-79319523D01*
X170632380Y-79414761D01*
X170632380Y-79652857D01*
X170584761Y-79748095D01*
X170537142Y-79795714D01*
X166822380Y-72604285D02*
X166822380Y-73175714D01*
X166822380Y-72890000D02*
X165822380Y-72890000D01*
X165965238Y-72985238D01*
X166060476Y-73080476D01*
X166108095Y-73175714D01*
X166822380Y-72175714D02*
X165822380Y-72175714D01*
X166822380Y-71604285D02*
X166250952Y-72032857D01*
X165822380Y-71604285D02*
X166393809Y-72175714D01*
%TO.C,R4*%
X151582380Y-95416666D02*
X151106190Y-95750000D01*
X151582380Y-95988095D02*
X150582380Y-95988095D01*
X150582380Y-95607142D01*
X150630000Y-95511904D01*
X150677619Y-95464285D01*
X150772857Y-95416666D01*
X150915714Y-95416666D01*
X151010952Y-95464285D01*
X151058571Y-95511904D01*
X151106190Y-95607142D01*
X151106190Y-95988095D01*
X150915714Y-94559523D02*
X151582380Y-94559523D01*
X150534761Y-94797619D02*
X151249047Y-95035714D01*
X151249047Y-94416666D01*
X151582380Y-87844285D02*
X151582380Y-88415714D01*
X151582380Y-88130000D02*
X150582380Y-88130000D01*
X150725238Y-88225238D01*
X150820476Y-88320476D01*
X150868095Y-88415714D01*
X151582380Y-87415714D02*
X150582380Y-87415714D01*
X151582380Y-86844285D02*
X151010952Y-87272857D01*
X150582380Y-86844285D02*
X151153809Y-87415714D01*
%TO.C,R3*%
X166822380Y-80176666D02*
X166346190Y-80510000D01*
X166822380Y-80748095D02*
X165822380Y-80748095D01*
X165822380Y-80367142D01*
X165870000Y-80271904D01*
X165917619Y-80224285D01*
X166012857Y-80176666D01*
X166155714Y-80176666D01*
X166250952Y-80224285D01*
X166298571Y-80271904D01*
X166346190Y-80367142D01*
X166346190Y-80748095D01*
X165822380Y-79843333D02*
X165822380Y-79224285D01*
X166203333Y-79557619D01*
X166203333Y-79414761D01*
X166250952Y-79319523D01*
X166298571Y-79271904D01*
X166393809Y-79224285D01*
X166631904Y-79224285D01*
X166727142Y-79271904D01*
X166774761Y-79319523D01*
X166822380Y-79414761D01*
X166822380Y-79700476D01*
X166774761Y-79795714D01*
X166727142Y-79843333D01*
X170632380Y-72604285D02*
X170632380Y-73175714D01*
X170632380Y-72890000D02*
X169632380Y-72890000D01*
X169775238Y-72985238D01*
X169870476Y-73080476D01*
X169918095Y-73175714D01*
X170632380Y-72175714D02*
X169632380Y-72175714D01*
X170632380Y-71604285D02*
X170060952Y-72032857D01*
X169632380Y-71604285D02*
X170203809Y-72175714D01*
%TO.C,R2*%
X147772380Y-80176666D02*
X147296190Y-80510000D01*
X147772380Y-80748095D02*
X146772380Y-80748095D01*
X146772380Y-80367142D01*
X146820000Y-80271904D01*
X146867619Y-80224285D01*
X146962857Y-80176666D01*
X147105714Y-80176666D01*
X147200952Y-80224285D01*
X147248571Y-80271904D01*
X147296190Y-80367142D01*
X147296190Y-80748095D01*
X146867619Y-79795714D02*
X146820000Y-79748095D01*
X146772380Y-79652857D01*
X146772380Y-79414761D01*
X146820000Y-79319523D01*
X146867619Y-79271904D01*
X146962857Y-79224285D01*
X147058095Y-79224285D01*
X147200952Y-79271904D01*
X147772380Y-79843333D01*
X147772380Y-79224285D01*
X146772380Y-74175714D02*
X146772380Y-73556666D01*
X147153333Y-73890000D01*
X147153333Y-73747142D01*
X147200952Y-73651904D01*
X147248571Y-73604285D01*
X147343809Y-73556666D01*
X147581904Y-73556666D01*
X147677142Y-73604285D01*
X147724761Y-73651904D01*
X147772380Y-73747142D01*
X147772380Y-74032857D01*
X147724761Y-74128095D01*
X147677142Y-74175714D01*
X147772380Y-73080476D02*
X147772380Y-72890000D01*
X147724761Y-72794761D01*
X147677142Y-72747142D01*
X147534285Y-72651904D01*
X147343809Y-72604285D01*
X146962857Y-72604285D01*
X146867619Y-72651904D01*
X146820000Y-72699523D01*
X146772380Y-72794761D01*
X146772380Y-72985238D01*
X146820000Y-73080476D01*
X146867619Y-73128095D01*
X146962857Y-73175714D01*
X147200952Y-73175714D01*
X147296190Y-73128095D01*
X147343809Y-73080476D01*
X147391428Y-72985238D01*
X147391428Y-72794761D01*
X147343809Y-72699523D01*
X147296190Y-72651904D01*
X147200952Y-72604285D01*
X146772380Y-71985238D02*
X146772380Y-71890000D01*
X146820000Y-71794761D01*
X146867619Y-71747142D01*
X146962857Y-71699523D01*
X147153333Y-71651904D01*
X147391428Y-71651904D01*
X147581904Y-71699523D01*
X147677142Y-71747142D01*
X147724761Y-71794761D01*
X147772380Y-71890000D01*
X147772380Y-71985238D01*
X147724761Y-72080476D01*
X147677142Y-72128095D01*
X147581904Y-72175714D01*
X147391428Y-72223333D01*
X147153333Y-72223333D01*
X146962857Y-72175714D01*
X146867619Y-72128095D01*
X146820000Y-72080476D01*
X146772380Y-71985238D01*
X147772380Y-70651904D02*
X147296190Y-70985238D01*
X147772380Y-71223333D02*
X146772380Y-71223333D01*
X146772380Y-70842380D01*
X146820000Y-70747142D01*
X146867619Y-70699523D01*
X146962857Y-70651904D01*
X147105714Y-70651904D01*
X147200952Y-70699523D01*
X147248571Y-70747142D01*
X147296190Y-70842380D01*
X147296190Y-71223333D01*
%TO.C,R1*%
X151582380Y-80176666D02*
X151106190Y-80510000D01*
X151582380Y-80748095D02*
X150582380Y-80748095D01*
X150582380Y-80367142D01*
X150630000Y-80271904D01*
X150677619Y-80224285D01*
X150772857Y-80176666D01*
X150915714Y-80176666D01*
X151010952Y-80224285D01*
X151058571Y-80271904D01*
X151106190Y-80367142D01*
X151106190Y-80748095D01*
X151582380Y-79224285D02*
X151582380Y-79795714D01*
X151582380Y-79510000D02*
X150582380Y-79510000D01*
X150725238Y-79605238D01*
X150820476Y-79700476D01*
X150868095Y-79795714D01*
X150582380Y-74175714D02*
X150582380Y-73556666D01*
X150963333Y-73890000D01*
X150963333Y-73747142D01*
X151010952Y-73651904D01*
X151058571Y-73604285D01*
X151153809Y-73556666D01*
X151391904Y-73556666D01*
X151487142Y-73604285D01*
X151534761Y-73651904D01*
X151582380Y-73747142D01*
X151582380Y-74032857D01*
X151534761Y-74128095D01*
X151487142Y-74175714D01*
X151582380Y-73080476D02*
X151582380Y-72890000D01*
X151534761Y-72794761D01*
X151487142Y-72747142D01*
X151344285Y-72651904D01*
X151153809Y-72604285D01*
X150772857Y-72604285D01*
X150677619Y-72651904D01*
X150630000Y-72699523D01*
X150582380Y-72794761D01*
X150582380Y-72985238D01*
X150630000Y-73080476D01*
X150677619Y-73128095D01*
X150772857Y-73175714D01*
X151010952Y-73175714D01*
X151106190Y-73128095D01*
X151153809Y-73080476D01*
X151201428Y-72985238D01*
X151201428Y-72794761D01*
X151153809Y-72699523D01*
X151106190Y-72651904D01*
X151010952Y-72604285D01*
X150582380Y-71985238D02*
X150582380Y-71890000D01*
X150630000Y-71794761D01*
X150677619Y-71747142D01*
X150772857Y-71699523D01*
X150963333Y-71651904D01*
X151201428Y-71651904D01*
X151391904Y-71699523D01*
X151487142Y-71747142D01*
X151534761Y-71794761D01*
X151582380Y-71890000D01*
X151582380Y-71985238D01*
X151534761Y-72080476D01*
X151487142Y-72128095D01*
X151391904Y-72175714D01*
X151201428Y-72223333D01*
X150963333Y-72223333D01*
X150772857Y-72175714D01*
X150677619Y-72128095D01*
X150630000Y-72080476D01*
X150582380Y-71985238D01*
X151582380Y-70651904D02*
X151106190Y-70985238D01*
X151582380Y-71223333D02*
X150582380Y-71223333D01*
X150582380Y-70842380D01*
X150630000Y-70747142D01*
X150677619Y-70699523D01*
X150772857Y-70651904D01*
X150915714Y-70651904D01*
X151010952Y-70699523D01*
X151058571Y-70747142D01*
X151106190Y-70842380D01*
X151106190Y-71223333D01*
%TO.C,Q2*%
X168814761Y-88427619D02*
X168719523Y-88380000D01*
X168624285Y-88284761D01*
X168481428Y-88141904D01*
X168386190Y-88094285D01*
X168290952Y-88094285D01*
X168338571Y-88332380D02*
X168243333Y-88284761D01*
X168148095Y-88189523D01*
X168100476Y-87999047D01*
X168100476Y-87665714D01*
X168148095Y-87475238D01*
X168243333Y-87380000D01*
X168338571Y-87332380D01*
X168529047Y-87332380D01*
X168624285Y-87380000D01*
X168719523Y-87475238D01*
X168767142Y-87665714D01*
X168767142Y-87999047D01*
X168719523Y-88189523D01*
X168624285Y-88284761D01*
X168529047Y-88332380D01*
X168338571Y-88332380D01*
X169148095Y-87427619D02*
X169195714Y-87380000D01*
X169290952Y-87332380D01*
X169529047Y-87332380D01*
X169624285Y-87380000D01*
X169671904Y-87427619D01*
X169719523Y-87522857D01*
X169719523Y-87618095D01*
X169671904Y-87760952D01*
X169100476Y-88332380D01*
X169719523Y-88332380D01*
X166290952Y-93682380D02*
X166957619Y-93682380D01*
X166290952Y-94682380D01*
X166957619Y-94682380D01*
X167195714Y-93682380D02*
X167767142Y-93682380D01*
X167481428Y-94682380D02*
X167481428Y-93682380D01*
X168005238Y-93682380D02*
X168671904Y-94682380D01*
X168671904Y-93682380D02*
X168005238Y-94682380D01*
X169481428Y-94015714D02*
X169481428Y-94682380D01*
X169243333Y-93634761D02*
X169005238Y-94349047D01*
X169624285Y-94349047D01*
X170481428Y-93682380D02*
X170005238Y-93682380D01*
X169957619Y-94158571D01*
X170005238Y-94110952D01*
X170100476Y-94063333D01*
X170338571Y-94063333D01*
X170433809Y-94110952D01*
X170481428Y-94158571D01*
X170529047Y-94253809D01*
X170529047Y-94491904D01*
X170481428Y-94587142D01*
X170433809Y-94634761D01*
X170338571Y-94682380D01*
X170100476Y-94682380D01*
X170005238Y-94634761D01*
X169957619Y-94587142D01*
X171148095Y-93682380D02*
X171243333Y-93682380D01*
X171338571Y-93730000D01*
X171386190Y-93777619D01*
X171433809Y-93872857D01*
X171481428Y-94063333D01*
X171481428Y-94301428D01*
X171433809Y-94491904D01*
X171386190Y-94587142D01*
X171338571Y-94634761D01*
X171243333Y-94682380D01*
X171148095Y-94682380D01*
X171052857Y-94634761D01*
X171005238Y-94587142D01*
X170957619Y-94491904D01*
X170910000Y-94301428D01*
X170910000Y-94063333D01*
X170957619Y-93872857D01*
X171005238Y-93777619D01*
X171052857Y-93730000D01*
X171148095Y-93682380D01*
%TO.C,Q1*%
X168306761Y-80557619D02*
X168211523Y-80510000D01*
X168116285Y-80414761D01*
X167973428Y-80271904D01*
X167878190Y-80224285D01*
X167782952Y-80224285D01*
X167830571Y-80462380D02*
X167735333Y-80414761D01*
X167640095Y-80319523D01*
X167592476Y-80129047D01*
X167592476Y-79795714D01*
X167640095Y-79605238D01*
X167735333Y-79510000D01*
X167830571Y-79462380D01*
X168021047Y-79462380D01*
X168116285Y-79510000D01*
X168211523Y-79605238D01*
X168259142Y-79795714D01*
X168259142Y-80129047D01*
X168211523Y-80319523D01*
X168116285Y-80414761D01*
X168021047Y-80462380D01*
X167830571Y-80462380D01*
X169211523Y-80462380D02*
X168640095Y-80462380D01*
X168925809Y-80462380D02*
X168925809Y-79462380D01*
X168830571Y-79605238D01*
X168735333Y-79700476D01*
X168640095Y-79748095D01*
X166290952Y-86062380D02*
X166957619Y-86062380D01*
X166290952Y-87062380D01*
X166957619Y-87062380D01*
X167195714Y-86062380D02*
X167767142Y-86062380D01*
X167481428Y-87062380D02*
X167481428Y-86062380D01*
X168005238Y-86062380D02*
X168671904Y-87062380D01*
X168671904Y-86062380D02*
X168005238Y-87062380D01*
X169481428Y-86395714D02*
X169481428Y-87062380D01*
X169243333Y-86014761D02*
X169005238Y-86729047D01*
X169624285Y-86729047D01*
X170481428Y-86062380D02*
X170005238Y-86062380D01*
X169957619Y-86538571D01*
X170005238Y-86490952D01*
X170100476Y-86443333D01*
X170338571Y-86443333D01*
X170433809Y-86490952D01*
X170481428Y-86538571D01*
X170529047Y-86633809D01*
X170529047Y-86871904D01*
X170481428Y-86967142D01*
X170433809Y-87014761D01*
X170338571Y-87062380D01*
X170100476Y-87062380D01*
X170005238Y-87014761D01*
X169957619Y-86967142D01*
X171148095Y-86062380D02*
X171243333Y-86062380D01*
X171338571Y-86110000D01*
X171386190Y-86157619D01*
X171433809Y-86252857D01*
X171481428Y-86443333D01*
X171481428Y-86681428D01*
X171433809Y-86871904D01*
X171386190Y-86967142D01*
X171338571Y-87014761D01*
X171243333Y-87062380D01*
X171148095Y-87062380D01*
X171052857Y-87014761D01*
X171005238Y-86967142D01*
X170957619Y-86871904D01*
X170910000Y-86681428D01*
X170910000Y-86443333D01*
X170957619Y-86252857D01*
X171005238Y-86157619D01*
X171052857Y-86110000D01*
X171148095Y-86062380D01*
%TO.C,J1*%
X158416666Y-89622380D02*
X158416666Y-90336666D01*
X158369047Y-90479523D01*
X158273809Y-90574761D01*
X158130952Y-90622380D01*
X158035714Y-90622380D01*
X159416666Y-90622380D02*
X158845238Y-90622380D01*
X159130952Y-90622380D02*
X159130952Y-89622380D01*
X159035714Y-89765238D01*
X158940476Y-89860476D01*
X158845238Y-89908095D01*
%TD*%
M02*
