M48
; DRILL file {KiCad (5.1.6)-1} date 12/04/21 14:03:33
; FORMAT={-:-/ absolute / inch / decimal}
; #@! TF.CreationDate,2021-12-04T14:03:33-08:00
; #@! TF.GenerationSoftware,Kicad,Pcbnew,(5.1.6)-1
; #@! TF.FileFunction,Plated,1,2,PTH
FMAT,2
INCH
T1C0.0157
T2C0.0394
%
G90
G05
T1
X5.045Y-2.245
X5.065Y-4.19
X5.295Y-2.64
X5.295Y-2.74
X5.3Y-2.34
X5.3Y-2.44
X5.3Y-2.54
X5.3Y-2.945
X5.3Y-3.145
X5.3Y-3.24
X5.3Y-3.44
X5.3Y-3.54
X5.3Y-3.64
X5.3Y-3.735
X5.3Y-3.845
X5.3Y-3.945
X5.3Y-4.04
X5.3Y-4.145
X5.305Y-2.84
X5.305Y-3.05
X5.305Y-3.335
X5.595Y-2.94
X5.595Y-3.045
X5.6Y-2.34
X5.6Y-2.44
X5.6Y-2.545
X5.6Y-2.645
X5.6Y-2.84
X5.6Y-3.135
X5.6Y-3.54
X5.6Y-3.64
X5.6Y-3.745
X5.6Y-3.845
X5.6Y-4.14
X5.605Y-2.74
X5.605Y-3.24
X5.605Y-3.345
X5.605Y-3.445
X5.85Y-2.245
X5.85Y-4.2
T2
X5.4Y-2.29
X5.4Y-2.39
X5.4Y-2.49
X5.4Y-2.59
X5.4Y-2.69
X5.4Y-2.79
X5.4Y-2.89
X5.4Y-2.99
X5.4Y-3.09
X5.4Y-3.19
X5.4Y-3.29
X5.4Y-3.39
X5.4Y-3.49
X5.4Y-3.59
X5.4Y-3.69
X5.4Y-3.79
X5.4Y-3.89
X5.4Y-3.99
X5.4Y-4.09
X5.4Y-4.19
X5.5Y-2.29
X5.5Y-2.39
X5.5Y-2.49
X5.5Y-2.59
X5.5Y-2.69
X5.5Y-2.79
X5.5Y-2.89
X5.5Y-2.99
X5.5Y-3.09
X5.5Y-3.19
X5.5Y-3.29
X5.5Y-3.39
X5.5Y-3.49
X5.5Y-3.59
X5.5Y-3.69
X5.5Y-3.79
X5.5Y-3.89
X5.5Y-3.99
X5.5Y-4.09
X5.5Y-4.19
X5.2Y-2.29
X5.2Y-2.39
X5.2Y-2.49
X5.2Y-2.59
X5.2Y-2.69
X5.2Y-2.79
X5.2Y-2.89
X5.2Y-2.99
X5.2Y-3.09
X5.2Y-3.19
X5.2Y-3.29
X5.2Y-3.39
X5.2Y-3.49
X5.2Y-3.59
X5.2Y-3.69
X5.2Y-3.79
X5.2Y-3.89
X5.2Y-3.99
X5.2Y-4.09
X5.2Y-4.19
X5.7Y-2.29
X5.7Y-2.39
X5.7Y-2.49
X5.7Y-2.59
X5.7Y-2.69
X5.7Y-2.79
X5.7Y-2.89
X5.7Y-2.99
X5.7Y-3.09
X5.7Y-3.19
X5.7Y-3.29
X5.7Y-3.39
X5.7Y-3.49
X5.7Y-3.59
X5.7Y-3.69
X5.7Y-3.79
X5.7Y-3.89
X5.7Y-3.99
X5.7Y-4.09
X5.7Y-4.19
T0
M30
