%TF.GenerationSoftware,KiCad,Pcbnew,(5.1.6)-1*%
%TF.CreationDate,2021-12-04T14:03:29-08:00*%
%TF.ProjectId,Speeduino Pin Test Board,53706565-6475-4696-9e6f-2050696e2054,rev?*%
%TF.SameCoordinates,Original*%
%TF.FileFunction,Soldermask,Bot*%
%TF.FilePolarity,Negative*%
%FSLAX46Y46*%
G04 Gerber Fmt 4.6, Leading zero omitted, Abs format (unit mm)*
G04 Created by KiCad (PCBNEW (5.1.6)-1) date 2021-12-04 14:03:29*
%MOMM*%
%LPD*%
G01*
G04 APERTURE LIST*
%ADD10O,1.800000X1.800000*%
%ADD11R,1.800000X1.800000*%
G04 APERTURE END LIST*
D10*
%TO.C,J2*%
X139700000Y-106426000D03*
X137160000Y-106426000D03*
X139700000Y-103886000D03*
X137160000Y-103886000D03*
X139700000Y-101346000D03*
X137160000Y-101346000D03*
X139700000Y-98806000D03*
X137160000Y-98806000D03*
X139700000Y-96266000D03*
X137160000Y-96266000D03*
X139700000Y-93726000D03*
X137160000Y-93726000D03*
X139700000Y-91186000D03*
X137160000Y-91186000D03*
X139700000Y-88646000D03*
X137160000Y-88646000D03*
X139700000Y-86106000D03*
X137160000Y-86106000D03*
X139700000Y-83566000D03*
X137160000Y-83566000D03*
X139700000Y-81026000D03*
X137160000Y-81026000D03*
X139700000Y-78486000D03*
X137160000Y-78486000D03*
X139700000Y-75946000D03*
X137160000Y-75946000D03*
X139700000Y-73406000D03*
X137160000Y-73406000D03*
X139700000Y-70866000D03*
X137160000Y-70866000D03*
X139700000Y-68326000D03*
X137160000Y-68326000D03*
X139700000Y-65786000D03*
X137160000Y-65786000D03*
X139700000Y-63246000D03*
X137160000Y-63246000D03*
X139700000Y-60706000D03*
X137160000Y-60706000D03*
X139700000Y-58166000D03*
D11*
X137160000Y-58166000D03*
%TD*%
D10*
%TO.C,J3*%
X144780000Y-106426000D03*
X144780000Y-103886000D03*
X144780000Y-101346000D03*
X144780000Y-98806000D03*
X144780000Y-96266000D03*
X144780000Y-93726000D03*
X144780000Y-91186000D03*
X144780000Y-88646000D03*
X144780000Y-86106000D03*
X144780000Y-83566000D03*
X144780000Y-81026000D03*
X144780000Y-78486000D03*
X144780000Y-75946000D03*
X144780000Y-73406000D03*
X144780000Y-70866000D03*
X144780000Y-68326000D03*
X144780000Y-65786000D03*
X144780000Y-63246000D03*
X144780000Y-60706000D03*
D11*
X144780000Y-58166000D03*
%TD*%
D10*
%TO.C,J1*%
X132080000Y-106426000D03*
X132080000Y-103886000D03*
X132080000Y-101346000D03*
X132080000Y-98806000D03*
X132080000Y-96266000D03*
X132080000Y-93726000D03*
X132080000Y-91186000D03*
X132080000Y-88646000D03*
X132080000Y-86106000D03*
X132080000Y-83566000D03*
X132080000Y-81026000D03*
X132080000Y-78486000D03*
X132080000Y-75946000D03*
X132080000Y-73406000D03*
X132080000Y-70866000D03*
X132080000Y-68326000D03*
X132080000Y-65786000D03*
X132080000Y-63246000D03*
X132080000Y-60706000D03*
D11*
X132080000Y-58166000D03*
%TD*%
M02*
