%TF.GenerationSoftware,KiCad,Pcbnew,(5.1.6)-1*%
%TF.CreationDate,2021-12-04T14:03:29-08:00*%
%TF.ProjectId,Speeduino Pin Test Board,53706565-6475-4696-9e6f-2050696e2054,rev?*%
%TF.SameCoordinates,Original*%
%TF.FileFunction,Copper,L2,Bot*%
%TF.FilePolarity,Positive*%
%FSLAX46Y46*%
G04 Gerber Fmt 4.6, Leading zero omitted, Abs format (unit mm)*
G04 Created by KiCad (PCBNEW (5.1.6)-1) date 2021-12-04 14:03:29*
%MOMM*%
%LPD*%
G01*
G04 APERTURE LIST*
%TA.AperFunction,ComponentPad*%
%ADD10O,1.700000X1.700000*%
%TD*%
%TA.AperFunction,ComponentPad*%
%ADD11R,1.700000X1.700000*%
%TD*%
%TA.AperFunction,ViaPad*%
%ADD12C,0.800000*%
%TD*%
%TA.AperFunction,Conductor*%
%ADD13C,0.254000*%
%TD*%
G04 APERTURE END LIST*
D10*
%TO.P,J2,21*%
%TO.N,Net-(J2-Pad21)*%
X139700000Y-106426000D03*
%TO.P,J2,20*%
%TO.N,Net-(J1-Pad20)*%
X137160000Y-106426000D03*
%TO.P,J2,22*%
%TO.N,Net-(J2-Pad22)*%
X139700000Y-103886000D03*
%TO.P,J2,19*%
%TO.N,Net-(J1-Pad19)*%
X137160000Y-103886000D03*
%TO.P,J2,23*%
%TO.N,GND*%
X139700000Y-101346000D03*
%TO.P,J2,18*%
%TO.N,Net-(J1-Pad18)*%
X137160000Y-101346000D03*
%TO.P,J2,24*%
%TO.N,Net-(J2-Pad24)*%
X139700000Y-98806000D03*
%TO.P,J2,17*%
%TO.N,Net-(J1-Pad17)*%
X137160000Y-98806000D03*
%TO.P,J2,25*%
%TO.N,Net-(J2-Pad25)*%
X139700000Y-96266000D03*
%TO.P,J2,16*%
%TO.N,Net-(J1-Pad16)*%
X137160000Y-96266000D03*
%TO.P,J2,26*%
%TO.N,Net-(J2-Pad26)*%
X139700000Y-93726000D03*
%TO.P,J2,15*%
%TO.N,Net-(J1-Pad15)*%
X137160000Y-93726000D03*
%TO.P,J2,27*%
%TO.N,Net-(J2-Pad27)*%
X139700000Y-91186000D03*
%TO.P,J2,14*%
%TO.N,Net-(J1-Pad14)*%
X137160000Y-91186000D03*
%TO.P,J2,28*%
%TO.N,Net-(J2-Pad28)*%
X139700000Y-88646000D03*
%TO.P,J2,13*%
%TO.N,Net-(J1-Pad13)*%
X137160000Y-88646000D03*
%TO.P,J2,29*%
%TO.N,Net-(J2-Pad29)*%
X139700000Y-86106000D03*
%TO.P,J2,12*%
%TO.N,Net-(J1-Pad12)*%
X137160000Y-86106000D03*
%TO.P,J2,30*%
%TO.N,Net-(J2-Pad30)*%
X139700000Y-83566000D03*
%TO.P,J2,11*%
%TO.N,Net-(J1-Pad11)*%
X137160000Y-83566000D03*
%TO.P,J2,31*%
%TO.N,Net-(J2-Pad31)*%
X139700000Y-81026000D03*
%TO.P,J2,10*%
%TO.N,GND*%
X137160000Y-81026000D03*
%TO.P,J2,32*%
%TO.N,Net-(J2-Pad32)*%
X139700000Y-78486000D03*
%TO.P,J2,9*%
%TO.N,GND*%
X137160000Y-78486000D03*
%TO.P,J2,33*%
%TO.N,Net-(J2-Pad33)*%
X139700000Y-75946000D03*
%TO.P,J2,8*%
%TO.N,Net-(J1-Pad8)*%
X137160000Y-75946000D03*
%TO.P,J2,34*%
%TO.N,Net-(J2-Pad34)*%
X139700000Y-73406000D03*
%TO.P,J2,7*%
%TO.N,Net-(J1-Pad7)*%
X137160000Y-73406000D03*
%TO.P,J2,35*%
%TO.N,Net-(J2-Pad35)*%
X139700000Y-70866000D03*
%TO.P,J2,6*%
%TO.N,Net-(J1-Pad6)*%
X137160000Y-70866000D03*
%TO.P,J2,36*%
%TO.N,Net-(J2-Pad36)*%
X139700000Y-68326000D03*
%TO.P,J2,5*%
%TO.N,Net-(J1-Pad5)*%
X137160000Y-68326000D03*
%TO.P,J2,37*%
%TO.N,Net-(J2-Pad37)*%
X139700000Y-65786000D03*
%TO.P,J2,4*%
%TO.N,Net-(J1-Pad4)*%
X137160000Y-65786000D03*
%TO.P,J2,38*%
%TO.N,Net-(J2-Pad38)*%
X139700000Y-63246000D03*
%TO.P,J2,3*%
%TO.N,Net-(J1-Pad3)*%
X137160000Y-63246000D03*
%TO.P,J2,39*%
%TO.N,Net-(J2-Pad39)*%
X139700000Y-60706000D03*
%TO.P,J2,2*%
%TO.N,Net-(J1-Pad2)*%
X137160000Y-60706000D03*
%TO.P,J2,40*%
%TO.N,Net-(J2-Pad40)*%
X139700000Y-58166000D03*
D11*
%TO.P,J2,1*%
%TO.N,Net-(J1-Pad1)*%
X137160000Y-58166000D03*
%TD*%
D10*
%TO.P,J3,20*%
%TO.N,Net-(J2-Pad21)*%
X144780000Y-106426000D03*
%TO.P,J3,19*%
%TO.N,Net-(J2-Pad22)*%
X144780000Y-103886000D03*
%TO.P,J3,18*%
%TO.N,GND*%
X144780000Y-101346000D03*
%TO.P,J3,17*%
%TO.N,Net-(J2-Pad24)*%
X144780000Y-98806000D03*
%TO.P,J3,16*%
%TO.N,Net-(J2-Pad25)*%
X144780000Y-96266000D03*
%TO.P,J3,15*%
%TO.N,Net-(J2-Pad26)*%
X144780000Y-93726000D03*
%TO.P,J3,14*%
%TO.N,Net-(J2-Pad27)*%
X144780000Y-91186000D03*
%TO.P,J3,13*%
%TO.N,Net-(J2-Pad28)*%
X144780000Y-88646000D03*
%TO.P,J3,12*%
%TO.N,Net-(J2-Pad29)*%
X144780000Y-86106000D03*
%TO.P,J3,11*%
%TO.N,Net-(J2-Pad30)*%
X144780000Y-83566000D03*
%TO.P,J3,10*%
%TO.N,Net-(J2-Pad31)*%
X144780000Y-81026000D03*
%TO.P,J3,9*%
%TO.N,Net-(J2-Pad32)*%
X144780000Y-78486000D03*
%TO.P,J3,8*%
%TO.N,Net-(J2-Pad33)*%
X144780000Y-75946000D03*
%TO.P,J3,7*%
%TO.N,Net-(J2-Pad34)*%
X144780000Y-73406000D03*
%TO.P,J3,6*%
%TO.N,Net-(J2-Pad35)*%
X144780000Y-70866000D03*
%TO.P,J3,5*%
%TO.N,Net-(J2-Pad36)*%
X144780000Y-68326000D03*
%TO.P,J3,4*%
%TO.N,Net-(J2-Pad37)*%
X144780000Y-65786000D03*
%TO.P,J3,3*%
%TO.N,Net-(J2-Pad38)*%
X144780000Y-63246000D03*
%TO.P,J3,2*%
%TO.N,Net-(J2-Pad39)*%
X144780000Y-60706000D03*
D11*
%TO.P,J3,1*%
%TO.N,Net-(J2-Pad40)*%
X144780000Y-58166000D03*
%TD*%
D10*
%TO.P,J1,20*%
%TO.N,Net-(J1-Pad20)*%
X132080000Y-106426000D03*
%TO.P,J1,19*%
%TO.N,Net-(J1-Pad19)*%
X132080000Y-103886000D03*
%TO.P,J1,18*%
%TO.N,Net-(J1-Pad18)*%
X132080000Y-101346000D03*
%TO.P,J1,17*%
%TO.N,Net-(J1-Pad17)*%
X132080000Y-98806000D03*
%TO.P,J1,16*%
%TO.N,Net-(J1-Pad16)*%
X132080000Y-96266000D03*
%TO.P,J1,15*%
%TO.N,Net-(J1-Pad15)*%
X132080000Y-93726000D03*
%TO.P,J1,14*%
%TO.N,Net-(J1-Pad14)*%
X132080000Y-91186000D03*
%TO.P,J1,13*%
%TO.N,Net-(J1-Pad13)*%
X132080000Y-88646000D03*
%TO.P,J1,12*%
%TO.N,Net-(J1-Pad12)*%
X132080000Y-86106000D03*
%TO.P,J1,11*%
%TO.N,Net-(J1-Pad11)*%
X132080000Y-83566000D03*
%TO.P,J1,10*%
%TO.N,GND*%
X132080000Y-81026000D03*
%TO.P,J1,9*%
X132080000Y-78486000D03*
%TO.P,J1,8*%
%TO.N,Net-(J1-Pad8)*%
X132080000Y-75946000D03*
%TO.P,J1,7*%
%TO.N,Net-(J1-Pad7)*%
X132080000Y-73406000D03*
%TO.P,J1,6*%
%TO.N,Net-(J1-Pad6)*%
X132080000Y-70866000D03*
%TO.P,J1,5*%
%TO.N,Net-(J1-Pad5)*%
X132080000Y-68326000D03*
%TO.P,J1,4*%
%TO.N,Net-(J1-Pad4)*%
X132080000Y-65786000D03*
%TO.P,J1,3*%
%TO.N,Net-(J1-Pad3)*%
X132080000Y-63246000D03*
%TO.P,J1,2*%
%TO.N,Net-(J1-Pad2)*%
X132080000Y-60706000D03*
D11*
%TO.P,J1,1*%
%TO.N,Net-(J1-Pad1)*%
X132080000Y-58166000D03*
%TD*%
D12*
%TO.N,GND*%
X142240000Y-105156000D03*
X134620000Y-105283000D03*
X134620000Y-102616000D03*
X134620000Y-100203000D03*
X134620000Y-97663000D03*
X142240000Y-97663000D03*
X142240000Y-95123000D03*
X134620000Y-94869000D03*
X134620000Y-92456000D03*
X142240000Y-92456000D03*
X134620000Y-89916000D03*
X142240000Y-89916000D03*
X134620000Y-87376000D03*
X142367000Y-87503000D03*
X142367000Y-84963000D03*
X134747000Y-84709000D03*
X142367000Y-82296000D03*
X142240000Y-79629000D03*
X142113000Y-77343000D03*
X142113000Y-74676000D03*
X134620000Y-74803000D03*
X134747000Y-72136000D03*
X134747000Y-77470000D03*
X134620000Y-79883000D03*
X134620000Y-82296000D03*
X142240000Y-72136000D03*
X142367000Y-69596000D03*
X134493000Y-69596000D03*
X134493000Y-67056000D03*
X142240000Y-67183000D03*
X142240000Y-64643000D03*
X134620000Y-64516000D03*
X134620000Y-61976000D03*
X142240000Y-61976000D03*
X142240000Y-59436000D03*
X134620000Y-59436000D03*
X128143000Y-57023000D03*
X148590000Y-57023000D03*
X148590000Y-106680000D03*
X128651000Y-106426000D03*
%TD*%
D13*
%TO.N,GND*%
G36*
X149835001Y-107925000D02*
G01*
X127025000Y-107925000D01*
X127025000Y-83419740D01*
X130595000Y-83419740D01*
X130595000Y-83712260D01*
X130652068Y-83999158D01*
X130764010Y-84269411D01*
X130926525Y-84512632D01*
X131133368Y-84719475D01*
X131307760Y-84836000D01*
X131133368Y-84952525D01*
X130926525Y-85159368D01*
X130764010Y-85402589D01*
X130652068Y-85672842D01*
X130595000Y-85959740D01*
X130595000Y-86252260D01*
X130652068Y-86539158D01*
X130764010Y-86809411D01*
X130926525Y-87052632D01*
X131133368Y-87259475D01*
X131307760Y-87376000D01*
X131133368Y-87492525D01*
X130926525Y-87699368D01*
X130764010Y-87942589D01*
X130652068Y-88212842D01*
X130595000Y-88499740D01*
X130595000Y-88792260D01*
X130652068Y-89079158D01*
X130764010Y-89349411D01*
X130926525Y-89592632D01*
X131133368Y-89799475D01*
X131307760Y-89916000D01*
X131133368Y-90032525D01*
X130926525Y-90239368D01*
X130764010Y-90482589D01*
X130652068Y-90752842D01*
X130595000Y-91039740D01*
X130595000Y-91332260D01*
X130652068Y-91619158D01*
X130764010Y-91889411D01*
X130926525Y-92132632D01*
X131133368Y-92339475D01*
X131307760Y-92456000D01*
X131133368Y-92572525D01*
X130926525Y-92779368D01*
X130764010Y-93022589D01*
X130652068Y-93292842D01*
X130595000Y-93579740D01*
X130595000Y-93872260D01*
X130652068Y-94159158D01*
X130764010Y-94429411D01*
X130926525Y-94672632D01*
X131133368Y-94879475D01*
X131307760Y-94996000D01*
X131133368Y-95112525D01*
X130926525Y-95319368D01*
X130764010Y-95562589D01*
X130652068Y-95832842D01*
X130595000Y-96119740D01*
X130595000Y-96412260D01*
X130652068Y-96699158D01*
X130764010Y-96969411D01*
X130926525Y-97212632D01*
X131133368Y-97419475D01*
X131307760Y-97536000D01*
X131133368Y-97652525D01*
X130926525Y-97859368D01*
X130764010Y-98102589D01*
X130652068Y-98372842D01*
X130595000Y-98659740D01*
X130595000Y-98952260D01*
X130652068Y-99239158D01*
X130764010Y-99509411D01*
X130926525Y-99752632D01*
X131133368Y-99959475D01*
X131307760Y-100076000D01*
X131133368Y-100192525D01*
X130926525Y-100399368D01*
X130764010Y-100642589D01*
X130652068Y-100912842D01*
X130595000Y-101199740D01*
X130595000Y-101492260D01*
X130652068Y-101779158D01*
X130764010Y-102049411D01*
X130926525Y-102292632D01*
X131133368Y-102499475D01*
X131307760Y-102616000D01*
X131133368Y-102732525D01*
X130926525Y-102939368D01*
X130764010Y-103182589D01*
X130652068Y-103452842D01*
X130595000Y-103739740D01*
X130595000Y-104032260D01*
X130652068Y-104319158D01*
X130764010Y-104589411D01*
X130926525Y-104832632D01*
X131133368Y-105039475D01*
X131307760Y-105156000D01*
X131133368Y-105272525D01*
X130926525Y-105479368D01*
X130764010Y-105722589D01*
X130652068Y-105992842D01*
X130595000Y-106279740D01*
X130595000Y-106572260D01*
X130652068Y-106859158D01*
X130764010Y-107129411D01*
X130926525Y-107372632D01*
X131133368Y-107579475D01*
X131376589Y-107741990D01*
X131646842Y-107853932D01*
X131933740Y-107911000D01*
X132226260Y-107911000D01*
X132513158Y-107853932D01*
X132783411Y-107741990D01*
X133026632Y-107579475D01*
X133233475Y-107372632D01*
X133395990Y-107129411D01*
X133507932Y-106859158D01*
X133565000Y-106572260D01*
X133565000Y-106279740D01*
X133507932Y-105992842D01*
X133395990Y-105722589D01*
X133233475Y-105479368D01*
X133026632Y-105272525D01*
X132852240Y-105156000D01*
X133026632Y-105039475D01*
X133233475Y-104832632D01*
X133395990Y-104589411D01*
X133507932Y-104319158D01*
X133565000Y-104032260D01*
X133565000Y-103739740D01*
X133507932Y-103452842D01*
X133395990Y-103182589D01*
X133233475Y-102939368D01*
X133026632Y-102732525D01*
X132852240Y-102616000D01*
X133026632Y-102499475D01*
X133233475Y-102292632D01*
X133395990Y-102049411D01*
X133507932Y-101779158D01*
X133565000Y-101492260D01*
X133565000Y-101199740D01*
X133507932Y-100912842D01*
X133395990Y-100642589D01*
X133233475Y-100399368D01*
X133026632Y-100192525D01*
X132852240Y-100076000D01*
X133026632Y-99959475D01*
X133233475Y-99752632D01*
X133395990Y-99509411D01*
X133507932Y-99239158D01*
X133565000Y-98952260D01*
X133565000Y-98659740D01*
X133507932Y-98372842D01*
X133395990Y-98102589D01*
X133233475Y-97859368D01*
X133026632Y-97652525D01*
X132852240Y-97536000D01*
X133026632Y-97419475D01*
X133233475Y-97212632D01*
X133395990Y-96969411D01*
X133507932Y-96699158D01*
X133565000Y-96412260D01*
X133565000Y-96119740D01*
X133507932Y-95832842D01*
X133395990Y-95562589D01*
X133233475Y-95319368D01*
X133026632Y-95112525D01*
X132852240Y-94996000D01*
X133026632Y-94879475D01*
X133233475Y-94672632D01*
X133395990Y-94429411D01*
X133507932Y-94159158D01*
X133565000Y-93872260D01*
X133565000Y-93579740D01*
X133507932Y-93292842D01*
X133395990Y-93022589D01*
X133233475Y-92779368D01*
X133026632Y-92572525D01*
X132852240Y-92456000D01*
X133026632Y-92339475D01*
X133233475Y-92132632D01*
X133395990Y-91889411D01*
X133507932Y-91619158D01*
X133565000Y-91332260D01*
X133565000Y-91039740D01*
X133507932Y-90752842D01*
X133395990Y-90482589D01*
X133233475Y-90239368D01*
X133026632Y-90032525D01*
X132852240Y-89916000D01*
X133026632Y-89799475D01*
X133233475Y-89592632D01*
X133395990Y-89349411D01*
X133507932Y-89079158D01*
X133565000Y-88792260D01*
X133565000Y-88499740D01*
X133507932Y-88212842D01*
X133395990Y-87942589D01*
X133233475Y-87699368D01*
X133026632Y-87492525D01*
X132852240Y-87376000D01*
X133026632Y-87259475D01*
X133233475Y-87052632D01*
X133395990Y-86809411D01*
X133507932Y-86539158D01*
X133565000Y-86252260D01*
X133565000Y-85959740D01*
X133507932Y-85672842D01*
X133395990Y-85402589D01*
X133233475Y-85159368D01*
X133026632Y-84952525D01*
X132852240Y-84836000D01*
X133026632Y-84719475D01*
X133233475Y-84512632D01*
X133395990Y-84269411D01*
X133507932Y-83999158D01*
X133565000Y-83712260D01*
X133565000Y-83419740D01*
X133507932Y-83132842D01*
X133395990Y-82862589D01*
X133233475Y-82619368D01*
X133026632Y-82412525D01*
X132844466Y-82290805D01*
X132961355Y-82221178D01*
X133177588Y-82026269D01*
X133351641Y-81792920D01*
X133476825Y-81530099D01*
X133521476Y-81382890D01*
X133400155Y-81153000D01*
X132207000Y-81153000D01*
X132207000Y-81173000D01*
X131953000Y-81173000D01*
X131953000Y-81153000D01*
X130759845Y-81153000D01*
X130638524Y-81382890D01*
X130683175Y-81530099D01*
X130808359Y-81792920D01*
X130982412Y-82026269D01*
X131198645Y-82221178D01*
X131315534Y-82290805D01*
X131133368Y-82412525D01*
X130926525Y-82619368D01*
X130764010Y-82862589D01*
X130652068Y-83132842D01*
X130595000Y-83419740D01*
X127025000Y-83419740D01*
X127025000Y-78842890D01*
X130638524Y-78842890D01*
X130683175Y-78990099D01*
X130808359Y-79252920D01*
X130982412Y-79486269D01*
X131198645Y-79681178D01*
X131324255Y-79756000D01*
X131198645Y-79830822D01*
X130982412Y-80025731D01*
X130808359Y-80259080D01*
X130683175Y-80521901D01*
X130638524Y-80669110D01*
X130759845Y-80899000D01*
X131953000Y-80899000D01*
X131953000Y-78613000D01*
X132207000Y-78613000D01*
X132207000Y-80899000D01*
X133400155Y-80899000D01*
X133521476Y-80669110D01*
X133476825Y-80521901D01*
X133351641Y-80259080D01*
X133177588Y-80025731D01*
X132961355Y-79830822D01*
X132835745Y-79756000D01*
X132961355Y-79681178D01*
X133177588Y-79486269D01*
X133351641Y-79252920D01*
X133476825Y-78990099D01*
X133521476Y-78842890D01*
X135718524Y-78842890D01*
X135763175Y-78990099D01*
X135888359Y-79252920D01*
X136062412Y-79486269D01*
X136278645Y-79681178D01*
X136404255Y-79756000D01*
X136278645Y-79830822D01*
X136062412Y-80025731D01*
X135888359Y-80259080D01*
X135763175Y-80521901D01*
X135718524Y-80669110D01*
X135839845Y-80899000D01*
X137033000Y-80899000D01*
X137033000Y-78613000D01*
X135839845Y-78613000D01*
X135718524Y-78842890D01*
X133521476Y-78842890D01*
X133400155Y-78613000D01*
X132207000Y-78613000D01*
X131953000Y-78613000D01*
X130759845Y-78613000D01*
X130638524Y-78842890D01*
X127025000Y-78842890D01*
X127025000Y-57316000D01*
X130591928Y-57316000D01*
X130591928Y-59016000D01*
X130604188Y-59140482D01*
X130640498Y-59260180D01*
X130699463Y-59370494D01*
X130778815Y-59467185D01*
X130875506Y-59546537D01*
X130985820Y-59605502D01*
X131058380Y-59627513D01*
X130926525Y-59759368D01*
X130764010Y-60002589D01*
X130652068Y-60272842D01*
X130595000Y-60559740D01*
X130595000Y-60852260D01*
X130652068Y-61139158D01*
X130764010Y-61409411D01*
X130926525Y-61652632D01*
X131133368Y-61859475D01*
X131307760Y-61976000D01*
X131133368Y-62092525D01*
X130926525Y-62299368D01*
X130764010Y-62542589D01*
X130652068Y-62812842D01*
X130595000Y-63099740D01*
X130595000Y-63392260D01*
X130652068Y-63679158D01*
X130764010Y-63949411D01*
X130926525Y-64192632D01*
X131133368Y-64399475D01*
X131307760Y-64516000D01*
X131133368Y-64632525D01*
X130926525Y-64839368D01*
X130764010Y-65082589D01*
X130652068Y-65352842D01*
X130595000Y-65639740D01*
X130595000Y-65932260D01*
X130652068Y-66219158D01*
X130764010Y-66489411D01*
X130926525Y-66732632D01*
X131133368Y-66939475D01*
X131307760Y-67056000D01*
X131133368Y-67172525D01*
X130926525Y-67379368D01*
X130764010Y-67622589D01*
X130652068Y-67892842D01*
X130595000Y-68179740D01*
X130595000Y-68472260D01*
X130652068Y-68759158D01*
X130764010Y-69029411D01*
X130926525Y-69272632D01*
X131133368Y-69479475D01*
X131307760Y-69596000D01*
X131133368Y-69712525D01*
X130926525Y-69919368D01*
X130764010Y-70162589D01*
X130652068Y-70432842D01*
X130595000Y-70719740D01*
X130595000Y-71012260D01*
X130652068Y-71299158D01*
X130764010Y-71569411D01*
X130926525Y-71812632D01*
X131133368Y-72019475D01*
X131307760Y-72136000D01*
X131133368Y-72252525D01*
X130926525Y-72459368D01*
X130764010Y-72702589D01*
X130652068Y-72972842D01*
X130595000Y-73259740D01*
X130595000Y-73552260D01*
X130652068Y-73839158D01*
X130764010Y-74109411D01*
X130926525Y-74352632D01*
X131133368Y-74559475D01*
X131307760Y-74676000D01*
X131133368Y-74792525D01*
X130926525Y-74999368D01*
X130764010Y-75242589D01*
X130652068Y-75512842D01*
X130595000Y-75799740D01*
X130595000Y-76092260D01*
X130652068Y-76379158D01*
X130764010Y-76649411D01*
X130926525Y-76892632D01*
X131133368Y-77099475D01*
X131315534Y-77221195D01*
X131198645Y-77290822D01*
X130982412Y-77485731D01*
X130808359Y-77719080D01*
X130683175Y-77981901D01*
X130638524Y-78129110D01*
X130759845Y-78359000D01*
X131953000Y-78359000D01*
X131953000Y-78339000D01*
X132207000Y-78339000D01*
X132207000Y-78359000D01*
X133400155Y-78359000D01*
X133521476Y-78129110D01*
X133476825Y-77981901D01*
X133351641Y-77719080D01*
X133177588Y-77485731D01*
X132961355Y-77290822D01*
X132844466Y-77221195D01*
X133026632Y-77099475D01*
X133233475Y-76892632D01*
X133395990Y-76649411D01*
X133507932Y-76379158D01*
X133565000Y-76092260D01*
X133565000Y-75799740D01*
X133507932Y-75512842D01*
X133395990Y-75242589D01*
X133233475Y-74999368D01*
X133026632Y-74792525D01*
X132852240Y-74676000D01*
X133026632Y-74559475D01*
X133233475Y-74352632D01*
X133395990Y-74109411D01*
X133507932Y-73839158D01*
X133565000Y-73552260D01*
X133565000Y-73259740D01*
X133507932Y-72972842D01*
X133395990Y-72702589D01*
X133233475Y-72459368D01*
X133026632Y-72252525D01*
X132852240Y-72136000D01*
X133026632Y-72019475D01*
X133233475Y-71812632D01*
X133395990Y-71569411D01*
X133507932Y-71299158D01*
X133565000Y-71012260D01*
X133565000Y-70719740D01*
X133507932Y-70432842D01*
X133395990Y-70162589D01*
X133233475Y-69919368D01*
X133026632Y-69712525D01*
X132852240Y-69596000D01*
X133026632Y-69479475D01*
X133233475Y-69272632D01*
X133395990Y-69029411D01*
X133507932Y-68759158D01*
X133565000Y-68472260D01*
X133565000Y-68179740D01*
X133507932Y-67892842D01*
X133395990Y-67622589D01*
X133233475Y-67379368D01*
X133026632Y-67172525D01*
X132852240Y-67056000D01*
X133026632Y-66939475D01*
X133233475Y-66732632D01*
X133395990Y-66489411D01*
X133507932Y-66219158D01*
X133565000Y-65932260D01*
X133565000Y-65639740D01*
X133507932Y-65352842D01*
X133395990Y-65082589D01*
X133233475Y-64839368D01*
X133026632Y-64632525D01*
X132852240Y-64516000D01*
X133026632Y-64399475D01*
X133233475Y-64192632D01*
X133395990Y-63949411D01*
X133507932Y-63679158D01*
X133565000Y-63392260D01*
X133565000Y-63099740D01*
X133507932Y-62812842D01*
X133395990Y-62542589D01*
X133233475Y-62299368D01*
X133026632Y-62092525D01*
X132852240Y-61976000D01*
X133026632Y-61859475D01*
X133233475Y-61652632D01*
X133395990Y-61409411D01*
X133507932Y-61139158D01*
X133565000Y-60852260D01*
X133565000Y-60559740D01*
X133507932Y-60272842D01*
X133395990Y-60002589D01*
X133233475Y-59759368D01*
X133101620Y-59627513D01*
X133174180Y-59605502D01*
X133284494Y-59546537D01*
X133381185Y-59467185D01*
X133460537Y-59370494D01*
X133519502Y-59260180D01*
X133555812Y-59140482D01*
X133568072Y-59016000D01*
X133568072Y-57316000D01*
X135671928Y-57316000D01*
X135671928Y-59016000D01*
X135684188Y-59140482D01*
X135720498Y-59260180D01*
X135779463Y-59370494D01*
X135858815Y-59467185D01*
X135955506Y-59546537D01*
X136065820Y-59605502D01*
X136138380Y-59627513D01*
X136006525Y-59759368D01*
X135844010Y-60002589D01*
X135732068Y-60272842D01*
X135675000Y-60559740D01*
X135675000Y-60852260D01*
X135732068Y-61139158D01*
X135844010Y-61409411D01*
X136006525Y-61652632D01*
X136213368Y-61859475D01*
X136387760Y-61976000D01*
X136213368Y-62092525D01*
X136006525Y-62299368D01*
X135844010Y-62542589D01*
X135732068Y-62812842D01*
X135675000Y-63099740D01*
X135675000Y-63392260D01*
X135732068Y-63679158D01*
X135844010Y-63949411D01*
X136006525Y-64192632D01*
X136213368Y-64399475D01*
X136387760Y-64516000D01*
X136213368Y-64632525D01*
X136006525Y-64839368D01*
X135844010Y-65082589D01*
X135732068Y-65352842D01*
X135675000Y-65639740D01*
X135675000Y-65932260D01*
X135732068Y-66219158D01*
X135844010Y-66489411D01*
X136006525Y-66732632D01*
X136213368Y-66939475D01*
X136387760Y-67056000D01*
X136213368Y-67172525D01*
X136006525Y-67379368D01*
X135844010Y-67622589D01*
X135732068Y-67892842D01*
X135675000Y-68179740D01*
X135675000Y-68472260D01*
X135732068Y-68759158D01*
X135844010Y-69029411D01*
X136006525Y-69272632D01*
X136213368Y-69479475D01*
X136387760Y-69596000D01*
X136213368Y-69712525D01*
X136006525Y-69919368D01*
X135844010Y-70162589D01*
X135732068Y-70432842D01*
X135675000Y-70719740D01*
X135675000Y-71012260D01*
X135732068Y-71299158D01*
X135844010Y-71569411D01*
X136006525Y-71812632D01*
X136213368Y-72019475D01*
X136387760Y-72136000D01*
X136213368Y-72252525D01*
X136006525Y-72459368D01*
X135844010Y-72702589D01*
X135732068Y-72972842D01*
X135675000Y-73259740D01*
X135675000Y-73552260D01*
X135732068Y-73839158D01*
X135844010Y-74109411D01*
X136006525Y-74352632D01*
X136213368Y-74559475D01*
X136387760Y-74676000D01*
X136213368Y-74792525D01*
X136006525Y-74999368D01*
X135844010Y-75242589D01*
X135732068Y-75512842D01*
X135675000Y-75799740D01*
X135675000Y-76092260D01*
X135732068Y-76379158D01*
X135844010Y-76649411D01*
X136006525Y-76892632D01*
X136213368Y-77099475D01*
X136395534Y-77221195D01*
X136278645Y-77290822D01*
X136062412Y-77485731D01*
X135888359Y-77719080D01*
X135763175Y-77981901D01*
X135718524Y-78129110D01*
X135839845Y-78359000D01*
X137033000Y-78359000D01*
X137033000Y-78339000D01*
X137287000Y-78339000D01*
X137287000Y-78359000D01*
X137307000Y-78359000D01*
X137307000Y-78613000D01*
X137287000Y-78613000D01*
X137287000Y-80899000D01*
X137307000Y-80899000D01*
X137307000Y-81153000D01*
X137287000Y-81153000D01*
X137287000Y-81173000D01*
X137033000Y-81173000D01*
X137033000Y-81153000D01*
X135839845Y-81153000D01*
X135718524Y-81382890D01*
X135763175Y-81530099D01*
X135888359Y-81792920D01*
X136062412Y-82026269D01*
X136278645Y-82221178D01*
X136395534Y-82290805D01*
X136213368Y-82412525D01*
X136006525Y-82619368D01*
X135844010Y-82862589D01*
X135732068Y-83132842D01*
X135675000Y-83419740D01*
X135675000Y-83712260D01*
X135732068Y-83999158D01*
X135844010Y-84269411D01*
X136006525Y-84512632D01*
X136213368Y-84719475D01*
X136387760Y-84836000D01*
X136213368Y-84952525D01*
X136006525Y-85159368D01*
X135844010Y-85402589D01*
X135732068Y-85672842D01*
X135675000Y-85959740D01*
X135675000Y-86252260D01*
X135732068Y-86539158D01*
X135844010Y-86809411D01*
X136006525Y-87052632D01*
X136213368Y-87259475D01*
X136387760Y-87376000D01*
X136213368Y-87492525D01*
X136006525Y-87699368D01*
X135844010Y-87942589D01*
X135732068Y-88212842D01*
X135675000Y-88499740D01*
X135675000Y-88792260D01*
X135732068Y-89079158D01*
X135844010Y-89349411D01*
X136006525Y-89592632D01*
X136213368Y-89799475D01*
X136387760Y-89916000D01*
X136213368Y-90032525D01*
X136006525Y-90239368D01*
X135844010Y-90482589D01*
X135732068Y-90752842D01*
X135675000Y-91039740D01*
X135675000Y-91332260D01*
X135732068Y-91619158D01*
X135844010Y-91889411D01*
X136006525Y-92132632D01*
X136213368Y-92339475D01*
X136387760Y-92456000D01*
X136213368Y-92572525D01*
X136006525Y-92779368D01*
X135844010Y-93022589D01*
X135732068Y-93292842D01*
X135675000Y-93579740D01*
X135675000Y-93872260D01*
X135732068Y-94159158D01*
X135844010Y-94429411D01*
X136006525Y-94672632D01*
X136213368Y-94879475D01*
X136387760Y-94996000D01*
X136213368Y-95112525D01*
X136006525Y-95319368D01*
X135844010Y-95562589D01*
X135732068Y-95832842D01*
X135675000Y-96119740D01*
X135675000Y-96412260D01*
X135732068Y-96699158D01*
X135844010Y-96969411D01*
X136006525Y-97212632D01*
X136213368Y-97419475D01*
X136387760Y-97536000D01*
X136213368Y-97652525D01*
X136006525Y-97859368D01*
X135844010Y-98102589D01*
X135732068Y-98372842D01*
X135675000Y-98659740D01*
X135675000Y-98952260D01*
X135732068Y-99239158D01*
X135844010Y-99509411D01*
X136006525Y-99752632D01*
X136213368Y-99959475D01*
X136387760Y-100076000D01*
X136213368Y-100192525D01*
X136006525Y-100399368D01*
X135844010Y-100642589D01*
X135732068Y-100912842D01*
X135675000Y-101199740D01*
X135675000Y-101492260D01*
X135732068Y-101779158D01*
X135844010Y-102049411D01*
X136006525Y-102292632D01*
X136213368Y-102499475D01*
X136387760Y-102616000D01*
X136213368Y-102732525D01*
X136006525Y-102939368D01*
X135844010Y-103182589D01*
X135732068Y-103452842D01*
X135675000Y-103739740D01*
X135675000Y-104032260D01*
X135732068Y-104319158D01*
X135844010Y-104589411D01*
X136006525Y-104832632D01*
X136213368Y-105039475D01*
X136387760Y-105156000D01*
X136213368Y-105272525D01*
X136006525Y-105479368D01*
X135844010Y-105722589D01*
X135732068Y-105992842D01*
X135675000Y-106279740D01*
X135675000Y-106572260D01*
X135732068Y-106859158D01*
X135844010Y-107129411D01*
X136006525Y-107372632D01*
X136213368Y-107579475D01*
X136456589Y-107741990D01*
X136726842Y-107853932D01*
X137013740Y-107911000D01*
X137306260Y-107911000D01*
X137593158Y-107853932D01*
X137863411Y-107741990D01*
X138106632Y-107579475D01*
X138313475Y-107372632D01*
X138430000Y-107198240D01*
X138546525Y-107372632D01*
X138753368Y-107579475D01*
X138996589Y-107741990D01*
X139266842Y-107853932D01*
X139553740Y-107911000D01*
X139846260Y-107911000D01*
X140133158Y-107853932D01*
X140403411Y-107741990D01*
X140646632Y-107579475D01*
X140853475Y-107372632D01*
X141015990Y-107129411D01*
X141127932Y-106859158D01*
X141185000Y-106572260D01*
X141185000Y-106279740D01*
X141127932Y-105992842D01*
X141015990Y-105722589D01*
X140853475Y-105479368D01*
X140646632Y-105272525D01*
X140472240Y-105156000D01*
X140646632Y-105039475D01*
X140853475Y-104832632D01*
X141015990Y-104589411D01*
X141127932Y-104319158D01*
X141185000Y-104032260D01*
X141185000Y-103739740D01*
X143295000Y-103739740D01*
X143295000Y-104032260D01*
X143352068Y-104319158D01*
X143464010Y-104589411D01*
X143626525Y-104832632D01*
X143833368Y-105039475D01*
X144007760Y-105156000D01*
X143833368Y-105272525D01*
X143626525Y-105479368D01*
X143464010Y-105722589D01*
X143352068Y-105992842D01*
X143295000Y-106279740D01*
X143295000Y-106572260D01*
X143352068Y-106859158D01*
X143464010Y-107129411D01*
X143626525Y-107372632D01*
X143833368Y-107579475D01*
X144076589Y-107741990D01*
X144346842Y-107853932D01*
X144633740Y-107911000D01*
X144926260Y-107911000D01*
X145213158Y-107853932D01*
X145483411Y-107741990D01*
X145726632Y-107579475D01*
X145933475Y-107372632D01*
X146095990Y-107129411D01*
X146207932Y-106859158D01*
X146265000Y-106572260D01*
X146265000Y-106279740D01*
X146207932Y-105992842D01*
X146095990Y-105722589D01*
X145933475Y-105479368D01*
X145726632Y-105272525D01*
X145552240Y-105156000D01*
X145726632Y-105039475D01*
X145933475Y-104832632D01*
X146095990Y-104589411D01*
X146207932Y-104319158D01*
X146265000Y-104032260D01*
X146265000Y-103739740D01*
X146207932Y-103452842D01*
X146095990Y-103182589D01*
X145933475Y-102939368D01*
X145726632Y-102732525D01*
X145544466Y-102610805D01*
X145661355Y-102541178D01*
X145877588Y-102346269D01*
X146051641Y-102112920D01*
X146176825Y-101850099D01*
X146221476Y-101702890D01*
X146100155Y-101473000D01*
X144907000Y-101473000D01*
X144907000Y-101493000D01*
X144653000Y-101493000D01*
X144653000Y-101473000D01*
X143459845Y-101473000D01*
X143338524Y-101702890D01*
X143383175Y-101850099D01*
X143508359Y-102112920D01*
X143682412Y-102346269D01*
X143898645Y-102541178D01*
X144015534Y-102610805D01*
X143833368Y-102732525D01*
X143626525Y-102939368D01*
X143464010Y-103182589D01*
X143352068Y-103452842D01*
X143295000Y-103739740D01*
X141185000Y-103739740D01*
X141127932Y-103452842D01*
X141015990Y-103182589D01*
X140853475Y-102939368D01*
X140646632Y-102732525D01*
X140464466Y-102610805D01*
X140581355Y-102541178D01*
X140797588Y-102346269D01*
X140971641Y-102112920D01*
X141096825Y-101850099D01*
X141141476Y-101702890D01*
X141020155Y-101473000D01*
X139827000Y-101473000D01*
X139827000Y-101493000D01*
X139573000Y-101493000D01*
X139573000Y-101473000D01*
X139553000Y-101473000D01*
X139553000Y-101219000D01*
X139573000Y-101219000D01*
X139573000Y-101199000D01*
X139827000Y-101199000D01*
X139827000Y-101219000D01*
X141020155Y-101219000D01*
X141141476Y-100989110D01*
X141096825Y-100841901D01*
X140971641Y-100579080D01*
X140797588Y-100345731D01*
X140581355Y-100150822D01*
X140464466Y-100081195D01*
X140646632Y-99959475D01*
X140853475Y-99752632D01*
X141015990Y-99509411D01*
X141127932Y-99239158D01*
X141185000Y-98952260D01*
X141185000Y-98659740D01*
X141127932Y-98372842D01*
X141015990Y-98102589D01*
X140853475Y-97859368D01*
X140646632Y-97652525D01*
X140472240Y-97536000D01*
X140646632Y-97419475D01*
X140853475Y-97212632D01*
X141015990Y-96969411D01*
X141127932Y-96699158D01*
X141185000Y-96412260D01*
X141185000Y-96119740D01*
X141127932Y-95832842D01*
X141015990Y-95562589D01*
X140853475Y-95319368D01*
X140646632Y-95112525D01*
X140472240Y-94996000D01*
X140646632Y-94879475D01*
X140853475Y-94672632D01*
X141015990Y-94429411D01*
X141127932Y-94159158D01*
X141185000Y-93872260D01*
X141185000Y-93579740D01*
X141127932Y-93292842D01*
X141015990Y-93022589D01*
X140853475Y-92779368D01*
X140646632Y-92572525D01*
X140472240Y-92456000D01*
X140646632Y-92339475D01*
X140853475Y-92132632D01*
X141015990Y-91889411D01*
X141127932Y-91619158D01*
X141185000Y-91332260D01*
X141185000Y-91039740D01*
X141127932Y-90752842D01*
X141015990Y-90482589D01*
X140853475Y-90239368D01*
X140646632Y-90032525D01*
X140472240Y-89916000D01*
X140646632Y-89799475D01*
X140853475Y-89592632D01*
X141015990Y-89349411D01*
X141127932Y-89079158D01*
X141185000Y-88792260D01*
X141185000Y-88499740D01*
X141127932Y-88212842D01*
X141015990Y-87942589D01*
X140853475Y-87699368D01*
X140646632Y-87492525D01*
X140472240Y-87376000D01*
X140646632Y-87259475D01*
X140853475Y-87052632D01*
X141015990Y-86809411D01*
X141127932Y-86539158D01*
X141185000Y-86252260D01*
X141185000Y-85959740D01*
X141127932Y-85672842D01*
X141015990Y-85402589D01*
X140853475Y-85159368D01*
X140646632Y-84952525D01*
X140472240Y-84836000D01*
X140646632Y-84719475D01*
X140853475Y-84512632D01*
X141015990Y-84269411D01*
X141127932Y-83999158D01*
X141185000Y-83712260D01*
X141185000Y-83419740D01*
X141127932Y-83132842D01*
X141015990Y-82862589D01*
X140853475Y-82619368D01*
X140646632Y-82412525D01*
X140472240Y-82296000D01*
X140646632Y-82179475D01*
X140853475Y-81972632D01*
X141015990Y-81729411D01*
X141127932Y-81459158D01*
X141185000Y-81172260D01*
X141185000Y-80879740D01*
X141127932Y-80592842D01*
X141015990Y-80322589D01*
X140853475Y-80079368D01*
X140646632Y-79872525D01*
X140472240Y-79756000D01*
X140646632Y-79639475D01*
X140853475Y-79432632D01*
X141015990Y-79189411D01*
X141127932Y-78919158D01*
X141185000Y-78632260D01*
X141185000Y-78339740D01*
X141127932Y-78052842D01*
X141015990Y-77782589D01*
X140853475Y-77539368D01*
X140646632Y-77332525D01*
X140472240Y-77216000D01*
X140646632Y-77099475D01*
X140853475Y-76892632D01*
X141015990Y-76649411D01*
X141127932Y-76379158D01*
X141185000Y-76092260D01*
X141185000Y-75799740D01*
X141127932Y-75512842D01*
X141015990Y-75242589D01*
X140853475Y-74999368D01*
X140646632Y-74792525D01*
X140472240Y-74676000D01*
X140646632Y-74559475D01*
X140853475Y-74352632D01*
X141015990Y-74109411D01*
X141127932Y-73839158D01*
X141185000Y-73552260D01*
X141185000Y-73259740D01*
X141127932Y-72972842D01*
X141015990Y-72702589D01*
X140853475Y-72459368D01*
X140646632Y-72252525D01*
X140472240Y-72136000D01*
X140646632Y-72019475D01*
X140853475Y-71812632D01*
X141015990Y-71569411D01*
X141127932Y-71299158D01*
X141185000Y-71012260D01*
X141185000Y-70719740D01*
X141127932Y-70432842D01*
X141015990Y-70162589D01*
X140853475Y-69919368D01*
X140646632Y-69712525D01*
X140472240Y-69596000D01*
X140646632Y-69479475D01*
X140853475Y-69272632D01*
X141015990Y-69029411D01*
X141127932Y-68759158D01*
X141185000Y-68472260D01*
X141185000Y-68179740D01*
X141127932Y-67892842D01*
X141015990Y-67622589D01*
X140853475Y-67379368D01*
X140646632Y-67172525D01*
X140472240Y-67056000D01*
X140646632Y-66939475D01*
X140853475Y-66732632D01*
X141015990Y-66489411D01*
X141127932Y-66219158D01*
X141185000Y-65932260D01*
X141185000Y-65639740D01*
X141127932Y-65352842D01*
X141015990Y-65082589D01*
X140853475Y-64839368D01*
X140646632Y-64632525D01*
X140472240Y-64516000D01*
X140646632Y-64399475D01*
X140853475Y-64192632D01*
X141015990Y-63949411D01*
X141127932Y-63679158D01*
X141185000Y-63392260D01*
X141185000Y-63099740D01*
X141127932Y-62812842D01*
X141015990Y-62542589D01*
X140853475Y-62299368D01*
X140646632Y-62092525D01*
X140472240Y-61976000D01*
X140646632Y-61859475D01*
X140853475Y-61652632D01*
X141015990Y-61409411D01*
X141127932Y-61139158D01*
X141185000Y-60852260D01*
X141185000Y-60559740D01*
X141127932Y-60272842D01*
X141015990Y-60002589D01*
X140853475Y-59759368D01*
X140646632Y-59552525D01*
X140472240Y-59436000D01*
X140646632Y-59319475D01*
X140853475Y-59112632D01*
X141015990Y-58869411D01*
X141127932Y-58599158D01*
X141185000Y-58312260D01*
X141185000Y-58019740D01*
X141127932Y-57732842D01*
X141015990Y-57462589D01*
X140918043Y-57316000D01*
X143291928Y-57316000D01*
X143291928Y-59016000D01*
X143304188Y-59140482D01*
X143340498Y-59260180D01*
X143399463Y-59370494D01*
X143478815Y-59467185D01*
X143575506Y-59546537D01*
X143685820Y-59605502D01*
X143758380Y-59627513D01*
X143626525Y-59759368D01*
X143464010Y-60002589D01*
X143352068Y-60272842D01*
X143295000Y-60559740D01*
X143295000Y-60852260D01*
X143352068Y-61139158D01*
X143464010Y-61409411D01*
X143626525Y-61652632D01*
X143833368Y-61859475D01*
X144007760Y-61976000D01*
X143833368Y-62092525D01*
X143626525Y-62299368D01*
X143464010Y-62542589D01*
X143352068Y-62812842D01*
X143295000Y-63099740D01*
X143295000Y-63392260D01*
X143352068Y-63679158D01*
X143464010Y-63949411D01*
X143626525Y-64192632D01*
X143833368Y-64399475D01*
X144007760Y-64516000D01*
X143833368Y-64632525D01*
X143626525Y-64839368D01*
X143464010Y-65082589D01*
X143352068Y-65352842D01*
X143295000Y-65639740D01*
X143295000Y-65932260D01*
X143352068Y-66219158D01*
X143464010Y-66489411D01*
X143626525Y-66732632D01*
X143833368Y-66939475D01*
X144007760Y-67056000D01*
X143833368Y-67172525D01*
X143626525Y-67379368D01*
X143464010Y-67622589D01*
X143352068Y-67892842D01*
X143295000Y-68179740D01*
X143295000Y-68472260D01*
X143352068Y-68759158D01*
X143464010Y-69029411D01*
X143626525Y-69272632D01*
X143833368Y-69479475D01*
X144007760Y-69596000D01*
X143833368Y-69712525D01*
X143626525Y-69919368D01*
X143464010Y-70162589D01*
X143352068Y-70432842D01*
X143295000Y-70719740D01*
X143295000Y-71012260D01*
X143352068Y-71299158D01*
X143464010Y-71569411D01*
X143626525Y-71812632D01*
X143833368Y-72019475D01*
X144007760Y-72136000D01*
X143833368Y-72252525D01*
X143626525Y-72459368D01*
X143464010Y-72702589D01*
X143352068Y-72972842D01*
X143295000Y-73259740D01*
X143295000Y-73552260D01*
X143352068Y-73839158D01*
X143464010Y-74109411D01*
X143626525Y-74352632D01*
X143833368Y-74559475D01*
X144007760Y-74676000D01*
X143833368Y-74792525D01*
X143626525Y-74999368D01*
X143464010Y-75242589D01*
X143352068Y-75512842D01*
X143295000Y-75799740D01*
X143295000Y-76092260D01*
X143352068Y-76379158D01*
X143464010Y-76649411D01*
X143626525Y-76892632D01*
X143833368Y-77099475D01*
X144007760Y-77216000D01*
X143833368Y-77332525D01*
X143626525Y-77539368D01*
X143464010Y-77782589D01*
X143352068Y-78052842D01*
X143295000Y-78339740D01*
X143295000Y-78632260D01*
X143352068Y-78919158D01*
X143464010Y-79189411D01*
X143626525Y-79432632D01*
X143833368Y-79639475D01*
X144007760Y-79756000D01*
X143833368Y-79872525D01*
X143626525Y-80079368D01*
X143464010Y-80322589D01*
X143352068Y-80592842D01*
X143295000Y-80879740D01*
X143295000Y-81172260D01*
X143352068Y-81459158D01*
X143464010Y-81729411D01*
X143626525Y-81972632D01*
X143833368Y-82179475D01*
X144007760Y-82296000D01*
X143833368Y-82412525D01*
X143626525Y-82619368D01*
X143464010Y-82862589D01*
X143352068Y-83132842D01*
X143295000Y-83419740D01*
X143295000Y-83712260D01*
X143352068Y-83999158D01*
X143464010Y-84269411D01*
X143626525Y-84512632D01*
X143833368Y-84719475D01*
X144007760Y-84836000D01*
X143833368Y-84952525D01*
X143626525Y-85159368D01*
X143464010Y-85402589D01*
X143352068Y-85672842D01*
X143295000Y-85959740D01*
X143295000Y-86252260D01*
X143352068Y-86539158D01*
X143464010Y-86809411D01*
X143626525Y-87052632D01*
X143833368Y-87259475D01*
X144007760Y-87376000D01*
X143833368Y-87492525D01*
X143626525Y-87699368D01*
X143464010Y-87942589D01*
X143352068Y-88212842D01*
X143295000Y-88499740D01*
X143295000Y-88792260D01*
X143352068Y-89079158D01*
X143464010Y-89349411D01*
X143626525Y-89592632D01*
X143833368Y-89799475D01*
X144007760Y-89916000D01*
X143833368Y-90032525D01*
X143626525Y-90239368D01*
X143464010Y-90482589D01*
X143352068Y-90752842D01*
X143295000Y-91039740D01*
X143295000Y-91332260D01*
X143352068Y-91619158D01*
X143464010Y-91889411D01*
X143626525Y-92132632D01*
X143833368Y-92339475D01*
X144007760Y-92456000D01*
X143833368Y-92572525D01*
X143626525Y-92779368D01*
X143464010Y-93022589D01*
X143352068Y-93292842D01*
X143295000Y-93579740D01*
X143295000Y-93872260D01*
X143352068Y-94159158D01*
X143464010Y-94429411D01*
X143626525Y-94672632D01*
X143833368Y-94879475D01*
X144007760Y-94996000D01*
X143833368Y-95112525D01*
X143626525Y-95319368D01*
X143464010Y-95562589D01*
X143352068Y-95832842D01*
X143295000Y-96119740D01*
X143295000Y-96412260D01*
X143352068Y-96699158D01*
X143464010Y-96969411D01*
X143626525Y-97212632D01*
X143833368Y-97419475D01*
X144007760Y-97536000D01*
X143833368Y-97652525D01*
X143626525Y-97859368D01*
X143464010Y-98102589D01*
X143352068Y-98372842D01*
X143295000Y-98659740D01*
X143295000Y-98952260D01*
X143352068Y-99239158D01*
X143464010Y-99509411D01*
X143626525Y-99752632D01*
X143833368Y-99959475D01*
X144015534Y-100081195D01*
X143898645Y-100150822D01*
X143682412Y-100345731D01*
X143508359Y-100579080D01*
X143383175Y-100841901D01*
X143338524Y-100989110D01*
X143459845Y-101219000D01*
X144653000Y-101219000D01*
X144653000Y-101199000D01*
X144907000Y-101199000D01*
X144907000Y-101219000D01*
X146100155Y-101219000D01*
X146221476Y-100989110D01*
X146176825Y-100841901D01*
X146051641Y-100579080D01*
X145877588Y-100345731D01*
X145661355Y-100150822D01*
X145544466Y-100081195D01*
X145726632Y-99959475D01*
X145933475Y-99752632D01*
X146095990Y-99509411D01*
X146207932Y-99239158D01*
X146265000Y-98952260D01*
X146265000Y-98659740D01*
X146207932Y-98372842D01*
X146095990Y-98102589D01*
X145933475Y-97859368D01*
X145726632Y-97652525D01*
X145552240Y-97536000D01*
X145726632Y-97419475D01*
X145933475Y-97212632D01*
X146095990Y-96969411D01*
X146207932Y-96699158D01*
X146265000Y-96412260D01*
X146265000Y-96119740D01*
X146207932Y-95832842D01*
X146095990Y-95562589D01*
X145933475Y-95319368D01*
X145726632Y-95112525D01*
X145552240Y-94996000D01*
X145726632Y-94879475D01*
X145933475Y-94672632D01*
X146095990Y-94429411D01*
X146207932Y-94159158D01*
X146265000Y-93872260D01*
X146265000Y-93579740D01*
X146207932Y-93292842D01*
X146095990Y-93022589D01*
X145933475Y-92779368D01*
X145726632Y-92572525D01*
X145552240Y-92456000D01*
X145726632Y-92339475D01*
X145933475Y-92132632D01*
X146095990Y-91889411D01*
X146207932Y-91619158D01*
X146265000Y-91332260D01*
X146265000Y-91039740D01*
X146207932Y-90752842D01*
X146095990Y-90482589D01*
X145933475Y-90239368D01*
X145726632Y-90032525D01*
X145552240Y-89916000D01*
X145726632Y-89799475D01*
X145933475Y-89592632D01*
X146095990Y-89349411D01*
X146207932Y-89079158D01*
X146265000Y-88792260D01*
X146265000Y-88499740D01*
X146207932Y-88212842D01*
X146095990Y-87942589D01*
X145933475Y-87699368D01*
X145726632Y-87492525D01*
X145552240Y-87376000D01*
X145726632Y-87259475D01*
X145933475Y-87052632D01*
X146095990Y-86809411D01*
X146207932Y-86539158D01*
X146265000Y-86252260D01*
X146265000Y-85959740D01*
X146207932Y-85672842D01*
X146095990Y-85402589D01*
X145933475Y-85159368D01*
X145726632Y-84952525D01*
X145552240Y-84836000D01*
X145726632Y-84719475D01*
X145933475Y-84512632D01*
X146095990Y-84269411D01*
X146207932Y-83999158D01*
X146265000Y-83712260D01*
X146265000Y-83419740D01*
X146207932Y-83132842D01*
X146095990Y-82862589D01*
X145933475Y-82619368D01*
X145726632Y-82412525D01*
X145552240Y-82296000D01*
X145726632Y-82179475D01*
X145933475Y-81972632D01*
X146095990Y-81729411D01*
X146207932Y-81459158D01*
X146265000Y-81172260D01*
X146265000Y-80879740D01*
X146207932Y-80592842D01*
X146095990Y-80322589D01*
X145933475Y-80079368D01*
X145726632Y-79872525D01*
X145552240Y-79756000D01*
X145726632Y-79639475D01*
X145933475Y-79432632D01*
X146095990Y-79189411D01*
X146207932Y-78919158D01*
X146265000Y-78632260D01*
X146265000Y-78339740D01*
X146207932Y-78052842D01*
X146095990Y-77782589D01*
X145933475Y-77539368D01*
X145726632Y-77332525D01*
X145552240Y-77216000D01*
X145726632Y-77099475D01*
X145933475Y-76892632D01*
X146095990Y-76649411D01*
X146207932Y-76379158D01*
X146265000Y-76092260D01*
X146265000Y-75799740D01*
X146207932Y-75512842D01*
X146095990Y-75242589D01*
X145933475Y-74999368D01*
X145726632Y-74792525D01*
X145552240Y-74676000D01*
X145726632Y-74559475D01*
X145933475Y-74352632D01*
X146095990Y-74109411D01*
X146207932Y-73839158D01*
X146265000Y-73552260D01*
X146265000Y-73259740D01*
X146207932Y-72972842D01*
X146095990Y-72702589D01*
X145933475Y-72459368D01*
X145726632Y-72252525D01*
X145552240Y-72136000D01*
X145726632Y-72019475D01*
X145933475Y-71812632D01*
X146095990Y-71569411D01*
X146207932Y-71299158D01*
X146265000Y-71012260D01*
X146265000Y-70719740D01*
X146207932Y-70432842D01*
X146095990Y-70162589D01*
X145933475Y-69919368D01*
X145726632Y-69712525D01*
X145552240Y-69596000D01*
X145726632Y-69479475D01*
X145933475Y-69272632D01*
X146095990Y-69029411D01*
X146207932Y-68759158D01*
X146265000Y-68472260D01*
X146265000Y-68179740D01*
X146207932Y-67892842D01*
X146095990Y-67622589D01*
X145933475Y-67379368D01*
X145726632Y-67172525D01*
X145552240Y-67056000D01*
X145726632Y-66939475D01*
X145933475Y-66732632D01*
X146095990Y-66489411D01*
X146207932Y-66219158D01*
X146265000Y-65932260D01*
X146265000Y-65639740D01*
X146207932Y-65352842D01*
X146095990Y-65082589D01*
X145933475Y-64839368D01*
X145726632Y-64632525D01*
X145552240Y-64516000D01*
X145726632Y-64399475D01*
X145933475Y-64192632D01*
X146095990Y-63949411D01*
X146207932Y-63679158D01*
X146265000Y-63392260D01*
X146265000Y-63099740D01*
X146207932Y-62812842D01*
X146095990Y-62542589D01*
X145933475Y-62299368D01*
X145726632Y-62092525D01*
X145552240Y-61976000D01*
X145726632Y-61859475D01*
X145933475Y-61652632D01*
X146095990Y-61409411D01*
X146207932Y-61139158D01*
X146265000Y-60852260D01*
X146265000Y-60559740D01*
X146207932Y-60272842D01*
X146095990Y-60002589D01*
X145933475Y-59759368D01*
X145801620Y-59627513D01*
X145874180Y-59605502D01*
X145984494Y-59546537D01*
X146081185Y-59467185D01*
X146160537Y-59370494D01*
X146219502Y-59260180D01*
X146255812Y-59140482D01*
X146268072Y-59016000D01*
X146268072Y-57316000D01*
X146255812Y-57191518D01*
X146219502Y-57071820D01*
X146160537Y-56961506D01*
X146081185Y-56864815D01*
X145984494Y-56785463D01*
X145874180Y-56726498D01*
X145754482Y-56690188D01*
X145630000Y-56677928D01*
X143930000Y-56677928D01*
X143805518Y-56690188D01*
X143685820Y-56726498D01*
X143575506Y-56785463D01*
X143478815Y-56864815D01*
X143399463Y-56961506D01*
X143340498Y-57071820D01*
X143304188Y-57191518D01*
X143291928Y-57316000D01*
X140918043Y-57316000D01*
X140853475Y-57219368D01*
X140646632Y-57012525D01*
X140403411Y-56850010D01*
X140133158Y-56738068D01*
X139846260Y-56681000D01*
X139553740Y-56681000D01*
X139266842Y-56738068D01*
X138996589Y-56850010D01*
X138753368Y-57012525D01*
X138621513Y-57144380D01*
X138599502Y-57071820D01*
X138540537Y-56961506D01*
X138461185Y-56864815D01*
X138364494Y-56785463D01*
X138254180Y-56726498D01*
X138134482Y-56690188D01*
X138010000Y-56677928D01*
X136310000Y-56677928D01*
X136185518Y-56690188D01*
X136065820Y-56726498D01*
X135955506Y-56785463D01*
X135858815Y-56864815D01*
X135779463Y-56961506D01*
X135720498Y-57071820D01*
X135684188Y-57191518D01*
X135671928Y-57316000D01*
X133568072Y-57316000D01*
X133555812Y-57191518D01*
X133519502Y-57071820D01*
X133460537Y-56961506D01*
X133381185Y-56864815D01*
X133284494Y-56785463D01*
X133174180Y-56726498D01*
X133054482Y-56690188D01*
X132930000Y-56677928D01*
X131230000Y-56677928D01*
X131105518Y-56690188D01*
X130985820Y-56726498D01*
X130875506Y-56785463D01*
X130778815Y-56864815D01*
X130699463Y-56961506D01*
X130640498Y-57071820D01*
X130604188Y-57191518D01*
X130591928Y-57316000D01*
X127025000Y-57316000D01*
X127025000Y-55905000D01*
X149835000Y-55905000D01*
X149835001Y-107925000D01*
G37*
X149835001Y-107925000D02*
X127025000Y-107925000D01*
X127025000Y-83419740D01*
X130595000Y-83419740D01*
X130595000Y-83712260D01*
X130652068Y-83999158D01*
X130764010Y-84269411D01*
X130926525Y-84512632D01*
X131133368Y-84719475D01*
X131307760Y-84836000D01*
X131133368Y-84952525D01*
X130926525Y-85159368D01*
X130764010Y-85402589D01*
X130652068Y-85672842D01*
X130595000Y-85959740D01*
X130595000Y-86252260D01*
X130652068Y-86539158D01*
X130764010Y-86809411D01*
X130926525Y-87052632D01*
X131133368Y-87259475D01*
X131307760Y-87376000D01*
X131133368Y-87492525D01*
X130926525Y-87699368D01*
X130764010Y-87942589D01*
X130652068Y-88212842D01*
X130595000Y-88499740D01*
X130595000Y-88792260D01*
X130652068Y-89079158D01*
X130764010Y-89349411D01*
X130926525Y-89592632D01*
X131133368Y-89799475D01*
X131307760Y-89916000D01*
X131133368Y-90032525D01*
X130926525Y-90239368D01*
X130764010Y-90482589D01*
X130652068Y-90752842D01*
X130595000Y-91039740D01*
X130595000Y-91332260D01*
X130652068Y-91619158D01*
X130764010Y-91889411D01*
X130926525Y-92132632D01*
X131133368Y-92339475D01*
X131307760Y-92456000D01*
X131133368Y-92572525D01*
X130926525Y-92779368D01*
X130764010Y-93022589D01*
X130652068Y-93292842D01*
X130595000Y-93579740D01*
X130595000Y-93872260D01*
X130652068Y-94159158D01*
X130764010Y-94429411D01*
X130926525Y-94672632D01*
X131133368Y-94879475D01*
X131307760Y-94996000D01*
X131133368Y-95112525D01*
X130926525Y-95319368D01*
X130764010Y-95562589D01*
X130652068Y-95832842D01*
X130595000Y-96119740D01*
X130595000Y-96412260D01*
X130652068Y-96699158D01*
X130764010Y-96969411D01*
X130926525Y-97212632D01*
X131133368Y-97419475D01*
X131307760Y-97536000D01*
X131133368Y-97652525D01*
X130926525Y-97859368D01*
X130764010Y-98102589D01*
X130652068Y-98372842D01*
X130595000Y-98659740D01*
X130595000Y-98952260D01*
X130652068Y-99239158D01*
X130764010Y-99509411D01*
X130926525Y-99752632D01*
X131133368Y-99959475D01*
X131307760Y-100076000D01*
X131133368Y-100192525D01*
X130926525Y-100399368D01*
X130764010Y-100642589D01*
X130652068Y-100912842D01*
X130595000Y-101199740D01*
X130595000Y-101492260D01*
X130652068Y-101779158D01*
X130764010Y-102049411D01*
X130926525Y-102292632D01*
X131133368Y-102499475D01*
X131307760Y-102616000D01*
X131133368Y-102732525D01*
X130926525Y-102939368D01*
X130764010Y-103182589D01*
X130652068Y-103452842D01*
X130595000Y-103739740D01*
X130595000Y-104032260D01*
X130652068Y-104319158D01*
X130764010Y-104589411D01*
X130926525Y-104832632D01*
X131133368Y-105039475D01*
X131307760Y-105156000D01*
X131133368Y-105272525D01*
X130926525Y-105479368D01*
X130764010Y-105722589D01*
X130652068Y-105992842D01*
X130595000Y-106279740D01*
X130595000Y-106572260D01*
X130652068Y-106859158D01*
X130764010Y-107129411D01*
X130926525Y-107372632D01*
X131133368Y-107579475D01*
X131376589Y-107741990D01*
X131646842Y-107853932D01*
X131933740Y-107911000D01*
X132226260Y-107911000D01*
X132513158Y-107853932D01*
X132783411Y-107741990D01*
X133026632Y-107579475D01*
X133233475Y-107372632D01*
X133395990Y-107129411D01*
X133507932Y-106859158D01*
X133565000Y-106572260D01*
X133565000Y-106279740D01*
X133507932Y-105992842D01*
X133395990Y-105722589D01*
X133233475Y-105479368D01*
X133026632Y-105272525D01*
X132852240Y-105156000D01*
X133026632Y-105039475D01*
X133233475Y-104832632D01*
X133395990Y-104589411D01*
X133507932Y-104319158D01*
X133565000Y-104032260D01*
X133565000Y-103739740D01*
X133507932Y-103452842D01*
X133395990Y-103182589D01*
X133233475Y-102939368D01*
X133026632Y-102732525D01*
X132852240Y-102616000D01*
X133026632Y-102499475D01*
X133233475Y-102292632D01*
X133395990Y-102049411D01*
X133507932Y-101779158D01*
X133565000Y-101492260D01*
X133565000Y-101199740D01*
X133507932Y-100912842D01*
X133395990Y-100642589D01*
X133233475Y-100399368D01*
X133026632Y-100192525D01*
X132852240Y-100076000D01*
X133026632Y-99959475D01*
X133233475Y-99752632D01*
X133395990Y-99509411D01*
X133507932Y-99239158D01*
X133565000Y-98952260D01*
X133565000Y-98659740D01*
X133507932Y-98372842D01*
X133395990Y-98102589D01*
X133233475Y-97859368D01*
X133026632Y-97652525D01*
X132852240Y-97536000D01*
X133026632Y-97419475D01*
X133233475Y-97212632D01*
X133395990Y-96969411D01*
X133507932Y-96699158D01*
X133565000Y-96412260D01*
X133565000Y-96119740D01*
X133507932Y-95832842D01*
X133395990Y-95562589D01*
X133233475Y-95319368D01*
X133026632Y-95112525D01*
X132852240Y-94996000D01*
X133026632Y-94879475D01*
X133233475Y-94672632D01*
X133395990Y-94429411D01*
X133507932Y-94159158D01*
X133565000Y-93872260D01*
X133565000Y-93579740D01*
X133507932Y-93292842D01*
X133395990Y-93022589D01*
X133233475Y-92779368D01*
X133026632Y-92572525D01*
X132852240Y-92456000D01*
X133026632Y-92339475D01*
X133233475Y-92132632D01*
X133395990Y-91889411D01*
X133507932Y-91619158D01*
X133565000Y-91332260D01*
X133565000Y-91039740D01*
X133507932Y-90752842D01*
X133395990Y-90482589D01*
X133233475Y-90239368D01*
X133026632Y-90032525D01*
X132852240Y-89916000D01*
X133026632Y-89799475D01*
X133233475Y-89592632D01*
X133395990Y-89349411D01*
X133507932Y-89079158D01*
X133565000Y-88792260D01*
X133565000Y-88499740D01*
X133507932Y-88212842D01*
X133395990Y-87942589D01*
X133233475Y-87699368D01*
X133026632Y-87492525D01*
X132852240Y-87376000D01*
X133026632Y-87259475D01*
X133233475Y-87052632D01*
X133395990Y-86809411D01*
X133507932Y-86539158D01*
X133565000Y-86252260D01*
X133565000Y-85959740D01*
X133507932Y-85672842D01*
X133395990Y-85402589D01*
X133233475Y-85159368D01*
X133026632Y-84952525D01*
X132852240Y-84836000D01*
X133026632Y-84719475D01*
X133233475Y-84512632D01*
X133395990Y-84269411D01*
X133507932Y-83999158D01*
X133565000Y-83712260D01*
X133565000Y-83419740D01*
X133507932Y-83132842D01*
X133395990Y-82862589D01*
X133233475Y-82619368D01*
X133026632Y-82412525D01*
X132844466Y-82290805D01*
X132961355Y-82221178D01*
X133177588Y-82026269D01*
X133351641Y-81792920D01*
X133476825Y-81530099D01*
X133521476Y-81382890D01*
X133400155Y-81153000D01*
X132207000Y-81153000D01*
X132207000Y-81173000D01*
X131953000Y-81173000D01*
X131953000Y-81153000D01*
X130759845Y-81153000D01*
X130638524Y-81382890D01*
X130683175Y-81530099D01*
X130808359Y-81792920D01*
X130982412Y-82026269D01*
X131198645Y-82221178D01*
X131315534Y-82290805D01*
X131133368Y-82412525D01*
X130926525Y-82619368D01*
X130764010Y-82862589D01*
X130652068Y-83132842D01*
X130595000Y-83419740D01*
X127025000Y-83419740D01*
X127025000Y-78842890D01*
X130638524Y-78842890D01*
X130683175Y-78990099D01*
X130808359Y-79252920D01*
X130982412Y-79486269D01*
X131198645Y-79681178D01*
X131324255Y-79756000D01*
X131198645Y-79830822D01*
X130982412Y-80025731D01*
X130808359Y-80259080D01*
X130683175Y-80521901D01*
X130638524Y-80669110D01*
X130759845Y-80899000D01*
X131953000Y-80899000D01*
X131953000Y-78613000D01*
X132207000Y-78613000D01*
X132207000Y-80899000D01*
X133400155Y-80899000D01*
X133521476Y-80669110D01*
X133476825Y-80521901D01*
X133351641Y-80259080D01*
X133177588Y-80025731D01*
X132961355Y-79830822D01*
X132835745Y-79756000D01*
X132961355Y-79681178D01*
X133177588Y-79486269D01*
X133351641Y-79252920D01*
X133476825Y-78990099D01*
X133521476Y-78842890D01*
X135718524Y-78842890D01*
X135763175Y-78990099D01*
X135888359Y-79252920D01*
X136062412Y-79486269D01*
X136278645Y-79681178D01*
X136404255Y-79756000D01*
X136278645Y-79830822D01*
X136062412Y-80025731D01*
X135888359Y-80259080D01*
X135763175Y-80521901D01*
X135718524Y-80669110D01*
X135839845Y-80899000D01*
X137033000Y-80899000D01*
X137033000Y-78613000D01*
X135839845Y-78613000D01*
X135718524Y-78842890D01*
X133521476Y-78842890D01*
X133400155Y-78613000D01*
X132207000Y-78613000D01*
X131953000Y-78613000D01*
X130759845Y-78613000D01*
X130638524Y-78842890D01*
X127025000Y-78842890D01*
X127025000Y-57316000D01*
X130591928Y-57316000D01*
X130591928Y-59016000D01*
X130604188Y-59140482D01*
X130640498Y-59260180D01*
X130699463Y-59370494D01*
X130778815Y-59467185D01*
X130875506Y-59546537D01*
X130985820Y-59605502D01*
X131058380Y-59627513D01*
X130926525Y-59759368D01*
X130764010Y-60002589D01*
X130652068Y-60272842D01*
X130595000Y-60559740D01*
X130595000Y-60852260D01*
X130652068Y-61139158D01*
X130764010Y-61409411D01*
X130926525Y-61652632D01*
X131133368Y-61859475D01*
X131307760Y-61976000D01*
X131133368Y-62092525D01*
X130926525Y-62299368D01*
X130764010Y-62542589D01*
X130652068Y-62812842D01*
X130595000Y-63099740D01*
X130595000Y-63392260D01*
X130652068Y-63679158D01*
X130764010Y-63949411D01*
X130926525Y-64192632D01*
X131133368Y-64399475D01*
X131307760Y-64516000D01*
X131133368Y-64632525D01*
X130926525Y-64839368D01*
X130764010Y-65082589D01*
X130652068Y-65352842D01*
X130595000Y-65639740D01*
X130595000Y-65932260D01*
X130652068Y-66219158D01*
X130764010Y-66489411D01*
X130926525Y-66732632D01*
X131133368Y-66939475D01*
X131307760Y-67056000D01*
X131133368Y-67172525D01*
X130926525Y-67379368D01*
X130764010Y-67622589D01*
X130652068Y-67892842D01*
X130595000Y-68179740D01*
X130595000Y-68472260D01*
X130652068Y-68759158D01*
X130764010Y-69029411D01*
X130926525Y-69272632D01*
X131133368Y-69479475D01*
X131307760Y-69596000D01*
X131133368Y-69712525D01*
X130926525Y-69919368D01*
X130764010Y-70162589D01*
X130652068Y-70432842D01*
X130595000Y-70719740D01*
X130595000Y-71012260D01*
X130652068Y-71299158D01*
X130764010Y-71569411D01*
X130926525Y-71812632D01*
X131133368Y-72019475D01*
X131307760Y-72136000D01*
X131133368Y-72252525D01*
X130926525Y-72459368D01*
X130764010Y-72702589D01*
X130652068Y-72972842D01*
X130595000Y-73259740D01*
X130595000Y-73552260D01*
X130652068Y-73839158D01*
X130764010Y-74109411D01*
X130926525Y-74352632D01*
X131133368Y-74559475D01*
X131307760Y-74676000D01*
X131133368Y-74792525D01*
X130926525Y-74999368D01*
X130764010Y-75242589D01*
X130652068Y-75512842D01*
X130595000Y-75799740D01*
X130595000Y-76092260D01*
X130652068Y-76379158D01*
X130764010Y-76649411D01*
X130926525Y-76892632D01*
X131133368Y-77099475D01*
X131315534Y-77221195D01*
X131198645Y-77290822D01*
X130982412Y-77485731D01*
X130808359Y-77719080D01*
X130683175Y-77981901D01*
X130638524Y-78129110D01*
X130759845Y-78359000D01*
X131953000Y-78359000D01*
X131953000Y-78339000D01*
X132207000Y-78339000D01*
X132207000Y-78359000D01*
X133400155Y-78359000D01*
X133521476Y-78129110D01*
X133476825Y-77981901D01*
X133351641Y-77719080D01*
X133177588Y-77485731D01*
X132961355Y-77290822D01*
X132844466Y-77221195D01*
X133026632Y-77099475D01*
X133233475Y-76892632D01*
X133395990Y-76649411D01*
X133507932Y-76379158D01*
X133565000Y-76092260D01*
X133565000Y-75799740D01*
X133507932Y-75512842D01*
X133395990Y-75242589D01*
X133233475Y-74999368D01*
X133026632Y-74792525D01*
X132852240Y-74676000D01*
X133026632Y-74559475D01*
X133233475Y-74352632D01*
X133395990Y-74109411D01*
X133507932Y-73839158D01*
X133565000Y-73552260D01*
X133565000Y-73259740D01*
X133507932Y-72972842D01*
X133395990Y-72702589D01*
X133233475Y-72459368D01*
X133026632Y-72252525D01*
X132852240Y-72136000D01*
X133026632Y-72019475D01*
X133233475Y-71812632D01*
X133395990Y-71569411D01*
X133507932Y-71299158D01*
X133565000Y-71012260D01*
X133565000Y-70719740D01*
X133507932Y-70432842D01*
X133395990Y-70162589D01*
X133233475Y-69919368D01*
X133026632Y-69712525D01*
X132852240Y-69596000D01*
X133026632Y-69479475D01*
X133233475Y-69272632D01*
X133395990Y-69029411D01*
X133507932Y-68759158D01*
X133565000Y-68472260D01*
X133565000Y-68179740D01*
X133507932Y-67892842D01*
X133395990Y-67622589D01*
X133233475Y-67379368D01*
X133026632Y-67172525D01*
X132852240Y-67056000D01*
X133026632Y-66939475D01*
X133233475Y-66732632D01*
X133395990Y-66489411D01*
X133507932Y-66219158D01*
X133565000Y-65932260D01*
X133565000Y-65639740D01*
X133507932Y-65352842D01*
X133395990Y-65082589D01*
X133233475Y-64839368D01*
X133026632Y-64632525D01*
X132852240Y-64516000D01*
X133026632Y-64399475D01*
X133233475Y-64192632D01*
X133395990Y-63949411D01*
X133507932Y-63679158D01*
X133565000Y-63392260D01*
X133565000Y-63099740D01*
X133507932Y-62812842D01*
X133395990Y-62542589D01*
X133233475Y-62299368D01*
X133026632Y-62092525D01*
X132852240Y-61976000D01*
X133026632Y-61859475D01*
X133233475Y-61652632D01*
X133395990Y-61409411D01*
X133507932Y-61139158D01*
X133565000Y-60852260D01*
X133565000Y-60559740D01*
X133507932Y-60272842D01*
X133395990Y-60002589D01*
X133233475Y-59759368D01*
X133101620Y-59627513D01*
X133174180Y-59605502D01*
X133284494Y-59546537D01*
X133381185Y-59467185D01*
X133460537Y-59370494D01*
X133519502Y-59260180D01*
X133555812Y-59140482D01*
X133568072Y-59016000D01*
X133568072Y-57316000D01*
X135671928Y-57316000D01*
X135671928Y-59016000D01*
X135684188Y-59140482D01*
X135720498Y-59260180D01*
X135779463Y-59370494D01*
X135858815Y-59467185D01*
X135955506Y-59546537D01*
X136065820Y-59605502D01*
X136138380Y-59627513D01*
X136006525Y-59759368D01*
X135844010Y-60002589D01*
X135732068Y-60272842D01*
X135675000Y-60559740D01*
X135675000Y-60852260D01*
X135732068Y-61139158D01*
X135844010Y-61409411D01*
X136006525Y-61652632D01*
X136213368Y-61859475D01*
X136387760Y-61976000D01*
X136213368Y-62092525D01*
X136006525Y-62299368D01*
X135844010Y-62542589D01*
X135732068Y-62812842D01*
X135675000Y-63099740D01*
X135675000Y-63392260D01*
X135732068Y-63679158D01*
X135844010Y-63949411D01*
X136006525Y-64192632D01*
X136213368Y-64399475D01*
X136387760Y-64516000D01*
X136213368Y-64632525D01*
X136006525Y-64839368D01*
X135844010Y-65082589D01*
X135732068Y-65352842D01*
X135675000Y-65639740D01*
X135675000Y-65932260D01*
X135732068Y-66219158D01*
X135844010Y-66489411D01*
X136006525Y-66732632D01*
X136213368Y-66939475D01*
X136387760Y-67056000D01*
X136213368Y-67172525D01*
X136006525Y-67379368D01*
X135844010Y-67622589D01*
X135732068Y-67892842D01*
X135675000Y-68179740D01*
X135675000Y-68472260D01*
X135732068Y-68759158D01*
X135844010Y-69029411D01*
X136006525Y-69272632D01*
X136213368Y-69479475D01*
X136387760Y-69596000D01*
X136213368Y-69712525D01*
X136006525Y-69919368D01*
X135844010Y-70162589D01*
X135732068Y-70432842D01*
X135675000Y-70719740D01*
X135675000Y-71012260D01*
X135732068Y-71299158D01*
X135844010Y-71569411D01*
X136006525Y-71812632D01*
X136213368Y-72019475D01*
X136387760Y-72136000D01*
X136213368Y-72252525D01*
X136006525Y-72459368D01*
X135844010Y-72702589D01*
X135732068Y-72972842D01*
X135675000Y-73259740D01*
X135675000Y-73552260D01*
X135732068Y-73839158D01*
X135844010Y-74109411D01*
X136006525Y-74352632D01*
X136213368Y-74559475D01*
X136387760Y-74676000D01*
X136213368Y-74792525D01*
X136006525Y-74999368D01*
X135844010Y-75242589D01*
X135732068Y-75512842D01*
X135675000Y-75799740D01*
X135675000Y-76092260D01*
X135732068Y-76379158D01*
X135844010Y-76649411D01*
X136006525Y-76892632D01*
X136213368Y-77099475D01*
X136395534Y-77221195D01*
X136278645Y-77290822D01*
X136062412Y-77485731D01*
X135888359Y-77719080D01*
X135763175Y-77981901D01*
X135718524Y-78129110D01*
X135839845Y-78359000D01*
X137033000Y-78359000D01*
X137033000Y-78339000D01*
X137287000Y-78339000D01*
X137287000Y-78359000D01*
X137307000Y-78359000D01*
X137307000Y-78613000D01*
X137287000Y-78613000D01*
X137287000Y-80899000D01*
X137307000Y-80899000D01*
X137307000Y-81153000D01*
X137287000Y-81153000D01*
X137287000Y-81173000D01*
X137033000Y-81173000D01*
X137033000Y-81153000D01*
X135839845Y-81153000D01*
X135718524Y-81382890D01*
X135763175Y-81530099D01*
X135888359Y-81792920D01*
X136062412Y-82026269D01*
X136278645Y-82221178D01*
X136395534Y-82290805D01*
X136213368Y-82412525D01*
X136006525Y-82619368D01*
X135844010Y-82862589D01*
X135732068Y-83132842D01*
X135675000Y-83419740D01*
X135675000Y-83712260D01*
X135732068Y-83999158D01*
X135844010Y-84269411D01*
X136006525Y-84512632D01*
X136213368Y-84719475D01*
X136387760Y-84836000D01*
X136213368Y-84952525D01*
X136006525Y-85159368D01*
X135844010Y-85402589D01*
X135732068Y-85672842D01*
X135675000Y-85959740D01*
X135675000Y-86252260D01*
X135732068Y-86539158D01*
X135844010Y-86809411D01*
X136006525Y-87052632D01*
X136213368Y-87259475D01*
X136387760Y-87376000D01*
X136213368Y-87492525D01*
X136006525Y-87699368D01*
X135844010Y-87942589D01*
X135732068Y-88212842D01*
X135675000Y-88499740D01*
X135675000Y-88792260D01*
X135732068Y-89079158D01*
X135844010Y-89349411D01*
X136006525Y-89592632D01*
X136213368Y-89799475D01*
X136387760Y-89916000D01*
X136213368Y-90032525D01*
X136006525Y-90239368D01*
X135844010Y-90482589D01*
X135732068Y-90752842D01*
X135675000Y-91039740D01*
X135675000Y-91332260D01*
X135732068Y-91619158D01*
X135844010Y-91889411D01*
X136006525Y-92132632D01*
X136213368Y-92339475D01*
X136387760Y-92456000D01*
X136213368Y-92572525D01*
X136006525Y-92779368D01*
X135844010Y-93022589D01*
X135732068Y-93292842D01*
X135675000Y-93579740D01*
X135675000Y-93872260D01*
X135732068Y-94159158D01*
X135844010Y-94429411D01*
X136006525Y-94672632D01*
X136213368Y-94879475D01*
X136387760Y-94996000D01*
X136213368Y-95112525D01*
X136006525Y-95319368D01*
X135844010Y-95562589D01*
X135732068Y-95832842D01*
X135675000Y-96119740D01*
X135675000Y-96412260D01*
X135732068Y-96699158D01*
X135844010Y-96969411D01*
X136006525Y-97212632D01*
X136213368Y-97419475D01*
X136387760Y-97536000D01*
X136213368Y-97652525D01*
X136006525Y-97859368D01*
X135844010Y-98102589D01*
X135732068Y-98372842D01*
X135675000Y-98659740D01*
X135675000Y-98952260D01*
X135732068Y-99239158D01*
X135844010Y-99509411D01*
X136006525Y-99752632D01*
X136213368Y-99959475D01*
X136387760Y-100076000D01*
X136213368Y-100192525D01*
X136006525Y-100399368D01*
X135844010Y-100642589D01*
X135732068Y-100912842D01*
X135675000Y-101199740D01*
X135675000Y-101492260D01*
X135732068Y-101779158D01*
X135844010Y-102049411D01*
X136006525Y-102292632D01*
X136213368Y-102499475D01*
X136387760Y-102616000D01*
X136213368Y-102732525D01*
X136006525Y-102939368D01*
X135844010Y-103182589D01*
X135732068Y-103452842D01*
X135675000Y-103739740D01*
X135675000Y-104032260D01*
X135732068Y-104319158D01*
X135844010Y-104589411D01*
X136006525Y-104832632D01*
X136213368Y-105039475D01*
X136387760Y-105156000D01*
X136213368Y-105272525D01*
X136006525Y-105479368D01*
X135844010Y-105722589D01*
X135732068Y-105992842D01*
X135675000Y-106279740D01*
X135675000Y-106572260D01*
X135732068Y-106859158D01*
X135844010Y-107129411D01*
X136006525Y-107372632D01*
X136213368Y-107579475D01*
X136456589Y-107741990D01*
X136726842Y-107853932D01*
X137013740Y-107911000D01*
X137306260Y-107911000D01*
X137593158Y-107853932D01*
X137863411Y-107741990D01*
X138106632Y-107579475D01*
X138313475Y-107372632D01*
X138430000Y-107198240D01*
X138546525Y-107372632D01*
X138753368Y-107579475D01*
X138996589Y-107741990D01*
X139266842Y-107853932D01*
X139553740Y-107911000D01*
X139846260Y-107911000D01*
X140133158Y-107853932D01*
X140403411Y-107741990D01*
X140646632Y-107579475D01*
X140853475Y-107372632D01*
X141015990Y-107129411D01*
X141127932Y-106859158D01*
X141185000Y-106572260D01*
X141185000Y-106279740D01*
X141127932Y-105992842D01*
X141015990Y-105722589D01*
X140853475Y-105479368D01*
X140646632Y-105272525D01*
X140472240Y-105156000D01*
X140646632Y-105039475D01*
X140853475Y-104832632D01*
X141015990Y-104589411D01*
X141127932Y-104319158D01*
X141185000Y-104032260D01*
X141185000Y-103739740D01*
X143295000Y-103739740D01*
X143295000Y-104032260D01*
X143352068Y-104319158D01*
X143464010Y-104589411D01*
X143626525Y-104832632D01*
X143833368Y-105039475D01*
X144007760Y-105156000D01*
X143833368Y-105272525D01*
X143626525Y-105479368D01*
X143464010Y-105722589D01*
X143352068Y-105992842D01*
X143295000Y-106279740D01*
X143295000Y-106572260D01*
X143352068Y-106859158D01*
X143464010Y-107129411D01*
X143626525Y-107372632D01*
X143833368Y-107579475D01*
X144076589Y-107741990D01*
X144346842Y-107853932D01*
X144633740Y-107911000D01*
X144926260Y-107911000D01*
X145213158Y-107853932D01*
X145483411Y-107741990D01*
X145726632Y-107579475D01*
X145933475Y-107372632D01*
X146095990Y-107129411D01*
X146207932Y-106859158D01*
X146265000Y-106572260D01*
X146265000Y-106279740D01*
X146207932Y-105992842D01*
X146095990Y-105722589D01*
X145933475Y-105479368D01*
X145726632Y-105272525D01*
X145552240Y-105156000D01*
X145726632Y-105039475D01*
X145933475Y-104832632D01*
X146095990Y-104589411D01*
X146207932Y-104319158D01*
X146265000Y-104032260D01*
X146265000Y-103739740D01*
X146207932Y-103452842D01*
X146095990Y-103182589D01*
X145933475Y-102939368D01*
X145726632Y-102732525D01*
X145544466Y-102610805D01*
X145661355Y-102541178D01*
X145877588Y-102346269D01*
X146051641Y-102112920D01*
X146176825Y-101850099D01*
X146221476Y-101702890D01*
X146100155Y-101473000D01*
X144907000Y-101473000D01*
X144907000Y-101493000D01*
X144653000Y-101493000D01*
X144653000Y-101473000D01*
X143459845Y-101473000D01*
X143338524Y-101702890D01*
X143383175Y-101850099D01*
X143508359Y-102112920D01*
X143682412Y-102346269D01*
X143898645Y-102541178D01*
X144015534Y-102610805D01*
X143833368Y-102732525D01*
X143626525Y-102939368D01*
X143464010Y-103182589D01*
X143352068Y-103452842D01*
X143295000Y-103739740D01*
X141185000Y-103739740D01*
X141127932Y-103452842D01*
X141015990Y-103182589D01*
X140853475Y-102939368D01*
X140646632Y-102732525D01*
X140464466Y-102610805D01*
X140581355Y-102541178D01*
X140797588Y-102346269D01*
X140971641Y-102112920D01*
X141096825Y-101850099D01*
X141141476Y-101702890D01*
X141020155Y-101473000D01*
X139827000Y-101473000D01*
X139827000Y-101493000D01*
X139573000Y-101493000D01*
X139573000Y-101473000D01*
X139553000Y-101473000D01*
X139553000Y-101219000D01*
X139573000Y-101219000D01*
X139573000Y-101199000D01*
X139827000Y-101199000D01*
X139827000Y-101219000D01*
X141020155Y-101219000D01*
X141141476Y-100989110D01*
X141096825Y-100841901D01*
X140971641Y-100579080D01*
X140797588Y-100345731D01*
X140581355Y-100150822D01*
X140464466Y-100081195D01*
X140646632Y-99959475D01*
X140853475Y-99752632D01*
X141015990Y-99509411D01*
X141127932Y-99239158D01*
X141185000Y-98952260D01*
X141185000Y-98659740D01*
X141127932Y-98372842D01*
X141015990Y-98102589D01*
X140853475Y-97859368D01*
X140646632Y-97652525D01*
X140472240Y-97536000D01*
X140646632Y-97419475D01*
X140853475Y-97212632D01*
X141015990Y-96969411D01*
X141127932Y-96699158D01*
X141185000Y-96412260D01*
X141185000Y-96119740D01*
X141127932Y-95832842D01*
X141015990Y-95562589D01*
X140853475Y-95319368D01*
X140646632Y-95112525D01*
X140472240Y-94996000D01*
X140646632Y-94879475D01*
X140853475Y-94672632D01*
X141015990Y-94429411D01*
X141127932Y-94159158D01*
X141185000Y-93872260D01*
X141185000Y-93579740D01*
X141127932Y-93292842D01*
X141015990Y-93022589D01*
X140853475Y-92779368D01*
X140646632Y-92572525D01*
X140472240Y-92456000D01*
X140646632Y-92339475D01*
X140853475Y-92132632D01*
X141015990Y-91889411D01*
X141127932Y-91619158D01*
X141185000Y-91332260D01*
X141185000Y-91039740D01*
X141127932Y-90752842D01*
X141015990Y-90482589D01*
X140853475Y-90239368D01*
X140646632Y-90032525D01*
X140472240Y-89916000D01*
X140646632Y-89799475D01*
X140853475Y-89592632D01*
X141015990Y-89349411D01*
X141127932Y-89079158D01*
X141185000Y-88792260D01*
X141185000Y-88499740D01*
X141127932Y-88212842D01*
X141015990Y-87942589D01*
X140853475Y-87699368D01*
X140646632Y-87492525D01*
X140472240Y-87376000D01*
X140646632Y-87259475D01*
X140853475Y-87052632D01*
X141015990Y-86809411D01*
X141127932Y-86539158D01*
X141185000Y-86252260D01*
X141185000Y-85959740D01*
X141127932Y-85672842D01*
X141015990Y-85402589D01*
X140853475Y-85159368D01*
X140646632Y-84952525D01*
X140472240Y-84836000D01*
X140646632Y-84719475D01*
X140853475Y-84512632D01*
X141015990Y-84269411D01*
X141127932Y-83999158D01*
X141185000Y-83712260D01*
X141185000Y-83419740D01*
X141127932Y-83132842D01*
X141015990Y-82862589D01*
X140853475Y-82619368D01*
X140646632Y-82412525D01*
X140472240Y-82296000D01*
X140646632Y-82179475D01*
X140853475Y-81972632D01*
X141015990Y-81729411D01*
X141127932Y-81459158D01*
X141185000Y-81172260D01*
X141185000Y-80879740D01*
X141127932Y-80592842D01*
X141015990Y-80322589D01*
X140853475Y-80079368D01*
X140646632Y-79872525D01*
X140472240Y-79756000D01*
X140646632Y-79639475D01*
X140853475Y-79432632D01*
X141015990Y-79189411D01*
X141127932Y-78919158D01*
X141185000Y-78632260D01*
X141185000Y-78339740D01*
X141127932Y-78052842D01*
X141015990Y-77782589D01*
X140853475Y-77539368D01*
X140646632Y-77332525D01*
X140472240Y-77216000D01*
X140646632Y-77099475D01*
X140853475Y-76892632D01*
X141015990Y-76649411D01*
X141127932Y-76379158D01*
X141185000Y-76092260D01*
X141185000Y-75799740D01*
X141127932Y-75512842D01*
X141015990Y-75242589D01*
X140853475Y-74999368D01*
X140646632Y-74792525D01*
X140472240Y-74676000D01*
X140646632Y-74559475D01*
X140853475Y-74352632D01*
X141015990Y-74109411D01*
X141127932Y-73839158D01*
X141185000Y-73552260D01*
X141185000Y-73259740D01*
X141127932Y-72972842D01*
X141015990Y-72702589D01*
X140853475Y-72459368D01*
X140646632Y-72252525D01*
X140472240Y-72136000D01*
X140646632Y-72019475D01*
X140853475Y-71812632D01*
X141015990Y-71569411D01*
X141127932Y-71299158D01*
X141185000Y-71012260D01*
X141185000Y-70719740D01*
X141127932Y-70432842D01*
X141015990Y-70162589D01*
X140853475Y-69919368D01*
X140646632Y-69712525D01*
X140472240Y-69596000D01*
X140646632Y-69479475D01*
X140853475Y-69272632D01*
X141015990Y-69029411D01*
X141127932Y-68759158D01*
X141185000Y-68472260D01*
X141185000Y-68179740D01*
X141127932Y-67892842D01*
X141015990Y-67622589D01*
X140853475Y-67379368D01*
X140646632Y-67172525D01*
X140472240Y-67056000D01*
X140646632Y-66939475D01*
X140853475Y-66732632D01*
X141015990Y-66489411D01*
X141127932Y-66219158D01*
X141185000Y-65932260D01*
X141185000Y-65639740D01*
X141127932Y-65352842D01*
X141015990Y-65082589D01*
X140853475Y-64839368D01*
X140646632Y-64632525D01*
X140472240Y-64516000D01*
X140646632Y-64399475D01*
X140853475Y-64192632D01*
X141015990Y-63949411D01*
X141127932Y-63679158D01*
X141185000Y-63392260D01*
X141185000Y-63099740D01*
X141127932Y-62812842D01*
X141015990Y-62542589D01*
X140853475Y-62299368D01*
X140646632Y-62092525D01*
X140472240Y-61976000D01*
X140646632Y-61859475D01*
X140853475Y-61652632D01*
X141015990Y-61409411D01*
X141127932Y-61139158D01*
X141185000Y-60852260D01*
X141185000Y-60559740D01*
X141127932Y-60272842D01*
X141015990Y-60002589D01*
X140853475Y-59759368D01*
X140646632Y-59552525D01*
X140472240Y-59436000D01*
X140646632Y-59319475D01*
X140853475Y-59112632D01*
X141015990Y-58869411D01*
X141127932Y-58599158D01*
X141185000Y-58312260D01*
X141185000Y-58019740D01*
X141127932Y-57732842D01*
X141015990Y-57462589D01*
X140918043Y-57316000D01*
X143291928Y-57316000D01*
X143291928Y-59016000D01*
X143304188Y-59140482D01*
X143340498Y-59260180D01*
X143399463Y-59370494D01*
X143478815Y-59467185D01*
X143575506Y-59546537D01*
X143685820Y-59605502D01*
X143758380Y-59627513D01*
X143626525Y-59759368D01*
X143464010Y-60002589D01*
X143352068Y-60272842D01*
X143295000Y-60559740D01*
X143295000Y-60852260D01*
X143352068Y-61139158D01*
X143464010Y-61409411D01*
X143626525Y-61652632D01*
X143833368Y-61859475D01*
X144007760Y-61976000D01*
X143833368Y-62092525D01*
X143626525Y-62299368D01*
X143464010Y-62542589D01*
X143352068Y-62812842D01*
X143295000Y-63099740D01*
X143295000Y-63392260D01*
X143352068Y-63679158D01*
X143464010Y-63949411D01*
X143626525Y-64192632D01*
X143833368Y-64399475D01*
X144007760Y-64516000D01*
X143833368Y-64632525D01*
X143626525Y-64839368D01*
X143464010Y-65082589D01*
X143352068Y-65352842D01*
X143295000Y-65639740D01*
X143295000Y-65932260D01*
X143352068Y-66219158D01*
X143464010Y-66489411D01*
X143626525Y-66732632D01*
X143833368Y-66939475D01*
X144007760Y-67056000D01*
X143833368Y-67172525D01*
X143626525Y-67379368D01*
X143464010Y-67622589D01*
X143352068Y-67892842D01*
X143295000Y-68179740D01*
X143295000Y-68472260D01*
X143352068Y-68759158D01*
X143464010Y-69029411D01*
X143626525Y-69272632D01*
X143833368Y-69479475D01*
X144007760Y-69596000D01*
X143833368Y-69712525D01*
X143626525Y-69919368D01*
X143464010Y-70162589D01*
X143352068Y-70432842D01*
X143295000Y-70719740D01*
X143295000Y-71012260D01*
X143352068Y-71299158D01*
X143464010Y-71569411D01*
X143626525Y-71812632D01*
X143833368Y-72019475D01*
X144007760Y-72136000D01*
X143833368Y-72252525D01*
X143626525Y-72459368D01*
X143464010Y-72702589D01*
X143352068Y-72972842D01*
X143295000Y-73259740D01*
X143295000Y-73552260D01*
X143352068Y-73839158D01*
X143464010Y-74109411D01*
X143626525Y-74352632D01*
X143833368Y-74559475D01*
X144007760Y-74676000D01*
X143833368Y-74792525D01*
X143626525Y-74999368D01*
X143464010Y-75242589D01*
X143352068Y-75512842D01*
X143295000Y-75799740D01*
X143295000Y-76092260D01*
X143352068Y-76379158D01*
X143464010Y-76649411D01*
X143626525Y-76892632D01*
X143833368Y-77099475D01*
X144007760Y-77216000D01*
X143833368Y-77332525D01*
X143626525Y-77539368D01*
X143464010Y-77782589D01*
X143352068Y-78052842D01*
X143295000Y-78339740D01*
X143295000Y-78632260D01*
X143352068Y-78919158D01*
X143464010Y-79189411D01*
X143626525Y-79432632D01*
X143833368Y-79639475D01*
X144007760Y-79756000D01*
X143833368Y-79872525D01*
X143626525Y-80079368D01*
X143464010Y-80322589D01*
X143352068Y-80592842D01*
X143295000Y-80879740D01*
X143295000Y-81172260D01*
X143352068Y-81459158D01*
X143464010Y-81729411D01*
X143626525Y-81972632D01*
X143833368Y-82179475D01*
X144007760Y-82296000D01*
X143833368Y-82412525D01*
X143626525Y-82619368D01*
X143464010Y-82862589D01*
X143352068Y-83132842D01*
X143295000Y-83419740D01*
X143295000Y-83712260D01*
X143352068Y-83999158D01*
X143464010Y-84269411D01*
X143626525Y-84512632D01*
X143833368Y-84719475D01*
X144007760Y-84836000D01*
X143833368Y-84952525D01*
X143626525Y-85159368D01*
X143464010Y-85402589D01*
X143352068Y-85672842D01*
X143295000Y-85959740D01*
X143295000Y-86252260D01*
X143352068Y-86539158D01*
X143464010Y-86809411D01*
X143626525Y-87052632D01*
X143833368Y-87259475D01*
X144007760Y-87376000D01*
X143833368Y-87492525D01*
X143626525Y-87699368D01*
X143464010Y-87942589D01*
X143352068Y-88212842D01*
X143295000Y-88499740D01*
X143295000Y-88792260D01*
X143352068Y-89079158D01*
X143464010Y-89349411D01*
X143626525Y-89592632D01*
X143833368Y-89799475D01*
X144007760Y-89916000D01*
X143833368Y-90032525D01*
X143626525Y-90239368D01*
X143464010Y-90482589D01*
X143352068Y-90752842D01*
X143295000Y-91039740D01*
X143295000Y-91332260D01*
X143352068Y-91619158D01*
X143464010Y-91889411D01*
X143626525Y-92132632D01*
X143833368Y-92339475D01*
X144007760Y-92456000D01*
X143833368Y-92572525D01*
X143626525Y-92779368D01*
X143464010Y-93022589D01*
X143352068Y-93292842D01*
X143295000Y-93579740D01*
X143295000Y-93872260D01*
X143352068Y-94159158D01*
X143464010Y-94429411D01*
X143626525Y-94672632D01*
X143833368Y-94879475D01*
X144007760Y-94996000D01*
X143833368Y-95112525D01*
X143626525Y-95319368D01*
X143464010Y-95562589D01*
X143352068Y-95832842D01*
X143295000Y-96119740D01*
X143295000Y-96412260D01*
X143352068Y-96699158D01*
X143464010Y-96969411D01*
X143626525Y-97212632D01*
X143833368Y-97419475D01*
X144007760Y-97536000D01*
X143833368Y-97652525D01*
X143626525Y-97859368D01*
X143464010Y-98102589D01*
X143352068Y-98372842D01*
X143295000Y-98659740D01*
X143295000Y-98952260D01*
X143352068Y-99239158D01*
X143464010Y-99509411D01*
X143626525Y-99752632D01*
X143833368Y-99959475D01*
X144015534Y-100081195D01*
X143898645Y-100150822D01*
X143682412Y-100345731D01*
X143508359Y-100579080D01*
X143383175Y-100841901D01*
X143338524Y-100989110D01*
X143459845Y-101219000D01*
X144653000Y-101219000D01*
X144653000Y-101199000D01*
X144907000Y-101199000D01*
X144907000Y-101219000D01*
X146100155Y-101219000D01*
X146221476Y-100989110D01*
X146176825Y-100841901D01*
X146051641Y-100579080D01*
X145877588Y-100345731D01*
X145661355Y-100150822D01*
X145544466Y-100081195D01*
X145726632Y-99959475D01*
X145933475Y-99752632D01*
X146095990Y-99509411D01*
X146207932Y-99239158D01*
X146265000Y-98952260D01*
X146265000Y-98659740D01*
X146207932Y-98372842D01*
X146095990Y-98102589D01*
X145933475Y-97859368D01*
X145726632Y-97652525D01*
X145552240Y-97536000D01*
X145726632Y-97419475D01*
X145933475Y-97212632D01*
X146095990Y-96969411D01*
X146207932Y-96699158D01*
X146265000Y-96412260D01*
X146265000Y-96119740D01*
X146207932Y-95832842D01*
X146095990Y-95562589D01*
X145933475Y-95319368D01*
X145726632Y-95112525D01*
X145552240Y-94996000D01*
X145726632Y-94879475D01*
X145933475Y-94672632D01*
X146095990Y-94429411D01*
X146207932Y-94159158D01*
X146265000Y-93872260D01*
X146265000Y-93579740D01*
X146207932Y-93292842D01*
X146095990Y-93022589D01*
X145933475Y-92779368D01*
X145726632Y-92572525D01*
X145552240Y-92456000D01*
X145726632Y-92339475D01*
X145933475Y-92132632D01*
X146095990Y-91889411D01*
X146207932Y-91619158D01*
X146265000Y-91332260D01*
X146265000Y-91039740D01*
X146207932Y-90752842D01*
X146095990Y-90482589D01*
X145933475Y-90239368D01*
X145726632Y-90032525D01*
X145552240Y-89916000D01*
X145726632Y-89799475D01*
X145933475Y-89592632D01*
X146095990Y-89349411D01*
X146207932Y-89079158D01*
X146265000Y-88792260D01*
X146265000Y-88499740D01*
X146207932Y-88212842D01*
X146095990Y-87942589D01*
X145933475Y-87699368D01*
X145726632Y-87492525D01*
X145552240Y-87376000D01*
X145726632Y-87259475D01*
X145933475Y-87052632D01*
X146095990Y-86809411D01*
X146207932Y-86539158D01*
X146265000Y-86252260D01*
X146265000Y-85959740D01*
X146207932Y-85672842D01*
X146095990Y-85402589D01*
X145933475Y-85159368D01*
X145726632Y-84952525D01*
X145552240Y-84836000D01*
X145726632Y-84719475D01*
X145933475Y-84512632D01*
X146095990Y-84269411D01*
X146207932Y-83999158D01*
X146265000Y-83712260D01*
X146265000Y-83419740D01*
X146207932Y-83132842D01*
X146095990Y-82862589D01*
X145933475Y-82619368D01*
X145726632Y-82412525D01*
X145552240Y-82296000D01*
X145726632Y-82179475D01*
X145933475Y-81972632D01*
X146095990Y-81729411D01*
X146207932Y-81459158D01*
X146265000Y-81172260D01*
X146265000Y-80879740D01*
X146207932Y-80592842D01*
X146095990Y-80322589D01*
X145933475Y-80079368D01*
X145726632Y-79872525D01*
X145552240Y-79756000D01*
X145726632Y-79639475D01*
X145933475Y-79432632D01*
X146095990Y-79189411D01*
X146207932Y-78919158D01*
X146265000Y-78632260D01*
X146265000Y-78339740D01*
X146207932Y-78052842D01*
X146095990Y-77782589D01*
X145933475Y-77539368D01*
X145726632Y-77332525D01*
X145552240Y-77216000D01*
X145726632Y-77099475D01*
X145933475Y-76892632D01*
X146095990Y-76649411D01*
X146207932Y-76379158D01*
X146265000Y-76092260D01*
X146265000Y-75799740D01*
X146207932Y-75512842D01*
X146095990Y-75242589D01*
X145933475Y-74999368D01*
X145726632Y-74792525D01*
X145552240Y-74676000D01*
X145726632Y-74559475D01*
X145933475Y-74352632D01*
X146095990Y-74109411D01*
X146207932Y-73839158D01*
X146265000Y-73552260D01*
X146265000Y-73259740D01*
X146207932Y-72972842D01*
X146095990Y-72702589D01*
X145933475Y-72459368D01*
X145726632Y-72252525D01*
X145552240Y-72136000D01*
X145726632Y-72019475D01*
X145933475Y-71812632D01*
X146095990Y-71569411D01*
X146207932Y-71299158D01*
X146265000Y-71012260D01*
X146265000Y-70719740D01*
X146207932Y-70432842D01*
X146095990Y-70162589D01*
X145933475Y-69919368D01*
X145726632Y-69712525D01*
X145552240Y-69596000D01*
X145726632Y-69479475D01*
X145933475Y-69272632D01*
X146095990Y-69029411D01*
X146207932Y-68759158D01*
X146265000Y-68472260D01*
X146265000Y-68179740D01*
X146207932Y-67892842D01*
X146095990Y-67622589D01*
X145933475Y-67379368D01*
X145726632Y-67172525D01*
X145552240Y-67056000D01*
X145726632Y-66939475D01*
X145933475Y-66732632D01*
X146095990Y-66489411D01*
X146207932Y-66219158D01*
X146265000Y-65932260D01*
X146265000Y-65639740D01*
X146207932Y-65352842D01*
X146095990Y-65082589D01*
X145933475Y-64839368D01*
X145726632Y-64632525D01*
X145552240Y-64516000D01*
X145726632Y-64399475D01*
X145933475Y-64192632D01*
X146095990Y-63949411D01*
X146207932Y-63679158D01*
X146265000Y-63392260D01*
X146265000Y-63099740D01*
X146207932Y-62812842D01*
X146095990Y-62542589D01*
X145933475Y-62299368D01*
X145726632Y-62092525D01*
X145552240Y-61976000D01*
X145726632Y-61859475D01*
X145933475Y-61652632D01*
X146095990Y-61409411D01*
X146207932Y-61139158D01*
X146265000Y-60852260D01*
X146265000Y-60559740D01*
X146207932Y-60272842D01*
X146095990Y-60002589D01*
X145933475Y-59759368D01*
X145801620Y-59627513D01*
X145874180Y-59605502D01*
X145984494Y-59546537D01*
X146081185Y-59467185D01*
X146160537Y-59370494D01*
X146219502Y-59260180D01*
X146255812Y-59140482D01*
X146268072Y-59016000D01*
X146268072Y-57316000D01*
X146255812Y-57191518D01*
X146219502Y-57071820D01*
X146160537Y-56961506D01*
X146081185Y-56864815D01*
X145984494Y-56785463D01*
X145874180Y-56726498D01*
X145754482Y-56690188D01*
X145630000Y-56677928D01*
X143930000Y-56677928D01*
X143805518Y-56690188D01*
X143685820Y-56726498D01*
X143575506Y-56785463D01*
X143478815Y-56864815D01*
X143399463Y-56961506D01*
X143340498Y-57071820D01*
X143304188Y-57191518D01*
X143291928Y-57316000D01*
X140918043Y-57316000D01*
X140853475Y-57219368D01*
X140646632Y-57012525D01*
X140403411Y-56850010D01*
X140133158Y-56738068D01*
X139846260Y-56681000D01*
X139553740Y-56681000D01*
X139266842Y-56738068D01*
X138996589Y-56850010D01*
X138753368Y-57012525D01*
X138621513Y-57144380D01*
X138599502Y-57071820D01*
X138540537Y-56961506D01*
X138461185Y-56864815D01*
X138364494Y-56785463D01*
X138254180Y-56726498D01*
X138134482Y-56690188D01*
X138010000Y-56677928D01*
X136310000Y-56677928D01*
X136185518Y-56690188D01*
X136065820Y-56726498D01*
X135955506Y-56785463D01*
X135858815Y-56864815D01*
X135779463Y-56961506D01*
X135720498Y-57071820D01*
X135684188Y-57191518D01*
X135671928Y-57316000D01*
X133568072Y-57316000D01*
X133555812Y-57191518D01*
X133519502Y-57071820D01*
X133460537Y-56961506D01*
X133381185Y-56864815D01*
X133284494Y-56785463D01*
X133174180Y-56726498D01*
X133054482Y-56690188D01*
X132930000Y-56677928D01*
X131230000Y-56677928D01*
X131105518Y-56690188D01*
X130985820Y-56726498D01*
X130875506Y-56785463D01*
X130778815Y-56864815D01*
X130699463Y-56961506D01*
X130640498Y-57071820D01*
X130604188Y-57191518D01*
X130591928Y-57316000D01*
X127025000Y-57316000D01*
X127025000Y-55905000D01*
X149835000Y-55905000D01*
X149835001Y-107925000D01*
%TD*%
M02*
