%TF.GenerationSoftware,KiCad,Pcbnew,(5.1.6)-1*%
%TF.CreationDate,2021-12-04T14:03:29-08:00*%
%TF.ProjectId,Speeduino Pin Test Board,53706565-6475-4696-9e6f-2050696e2054,rev?*%
%TF.SameCoordinates,Original*%
%TF.FileFunction,Legend,Top*%
%TF.FilePolarity,Positive*%
%FSLAX46Y46*%
G04 Gerber Fmt 4.6, Leading zero omitted, Abs format (unit mm)*
G04 Created by KiCad (PCBNEW (5.1.6)-1) date 2021-12-04 14:03:29*
%MOMM*%
%LPD*%
G01*
G04 APERTURE LIST*
%ADD10C,0.150000*%
%ADD11C,0.120000*%
G04 APERTURE END LIST*
D10*
X142692380Y-95756190D02*
X141692380Y-95756190D01*
X141692380Y-95518095D01*
X141740000Y-95375238D01*
X141835238Y-95280000D01*
X141930476Y-95232380D01*
X142120952Y-95184761D01*
X142263809Y-95184761D01*
X142454285Y-95232380D01*
X142549523Y-95280000D01*
X142644761Y-95375238D01*
X142692380Y-95518095D01*
X142692380Y-95756190D01*
X142644761Y-94375238D02*
X142692380Y-94470476D01*
X142692380Y-94660952D01*
X142644761Y-94756190D01*
X142549523Y-94803809D01*
X142168571Y-94803809D01*
X142073333Y-94756190D01*
X142025714Y-94660952D01*
X142025714Y-94470476D01*
X142073333Y-94375238D01*
X142168571Y-94327619D01*
X142263809Y-94327619D01*
X142359047Y-94803809D01*
X142644761Y-93946666D02*
X142692380Y-93851428D01*
X142692380Y-93660952D01*
X142644761Y-93565714D01*
X142549523Y-93518095D01*
X142501904Y-93518095D01*
X142406666Y-93565714D01*
X142359047Y-93660952D01*
X142359047Y-93803809D01*
X142311428Y-93899047D01*
X142216190Y-93946666D01*
X142168571Y-93946666D01*
X142073333Y-93899047D01*
X142025714Y-93803809D01*
X142025714Y-93660952D01*
X142073333Y-93565714D01*
X142692380Y-93089523D02*
X142025714Y-93089523D01*
X141692380Y-93089523D02*
X141740000Y-93137142D01*
X141787619Y-93089523D01*
X141740000Y-93041904D01*
X141692380Y-93089523D01*
X141787619Y-93089523D01*
X142025714Y-92184761D02*
X142835238Y-92184761D01*
X142930476Y-92232380D01*
X142978095Y-92280000D01*
X143025714Y-92375238D01*
X143025714Y-92518095D01*
X142978095Y-92613333D01*
X142644761Y-92184761D02*
X142692380Y-92280000D01*
X142692380Y-92470476D01*
X142644761Y-92565714D01*
X142597142Y-92613333D01*
X142501904Y-92660952D01*
X142216190Y-92660952D01*
X142120952Y-92613333D01*
X142073333Y-92565714D01*
X142025714Y-92470476D01*
X142025714Y-92280000D01*
X142073333Y-92184761D01*
X142025714Y-91708571D02*
X142692380Y-91708571D01*
X142120952Y-91708571D02*
X142073333Y-91660952D01*
X142025714Y-91565714D01*
X142025714Y-91422857D01*
X142073333Y-91327619D01*
X142168571Y-91280000D01*
X142692380Y-91280000D01*
X142644761Y-90422857D02*
X142692380Y-90518095D01*
X142692380Y-90708571D01*
X142644761Y-90803809D01*
X142549523Y-90851428D01*
X142168571Y-90851428D01*
X142073333Y-90803809D01*
X142025714Y-90708571D01*
X142025714Y-90518095D01*
X142073333Y-90422857D01*
X142168571Y-90375238D01*
X142263809Y-90375238D01*
X142359047Y-90851428D01*
X142692380Y-89518095D02*
X141692380Y-89518095D01*
X142644761Y-89518095D02*
X142692380Y-89613333D01*
X142692380Y-89803809D01*
X142644761Y-89899047D01*
X142597142Y-89946666D01*
X142501904Y-89994285D01*
X142216190Y-89994285D01*
X142120952Y-89946666D01*
X142073333Y-89899047D01*
X142025714Y-89803809D01*
X142025714Y-89613333D01*
X142073333Y-89518095D01*
X142692380Y-88280000D02*
X141692380Y-88280000D01*
X142073333Y-88280000D02*
X142025714Y-88184761D01*
X142025714Y-87994285D01*
X142073333Y-87899047D01*
X142120952Y-87851428D01*
X142216190Y-87803809D01*
X142501904Y-87803809D01*
X142597142Y-87851428D01*
X142644761Y-87899047D01*
X142692380Y-87994285D01*
X142692380Y-88184761D01*
X142644761Y-88280000D01*
X142025714Y-87470476D02*
X142692380Y-87232380D01*
X142025714Y-86994285D02*
X142692380Y-87232380D01*
X142930476Y-87327619D01*
X142978095Y-87375238D01*
X143025714Y-87470476D01*
X142692380Y-85280000D02*
X142216190Y-85613333D01*
X142692380Y-85851428D02*
X141692380Y-85851428D01*
X141692380Y-85470476D01*
X141740000Y-85375238D01*
X141787619Y-85327619D01*
X141882857Y-85280000D01*
X142025714Y-85280000D01*
X142120952Y-85327619D01*
X142168571Y-85375238D01*
X142216190Y-85470476D01*
X142216190Y-85851428D01*
X142692380Y-84708571D02*
X142644761Y-84803809D01*
X142597142Y-84851428D01*
X142501904Y-84899047D01*
X142216190Y-84899047D01*
X142120952Y-84851428D01*
X142073333Y-84803809D01*
X142025714Y-84708571D01*
X142025714Y-84565714D01*
X142073333Y-84470476D01*
X142120952Y-84422857D01*
X142216190Y-84375238D01*
X142501904Y-84375238D01*
X142597142Y-84422857D01*
X142644761Y-84470476D01*
X142692380Y-84565714D01*
X142692380Y-84708571D01*
X142692380Y-83946666D02*
X141692380Y-83946666D01*
X142073333Y-83946666D02*
X142025714Y-83851428D01*
X142025714Y-83660952D01*
X142073333Y-83565714D01*
X142120952Y-83518095D01*
X142216190Y-83470476D01*
X142501904Y-83470476D01*
X142597142Y-83518095D01*
X142644761Y-83565714D01*
X142692380Y-83660952D01*
X142692380Y-83851428D01*
X142644761Y-83946666D01*
X142644761Y-82660952D02*
X142692380Y-82756190D01*
X142692380Y-82946666D01*
X142644761Y-83041904D01*
X142549523Y-83089523D01*
X142168571Y-83089523D01*
X142073333Y-83041904D01*
X142025714Y-82946666D01*
X142025714Y-82756190D01*
X142073333Y-82660952D01*
X142168571Y-82613333D01*
X142263809Y-82613333D01*
X142359047Y-83089523D01*
X142692380Y-82184761D02*
X142025714Y-82184761D01*
X142216190Y-82184761D02*
X142120952Y-82137142D01*
X142073333Y-82089523D01*
X142025714Y-81994285D01*
X142025714Y-81899047D01*
X142025714Y-81708571D02*
X142025714Y-81327619D01*
X141692380Y-81565714D02*
X142549523Y-81565714D01*
X142644761Y-81518095D01*
X142692380Y-81422857D01*
X142692380Y-81327619D01*
X142692380Y-80232380D02*
X141692380Y-80232380D01*
X142168571Y-80232380D02*
X142168571Y-79660952D01*
X142692380Y-79660952D02*
X141692380Y-79660952D01*
X142692380Y-79184761D02*
X142025714Y-79184761D01*
X141692380Y-79184761D02*
X141740000Y-79232380D01*
X141787619Y-79184761D01*
X141740000Y-79137142D01*
X141692380Y-79184761D01*
X141787619Y-79184761D01*
X142644761Y-78327619D02*
X142692380Y-78422857D01*
X142692380Y-78613333D01*
X142644761Y-78708571D01*
X142549523Y-78756190D01*
X142168571Y-78756190D01*
X142073333Y-78708571D01*
X142025714Y-78613333D01*
X142025714Y-78422857D01*
X142073333Y-78327619D01*
X142168571Y-78280000D01*
X142263809Y-78280000D01*
X142359047Y-78756190D01*
X142692380Y-77851428D02*
X141692380Y-77851428D01*
X142073333Y-77851428D02*
X142025714Y-77756190D01*
X142025714Y-77565714D01*
X142073333Y-77470476D01*
X142120952Y-77422857D01*
X142216190Y-77375238D01*
X142501904Y-77375238D01*
X142597142Y-77422857D01*
X142644761Y-77470476D01*
X142692380Y-77565714D01*
X142692380Y-77756190D01*
X142644761Y-77851428D01*
X142644761Y-76565714D02*
X142692380Y-76660952D01*
X142692380Y-76851428D01*
X142644761Y-76946666D01*
X142549523Y-76994285D01*
X142168571Y-76994285D01*
X142073333Y-76946666D01*
X142025714Y-76851428D01*
X142025714Y-76660952D01*
X142073333Y-76565714D01*
X142168571Y-76518095D01*
X142263809Y-76518095D01*
X142359047Y-76994285D01*
X142692380Y-76089523D02*
X142025714Y-76089523D01*
X142216190Y-76089523D02*
X142120952Y-76041904D01*
X142073333Y-75994285D01*
X142025714Y-75899047D01*
X142025714Y-75803809D01*
X142025714Y-75613333D02*
X142025714Y-75232380D01*
X141692380Y-75470476D02*
X142549523Y-75470476D01*
X142644761Y-75422857D01*
X142692380Y-75327619D01*
X142692380Y-75232380D01*
X142692380Y-73613333D02*
X142692380Y-74184761D01*
X142692380Y-73899047D02*
X141692380Y-73899047D01*
X141835238Y-73994285D01*
X141930476Y-74089523D01*
X141978095Y-74184761D01*
X141787619Y-73232380D02*
X141740000Y-73184761D01*
X141692380Y-73089523D01*
X141692380Y-72851428D01*
X141740000Y-72756190D01*
X141787619Y-72708571D01*
X141882857Y-72660952D01*
X141978095Y-72660952D01*
X142120952Y-72708571D01*
X142692380Y-73280000D01*
X142692380Y-72660952D01*
X141644761Y-71518095D02*
X142930476Y-72375238D01*
X141692380Y-70994285D02*
X141692380Y-70899047D01*
X141740000Y-70803809D01*
X141787619Y-70756190D01*
X141882857Y-70708571D01*
X142073333Y-70660952D01*
X142311428Y-70660952D01*
X142501904Y-70708571D01*
X142597142Y-70756190D01*
X142644761Y-70803809D01*
X142692380Y-70899047D01*
X142692380Y-70994285D01*
X142644761Y-71089523D01*
X142597142Y-71137142D01*
X142501904Y-71184761D01*
X142311428Y-71232380D01*
X142073333Y-71232380D01*
X141882857Y-71184761D01*
X141787619Y-71137142D01*
X141740000Y-71089523D01*
X141692380Y-70994285D01*
X142025714Y-69803809D02*
X142692380Y-69803809D01*
X141644761Y-70041904D02*
X142359047Y-70280000D01*
X142359047Y-69660952D01*
X141644761Y-68565714D02*
X142930476Y-69422857D01*
X141787619Y-68280000D02*
X141740000Y-68232380D01*
X141692380Y-68137142D01*
X141692380Y-67899047D01*
X141740000Y-67803809D01*
X141787619Y-67756190D01*
X141882857Y-67708571D01*
X141978095Y-67708571D01*
X142120952Y-67756190D01*
X142692380Y-68327619D01*
X142692380Y-67708571D01*
X142692380Y-66756190D02*
X142692380Y-67327619D01*
X142692380Y-67041904D02*
X141692380Y-67041904D01*
X141835238Y-67137142D01*
X141930476Y-67232380D01*
X141978095Y-67327619D01*
X135024761Y-92875238D02*
X135072380Y-92732380D01*
X135072380Y-92494285D01*
X135024761Y-92399047D01*
X134977142Y-92351428D01*
X134881904Y-92303809D01*
X134786666Y-92303809D01*
X134691428Y-92351428D01*
X134643809Y-92399047D01*
X134596190Y-92494285D01*
X134548571Y-92684761D01*
X134500952Y-92780000D01*
X134453333Y-92827619D01*
X134358095Y-92875238D01*
X134262857Y-92875238D01*
X134167619Y-92827619D01*
X134120000Y-92780000D01*
X134072380Y-92684761D01*
X134072380Y-92446666D01*
X134120000Y-92303809D01*
X134405714Y-91875238D02*
X135405714Y-91875238D01*
X134453333Y-91875238D02*
X134405714Y-91780000D01*
X134405714Y-91589523D01*
X134453333Y-91494285D01*
X134500952Y-91446666D01*
X134596190Y-91399047D01*
X134881904Y-91399047D01*
X134977142Y-91446666D01*
X135024761Y-91494285D01*
X135072380Y-91589523D01*
X135072380Y-91780000D01*
X135024761Y-91875238D01*
X135024761Y-90589523D02*
X135072380Y-90684761D01*
X135072380Y-90875238D01*
X135024761Y-90970476D01*
X134929523Y-91018095D01*
X134548571Y-91018095D01*
X134453333Y-90970476D01*
X134405714Y-90875238D01*
X134405714Y-90684761D01*
X134453333Y-90589523D01*
X134548571Y-90541904D01*
X134643809Y-90541904D01*
X134739047Y-91018095D01*
X135024761Y-89732380D02*
X135072380Y-89827619D01*
X135072380Y-90018095D01*
X135024761Y-90113333D01*
X134929523Y-90160952D01*
X134548571Y-90160952D01*
X134453333Y-90113333D01*
X134405714Y-90018095D01*
X134405714Y-89827619D01*
X134453333Y-89732380D01*
X134548571Y-89684761D01*
X134643809Y-89684761D01*
X134739047Y-90160952D01*
X135072380Y-88827619D02*
X134072380Y-88827619D01*
X135024761Y-88827619D02*
X135072380Y-88922857D01*
X135072380Y-89113333D01*
X135024761Y-89208571D01*
X134977142Y-89256190D01*
X134881904Y-89303809D01*
X134596190Y-89303809D01*
X134500952Y-89256190D01*
X134453333Y-89208571D01*
X134405714Y-89113333D01*
X134405714Y-88922857D01*
X134453333Y-88827619D01*
X134405714Y-87922857D02*
X135072380Y-87922857D01*
X134405714Y-88351428D02*
X134929523Y-88351428D01*
X135024761Y-88303809D01*
X135072380Y-88208571D01*
X135072380Y-88065714D01*
X135024761Y-87970476D01*
X134977142Y-87922857D01*
X135072380Y-87446666D02*
X134405714Y-87446666D01*
X134072380Y-87446666D02*
X134120000Y-87494285D01*
X134167619Y-87446666D01*
X134120000Y-87399047D01*
X134072380Y-87446666D01*
X134167619Y-87446666D01*
X134405714Y-86970476D02*
X135072380Y-86970476D01*
X134500952Y-86970476D02*
X134453333Y-86922857D01*
X134405714Y-86827619D01*
X134405714Y-86684761D01*
X134453333Y-86589523D01*
X134548571Y-86541904D01*
X135072380Y-86541904D01*
X135072380Y-85922857D02*
X135024761Y-86018095D01*
X134977142Y-86065714D01*
X134881904Y-86113333D01*
X134596190Y-86113333D01*
X134500952Y-86065714D01*
X134453333Y-86018095D01*
X134405714Y-85922857D01*
X134405714Y-85780000D01*
X134453333Y-85684761D01*
X134500952Y-85637142D01*
X134596190Y-85589523D01*
X134881904Y-85589523D01*
X134977142Y-85637142D01*
X135024761Y-85684761D01*
X135072380Y-85780000D01*
X135072380Y-85922857D01*
X134405714Y-84494285D02*
X135072380Y-84256190D01*
X134405714Y-84018095D01*
X134072380Y-83446666D02*
X134072380Y-83351428D01*
X134120000Y-83256190D01*
X134167619Y-83208571D01*
X134262857Y-83160952D01*
X134453333Y-83113333D01*
X134691428Y-83113333D01*
X134881904Y-83160952D01*
X134977142Y-83208571D01*
X135024761Y-83256190D01*
X135072380Y-83351428D01*
X135072380Y-83446666D01*
X135024761Y-83541904D01*
X134977142Y-83589523D01*
X134881904Y-83637142D01*
X134691428Y-83684761D01*
X134453333Y-83684761D01*
X134262857Y-83637142D01*
X134167619Y-83589523D01*
X134120000Y-83541904D01*
X134072380Y-83446666D01*
X134977142Y-82684761D02*
X135024761Y-82637142D01*
X135072380Y-82684761D01*
X135024761Y-82732380D01*
X134977142Y-82684761D01*
X135072380Y-82684761D01*
X134405714Y-81780000D02*
X135072380Y-81780000D01*
X134024761Y-82018095D02*
X134739047Y-82256190D01*
X134739047Y-81637142D01*
X135072380Y-80494285D02*
X134072380Y-80494285D01*
X134072380Y-80113333D01*
X134120000Y-80018095D01*
X134167619Y-79970476D01*
X134262857Y-79922857D01*
X134405714Y-79922857D01*
X134500952Y-79970476D01*
X134548571Y-80018095D01*
X134596190Y-80113333D01*
X134596190Y-80494285D01*
X135072380Y-79494285D02*
X134405714Y-79494285D01*
X134072380Y-79494285D02*
X134120000Y-79541904D01*
X134167619Y-79494285D01*
X134120000Y-79446666D01*
X134072380Y-79494285D01*
X134167619Y-79494285D01*
X134405714Y-79018095D02*
X135072380Y-79018095D01*
X134500952Y-79018095D02*
X134453333Y-78970476D01*
X134405714Y-78875238D01*
X134405714Y-78732380D01*
X134453333Y-78637142D01*
X134548571Y-78589523D01*
X135072380Y-78589523D01*
X134072380Y-77494285D02*
X134072380Y-76922857D01*
X135072380Y-77208571D02*
X134072380Y-77208571D01*
X135024761Y-76208571D02*
X135072380Y-76303809D01*
X135072380Y-76494285D01*
X135024761Y-76589523D01*
X134929523Y-76637142D01*
X134548571Y-76637142D01*
X134453333Y-76589523D01*
X134405714Y-76494285D01*
X134405714Y-76303809D01*
X134453333Y-76208571D01*
X134548571Y-76160952D01*
X134643809Y-76160952D01*
X134739047Y-76637142D01*
X135024761Y-75780000D02*
X135072380Y-75684761D01*
X135072380Y-75494285D01*
X135024761Y-75399047D01*
X134929523Y-75351428D01*
X134881904Y-75351428D01*
X134786666Y-75399047D01*
X134739047Y-75494285D01*
X134739047Y-75637142D01*
X134691428Y-75732380D01*
X134596190Y-75780000D01*
X134548571Y-75780000D01*
X134453333Y-75732380D01*
X134405714Y-75637142D01*
X134405714Y-75494285D01*
X134453333Y-75399047D01*
X134405714Y-75065714D02*
X134405714Y-74684761D01*
X134072380Y-74922857D02*
X134929523Y-74922857D01*
X135024761Y-74875238D01*
X135072380Y-74780000D01*
X135072380Y-74684761D01*
X134548571Y-73256190D02*
X134596190Y-73113333D01*
X134643809Y-73065714D01*
X134739047Y-73018095D01*
X134881904Y-73018095D01*
X134977142Y-73065714D01*
X135024761Y-73113333D01*
X135072380Y-73208571D01*
X135072380Y-73589523D01*
X134072380Y-73589523D01*
X134072380Y-73256190D01*
X134120000Y-73160952D01*
X134167619Y-73113333D01*
X134262857Y-73065714D01*
X134358095Y-73065714D01*
X134453333Y-73113333D01*
X134500952Y-73160952D01*
X134548571Y-73256190D01*
X134548571Y-73589523D01*
X135072380Y-72446666D02*
X135024761Y-72541904D01*
X134977142Y-72589523D01*
X134881904Y-72637142D01*
X134596190Y-72637142D01*
X134500952Y-72589523D01*
X134453333Y-72541904D01*
X134405714Y-72446666D01*
X134405714Y-72303809D01*
X134453333Y-72208571D01*
X134500952Y-72160952D01*
X134596190Y-72113333D01*
X134881904Y-72113333D01*
X134977142Y-72160952D01*
X135024761Y-72208571D01*
X135072380Y-72303809D01*
X135072380Y-72446666D01*
X135072380Y-71256190D02*
X134548571Y-71256190D01*
X134453333Y-71303809D01*
X134405714Y-71399047D01*
X134405714Y-71589523D01*
X134453333Y-71684761D01*
X135024761Y-71256190D02*
X135072380Y-71351428D01*
X135072380Y-71589523D01*
X135024761Y-71684761D01*
X134929523Y-71732380D01*
X134834285Y-71732380D01*
X134739047Y-71684761D01*
X134691428Y-71589523D01*
X134691428Y-71351428D01*
X134643809Y-71256190D01*
X135072380Y-70780000D02*
X134405714Y-70780000D01*
X134596190Y-70780000D02*
X134500952Y-70732380D01*
X134453333Y-70684761D01*
X134405714Y-70589523D01*
X134405714Y-70494285D01*
X135072380Y-69732380D02*
X134072380Y-69732380D01*
X135024761Y-69732380D02*
X135072380Y-69827619D01*
X135072380Y-70018095D01*
X135024761Y-70113333D01*
X134977142Y-70160952D01*
X134881904Y-70208571D01*
X134596190Y-70208571D01*
X134500952Y-70160952D01*
X134453333Y-70113333D01*
X134405714Y-70018095D01*
X134405714Y-69827619D01*
X134453333Y-69732380D01*
X147447142Y-66492380D02*
X147447142Y-65492380D01*
X148351904Y-66492380D02*
X148351904Y-65492380D01*
X148351904Y-66444761D02*
X148256666Y-66492380D01*
X148066190Y-66492380D01*
X147970952Y-66444761D01*
X147923333Y-66397142D01*
X147875714Y-66301904D01*
X147875714Y-66016190D01*
X147923333Y-65920952D01*
X147970952Y-65873333D01*
X148066190Y-65825714D01*
X148256666Y-65825714D01*
X148351904Y-65873333D01*
X148970952Y-66492380D02*
X148875714Y-66444761D01*
X148828095Y-66349523D01*
X148828095Y-65492380D01*
X149732857Y-66444761D02*
X149637619Y-66492380D01*
X149447142Y-66492380D01*
X149351904Y-66444761D01*
X149304285Y-66349523D01*
X149304285Y-65968571D01*
X149351904Y-65873333D01*
X149447142Y-65825714D01*
X149637619Y-65825714D01*
X149732857Y-65873333D01*
X149780476Y-65968571D01*
X149780476Y-66063809D01*
X149304285Y-66159047D01*
X147970952Y-71048571D02*
X148113809Y-71096190D01*
X148161428Y-71143809D01*
X148209047Y-71239047D01*
X148209047Y-71381904D01*
X148161428Y-71477142D01*
X148113809Y-71524761D01*
X148018571Y-71572380D01*
X147637619Y-71572380D01*
X147637619Y-70572380D01*
X147970952Y-70572380D01*
X148066190Y-70620000D01*
X148113809Y-70667619D01*
X148161428Y-70762857D01*
X148161428Y-70858095D01*
X148113809Y-70953333D01*
X148066190Y-71000952D01*
X147970952Y-71048571D01*
X147637619Y-71048571D01*
X148590000Y-71524761D02*
X148685238Y-71572380D01*
X148875714Y-71572380D01*
X148970952Y-71524761D01*
X149018571Y-71429523D01*
X149018571Y-71381904D01*
X148970952Y-71286666D01*
X148875714Y-71239047D01*
X148732857Y-71239047D01*
X148637619Y-71191428D01*
X148590000Y-71096190D01*
X148590000Y-71048571D01*
X148637619Y-70953333D01*
X148732857Y-70905714D01*
X148875714Y-70905714D01*
X148970952Y-70953333D01*
X149304285Y-70905714D02*
X149685238Y-70905714D01*
X149447142Y-70572380D02*
X149447142Y-71429523D01*
X149494761Y-71524761D01*
X149590000Y-71572380D01*
X149685238Y-71572380D01*
X147209047Y-58872380D02*
X147209047Y-57872380D01*
X147685238Y-58872380D02*
X147685238Y-57872380D01*
X148256666Y-58872380D01*
X148256666Y-57872380D01*
X149018571Y-57872380D02*
X149018571Y-58586666D01*
X148970952Y-58729523D01*
X148875714Y-58824761D01*
X148732857Y-58872380D01*
X148637619Y-58872380D01*
X150018571Y-58872380D02*
X149447142Y-58872380D01*
X149732857Y-58872380D02*
X149732857Y-57872380D01*
X149637619Y-58015238D01*
X149542380Y-58110476D01*
X149447142Y-58158095D01*
X147209047Y-61412380D02*
X147209047Y-60412380D01*
X147685238Y-61412380D02*
X147685238Y-60412380D01*
X148256666Y-61412380D01*
X148256666Y-60412380D01*
X149018571Y-60412380D02*
X149018571Y-61126666D01*
X148970952Y-61269523D01*
X148875714Y-61364761D01*
X148732857Y-61412380D01*
X148637619Y-61412380D01*
X149447142Y-60507619D02*
X149494761Y-60460000D01*
X149590000Y-60412380D01*
X149828095Y-60412380D01*
X149923333Y-60460000D01*
X149970952Y-60507619D01*
X150018571Y-60602857D01*
X150018571Y-60698095D01*
X149970952Y-60840952D01*
X149399523Y-61412380D01*
X150018571Y-61412380D01*
X147328095Y-63952380D02*
X147328095Y-62952380D01*
X147328095Y-63428571D02*
X147899523Y-63428571D01*
X147899523Y-63952380D02*
X147899523Y-62952380D01*
X148947142Y-63857142D02*
X148899523Y-63904761D01*
X148756666Y-63952380D01*
X148661428Y-63952380D01*
X148518571Y-63904761D01*
X148423333Y-63809523D01*
X148375714Y-63714285D01*
X148328095Y-63523809D01*
X148328095Y-63380952D01*
X148375714Y-63190476D01*
X148423333Y-63095238D01*
X148518571Y-63000000D01*
X148661428Y-62952380D01*
X148756666Y-62952380D01*
X148899523Y-63000000D01*
X148947142Y-63047619D01*
X149328095Y-63047619D02*
X149375714Y-63000000D01*
X149470952Y-62952380D01*
X149709047Y-62952380D01*
X149804285Y-63000000D01*
X149851904Y-63047619D01*
X149899523Y-63142857D01*
X149899523Y-63238095D01*
X149851904Y-63380952D01*
X149280476Y-63952380D01*
X149899523Y-63952380D01*
X147328095Y-69032380D02*
X147328095Y-68032380D01*
X147328095Y-68508571D02*
X147899523Y-68508571D01*
X147899523Y-69032380D02*
X147899523Y-68032380D01*
X148947142Y-68937142D02*
X148899523Y-68984761D01*
X148756666Y-69032380D01*
X148661428Y-69032380D01*
X148518571Y-68984761D01*
X148423333Y-68889523D01*
X148375714Y-68794285D01*
X148328095Y-68603809D01*
X148328095Y-68460952D01*
X148375714Y-68270476D01*
X148423333Y-68175238D01*
X148518571Y-68080000D01*
X148661428Y-68032380D01*
X148756666Y-68032380D01*
X148899523Y-68080000D01*
X148947142Y-68127619D01*
X149899523Y-69032380D02*
X149328095Y-69032380D01*
X149613809Y-69032380D02*
X149613809Y-68032380D01*
X149518571Y-68175238D01*
X149423333Y-68270476D01*
X149328095Y-68318095D01*
X147209047Y-74112380D02*
X147209047Y-73112380D01*
X148113809Y-73445714D02*
X148113809Y-74255238D01*
X148066190Y-74350476D01*
X148018571Y-74398095D01*
X147923333Y-74445714D01*
X147780476Y-74445714D01*
X147685238Y-74398095D01*
X148113809Y-74064761D02*
X148018571Y-74112380D01*
X147828095Y-74112380D01*
X147732857Y-74064761D01*
X147685238Y-74017142D01*
X147637619Y-73921904D01*
X147637619Y-73636190D01*
X147685238Y-73540952D01*
X147732857Y-73493333D01*
X147828095Y-73445714D01*
X148018571Y-73445714D01*
X148113809Y-73493333D01*
X148590000Y-73445714D02*
X148590000Y-74112380D01*
X148590000Y-73540952D02*
X148637619Y-73493333D01*
X148732857Y-73445714D01*
X148875714Y-73445714D01*
X148970952Y-73493333D01*
X149018571Y-73588571D01*
X149018571Y-74112380D01*
X149447142Y-73207619D02*
X149494761Y-73160000D01*
X149590000Y-73112380D01*
X149828095Y-73112380D01*
X149923333Y-73160000D01*
X149970952Y-73207619D01*
X150018571Y-73302857D01*
X150018571Y-73398095D01*
X149970952Y-73540952D01*
X149399523Y-74112380D01*
X150018571Y-74112380D01*
X147209047Y-76652380D02*
X147209047Y-75652380D01*
X148113809Y-75985714D02*
X148113809Y-76795238D01*
X148066190Y-76890476D01*
X148018571Y-76938095D01*
X147923333Y-76985714D01*
X147780476Y-76985714D01*
X147685238Y-76938095D01*
X148113809Y-76604761D02*
X148018571Y-76652380D01*
X147828095Y-76652380D01*
X147732857Y-76604761D01*
X147685238Y-76557142D01*
X147637619Y-76461904D01*
X147637619Y-76176190D01*
X147685238Y-76080952D01*
X147732857Y-76033333D01*
X147828095Y-75985714D01*
X148018571Y-75985714D01*
X148113809Y-76033333D01*
X148590000Y-75985714D02*
X148590000Y-76652380D01*
X148590000Y-76080952D02*
X148637619Y-76033333D01*
X148732857Y-75985714D01*
X148875714Y-75985714D01*
X148970952Y-76033333D01*
X149018571Y-76128571D01*
X149018571Y-76652380D01*
X149399523Y-75652380D02*
X150018571Y-75652380D01*
X149685238Y-76033333D01*
X149828095Y-76033333D01*
X149923333Y-76080952D01*
X149970952Y-76128571D01*
X150018571Y-76223809D01*
X150018571Y-76461904D01*
X149970952Y-76557142D01*
X149923333Y-76604761D01*
X149828095Y-76652380D01*
X149542380Y-76652380D01*
X149447142Y-76604761D01*
X149399523Y-76557142D01*
X146383619Y-79144761D02*
X146526476Y-79192380D01*
X146764571Y-79192380D01*
X146859809Y-79144761D01*
X146907428Y-79097142D01*
X146955047Y-79001904D01*
X146955047Y-78906666D01*
X146907428Y-78811428D01*
X146859809Y-78763809D01*
X146764571Y-78716190D01*
X146574095Y-78668571D01*
X146478857Y-78620952D01*
X146431238Y-78573333D01*
X146383619Y-78478095D01*
X146383619Y-78382857D01*
X146431238Y-78287619D01*
X146478857Y-78240000D01*
X146574095Y-78192380D01*
X146812190Y-78192380D01*
X146955047Y-78240000D01*
X147240761Y-78525714D02*
X147621714Y-78525714D01*
X147383619Y-78192380D02*
X147383619Y-79049523D01*
X147431238Y-79144761D01*
X147526476Y-79192380D01*
X147621714Y-79192380D01*
X147955047Y-78525714D02*
X147955047Y-79525714D01*
X147955047Y-78573333D02*
X148050285Y-78525714D01*
X148240761Y-78525714D01*
X148336000Y-78573333D01*
X148383619Y-78620952D01*
X148431238Y-78716190D01*
X148431238Y-79001904D01*
X148383619Y-79097142D01*
X148336000Y-79144761D01*
X148240761Y-79192380D01*
X148050285Y-79192380D01*
X147955047Y-79144761D01*
X149383619Y-79192380D02*
X148812190Y-79192380D01*
X149097904Y-79192380D02*
X149097904Y-78192380D01*
X149002666Y-78335238D01*
X148907428Y-78430476D01*
X148812190Y-78478095D01*
X149812190Y-79192380D02*
X149812190Y-78192380D01*
X149812190Y-78573333D02*
X149907428Y-78525714D01*
X150097904Y-78525714D01*
X150193142Y-78573333D01*
X150240761Y-78620952D01*
X150288380Y-78716190D01*
X150288380Y-79001904D01*
X150240761Y-79097142D01*
X150193142Y-79144761D01*
X150097904Y-79192380D01*
X149907428Y-79192380D01*
X149812190Y-79144761D01*
X146383619Y-81684761D02*
X146526476Y-81732380D01*
X146764571Y-81732380D01*
X146859809Y-81684761D01*
X146907428Y-81637142D01*
X146955047Y-81541904D01*
X146955047Y-81446666D01*
X146907428Y-81351428D01*
X146859809Y-81303809D01*
X146764571Y-81256190D01*
X146574095Y-81208571D01*
X146478857Y-81160952D01*
X146431238Y-81113333D01*
X146383619Y-81018095D01*
X146383619Y-80922857D01*
X146431238Y-80827619D01*
X146478857Y-80780000D01*
X146574095Y-80732380D01*
X146812190Y-80732380D01*
X146955047Y-80780000D01*
X147240761Y-81065714D02*
X147621714Y-81065714D01*
X147383619Y-80732380D02*
X147383619Y-81589523D01*
X147431238Y-81684761D01*
X147526476Y-81732380D01*
X147621714Y-81732380D01*
X147955047Y-81065714D02*
X147955047Y-82065714D01*
X147955047Y-81113333D02*
X148050285Y-81065714D01*
X148240761Y-81065714D01*
X148336000Y-81113333D01*
X148383619Y-81160952D01*
X148431238Y-81256190D01*
X148431238Y-81541904D01*
X148383619Y-81637142D01*
X148336000Y-81684761D01*
X148240761Y-81732380D01*
X148050285Y-81732380D01*
X147955047Y-81684761D01*
X149383619Y-81732380D02*
X148812190Y-81732380D01*
X149097904Y-81732380D02*
X149097904Y-80732380D01*
X149002666Y-80875238D01*
X148907428Y-80970476D01*
X148812190Y-81018095D01*
X150240761Y-81732380D02*
X150240761Y-81208571D01*
X150193142Y-81113333D01*
X150097904Y-81065714D01*
X149907428Y-81065714D01*
X149812190Y-81113333D01*
X150240761Y-81684761D02*
X150145523Y-81732380D01*
X149907428Y-81732380D01*
X149812190Y-81684761D01*
X149764571Y-81589523D01*
X149764571Y-81494285D01*
X149812190Y-81399047D01*
X149907428Y-81351428D01*
X150145523Y-81351428D01*
X150240761Y-81303809D01*
X146383619Y-84224761D02*
X146526476Y-84272380D01*
X146764571Y-84272380D01*
X146859809Y-84224761D01*
X146907428Y-84177142D01*
X146955047Y-84081904D01*
X146955047Y-83986666D01*
X146907428Y-83891428D01*
X146859809Y-83843809D01*
X146764571Y-83796190D01*
X146574095Y-83748571D01*
X146478857Y-83700952D01*
X146431238Y-83653333D01*
X146383619Y-83558095D01*
X146383619Y-83462857D01*
X146431238Y-83367619D01*
X146478857Y-83320000D01*
X146574095Y-83272380D01*
X146812190Y-83272380D01*
X146955047Y-83320000D01*
X147240761Y-83605714D02*
X147621714Y-83605714D01*
X147383619Y-83272380D02*
X147383619Y-84129523D01*
X147431238Y-84224761D01*
X147526476Y-84272380D01*
X147621714Y-84272380D01*
X147955047Y-83605714D02*
X147955047Y-84605714D01*
X147955047Y-83653333D02*
X148050285Y-83605714D01*
X148240761Y-83605714D01*
X148336000Y-83653333D01*
X148383619Y-83700952D01*
X148431238Y-83796190D01*
X148431238Y-84081904D01*
X148383619Y-84177142D01*
X148336000Y-84224761D01*
X148240761Y-84272380D01*
X148050285Y-84272380D01*
X147955047Y-84224761D01*
X148812190Y-83367619D02*
X148859809Y-83320000D01*
X148955047Y-83272380D01*
X149193142Y-83272380D01*
X149288380Y-83320000D01*
X149336000Y-83367619D01*
X149383619Y-83462857D01*
X149383619Y-83558095D01*
X149336000Y-83700952D01*
X148764571Y-84272380D01*
X149383619Y-84272380D01*
X150240761Y-84272380D02*
X150240761Y-83748571D01*
X150193142Y-83653333D01*
X150097904Y-83605714D01*
X149907428Y-83605714D01*
X149812190Y-83653333D01*
X150240761Y-84224761D02*
X150145523Y-84272380D01*
X149907428Y-84272380D01*
X149812190Y-84224761D01*
X149764571Y-84129523D01*
X149764571Y-84034285D01*
X149812190Y-83939047D01*
X149907428Y-83891428D01*
X150145523Y-83891428D01*
X150240761Y-83843809D01*
X146383619Y-86764761D02*
X146526476Y-86812380D01*
X146764571Y-86812380D01*
X146859809Y-86764761D01*
X146907428Y-86717142D01*
X146955047Y-86621904D01*
X146955047Y-86526666D01*
X146907428Y-86431428D01*
X146859809Y-86383809D01*
X146764571Y-86336190D01*
X146574095Y-86288571D01*
X146478857Y-86240952D01*
X146431238Y-86193333D01*
X146383619Y-86098095D01*
X146383619Y-86002857D01*
X146431238Y-85907619D01*
X146478857Y-85860000D01*
X146574095Y-85812380D01*
X146812190Y-85812380D01*
X146955047Y-85860000D01*
X147240761Y-86145714D02*
X147621714Y-86145714D01*
X147383619Y-85812380D02*
X147383619Y-86669523D01*
X147431238Y-86764761D01*
X147526476Y-86812380D01*
X147621714Y-86812380D01*
X147955047Y-86145714D02*
X147955047Y-87145714D01*
X147955047Y-86193333D02*
X148050285Y-86145714D01*
X148240761Y-86145714D01*
X148336000Y-86193333D01*
X148383619Y-86240952D01*
X148431238Y-86336190D01*
X148431238Y-86621904D01*
X148383619Y-86717142D01*
X148336000Y-86764761D01*
X148240761Y-86812380D01*
X148050285Y-86812380D01*
X147955047Y-86764761D01*
X148812190Y-85907619D02*
X148859809Y-85860000D01*
X148955047Y-85812380D01*
X149193142Y-85812380D01*
X149288380Y-85860000D01*
X149336000Y-85907619D01*
X149383619Y-86002857D01*
X149383619Y-86098095D01*
X149336000Y-86240952D01*
X148764571Y-86812380D01*
X149383619Y-86812380D01*
X149812190Y-86812380D02*
X149812190Y-85812380D01*
X149812190Y-86193333D02*
X149907428Y-86145714D01*
X150097904Y-86145714D01*
X150193142Y-86193333D01*
X150240761Y-86240952D01*
X150288380Y-86336190D01*
X150288380Y-86621904D01*
X150240761Y-86717142D01*
X150193142Y-86764761D01*
X150097904Y-86812380D01*
X149907428Y-86812380D01*
X149812190Y-86764761D01*
X148399523Y-88352380D02*
X147923333Y-88352380D01*
X147875714Y-88828571D01*
X147923333Y-88780952D01*
X148018571Y-88733333D01*
X148256666Y-88733333D01*
X148351904Y-88780952D01*
X148399523Y-88828571D01*
X148447142Y-88923809D01*
X148447142Y-89161904D01*
X148399523Y-89257142D01*
X148351904Y-89304761D01*
X148256666Y-89352380D01*
X148018571Y-89352380D01*
X147923333Y-89304761D01*
X147875714Y-89257142D01*
X148732857Y-88352380D02*
X149066190Y-89352380D01*
X149399523Y-88352380D01*
X146407428Y-90892380D02*
X146740761Y-91892380D01*
X147074095Y-90892380D01*
X147978857Y-91892380D02*
X147645523Y-91416190D01*
X147407428Y-91892380D02*
X147407428Y-90892380D01*
X147788380Y-90892380D01*
X147883619Y-90940000D01*
X147931238Y-90987619D01*
X147978857Y-91082857D01*
X147978857Y-91225714D01*
X147931238Y-91320952D01*
X147883619Y-91368571D01*
X147788380Y-91416190D01*
X147407428Y-91416190D01*
X148931238Y-91892380D02*
X148359809Y-91892380D01*
X148645523Y-91892380D02*
X148645523Y-90892380D01*
X148550285Y-91035238D01*
X148455047Y-91130476D01*
X148359809Y-91178095D01*
X149359809Y-91511428D02*
X150121714Y-91511428D01*
X146534428Y-93432380D02*
X146867761Y-94432380D01*
X147201095Y-93432380D01*
X148105857Y-94432380D02*
X147772523Y-93956190D01*
X147534428Y-94432380D02*
X147534428Y-93432380D01*
X147915380Y-93432380D01*
X148010619Y-93480000D01*
X148058238Y-93527619D01*
X148105857Y-93622857D01*
X148105857Y-93765714D01*
X148058238Y-93860952D01*
X148010619Y-93908571D01*
X147915380Y-93956190D01*
X147534428Y-93956190D01*
X148486809Y-93527619D02*
X148534428Y-93480000D01*
X148629666Y-93432380D01*
X148867761Y-93432380D01*
X148963000Y-93480000D01*
X149010619Y-93527619D01*
X149058238Y-93622857D01*
X149058238Y-93718095D01*
X149010619Y-93860952D01*
X148439190Y-94432380D01*
X149058238Y-94432380D01*
X149486809Y-94051428D02*
X150248714Y-94051428D01*
X146534428Y-95972380D02*
X146867761Y-96972380D01*
X147201095Y-95972380D01*
X148105857Y-96972380D02*
X147772523Y-96496190D01*
X147534428Y-96972380D02*
X147534428Y-95972380D01*
X147915380Y-95972380D01*
X148010619Y-96020000D01*
X148058238Y-96067619D01*
X148105857Y-96162857D01*
X148105857Y-96305714D01*
X148058238Y-96400952D01*
X148010619Y-96448571D01*
X147915380Y-96496190D01*
X147534428Y-96496190D01*
X149058238Y-96972380D02*
X148486809Y-96972380D01*
X148772523Y-96972380D02*
X148772523Y-95972380D01*
X148677285Y-96115238D01*
X148582047Y-96210476D01*
X148486809Y-96258095D01*
X149486809Y-96591428D02*
X150248714Y-96591428D01*
X149867761Y-96972380D02*
X149867761Y-96210476D01*
X146534428Y-98512380D02*
X146867761Y-99512380D01*
X147201095Y-98512380D01*
X148105857Y-99512380D02*
X147772523Y-99036190D01*
X147534428Y-99512380D02*
X147534428Y-98512380D01*
X147915380Y-98512380D01*
X148010619Y-98560000D01*
X148058238Y-98607619D01*
X148105857Y-98702857D01*
X148105857Y-98845714D01*
X148058238Y-98940952D01*
X148010619Y-98988571D01*
X147915380Y-99036190D01*
X147534428Y-99036190D01*
X148486809Y-98607619D02*
X148534428Y-98560000D01*
X148629666Y-98512380D01*
X148867761Y-98512380D01*
X148963000Y-98560000D01*
X149010619Y-98607619D01*
X149058238Y-98702857D01*
X149058238Y-98798095D01*
X149010619Y-98940952D01*
X148439190Y-99512380D01*
X149058238Y-99512380D01*
X149486809Y-99131428D02*
X150248714Y-99131428D01*
X149867761Y-99512380D02*
X149867761Y-98750476D01*
X147947142Y-101100000D02*
X147851904Y-101052380D01*
X147709047Y-101052380D01*
X147566190Y-101100000D01*
X147470952Y-101195238D01*
X147423333Y-101290476D01*
X147375714Y-101480952D01*
X147375714Y-101623809D01*
X147423333Y-101814285D01*
X147470952Y-101909523D01*
X147566190Y-102004761D01*
X147709047Y-102052380D01*
X147804285Y-102052380D01*
X147947142Y-102004761D01*
X147994761Y-101957142D01*
X147994761Y-101623809D01*
X147804285Y-101623809D01*
X148423333Y-101385714D02*
X148423333Y-102052380D01*
X148423333Y-101480952D02*
X148470952Y-101433333D01*
X148566190Y-101385714D01*
X148709047Y-101385714D01*
X148804285Y-101433333D01*
X148851904Y-101528571D01*
X148851904Y-102052380D01*
X149756666Y-102052380D02*
X149756666Y-101052380D01*
X149756666Y-102004761D02*
X149661428Y-102052380D01*
X149470952Y-102052380D01*
X149375714Y-102004761D01*
X149328095Y-101957142D01*
X149280476Y-101861904D01*
X149280476Y-101576190D01*
X149328095Y-101480952D01*
X149375714Y-101433333D01*
X149470952Y-101385714D01*
X149661428Y-101385714D01*
X149756666Y-101433333D01*
X147328095Y-103592380D02*
X147899523Y-103592380D01*
X147613809Y-104592380D02*
X147613809Y-103592380D01*
X148232857Y-104592380D02*
X148232857Y-103592380D01*
X148613809Y-103592380D01*
X148709047Y-103640000D01*
X148756666Y-103687619D01*
X148804285Y-103782857D01*
X148804285Y-103925714D01*
X148756666Y-104020952D01*
X148709047Y-104068571D01*
X148613809Y-104116190D01*
X148232857Y-104116190D01*
X149185238Y-104544761D02*
X149328095Y-104592380D01*
X149566190Y-104592380D01*
X149661428Y-104544761D01*
X149709047Y-104497142D01*
X149756666Y-104401904D01*
X149756666Y-104306666D01*
X149709047Y-104211428D01*
X149661428Y-104163809D01*
X149566190Y-104116190D01*
X149375714Y-104068571D01*
X149280476Y-104020952D01*
X149232857Y-103973333D01*
X149185238Y-103878095D01*
X149185238Y-103782857D01*
X149232857Y-103687619D01*
X149280476Y-103640000D01*
X149375714Y-103592380D01*
X149613809Y-103592380D01*
X149756666Y-103640000D01*
X148018571Y-106132380D02*
X148209047Y-106132380D01*
X148304285Y-106180000D01*
X148399523Y-106275238D01*
X148447142Y-106465714D01*
X148447142Y-106799047D01*
X148399523Y-106989523D01*
X148304285Y-107084761D01*
X148209047Y-107132380D01*
X148018571Y-107132380D01*
X147923333Y-107084761D01*
X147828095Y-106989523D01*
X147780476Y-106799047D01*
X147780476Y-106465714D01*
X147828095Y-106275238D01*
X147923333Y-106180000D01*
X148018571Y-106132380D01*
X148828095Y-106227619D02*
X148875714Y-106180000D01*
X148970952Y-106132380D01*
X149209047Y-106132380D01*
X149304285Y-106180000D01*
X149351904Y-106227619D01*
X149399523Y-106322857D01*
X149399523Y-106418095D01*
X149351904Y-106560952D01*
X148780476Y-107132380D01*
X149399523Y-107132380D01*
X127460476Y-107132380D02*
X127460476Y-106132380D01*
X127889047Y-106846666D02*
X128365238Y-106846666D01*
X127793809Y-107132380D02*
X128127142Y-106132380D01*
X128460476Y-107132380D01*
X128650952Y-106132380D02*
X129222380Y-106132380D01*
X128936666Y-107132380D02*
X128936666Y-106132380D01*
X127793809Y-104497142D02*
X127746190Y-104544761D01*
X127603333Y-104592380D01*
X127508095Y-104592380D01*
X127365238Y-104544761D01*
X127270000Y-104449523D01*
X127222380Y-104354285D01*
X127174761Y-104163809D01*
X127174761Y-104020952D01*
X127222380Y-103830476D01*
X127270000Y-103735238D01*
X127365238Y-103640000D01*
X127508095Y-103592380D01*
X127603333Y-103592380D01*
X127746190Y-103640000D01*
X127793809Y-103687619D01*
X128698571Y-104592380D02*
X128222380Y-104592380D01*
X128222380Y-103592380D01*
X128889047Y-103592380D02*
X129460476Y-103592380D01*
X129174761Y-104592380D02*
X129174761Y-103592380D01*
X127603333Y-102052380D02*
X127127142Y-102052380D01*
X127127142Y-101052380D01*
X128508095Y-101957142D02*
X128460476Y-102004761D01*
X128317619Y-102052380D01*
X128222380Y-102052380D01*
X128079523Y-102004761D01*
X127984285Y-101909523D01*
X127936666Y-101814285D01*
X127889047Y-101623809D01*
X127889047Y-101480952D01*
X127936666Y-101290476D01*
X127984285Y-101195238D01*
X128079523Y-101100000D01*
X128222380Y-101052380D01*
X128317619Y-101052380D01*
X128460476Y-101100000D01*
X128508095Y-101147619D01*
X129412857Y-101052380D02*
X128936666Y-101052380D01*
X128889047Y-101528571D01*
X128936666Y-101480952D01*
X129031904Y-101433333D01*
X129270000Y-101433333D01*
X129365238Y-101480952D01*
X129412857Y-101528571D01*
X129460476Y-101623809D01*
X129460476Y-101861904D01*
X129412857Y-101957142D01*
X129365238Y-102004761D01*
X129270000Y-102052380D01*
X129031904Y-102052380D01*
X128936666Y-102004761D01*
X128889047Y-101957142D01*
X127603333Y-99512380D02*
X127127142Y-99512380D01*
X127127142Y-98512380D01*
X128508095Y-99417142D02*
X128460476Y-99464761D01*
X128317619Y-99512380D01*
X128222380Y-99512380D01*
X128079523Y-99464761D01*
X127984285Y-99369523D01*
X127936666Y-99274285D01*
X127889047Y-99083809D01*
X127889047Y-98940952D01*
X127936666Y-98750476D01*
X127984285Y-98655238D01*
X128079523Y-98560000D01*
X128222380Y-98512380D01*
X128317619Y-98512380D01*
X128460476Y-98560000D01*
X128508095Y-98607619D01*
X129365238Y-98845714D02*
X129365238Y-99512380D01*
X129127142Y-98464761D02*
X128889047Y-99179047D01*
X129508095Y-99179047D01*
X127603333Y-96972380D02*
X127127142Y-96972380D01*
X127127142Y-95972380D01*
X128508095Y-96877142D02*
X128460476Y-96924761D01*
X128317619Y-96972380D01*
X128222380Y-96972380D01*
X128079523Y-96924761D01*
X127984285Y-96829523D01*
X127936666Y-96734285D01*
X127889047Y-96543809D01*
X127889047Y-96400952D01*
X127936666Y-96210476D01*
X127984285Y-96115238D01*
X128079523Y-96020000D01*
X128222380Y-95972380D01*
X128317619Y-95972380D01*
X128460476Y-96020000D01*
X128508095Y-96067619D01*
X128841428Y-95972380D02*
X129460476Y-95972380D01*
X129127142Y-96353333D01*
X129270000Y-96353333D01*
X129365238Y-96400952D01*
X129412857Y-96448571D01*
X129460476Y-96543809D01*
X129460476Y-96781904D01*
X129412857Y-96877142D01*
X129365238Y-96924761D01*
X129270000Y-96972380D01*
X128984285Y-96972380D01*
X128889047Y-96924761D01*
X128841428Y-96877142D01*
X127603333Y-94432380D02*
X127127142Y-94432380D01*
X127127142Y-93432380D01*
X128508095Y-94337142D02*
X128460476Y-94384761D01*
X128317619Y-94432380D01*
X128222380Y-94432380D01*
X128079523Y-94384761D01*
X127984285Y-94289523D01*
X127936666Y-94194285D01*
X127889047Y-94003809D01*
X127889047Y-93860952D01*
X127936666Y-93670476D01*
X127984285Y-93575238D01*
X128079523Y-93480000D01*
X128222380Y-93432380D01*
X128317619Y-93432380D01*
X128460476Y-93480000D01*
X128508095Y-93527619D01*
X128889047Y-93527619D02*
X128936666Y-93480000D01*
X129031904Y-93432380D01*
X129270000Y-93432380D01*
X129365238Y-93480000D01*
X129412857Y-93527619D01*
X129460476Y-93622857D01*
X129460476Y-93718095D01*
X129412857Y-93860952D01*
X128841428Y-94432380D01*
X129460476Y-94432380D01*
X127603333Y-91892380D02*
X127127142Y-91892380D01*
X127127142Y-90892380D01*
X128508095Y-91797142D02*
X128460476Y-91844761D01*
X128317619Y-91892380D01*
X128222380Y-91892380D01*
X128079523Y-91844761D01*
X127984285Y-91749523D01*
X127936666Y-91654285D01*
X127889047Y-91463809D01*
X127889047Y-91320952D01*
X127936666Y-91130476D01*
X127984285Y-91035238D01*
X128079523Y-90940000D01*
X128222380Y-90892380D01*
X128317619Y-90892380D01*
X128460476Y-90940000D01*
X128508095Y-90987619D01*
X129460476Y-91892380D02*
X128889047Y-91892380D01*
X129174761Y-91892380D02*
X129174761Y-90892380D01*
X129079523Y-91035238D01*
X128984285Y-91130476D01*
X128889047Y-91178095D01*
X128079523Y-88352380D02*
X127603333Y-88352380D01*
X127555714Y-88828571D01*
X127603333Y-88780952D01*
X127698571Y-88733333D01*
X127936666Y-88733333D01*
X128031904Y-88780952D01*
X128079523Y-88828571D01*
X128127142Y-88923809D01*
X128127142Y-89161904D01*
X128079523Y-89257142D01*
X128031904Y-89304761D01*
X127936666Y-89352380D01*
X127698571Y-89352380D01*
X127603333Y-89304761D01*
X127555714Y-89257142D01*
X128412857Y-88352380D02*
X128746190Y-89352380D01*
X129079523Y-88352380D01*
X127627142Y-85860000D02*
X127531904Y-85812380D01*
X127389047Y-85812380D01*
X127246190Y-85860000D01*
X127150952Y-85955238D01*
X127103333Y-86050476D01*
X127055714Y-86240952D01*
X127055714Y-86383809D01*
X127103333Y-86574285D01*
X127150952Y-86669523D01*
X127246190Y-86764761D01*
X127389047Y-86812380D01*
X127484285Y-86812380D01*
X127627142Y-86764761D01*
X127674761Y-86717142D01*
X127674761Y-86383809D01*
X127484285Y-86383809D01*
X128103333Y-86145714D02*
X128103333Y-86812380D01*
X128103333Y-86240952D02*
X128150952Y-86193333D01*
X128246190Y-86145714D01*
X128389047Y-86145714D01*
X128484285Y-86193333D01*
X128531904Y-86288571D01*
X128531904Y-86812380D01*
X129436666Y-86812380D02*
X129436666Y-85812380D01*
X129436666Y-86764761D02*
X129341428Y-86812380D01*
X129150952Y-86812380D01*
X129055714Y-86764761D01*
X129008095Y-86717142D01*
X128960476Y-86621904D01*
X128960476Y-86336190D01*
X129008095Y-86240952D01*
X129055714Y-86193333D01*
X129150952Y-86145714D01*
X129341428Y-86145714D01*
X129436666Y-86193333D01*
X127008095Y-84272380D02*
X127008095Y-83272380D01*
X127341428Y-83986666D01*
X127674761Y-83272380D01*
X127674761Y-84272380D01*
X128103333Y-83986666D02*
X128579523Y-83986666D01*
X128008095Y-84272380D02*
X128341428Y-83272380D01*
X128674761Y-84272380D01*
X129008095Y-84272380D02*
X129008095Y-83272380D01*
X129389047Y-83272380D01*
X129484285Y-83320000D01*
X129531904Y-83367619D01*
X129579523Y-83462857D01*
X129579523Y-83605714D01*
X129531904Y-83700952D01*
X129484285Y-83748571D01*
X129389047Y-83796190D01*
X129008095Y-83796190D01*
X127627142Y-80780000D02*
X127531904Y-80732380D01*
X127389047Y-80732380D01*
X127246190Y-80780000D01*
X127150952Y-80875238D01*
X127103333Y-80970476D01*
X127055714Y-81160952D01*
X127055714Y-81303809D01*
X127103333Y-81494285D01*
X127150952Y-81589523D01*
X127246190Y-81684761D01*
X127389047Y-81732380D01*
X127484285Y-81732380D01*
X127627142Y-81684761D01*
X127674761Y-81637142D01*
X127674761Y-81303809D01*
X127484285Y-81303809D01*
X128103333Y-81065714D02*
X128103333Y-81732380D01*
X128103333Y-81160952D02*
X128150952Y-81113333D01*
X128246190Y-81065714D01*
X128389047Y-81065714D01*
X128484285Y-81113333D01*
X128531904Y-81208571D01*
X128531904Y-81732380D01*
X129436666Y-81732380D02*
X129436666Y-80732380D01*
X129436666Y-81684761D02*
X129341428Y-81732380D01*
X129150952Y-81732380D01*
X129055714Y-81684761D01*
X129008095Y-81637142D01*
X128960476Y-81541904D01*
X128960476Y-81256190D01*
X129008095Y-81160952D01*
X129055714Y-81113333D01*
X129150952Y-81065714D01*
X129341428Y-81065714D01*
X129436666Y-81113333D01*
X127627142Y-78240000D02*
X127531904Y-78192380D01*
X127389047Y-78192380D01*
X127246190Y-78240000D01*
X127150952Y-78335238D01*
X127103333Y-78430476D01*
X127055714Y-78620952D01*
X127055714Y-78763809D01*
X127103333Y-78954285D01*
X127150952Y-79049523D01*
X127246190Y-79144761D01*
X127389047Y-79192380D01*
X127484285Y-79192380D01*
X127627142Y-79144761D01*
X127674761Y-79097142D01*
X127674761Y-78763809D01*
X127484285Y-78763809D01*
X128103333Y-78525714D02*
X128103333Y-79192380D01*
X128103333Y-78620952D02*
X128150952Y-78573333D01*
X128246190Y-78525714D01*
X128389047Y-78525714D01*
X128484285Y-78573333D01*
X128531904Y-78668571D01*
X128531904Y-79192380D01*
X129436666Y-79192380D02*
X129436666Y-78192380D01*
X129436666Y-79144761D02*
X129341428Y-79192380D01*
X129150952Y-79192380D01*
X129055714Y-79144761D01*
X129008095Y-79097142D01*
X128960476Y-79001904D01*
X128960476Y-78716190D01*
X129008095Y-78620952D01*
X129055714Y-78573333D01*
X129150952Y-78525714D01*
X129341428Y-78525714D01*
X129436666Y-78573333D01*
X126770000Y-76652380D02*
X126770000Y-75652380D01*
X127770000Y-75700000D02*
X127674761Y-75652380D01*
X127531904Y-75652380D01*
X127389047Y-75700000D01*
X127293809Y-75795238D01*
X127246190Y-75890476D01*
X127198571Y-76080952D01*
X127198571Y-76223809D01*
X127246190Y-76414285D01*
X127293809Y-76509523D01*
X127389047Y-76604761D01*
X127531904Y-76652380D01*
X127627142Y-76652380D01*
X127770000Y-76604761D01*
X127817619Y-76557142D01*
X127817619Y-76223809D01*
X127627142Y-76223809D01*
X128246190Y-76652380D02*
X128246190Y-75652380D01*
X128817619Y-76652380D01*
X128817619Y-75652380D01*
X129722380Y-75985714D02*
X129722380Y-76652380D01*
X129484285Y-75604761D02*
X129246190Y-76319047D01*
X129865238Y-76319047D01*
X126770000Y-74112380D02*
X126770000Y-73112380D01*
X127770000Y-73160000D02*
X127674761Y-73112380D01*
X127531904Y-73112380D01*
X127389047Y-73160000D01*
X127293809Y-73255238D01*
X127246190Y-73350476D01*
X127198571Y-73540952D01*
X127198571Y-73683809D01*
X127246190Y-73874285D01*
X127293809Y-73969523D01*
X127389047Y-74064761D01*
X127531904Y-74112380D01*
X127627142Y-74112380D01*
X127770000Y-74064761D01*
X127817619Y-74017142D01*
X127817619Y-73683809D01*
X127627142Y-73683809D01*
X128246190Y-74112380D02*
X128246190Y-73112380D01*
X128817619Y-74112380D01*
X128817619Y-73112380D01*
X129817619Y-74112380D02*
X129246190Y-74112380D01*
X129531904Y-74112380D02*
X129531904Y-73112380D01*
X129436666Y-73255238D01*
X129341428Y-73350476D01*
X129246190Y-73398095D01*
X126889047Y-71572380D02*
X126889047Y-70572380D01*
X127365238Y-71572380D02*
X127365238Y-70572380D01*
X127936666Y-71572380D01*
X127936666Y-70572380D01*
X128698571Y-70572380D02*
X128698571Y-71286666D01*
X128650952Y-71429523D01*
X128555714Y-71524761D01*
X128412857Y-71572380D01*
X128317619Y-71572380D01*
X129603333Y-70905714D02*
X129603333Y-71572380D01*
X129365238Y-70524761D02*
X129127142Y-71239047D01*
X129746190Y-71239047D01*
X126889047Y-66492380D02*
X126889047Y-65492380D01*
X127365238Y-66492380D02*
X127365238Y-65492380D01*
X127936666Y-66492380D01*
X127936666Y-65492380D01*
X128698571Y-65492380D02*
X128698571Y-66206666D01*
X128650952Y-66349523D01*
X128555714Y-66444761D01*
X128412857Y-66492380D01*
X128317619Y-66492380D01*
X129079523Y-65492380D02*
X129698571Y-65492380D01*
X129365238Y-65873333D01*
X129508095Y-65873333D01*
X129603333Y-65920952D01*
X129650952Y-65968571D01*
X129698571Y-66063809D01*
X129698571Y-66301904D01*
X129650952Y-66397142D01*
X129603333Y-66444761D01*
X129508095Y-66492380D01*
X129222380Y-66492380D01*
X129127142Y-66444761D01*
X129079523Y-66397142D01*
X126889047Y-69032380D02*
X126889047Y-68032380D01*
X127365238Y-69032380D02*
X127365238Y-68032380D01*
X127936666Y-69032380D01*
X127936666Y-68032380D01*
X128698571Y-68032380D02*
X128698571Y-68746666D01*
X128650952Y-68889523D01*
X128555714Y-68984761D01*
X128412857Y-69032380D01*
X128317619Y-69032380D01*
X129603333Y-68365714D02*
X129603333Y-69032380D01*
X129365238Y-67984761D02*
X129127142Y-68699047D01*
X129746190Y-68699047D01*
X126889047Y-63952380D02*
X126889047Y-62952380D01*
X127365238Y-63952380D02*
X127365238Y-62952380D01*
X127936666Y-63952380D01*
X127936666Y-62952380D01*
X128698571Y-62952380D02*
X128698571Y-63666666D01*
X128650952Y-63809523D01*
X128555714Y-63904761D01*
X128412857Y-63952380D01*
X128317619Y-63952380D01*
X129079523Y-62952380D02*
X129698571Y-62952380D01*
X129365238Y-63333333D01*
X129508095Y-63333333D01*
X129603333Y-63380952D01*
X129650952Y-63428571D01*
X129698571Y-63523809D01*
X129698571Y-63761904D01*
X129650952Y-63857142D01*
X129603333Y-63904761D01*
X129508095Y-63952380D01*
X129222380Y-63952380D01*
X129127142Y-63904761D01*
X129079523Y-63857142D01*
X126889047Y-61412380D02*
X126889047Y-60412380D01*
X127365238Y-61412380D02*
X127365238Y-60412380D01*
X127936666Y-61412380D01*
X127936666Y-60412380D01*
X128698571Y-60412380D02*
X128698571Y-61126666D01*
X128650952Y-61269523D01*
X128555714Y-61364761D01*
X128412857Y-61412380D01*
X128317619Y-61412380D01*
X129127142Y-60507619D02*
X129174761Y-60460000D01*
X129270000Y-60412380D01*
X129508095Y-60412380D01*
X129603333Y-60460000D01*
X129650952Y-60507619D01*
X129698571Y-60602857D01*
X129698571Y-60698095D01*
X129650952Y-60840952D01*
X129079523Y-61412380D01*
X129698571Y-61412380D01*
X126889047Y-58872380D02*
X126889047Y-57872380D01*
X127365238Y-58872380D02*
X127365238Y-57872380D01*
X127936666Y-58872380D01*
X127936666Y-57872380D01*
X128698571Y-57872380D02*
X128698571Y-58586666D01*
X128650952Y-58729523D01*
X128555714Y-58824761D01*
X128412857Y-58872380D01*
X128317619Y-58872380D01*
X129698571Y-58872380D02*
X129127142Y-58872380D01*
X129412857Y-58872380D02*
X129412857Y-57872380D01*
X129317619Y-58015238D01*
X129222380Y-58110476D01*
X129127142Y-58158095D01*
D11*
%TO.C,J2*%
X135830000Y-107756000D02*
X141030000Y-107756000D01*
X135830000Y-59436000D02*
X135830000Y-107756000D01*
X141030000Y-56836000D02*
X141030000Y-107756000D01*
X135830000Y-59436000D02*
X138430000Y-59436000D01*
X138430000Y-59436000D02*
X138430000Y-56836000D01*
X138430000Y-56836000D02*
X141030000Y-56836000D01*
X135830000Y-58166000D02*
X135830000Y-56836000D01*
X135830000Y-56836000D02*
X137160000Y-56836000D01*
%TO.C,J3*%
X143450000Y-107756000D02*
X146110000Y-107756000D01*
X143450000Y-59436000D02*
X143450000Y-107756000D01*
X146110000Y-59436000D02*
X146110000Y-107756000D01*
X143450000Y-59436000D02*
X146110000Y-59436000D01*
X143450000Y-58166000D02*
X143450000Y-56836000D01*
X143450000Y-56836000D02*
X144780000Y-56836000D01*
%TO.C,J1*%
X130750000Y-107756000D02*
X133410000Y-107756000D01*
X130750000Y-59436000D02*
X130750000Y-107756000D01*
X133410000Y-59436000D02*
X133410000Y-107756000D01*
X130750000Y-59436000D02*
X133410000Y-59436000D01*
X130750000Y-58166000D02*
X130750000Y-56836000D01*
X130750000Y-56836000D02*
X132080000Y-56836000D01*
%TO.C,J2*%
D10*
X138096666Y-55288380D02*
X138096666Y-56002666D01*
X138049047Y-56145523D01*
X137953809Y-56240761D01*
X137810952Y-56288380D01*
X137715714Y-56288380D01*
X138525238Y-55383619D02*
X138572857Y-55336000D01*
X138668095Y-55288380D01*
X138906190Y-55288380D01*
X139001428Y-55336000D01*
X139049047Y-55383619D01*
X139096666Y-55478857D01*
X139096666Y-55574095D01*
X139049047Y-55716952D01*
X138477619Y-56288380D01*
X139096666Y-56288380D01*
%TO.C,J3*%
X144446666Y-55288380D02*
X144446666Y-56002666D01*
X144399047Y-56145523D01*
X144303809Y-56240761D01*
X144160952Y-56288380D01*
X144065714Y-56288380D01*
X144827619Y-55288380D02*
X145446666Y-55288380D01*
X145113333Y-55669333D01*
X145256190Y-55669333D01*
X145351428Y-55716952D01*
X145399047Y-55764571D01*
X145446666Y-55859809D01*
X145446666Y-56097904D01*
X145399047Y-56193142D01*
X145351428Y-56240761D01*
X145256190Y-56288380D01*
X144970476Y-56288380D01*
X144875238Y-56240761D01*
X144827619Y-56193142D01*
%TO.C,J1*%
X131746666Y-55288380D02*
X131746666Y-56002666D01*
X131699047Y-56145523D01*
X131603809Y-56240761D01*
X131460952Y-56288380D01*
X131365714Y-56288380D01*
X132746666Y-56288380D02*
X132175238Y-56288380D01*
X132460952Y-56288380D02*
X132460952Y-55288380D01*
X132365714Y-55431238D01*
X132270476Y-55526476D01*
X132175238Y-55574095D01*
%TD*%
M02*
